<?xml version="1.0" encoding="utf-8" ?>
<svg baseProfile="full" height="950px" version="1.1" viewBox="0 0 1400 950" width="1400px" xmlns="http://www.w3.org/2000/svg" xmlns:ev="http://www.w3.org/2001/xml-events" xmlns:xlink="http://www.w3.org/1999/xlink"><defs /><rect fill="#0a0b0f" height="950" width="1400" x="0" y="0" /><text fill="#f0f2f5" font-family="Arial" font-size="16" font-weight="bold" text-anchor="middle" x="700.0" y="24">MARLIE 1 — LAFAYETTE AI FACTORY &amp; COMMAND CENTER</text><text fill="#3b82f6" font-family="Arial" font-size="10" font-weight="bold" text-anchor="middle" x="700.0" y="40">COOLING FLOW SCHEMATIC | DRY COOLERS ONLY | 2 CDU PAIRS | LIQUID-COOLED GPU RACKS</text><text fill="#6b7280" font-family="Arial" font-size="9" text-anchor="middle" x="700.0" y="54">Sheet C-001 | Design Intent | 2026-04-02 | NOT FOR CONSTRUCTION</text><g><rect fill="#1a1a2e" height="180" rx="4" ry="4" stroke="#22c55e" stroke-width="1.5" width="160" x="30" y="100" /><text fill="#22c55e" font-family="Arial" font-size="11" font-weight="bold" text-anchor="middle" x="110.0" y="134.0">BAC TrilliumSeries</text><text fill="#22c55e" font-family="Arial" font-size="10" font-weight="normal" text-anchor="middle" x="110.0" y="148.0">ADIABATIC COOLER</text><text fill="#22c55e" font-family="Arial" font-size="10" font-weight="normal" text-anchor="middle" x="110.0" y="162.0">(Concrete Pad)</text><text fill="#22c55e" font-family="Arial" font-size="10" font-weight="normal" text-anchor="middle" x="110.0" y="176.0" /><text fill="#22c55e" font-family="Arial" font-size="10" font-weight="normal" text-anchor="middle" x="110.0" y="190.0">Fan-Assisted</text><text fill="#22c55e" font-family="Arial" font-size="10" font-weight="normal" text-anchor="middle" x="110.0" y="204.0">Adiabatic</text><text fill="#22c55e" font-family="Arial" font-size="10" font-weight="normal" text-anchor="middle" x="110.0" y="218.0">Heat Rejection</text><text fill="#22c55e" font-family="Arial" font-size="10" font-weight="normal" text-anchor="middle" x="110.0" y="232.0" /><text fill="#22c55e" font-family="Arial" font-size="10" font-weight="normal" text-anchor="middle" x="110.0" y="246.0">No Water Tower</text><text fill="#22c55e" font-family="Arial" font-size="10" font-weight="normal" text-anchor="middle" x="110.0" y="260.0">No River</text><text fill="#6b7280" font-family="Arial" font-size="8" text-anchor="middle" x="110.0" y="276">Infrastructure Yard | Outdoor</text></g><text fill="#22c55e" font-family="Arial" font-size="9" font-weight="bold" x="35" y="300">Ambient Rejection</text><text fill="#6b7280" font-family="Arial" font-size="8" x="35" y="315">Louisiana peak: ~95F ambient</text><text fill="#6b7280" font-family="Arial" font-size="8" x="35" y="328">Capacity: ~2,760 kW rejection</text><text fill="#6b7280" font-family="Arial" font-size="8" x="35" y="341">Headroom for hot days + expansion</text><polyline fill="none" points="190,160 260,160" stroke="#4fc3f7" stroke-width="4" /><polygon fill="#4fc3f7" points="258,155 258,165 266,160" /><text fill="#4fc3f7" font-family="Arial" font-size="9" font-weight="bold" x="195" y="150">COLD SUPPLY 30-35C (86-95F)</text><g><rect fill="#1a1a2e" height="100" rx="4" ry="4" stroke="#22c55e" stroke-width="1.5" width="180" x="260" y="90" /><text fill="#86efac" font-family="Arial" font-size="11" font-weight="bold" text-anchor="middle" x="350.0" y="112.0">FACILITY</text><text fill="#86efac" font-family="Arial" font-size="10" font-weight="normal" text-anchor="middle" x="350.0" y="126.0">COOLING LOOP</text><text fill="#86efac" font-family="Arial" font-size="10" font-weight="normal" text-anchor="middle" x="350.0" y="140.0" /><text fill="#86efac" font-family="Arial" font-size="10" font-weight="normal" text-anchor="middle" x="350.0" y="154.0">Treated Water/Glycol</text><text fill="#86efac" font-family="Arial" font-size="10" font-weight="normal" text-anchor="middle" x="350.0" y="168.0">Circulation Pumps</text><text fill="#86efac" font-family="Arial" font-size="10" font-weight="normal" text-anchor="middle" x="350.0" y="182.0">Flow Control</text></g><text fill="#6b7280" font-family="Arial" font-size="8" x="260" y="78">Inside building — mechanical room</text><polyline fill="none" points="350,190 350,220 130,220 130,280" stroke="#ff6b6b" stroke-width="3" /><text fill="#ff6b6b" font-family="Arial" font-size="9" font-weight="bold" x="230" y="215">HOT RETURN TO DRY COOLERS 50-55C (122-131F)</text><polyline fill="none" points="440,130 520,130" stroke="#22c55e" stroke-width="3" /><polygon fill="#22c55e" points="518,125 518,135 526,130" /><text fill="#22c55e" font-family="Arial" font-size="9" font-weight="bold" x="445" y="120">FACILITY LOOP 30-35C</text><g><rect fill="#1a1a2e" height="110" rx="4" ry="4" stroke="#76b900" stroke-width="1.5" width="160" x="520" y="80" /><text fill="#76b900" font-family="Arial" font-size="11" font-weight="bold" text-anchor="middle" x="600.0" y="93.0">FLOOR 1</text><text fill="#76b900" font-family="Arial" font-size="10" font-weight="normal" text-anchor="middle" x="600.0" y="107.0">CoolIT CHx200 (200 kW)</text><text fill="#76b900" font-family="Arial" font-size="10" font-weight="normal" text-anchor="middle" x="600.0" y="121.0">CDU PAIR (N+1)</text><text fill="#76b900" font-family="Arial" font-size="10" font-weight="normal" text-anchor="middle" x="600.0" y="135.0" /><text fill="#76b900" font-family="Arial" font-size="10" font-weight="normal" text-anchor="middle" x="600.0" y="149.0">Staubli UQD</text><text fill="#76b900" font-family="Arial" font-size="10" font-weight="normal" text-anchor="middle" x="600.0" y="163.0">Quick-Disconnect</text><text fill="#76b900" font-family="Arial" font-size="10" font-weight="normal" text-anchor="middle" x="600.0" y="177.0" /><text fill="#76b900" font-family="Arial" font-size="10" font-weight="normal" text-anchor="middle" x="600.0" y="191.0">Pumps + Controls</text><text fill="#6b7280" font-family="Arial" font-size="8" text-anchor="middle" x="600.0" y="186">Downstairs — System 1</text></g><polyline fill="none" points="680,110 710,110" stroke="#76b900" stroke-width="3" /><polygon fill="#76b900" points="708,105 708,115 716,110" /><g><rect fill="#1a1a2e" height="60" rx="4" ry="4" stroke="#00bcd4" stroke-width="1.5" width="100" x="710" y="85" /><text fill="#00e5ff" font-family="Arial" font-size="8" font-weight="bold" text-anchor="middle" x="760.0" y="108.0">DELTA 140 kW</text><text fill="#00e5ff" font-family="Arial" font-size="7" font-weight="normal" text-anchor="middle" x="760.0" y="122.0">IN-RACK CDU</text><text fill="#00e5ff" font-family="Arial" font-size="7" font-weight="normal" text-anchor="middle" x="760.0" y="136.0">4RU | NVL72 Cert</text><text fill="#6b7280" font-family="Arial" font-size="8" text-anchor="middle" x="760.0" y="141">Per-rack precision</text></g><polyline fill="none" points="810,110 850,110" stroke="#76b900" stroke-width="3" /><polygon fill="#76b900" points="848,105 848,115 856,110" /><text fill="#76b900" font-family="Arial" font-size="9" font-weight="bold" x="815" y="100">45C (113F)</text><g><rect fill="#1a1a2e" height="40" rx="4" ry="4" stroke="#76b900" stroke-width="1.5" width="100" x="850" y="80" /><text fill="#76b900" font-family="Arial" font-size="9" font-weight="bold" text-anchor="middle" x="900.0" y="100.0">SUPPLY</text><text fill="#76b900" font-family="Arial" font-size="8" font-weight="normal" text-anchor="middle" x="900.0" y="114.0">MANIFOLD</text></g><polyline fill="none" points="900,120 900,130" stroke="#76b900" stroke-width="2" /><g><rect fill="#111a00" height="45" rx="4" ry="4" stroke="#76b900" stroke-width="1.5" width="100" x="850" y="130" /><text fill="#76b900" font-family="Arial" font-size="9" font-weight="bold" text-anchor="middle" x="900.0" y="152.5">NVL72 R1</text><text fill="#76b900" font-family="Arial" font-size="8" font-weight="normal" text-anchor="middle" x="900.0" y="166.5">230 kW</text><text fill="#6b7280" font-family="Arial" font-size="8" text-anchor="middle" x="900.0" y="171">Cold plates on GPU/HBM</text></g><polyline fill="none" points="950,152 980,152" stroke="#ff6b6b" stroke-width="2" /><polyline fill="none" points="900,120 900,190" stroke="#76b900" stroke-width="2" /><g><rect fill="#111a00" height="45" rx="4" ry="4" stroke="#76b900" stroke-width="1.5" width="100" x="850" y="190" /><text fill="#76b900" font-family="Arial" font-size="9" font-weight="bold" text-anchor="middle" x="900.0" y="212.5">NVL72 R2</text><text fill="#76b900" font-family="Arial" font-size="8" font-weight="normal" text-anchor="middle" x="900.0" y="226.5">230 kW</text><text fill="#6b7280" font-family="Arial" font-size="8" text-anchor="middle" x="900.0" y="231">Cold plates on GPU/HBM</text></g><polyline fill="none" points="950,212 980,212" stroke="#ff6b6b" stroke-width="2" /><polyline fill="none" points="900,120 900,250" stroke="#76b900" stroke-width="2" /><g><rect fill="#111a00" height="45" rx="4" ry="4" stroke="#76b900" stroke-width="1.5" width="100" x="850" y="250" /><text fill="#76b900" font-family="Arial" font-size="9" font-weight="bold" text-anchor="middle" x="900.0" y="272.5">NVL72 R3</text><text fill="#76b900" font-family="Arial" font-size="8" font-weight="normal" text-anchor="middle" x="900.0" y="286.5">230 kW</text><text fill="#6b7280" font-family="Arial" font-size="8" text-anchor="middle" x="900.0" y="291">Cold plates on GPU/HBM</text></g><polyline fill="none" points="950,272 980,272" stroke="#ff6b6b" stroke-width="2" /><polyline fill="none" points="900,120 900,310" stroke="#76b900" stroke-width="2" /><g><rect fill="#111a00" height="45" rx="4" ry="4" stroke="#76b900" stroke-width="1.5" width="100" x="850" y="310" /><text fill="#76b900" font-family="Arial" font-size="9" font-weight="bold" text-anchor="middle" x="900.0" y="332.5">NVL72 R4</text><text fill="#76b900" font-family="Arial" font-size="8" font-weight="normal" text-anchor="middle" x="900.0" y="346.5">230 kW</text><text fill="#6b7280" font-family="Arial" font-size="8" text-anchor="middle" x="900.0" y="351">Cold plates on GPU/HBM</text></g><polyline fill="none" points="950,332 980,332" stroke="#ff6b6b" stroke-width="2" /><g><rect fill="#1a1a2e" height="40" rx="4" ry="4" stroke="#ff6b6b" stroke-width="1.5" width="100" x="980" y="80" /><text fill="#ff6b6b" font-family="Arial" font-size="9" font-weight="bold" text-anchor="middle" x="1030.0" y="100.0">RETURN</text><text fill="#ff6b6b" font-family="Arial" font-size="8" font-weight="normal" text-anchor="middle" x="1030.0" y="114.0">MANIFOLD</text></g><polyline fill="none" points="1030,152 1030,120" stroke="#ff6b6b" stroke-width="2" /><polyline fill="none" points="1030,212 1030,120" stroke="#ff6b6b" stroke-width="2" /><polyline fill="none" points="1030,272 1030,120" stroke="#ff6b6b" stroke-width="2" /><polyline fill="none" points="1030,332 1030,120" stroke="#ff6b6b" stroke-width="2" /><polyline fill="none" points="1030,120 1030,380 600,380 600,190" stroke="#ff6b6b" stroke-width="3" /><text fill="#ff6b6b" font-family="Arial" font-size="9" font-weight="bold" x="1040" y="375">RETURN 55-60C (131-140F)</text><polyline fill="none" points="520,170 440,170" stroke="#ff6b6b" stroke-width="3" /><text fill="#ff6b6b" font-family="Arial" font-size="9" font-weight="bold" x="445" y="165">CDU1 RETURN</text><polyline fill="none" points="440,460 520,460" stroke="#22c55e" stroke-width="3" /><polygon fill="#22c55e" points="518,455 518,465 526,460" /><text fill="#22c55e" font-family="Arial" font-size="9" font-weight="bold" x="445" y="450">FACILITY LOOP 30-35C</text><polyline fill="none" points="310,190 310,460 440,460" stroke="#22c55e" stroke-width="3" /><g><rect fill="#1a1a2e" height="110" rx="4" ry="4" stroke="#76b900" stroke-width="1.5" width="160" x="520" y="430" /><text fill="#76b900" font-family="Arial" font-size="11" font-weight="bold" text-anchor="middle" x="600.0" y="443.0">FLOOR 2</text><text fill="#76b900" font-family="Arial" font-size="10" font-weight="normal" text-anchor="middle" x="600.0" y="457.0">CoolIT CHx200 (200 kW)</text><text fill="#76b900" font-family="Arial" font-size="10" font-weight="normal" text-anchor="middle" x="600.0" y="471.0">CDU PAIR (N+1)</text><text fill="#76b900" font-family="Arial" font-size="10" font-weight="normal" text-anchor="middle" x="600.0" y="485.0" /><text fill="#76b900" font-family="Arial" font-size="10" font-weight="normal" text-anchor="middle" x="600.0" y="499.0">Staubli UQD</text><text fill="#76b900" font-family="Arial" font-size="10" font-weight="normal" text-anchor="middle" x="600.0" y="513.0">Quick-Disconnect</text><text fill="#76b900" font-family="Arial" font-size="10" font-weight="normal" text-anchor="middle" x="600.0" y="527.0" /><text fill="#76b900" font-family="Arial" font-size="10" font-weight="normal" text-anchor="middle" x="600.0" y="541.0">Pumps + Controls</text><text fill="#6b7280" font-family="Arial" font-size="8" text-anchor="middle" x="600.0" y="536">Upstairs — System 2</text></g><polyline fill="none" points="680,460 710,460" stroke="#76b900" stroke-width="3" /><polygon fill="#76b900" points="708,455 708,465 716,460" /><g><rect fill="#1a1a2e" height="60" rx="4" ry="4" stroke="#00bcd4" stroke-width="1.5" width="100" x="710" y="435" /><text fill="#00e5ff" font-family="Arial" font-size="8" font-weight="bold" text-anchor="middle" x="760.0" y="458.0">DELTA 140 kW</text><text fill="#00e5ff" font-family="Arial" font-size="7" font-weight="normal" text-anchor="middle" x="760.0" y="472.0">IN-RACK CDU</text><text fill="#00e5ff" font-family="Arial" font-size="7" font-weight="normal" text-anchor="middle" x="760.0" y="486.0">4RU | NVL72 Cert</text><text fill="#6b7280" font-family="Arial" font-size="8" text-anchor="middle" x="760.0" y="491">Per-rack precision</text></g><polyline fill="none" points="810,460 850,460" stroke="#76b900" stroke-width="3" /><polygon fill="#76b900" points="848,455 848,465 856,460" /><text fill="#76b900" font-family="Arial" font-size="9" font-weight="bold" x="815" y="450">45C (113F)</text><g><rect fill="#1a1a2e" height="40" rx="4" ry="4" stroke="#76b900" stroke-width="1.5" width="100" x="850" y="430" /><text fill="#76b900" font-family="Arial" font-size="9" font-weight="bold" text-anchor="middle" x="900.0" y="450.0">SUPPLY</text><text fill="#76b900" font-family="Arial" font-size="8" font-weight="normal" text-anchor="middle" x="900.0" y="464.0">MANIFOLD</text></g><polyline fill="none" points="900,470 900,480" stroke="#76b900" stroke-width="2" /><g><rect fill="#111a00" height="45" rx="4" ry="4" stroke="#76b900" stroke-width="1.5" width="100" x="850" y="480" /><text fill="#76b900" font-family="Arial" font-size="9" font-weight="bold" text-anchor="middle" x="900.0" y="502.5">NVL72 R5</text><text fill="#76b900" font-family="Arial" font-size="8" font-weight="normal" text-anchor="middle" x="900.0" y="516.5">230 kW</text><text fill="#6b7280" font-family="Arial" font-size="8" text-anchor="middle" x="900.0" y="521">Cold plates on GPU/HBM</text></g><polyline fill="none" points="950,502 980,502" stroke="#ff6b6b" stroke-width="2" /><polyline fill="none" points="900,470 900,540" stroke="#76b900" stroke-width="2" /><g><rect fill="#111a00" height="45" rx="4" ry="4" stroke="#76b900" stroke-width="1.5" width="100" x="850" y="540" /><text fill="#76b900" font-family="Arial" font-size="9" font-weight="bold" text-anchor="middle" x="900.0" y="562.5">NVL72 R6</text><text fill="#76b900" font-family="Arial" font-size="8" font-weight="normal" text-anchor="middle" x="900.0" y="576.5">230 kW</text><text fill="#6b7280" font-family="Arial" font-size="8" text-anchor="middle" x="900.0" y="581">Cold plates on GPU/HBM</text></g><polyline fill="none" points="950,562 980,562" stroke="#ff6b6b" stroke-width="2" /><polyline fill="none" points="900,470 900,600" stroke="#76b900" stroke-width="2" /><g><rect fill="#111a00" height="45" rx="4" ry="4" stroke="#76b900" stroke-width="1.5" width="100" x="850" y="600" /><text fill="#76b900" font-family="Arial" font-size="9" font-weight="bold" text-anchor="middle" x="900.0" y="622.5">NVL72 R7</text><text fill="#76b900" font-family="Arial" font-size="8" font-weight="normal" text-anchor="middle" x="900.0" y="636.5">230 kW</text><text fill="#6b7280" font-family="Arial" font-size="8" text-anchor="middle" x="900.0" y="641">Cold plates on GPU/HBM</text></g><polyline fill="none" points="950,622 980,622" stroke="#ff6b6b" stroke-width="2" /><polyline fill="none" points="900,470 900,780" stroke="#76b900" stroke-width="2" /><g><rect fill="#111a00" height="45" rx="4" ry="4" stroke="#76b900" stroke-width="1.5" width="100" x="850" y="660" /><text fill="#76b900" font-family="Arial" font-size="9" font-weight="bold" text-anchor="middle" x="900.0" y="682.5">NVL72 R8</text><text fill="#76b900" font-family="Arial" font-size="8" font-weight="normal" text-anchor="middle" x="900.0" y="696.5">230 kW</text><text fill="#6b7280" font-family="Arial" font-size="8" text-anchor="middle" x="900.0" y="701">Cold plates on GPU/HBM</text></g><polyline fill="none" points="950,682 980,682" stroke="#ff6b6b" stroke-width="2" />
<polyline fill="none" points="900,720 900,780" stroke="#76b900" stroke-width="2" />
<g><rect fill="#111a00" height="45" rx="4" ry="4" stroke="#76b900" stroke-width="1.5" width="100" x="850" y="720" /><text fill="#76b900" font-family="Arial" font-size="9" font-weight="bold" text-anchor="middle" x="900.0" y="742.5">NVL72 R9</text><text fill="#76b900" font-family="Arial" font-size="8" font-weight="normal" text-anchor="middle" x="900.0" y="756.5">230 kW</text><text fill="#6b7280" font-family="Arial" font-size="8" text-anchor="middle" x="900.0" y="761">Cold plates on GPU/HBM</text></g><polyline fill="none" points="950,742 980,742" stroke="#ff6b6b" stroke-width="2" />
<g><rect fill="#111a00" height="45" rx="4" ry="4" stroke="#76b900" stroke-width="1.5" width="100" x="850" y="780" /><text fill="#76b900" font-family="Arial" font-size="9" font-weight="bold" text-anchor="middle" x="900.0" y="802.5">NVL72 R10</text><text fill="#76b900" font-family="Arial" font-size="8" font-weight="normal" text-anchor="middle" x="900.0" y="816.5">230 kW</text><text fill="#6b7280" font-family="Arial" font-size="8" text-anchor="middle" x="900.0" y="821">Cold plates on GPU/HBM</text></g><polyline fill="none" points="950,802 980,802" stroke="#ff6b6b" stroke-width="2" /><g><rect fill="#1a1a2e" height="40" rx="4" ry="4" stroke="#ff6b6b" stroke-width="1.5" width="100" x="980" y="430" /><text fill="#ff6b6b" font-family="Arial" font-size="9" font-weight="bold" text-anchor="middle" x="1030.0" y="450.0">RETURN</text><text fill="#ff6b6b" font-family="Arial" font-size="8" font-weight="normal" text-anchor="middle" x="1030.0" y="464.0">MANIFOLD</text></g><polyline fill="none" points="1030,502 1030,470" stroke="#ff6b6b" stroke-width="2" /><polyline fill="none" points="1030,562 1030,470" stroke="#ff6b6b" stroke-width="2" /><polyline fill="none" points="1030,622 1030,470" stroke="#ff6b6b" stroke-width="2" /><polyline fill="none" points="1030,682 1030,470" stroke="#ff6b6b" stroke-width="2" />
<polyline fill="none" points="1030,742 1030,470" stroke="#ff6b6b" stroke-width="2" />
<polyline fill="none" points="1030,802 1030,470" stroke="#ff6b6b" stroke-width="2" /><polyline fill="none" points="1030,470 1030,840 600,840 600,540" stroke="#ff6b6b" stroke-width="3" /><text fill="#ff6b6b" font-family="Arial" font-size="9" font-weight="bold" x="1040" y="725">RETURN 55-60C (131-140F)</text><polyline fill="none" points="520,510 390,510 390,190" stroke="#ff6b6b" stroke-width="3" /><text fill="#ff6b6b" font-family="Arial" font-size="9" font-weight="bold" x="395" y="505">CDU2 RETURN</text><rect fill="#111318" height="100" rx="6" stroke="#555" stroke-width="1" width="200" x="30" y="410" /><text fill="#3b82f6" font-family="Arial" font-size="10" font-weight="bold" text-anchor="middle" x="130" y="428">MARLIE 1 vs TRAPPEYS</text><text fill="#9ca3af" font-family="Arial" font-size="8" x="40" y="445">MARLIE 1: Dry coolers only</text><text fill="#9ca3af" font-family="Arial" font-size="8" x="40" y="456">Trappeys: Water tower + dry coolers</text><text fill="#9ca3af" font-family="Arial" font-size="8" x="40" y="467" /><text fill="#9ca3af" font-family="Arial" font-size="8" x="40" y="478">No water tower (not on site)</text><text fill="#9ca3af" font-family="Arial" font-size="8" x="40" y="489">No river (not nearby)</text><text fill="#9ca3af" font-family="Arial" font-size="8" x="40" y="500">Simpler system, faster deploy</text><rect fill="#111318" height="180" rx="6" stroke="#1e2230" width="200" x="30" y="530" /><text fill="#3b82f6" font-family="Arial" font-size="10" font-weight="bold" text-anchor="middle" x="130" y="548">THERMAL BUDGET</text><text fill="#6b7280" font-family="Arial" font-size="8" x="40" y="565">Floor 1 IT (5x NVL72)</text><text fill="#76b900" font-family="Arial" font-size="8" font-weight="bold" x="180" y="565">1,150 kW</text><text fill="#6b7280" font-family="Arial" font-size="8" x="40" y="582">Floor 2 IT (5x NVL72)</text><text fill="#76b900" font-family="Arial" font-size="8" font-weight="bold" x="180" y="582">1,150 kW</text><text fill="#6b7280" font-family="Arial" font-size="8" x="40" y="599">Total IT Load</text><text fill="#76b900" font-family="Arial" font-size="8" font-weight="bold" x="180" y="599">2,300 kW</text><text fill="#6b7280" font-family="Arial" font-size="8" x="40" y="616">Cooling Overhead</text><text fill="#76b900" font-family="Arial" font-size="8" font-weight="bold" x="180" y="616">~100 kW</text><text fill="#6b7280" font-family="Arial" font-size="8" x="40" y="633">Facility/Network</text><text fill="#76b900" font-family="Arial" font-size="8" font-weight="bold" x="180" y="633">~100 kW</text><text fill="#6b7280" font-family="Arial" font-size="8" x="40" y="650">Total Heat Rejection</text><text fill="#76b900" font-family="Arial" font-size="8" font-weight="bold" x="180" y="650">~2,530 kW</text><text fill="#6b7280" font-family="Arial" font-size="8" x="40" y="667">Dry Cooler Capacity</text><text fill="#76b900" font-family="Arial" font-size="8" font-weight="bold" x="180" y="667">~2,760 kW</text><text fill="#6b7280" font-family="Arial" font-size="8" x="40" y="684">Headroom</text><text fill="#76b900" font-family="Arial" font-size="8" font-weight="bold" x="180" y="684">~260 kW (21%)</text><rect fill="#111318" height="55" rx="6" stroke="#1e2230" width="500" x="50" y="745" /><rect fill="#4fc3f7" height="6" rx="1" width="12" x="65" y="755" /><text fill="#9ca3af" font-family="Arial" font-size="8" x="83" y="761">Cold Supply (Dry Cooler Out 30-35C / 86-95F)</text><rect fill="#22c55e" height="6" rx="1" width="12" x="65" y="767" /><text fill="#9ca3af" font-family="Arial" font-size="8" x="83" y="773">Facility Loop (Treated Water/Glycol)</text><rect fill="#76b900" height="6" rx="1" width="12" x="65" y="779" /><text fill="#9ca3af" font-family="Arial" font-size="8" x="83" y="785">Rack Supply (45C / 113F)</text><rect fill="#ff6b6b" height="6" rx="1" width="12" x="65" y="791" /><text fill="#9ca3af" font-family="Arial" font-size="8" x="83" y="797">Warm Return (55-60C / 131-140F)</text><rect fill="#111318" height="55" rx="6" stroke="#1e2230" width="650" x="600" y="745" /><text fill="#6b7280" font-family="Arial" font-size="7" font-weight="bold" x="615" y="762">COOLING TYPE</text><text fill="#4fc3f7" font-family="Arial" font-size="10" font-weight="bold" x="615" y="774">BAC TrilliumSeries Adiabatic</text><text fill="#6b7280" font-family="Arial" font-size="7" font-weight="bold" x="745" y="762">CDU PAIRS</text><text fill="#4fc3f7" font-family="Arial" font-size="10" font-weight="bold" x="745" y="774">2x CoolIT CHx200 (1/floor)</text><text fill="#6b7280" font-family="Arial" font-size="7" font-weight="bold" x="875" y="762">RACK COOLING</text><text fill="#4fc3f7" font-family="Arial" font-size="10" font-weight="bold" x="875" y="774">45C Hot Water</text><text fill="#6b7280" font-family="Arial" font-size="7" font-weight="bold" x="1005" y="762">TOTAL REJECTION</text><text fill="#4fc3f7" font-family="Arial" font-size="10" font-weight="bold" x="1005" y="774">~2,530 kW</text><text fill="#6b7280" font-family="Arial" font-size="7" font-weight="bold" x="1135" y="762">PUE TARGET</text><text fill="#4fc3f7" font-family="Arial" font-size="10" font-weight="bold" x="1135" y="774">1.04&#x2013;1.08</text><text fill="#3b82f6" font-family="Arial" font-size="10" font-weight="bold" x="50" y="820">COMPLETE COOLING PATH:</text><text fill="#9ca3af" font-family="Arial" font-size="8" x="50" y="836">BAC TrilliumSeries (30-35C) -&gt; Facility Loop -&gt; CoolIT CHx200 CDU (per floor) -&gt; Delta 140 kW In-Rack CDU -&gt; Rack Manifold (45C) -&gt; GPU Cold Plates -&gt; Return (55-60C) -&gt; CDU -&gt; Facility Loop -&gt; BAC TrilliumSeries</text><text fill="#4b5563" font-family="Arial" font-size="7.5" x="35" y="850">1. BAC TrilliumSeries adiabatic coolers on concrete pad — no water tower, no discharge permits, minimal water use</text><text fill="#4b5563" font-family="Arial" font-size="7.5" x="35" y="863">2. No water tower at MARLIE 1 — unlike Trappeys. BAC TrilliumSeries sized with margin for Louisiana summer peaks (~95F)</text><text fill="#4b5563" font-family="Arial" font-size="7.5" x="35" y="876">3. NVIDIA NVL72 racks use direct liquid cooling with 45C (113F) hot water supply — no chillers needed in most conditions</text><text fill="#4b5563" font-family="Arial" font-size="7.5" x="35" y="889">4. 2x CoolIT CHx200 row-level CDU pairs + Delta 140 kW In-Rack CDUs (4RU, NVL72 cert) per rack — Staubli UQD — N+1 redundancy</text><text fill="#4b5563" font-family="Arial" font-size="7.5" x="35" y="902">5. Facility loop uses treated water/glycol mix, Munters HCD humidity control — isolated from IT rack cooling loops via CDUs</text><text fill="#4b5563" font-family="Arial" font-size="7.5" x="35" y="915">6. Total building heat rejection ~2,530 kW with ~2,760 kW BAC TrilliumSeries capacity — 21% headroom</text><text fill="#4b5563" font-family="Arial" font-size="7.5" x="35" y="928">7. Ansul Novec 1230 clean-agent fire suppression + VESDA-E VEU very early smoke detection in all compute zones</text></svg>