<?xml version="1.0" encoding="utf-8" ?>
<svg baseProfile="full" height="1000px" version="1.1" viewBox="0 0 1400 1000" width="1400px" xmlns="http://www.w3.org/2000/svg" xmlns:ev="http://www.w3.org/2001/xml-events" xmlns:xlink="http://www.w3.org/1999/xlink"><defs /><rect fill="#0a0b0f" height="1000" width="1400" x="0" y="0" /><text fill="#f0f2f5" font-family="Arial" font-size="15" font-weight="bold" text-anchor="middle" x="700.0" y="22">RAGIN' CAJUN COMPUTE CAMPUS — TRAPPEYS CANNERY, LAFAYETTE, LA</text><text fill="#CE181E" font-family="Arial" font-size="9" font-weight="bold" text-anchor="middle" x="700.0" y="36">SITE PLAN | 22 ACRES | 112,500 SQ FT | 4 BUILDINGS | GPS: 30.2136N, 92.0016W</text><text fill="#6b7280" font-family="Arial" font-size="8" text-anchor="middle" x="700.0" y="48">Sheet S-001 | MVP Design Intent | 2026-03-23 | NOT FOR CONSTRUCTION</text><rect fill="#0a1628" height="42.0" rx="4" stroke="#1e3a5f" stroke-width="1.5" width="1360" x="50.0" y="84.0" /><text fill="#1e3a5f" font-family="Arial" font-size="12" font-weight="bold" text-anchor="middle" x="260.0" y="102.0">BAYOU VERMILION</text><text fill="#1e3a5f" font-family="Arial" font-size="7" text-anchor="middle" x="260.0" y="114.0">Brown bayou — calm, narrow. Seawall along property edge.</text><line stroke="#4fc3f7" stroke-width="2" x1="80.0" x2="440.0" y1="118.0" y2="118.0" /><text fill="#4fc3f7" font-family="Arial" font-size="7" font-weight="bold" x="452.0" y="116.4">SEAWALL</text><rect fill="#1a0a0a" height="90.0" rx="3" stroke="#CE181E" stroke-width="2" width="360.0" x="80.0" y="126.0" /><text fill="#CE181E" font-family="Arial" font-size="11" font-weight="bold" text-anchor="middle" x="260.0" y="156.0">FRONT BUILDING</text><text fill="#CE181E" font-family="Arial" font-size="8" text-anchor="middle" x="260.0" y="171.6">300' x 75' = 22,500 sq ft</text><text fill="#fca5a5" font-family="Arial" font-size="7" text-anchor="middle" x="260.0" y="186.0">Museum | Education | Control Room | Meeting</text><text fill="#888" font-family="Arial" font-size="6" text-anchor="middle" x="260.0" y="198.0">Bayou view | Has vats | Phase 2</text><line stroke="#CE181E" stroke-width="0.5" x1="80.0" x2="440.0" y1="228.0" y2="228.0" /><line stroke="#CE181E" stroke-width="0.5" x1="80.0" x2="80.0" y1="224.0" y2="232.0" /><line stroke="#CE181E" stroke-width="0.5" x1="440.0" x2="440.0" y1="224.0" y2="232.0" /><text fill="#CE181E" font-family="Arial" font-size="7" text-anchor="middle" x="260.0" y="225.0">300'-0"</text><line stroke="#CE181E" stroke-width="0.5" x1="455.0" x2="455.0" y1="126.0" y2="216.0" /><line stroke="#CE181E" stroke-width="0.5" x1="451.0" x2="459.0" y1="126.0" y2="126.0" /><line stroke="#CE181E" stroke-width="0.5" x1="451.0" x2="459.0" y1="216.0" y2="216.0" /><text fill="#CE181E" font-family="Arial" font-size="7" x="460.0" y="174.0">75'-0"</text><rect fill="#1a1a0a" height="120.0" rx="3" stroke="#fbbf24" stroke-width="2" width="360.0" x="80.0" y="234.0" /><text fill="#fbbf24" font-family="Arial" font-size="11" font-weight="bold" text-anchor="middle" x="260.0" y="270.0">MIDDLE LOW</text><text fill="#fbbf24" font-family="Arial" font-size="8" text-anchor="middle" x="260.0" y="285.6">300' x 100' = 30,000 sq ft</text><text fill="#888" font-family="Arial" font-size="7" text-anchor="middle" x="260.0" y="303.6">Phase 2 Remodel</text><line stroke="#fbbf24" stroke-width="0.5" x1="80.0" x2="440.0" y1="366.0" y2="366.0" /><line stroke="#fbbf24" stroke-width="0.5" x1="80.0" x2="80.0" y1="362.0" y2="370.0" /><line stroke="#fbbf24" stroke-width="0.5" x1="440.0" x2="440.0" y1="362.0" y2="370.0" /><text fill="#fbbf24" font-family="Arial" font-size="7" text-anchor="middle" x="260.0" y="363.0">300'-0"</text><line stroke="#fbbf24" stroke-width="0.5" x1="455.0" x2="455.0" y1="234.0" y2="354.0" /><line stroke="#fbbf24" stroke-width="0.5" x1="451.0" x2="459.0" y1="234.0" y2="234.0" /><line stroke="#fbbf24" stroke-width="0.5" x1="451.0" x2="459.0" y1="354.0" y2="354.0" /><text fill="#fbbf24" font-family="Arial" font-size="7" x="460.0" y="297.0">100'-0"</text><rect fill="#0a1a0a" height="90.0" rx="3" stroke="#76b900" stroke-width="2.5" width="360.0" x="80.0" y="372.0" /><text fill="#76b900" font-family="Arial" font-size="12" font-weight="bold" text-anchor="middle" x="260.0" y="396.0">MIDDLE HIGH</text><text fill="#76b900" font-family="Arial" font-size="8" text-anchor="middle" x="260.0" y="411.59999999999997">300' x 75' = 22,500 sq ft</text><text fill="#76b900" font-family="Arial" font-size="8" font-weight="bold" text-anchor="middle" x="260.0" y="427.2">DEPLOY HERE FIRST — GPU Compute Hall</text><text fill="#86efac" font-family="Arial" font-size="7" text-anchor="middle" x="260.0" y="441.59999999999997">Wooden trusses | NVL72 racks | 800V DC | Cooling</text><line stroke="#76b900" stroke-width="0.5" x1="80.0" x2="440.0" y1="474.0" y2="474.0" /><line stroke="#76b900" stroke-width="0.5" x1="80.0" x2="80.0" y1="470.0" y2="478.0" /><line stroke="#76b900" stroke-width="0.5" x1="440.0" x2="440.0" y1="470.0" y2="478.0" /><text fill="#76b900" font-family="Arial" font-size="7" text-anchor="middle" x="260.0" y="471.0">300'-0"</text><line stroke="#76b900" stroke-width="0.5" x1="455.0" x2="455.0" y1="372.0" y2="462.0" /><line stroke="#76b900" stroke-width="0.5" x1="451.0" x2="459.0" y1="372.0" y2="372.0" /><line stroke="#76b900" stroke-width="0.5" x1="451.0" x2="459.0" y1="462.0" y2="462.0" /><text fill="#76b900" font-family="Arial" font-size="7" x="460.0" y="420.0">75'-0"</text><text fill="#76b900" font-family="Arial" font-size="10" font-weight="bold" x="470.0" y="412.0">PHASE 1</text><text fill="#76b900" font-family="Arial" font-size="10" font-weight="bold" x="470.0" y="424.0">DEPLOY</text><rect fill="#0a0a1a" height="180.0" rx="3" stroke="#3b82f6" stroke-width="2" width="300.0" x="80.0" y="480.0" /><text fill="#3b82f6" font-family="Arial" font-size="12" font-weight="bold" text-anchor="middle" x="230.0" y="528.0">REAR HIGH</text><text fill="#3b82f6" font-family="Arial" font-size="8" text-anchor="middle" x="230.0" y="543.5999999999999">250' x 150' = 37,500 sq ft</text><text fill="#93c5fd" font-family="Arial" font-size="7" font-weight="bold" text-anchor="middle" x="230.0" y="561.5999999999999">STAGING AREA — Big, Open, Locked, Weather-Protected</text><text fill="#888" font-family="Arial" font-size="7" text-anchor="middle" x="230.0" y="576.0">Equipment storage | Material staging | Phase 1 prep</text><line stroke="#3b82f6" stroke-width="0.5" x1="80.0" x2="380.0" y1="672.0" y2="672.0" /><line stroke="#3b82f6" stroke-width="0.5" x1="80.0" x2="80.0" y1="668.0" y2="676.0" /><line stroke="#3b82f6" stroke-width="0.5" x1="380.0" x2="380.0" y1="668.0" y2="676.0" /><text fill="#3b82f6" font-family="Arial" font-size="7" text-anchor="middle" x="230.0" y="669.0">250'-0"</text><line stroke="#3b82f6" stroke-width="0.5" x1="395.0" x2="395.0" y1="480.0" y2="660.0" /><line stroke="#3b82f6" stroke-width="0.5" x1="391.0" x2="399.0" y1="480.0" y2="480.0" /><line stroke="#3b82f6" stroke-width="0.5" x1="391.0" x2="399.0" y1="660.0" y2="660.0" /><text fill="#3b82f6" font-family="Arial" font-size="7" x="400.0" y="573.0">150'-0"</text><text fill="#555" font-family="Arial" font-size="6" x="386.0" y="492.0">50' narrower</text><line stroke="#333" stroke-dasharray="4,4" stroke-width="0.5" x1="380.0" x2="440.0" y1="480.0" y2="480.0" /><circle cx="416.0" cy="540.0" fill="#1a1a2e" r="15" stroke="#4fc3f7" stroke-width="1.5" /><text fill="#4fc3f7" font-family="Arial" font-size="9" font-weight="bold" text-anchor="middle" x="416.0" y="544.0">WT</text><text fill="#4fc3f7" font-family="Arial" font-size="7" font-weight="bold" x="410.0" y="564.0">WATER TOWER</text><text fill="#4fc3f7" font-family="Arial" font-size="6" x="410.0" y="573.5999999999999">100 ft tall | Thermal cooling</text><rect fill="#0a0a0a" height="72.0" rx="3" stroke="#333" stroke-dasharray="6,3" stroke-width="1" width="240.0" x="80.0" y="678.0" /><text fill="#555" font-family="Arial" font-size="9" font-weight="bold" text-anchor="middle" x="200.0" y="704.4">FUTURE BUILDING</text><text fill="#444" font-family="Arial" font-size="7" text-anchor="middle" x="200.0" y="718.8">Brick standing, metal gone, rebuildable</text><text fill="#444" font-family="Arial" font-size="6" text-anchor="middle" x="200.0" y="730.8">NOT READY — Phase 3+</text><rect fill="#111318" height="240.0" rx="3" stroke="#6b7280" stroke-width="1.5" width="144.0" x="464.0" y="234.0" /><text fill="#6b7280" font-family="Arial" font-size="9" font-weight="bold" text-anchor="middle" x="536.0" y="294.0">CONCRETE PAD</text><text fill="#9ca3af" font-family="Arial" font-size="7" text-anchor="middle" x="536.0" y="312.0">Infrastructure Yard</text><text fill="#22c55e" font-family="Arial" font-size="7" text-anchor="middle" x="536.0" y="330.0">Caterpillar G3516J (1.6 MW) x3 N+1</text><text fill="#8b5cf6" font-family="Arial" font-size="7" text-anchor="middle" x="536.0" y="344.4">Eaton Beam Rubin DSX + ORV3 Sidecar</text><text fill="#8b5cf6" font-family="Arial" font-size="7" text-anchor="middle" x="536.0" y="358.79999999999995">ABB SACE Infinitus DC Protection</text><text fill="#3b82f6" font-family="Arial" font-size="7" text-anchor="middle" x="536.0" y="373.2">Eaton xStorage BESS</text><text fill="#555" font-family="Arial" font-size="6" text-anchor="middle" x="536.0" y="390.0">NOT solar — equipment only</text><text fill="#fbbf24" font-family="Arial" font-size="6" font-weight="bold" opacity="0.6" x="86.0" y="140.0">SOLAR</text><text fill="#fbbf24" font-family="Arial" font-size="6" font-weight="bold" opacity="0.6" x="86.0" y="248.0">SOLAR</text><text fill="#fbbf24" font-family="Arial" font-size="6" font-weight="bold" opacity="0.6" x="86.0" y="386.0">SOLAR</text><text fill="#fbbf24" font-family="Arial" font-size="6" font-weight="bold" opacity="0.6" x="86.0" y="494.0">SOLAR</text><rect fill="#1a1a1a" height="720.0" rx="2" stroke="#333" stroke-width="1" width="36.0" x="644.0" y="84.0" /><text fill="#444" font-family="Arial" font-size="8" font-weight="bold" text-anchor="middle" transform="rotate(90, 662.0, 360.0)" x="662.0" y="360.0">SE EVANGELINE THRUWAY</text><text fill="#CE181E" font-family="Arial" font-size="10" font-weight="bold" x="704.0" y="240.0">UL LAFAYETTE</text><text fill="#888" font-family="Arial" font-size="7" x="704.0" y="254.4">0.5 miles east</text><text fill="#ef4444" font-family="Arial" font-size="8" font-weight="bold" x="704.0" y="312.0">LUS PIN HOOK</text><text fill="#ef4444" font-family="Arial" font-size="8" font-weight="bold" x="704.0" y="326.4">SUBSTATION</text><text fill="#888" font-family="Arial" font-size="6" x="704.0" y="338.4">Next door (Curtis Rodemacher)</text><text fill="#22c55e" font-family="Arial" font-size="8" font-weight="bold" x="704.0" y="384.0">ATMOS GAS</text><text fill="#888" font-family="Arial" font-size="6" x="704.0" y="396.0">Trunk line on property</text><text fill="#3b82f6" font-family="Arial" font-size="8" font-weight="bold" x="704.0" y="432.0">LUS FIBER</text><text fill="#888" font-family="Arial" font-size="6" x="704.0" y="444.0">0.8 mi municipal fiber</text><polygon fill="#fff" points="1340,75 1332,100 1348,100" /><text fill="#fff" font-family="Arial" font-size="12" font-weight="bold" text-anchor="middle" x="1340" y="70">N</text><rect fill="#111318" height="200" rx="6" stroke="#1e2230" width="310" x="1070" y="150" /><text fill="#f0f2f5" font-family="Arial" font-size="9" font-weight="bold" x="1080" y="165">LEGEND</text><rect fill="#CE181E" height="8" rx="2" width="12" x="1080" y="180" /><text fill="#9ca3af" font-family="Arial" font-size="7" x="1098" y="187">Front Building (museum, education, control)</text><rect fill="#fbbf24" height="8" rx="2" width="12" x="1080" y="196" /><text fill="#9ca3af" font-family="Arial" font-size="7" x="1098" y="203">Middle Low (Phase 2 remodel)</text><rect fill="#76b900" height="8" rx="2" width="12" x="1080" y="212" /><text fill="#9ca3af" font-family="Arial" font-size="7" x="1098" y="219">Middle High (PHASE 1 DEPLOY — compute)</text><rect fill="#3b82f6" height="8" rx="2" width="12" x="1080" y="228" /><text fill="#9ca3af" font-family="Arial" font-size="7" x="1098" y="235">Rear High (staging area)</text><rect fill="#333333" height="8" rx="2" width="12" x="1080" y="244" /><text fill="#9ca3af" font-family="Arial" font-size="7" x="1098" y="251">Future Building (not ready)</text><rect fill="#4fc3f7" height="8" rx="2" width="12" x="1080" y="260" /><text fill="#9ca3af" font-family="Arial" font-size="7" x="1098" y="267">Water Tower (thermal cooling)</text><rect fill="#6b7280" height="8" rx="2" width="12" x="1080" y="276" /><text fill="#9ca3af" font-family="Arial" font-size="7" x="1098" y="283">Concrete Pad (infrastructure yard)</text><rect fill="#fbbf24" height="8" rx="2" width="12" x="1080" y="292" /><text fill="#9ca3af" font-family="Arial" font-size="7" x="1098" y="299">Solar (rooftop — all 4 buildings)</text><rect fill="#22c55e" height="8" rx="2" width="12" x="1080" y="308" /><text fill="#9ca3af" font-family="Arial" font-size="7" x="1098" y="315">Gas (ATMOS trunk line)</text><rect fill="#ef4444" height="8" rx="2" width="12" x="1080" y="324" /><text fill="#9ca3af" font-family="Arial" font-size="7" x="1098" y="331">Grid (LUS — sell-back only)</text><rect fill="#1e3a5f" height="8" rx="2" width="12" x="1080" y="340" /><text fill="#9ca3af" font-family="Arial" font-size="7" x="1098" y="347">Bayou Vermilion</text><rect fill="#111318" height="70" rx="6" stroke="#1e2230" width="900" x="70" y="780" /><text fill="#f0f2f5" font-family="Arial" font-size="10" font-weight="bold" x="80" y="798">DEPLOY SEQUENCE</text><text fill="#3b82f6" font-family="Arial" font-size="18" font-weight="bold" x="90" y="820">1</text><text fill="#3b82f6" font-family="Arial" font-size="9" font-weight="bold" x="108" y="818">STAGE</text><text fill="#9ca3af" font-family="Arial" font-size="7" x="108" y="830">Rear High (37,500 sf)</text><text fill="#6b7280" font-family="Arial" font-size="6" x="108" y="840">Equipment, materials, prep</text><text fill="#76b900" font-family="Arial" font-size="18" font-weight="bold" x="310" y="820">2</text><text fill="#76b900" font-family="Arial" font-size="9" font-weight="bold" x="328" y="818">DEPLOY</text><text fill="#9ca3af" font-family="Arial" font-size="7" x="328" y="830">Middle High (22,500 sf)</text><text fill="#6b7280" font-family="Arial" font-size="6" x="328" y="840">GPU racks, 800V DC, cooling</text><text fill="#CE181E" font-family="Arial" font-size="18" font-weight="bold" x="530" y="820">3</text><text fill="#CE181E" font-family="Arial" font-size="9" font-weight="bold" x="548" y="818">REMODEL</text><text fill="#9ca3af" font-family="Arial" font-size="7" x="548" y="830">Front (22,500 sf)</text><text fill="#6b7280" font-family="Arial" font-size="6" x="548" y="840">Museum, education, control room</text><text fill="#fbbf24" font-family="Arial" font-size="18" font-weight="bold" x="750" y="820">4</text><text fill="#fbbf24" font-family="Arial" font-size="9" font-weight="bold" x="768" y="818">EXPAND</text><text fill="#9ca3af" font-family="Arial" font-size="7" x="768" y="830">Middle Low (30,000 sf)</text><text fill="#6b7280" font-family="Arial" font-size="6" x="768" y="840">Additional compute + offices</text><rect fill="#111318" height="55" rx="6" stroke="#1e2230" width="900" x="70" y="870" /><text fill="#6b7280" font-family="Arial" font-size="7" font-weight="bold" x="80" y="888">FRONT</text><text fill="#CE181E" font-family="Arial" font-size="10" font-weight="bold" x="80" y="902">22,500 sf</text><text fill="#6b7280" font-family="Arial" font-size="7" font-weight="bold" x="208" y="888">MIDDLE LOW</text><text fill="#CE181E" font-family="Arial" font-size="10" font-weight="bold" x="208" y="902">30,000 sf</text><text fill="#6b7280" font-family="Arial" font-size="7" font-weight="bold" x="336" y="888">MIDDLE HIGH</text><text fill="#CE181E" font-family="Arial" font-size="10" font-weight="bold" x="336" y="902">22,500 sf</text><text fill="#6b7280" font-family="Arial" font-size="7" font-weight="bold" x="464" y="888">REAR HIGH</text><text fill="#CE181E" font-family="Arial" font-size="10" font-weight="bold" x="464" y="902">37,500 sf</text><text fill="#6b7280" font-family="Arial" font-size="7" font-weight="bold" x="592" y="888">TOTAL</text><text fill="#CE181E" font-family="Arial" font-size="10" font-weight="bold" x="592" y="902">112,500 sf</text><text fill="#6b7280" font-family="Arial" font-size="7" font-weight="bold" x="720" y="888">SOLAR</text><text fill="#CE181E" font-family="Arial" font-size="10" font-weight="bold" x="720" y="902">2.05 MW rooftop</text><text fill="#6b7280" font-family="Arial" font-size="7" font-weight="bold" x="848" y="888">GENSETS</text><text fill="#CE181E" font-family="Arial" font-size="10" font-weight="bold" x="848" y="902">3x Cat G3516J (4.8 MW N+1)</text><line stroke="#888" stroke-width="1" x1="80.0" x2="80.0" y1="970" y2="964" /><text fill="#888" font-family="Arial" font-size="7" text-anchor="middle" x="80.0" y="980">0'</text><line stroke="#888" stroke-width="1" x1="140.0" x2="140.0" y1="970" y2="964" /><text fill="#888" font-family="Arial" font-size="7" text-anchor="middle" x="140.0" y="980">50'</text><line stroke="#888" stroke-width="1" x1="200.0" x2="200.0" y1="970" y2="964" /><text fill="#888" font-family="Arial" font-size="7" text-anchor="middle" x="200.0" y="980">100'</text><line stroke="#888" stroke-width="1" x1="260.0" x2="260.0" y1="970" y2="964" /><text fill="#888" font-family="Arial" font-size="7" text-anchor="middle" x="260.0" y="980">150'</text><line stroke="#888" stroke-width="1" x1="320.0" x2="320.0" y1="970" y2="964" /><text fill="#888" font-family="Arial" font-size="7" text-anchor="middle" x="320.0" y="980">200'</text><line stroke="#888" stroke-width="1" x1="380.0" x2="380.0" y1="970" y2="964" /><text fill="#888" font-family="Arial" font-size="7" text-anchor="middle" x="380.0" y="980">250'</text><line stroke="#888" stroke-width="1" x1="440.0" x2="440.0" y1="970" y2="964" /><text fill="#888" font-family="Arial" font-size="7" text-anchor="middle" x="440.0" y="980">300'</text><line stroke="#888" stroke-width="1" x1="80" x2="440.0" y1="970" y2="970" /><text fill="#4b5563" font-family="Arial" font-size="7" x="35" y="940">1. All 4 buildings line up on the left (river/bayou side). Rear High is 50 ft narrower on the right.</text><text fill="#4b5563" font-family="Arial" font-size="7" x="35" y="951">2. Concrete pad is the infrastructure yard — generators, switchgear, battery. NOT solar.</text><text fill="#4b5563" font-family="Arial" font-size="7" x="35" y="962">3. Solar is ROOFTOP ONLY on all 4 buildings. 3,731 First Solar Series 7 TR1 panels = 2.05 MW.</text><text fill="#4b5563" font-family="Arial" font-size="7" x="35" y="973">4. Water tower = thermal cooling mass. 100 ft tall. Supplement to BAC TrilliumSeries adiabatic coolers for GPU cooling.</text><text fill="#4b5563" font-family="Arial" font-size="7" x="35" y="984">5. LUS Pin Hook substation is next door. Grid = sell-back only. ATMOS gas trunk line on property.</text></svg>