<?xml version="1.0" encoding="utf-8" ?>
<svg baseProfile="full" height="1300px" version="1.1" viewBox="0 0 1800 1300" width="1800px" xmlns="http://www.w3.org/2000/svg" xmlns:ev="http://www.w3.org/2001/xml-events" xmlns:xlink="http://www.w3.org/1999/xlink"><defs /><rect fill="#0a0b0f" height="1300" width="1800" x="0" y="0" /><text fill="#f0f2f5" font-family="Arial" font-size="18" font-weight="bold" text-anchor="middle" x="900.0" y="28">ADC 3K POD — 40-FT COMPUTE MODULE</text><text fill="#00e87a" font-family="Arial" font-size="11" font-weight="bold" text-anchor="middle" x="900.0" y="46">10x NVL72 Racks | 1 SuperPOD + Network + Storage | 1.3 MW</text><text fill="#6b7280" font-family="Arial" font-size="9" text-anchor="middle" x="900.0" y="60">Sheet P-001 | Design Intent | Scale: Conceptual | 2026-03-24 | NOT FOR CONSTRUCTION — PRELIMINARY DESIGN</text><rect fill="#111318" height="201.86" rx="6" stroke="#1e2230" width="661.07" x="10" y="55" /><text fill="#00e87a" font-family="Arial" font-size="11" font-weight="bold" text-anchor="middle" x="300.535" y="73">VIEW 1 — TOP VIEW (LOOKING DOWN)</text><rect fill="#0d0d12" height="101.86" stroke="#00e87a" stroke-width="2" width="521.07" x="40" y="95" /><rect fill="#00e87a" height="8.8" rx="2" width="6" x="37" y="141.53" /><text fill="#00e87a" font-family="Arial" font-size="5" text-anchor="middle" transform="rotate(-90,30,148.93)" x="30" y="148.93">DOOR</text><rect fill="#0a1a0a" height="99.86" stroke="#1a3a1a" stroke-width="1" width="38.6" x="41" y="96" /><text fill="#00e87a" font-family="Arial" font-size="6" font-weight="bold" text-anchor="middle" x="60.3" y="139.93">ENTRY</text><text fill="#00e87a" font-family="Arial" font-size="6" font-weight="normal" text-anchor="middle" x="60.3" y="151.93">3'-0"</text><rect fill="#1a0a2e" height="99.86" stroke="#a855f7" stroke-width="1" width="46.2" x="79.6" y="96" /><text fill="#c4b5fd" font-family="Arial" font-size="6" font-weight="bold" text-anchor="middle" x="102.69999999999999" y="133.93">ELEC PANEL</text><text fill="#c4b5fd" font-family="Arial" font-size="6" font-weight="normal" text-anchor="middle" x="102.69999999999999" y="145.93">EATON 800V DC</text><text fill="#c4b5fd" font-family="Arial" font-size="6" font-weight="normal" text-anchor="middle" x="102.69999999999999" y="157.93">3'-6"</text><rect fill="#0a2010" height="46.2" rx="2" stroke="#00e87a" stroke-width="1.2" width="25.960000000000004" x="125.8" y="122.83000000000001" /><text fill="#00e87a" font-family="Arial" font-size="7" font-weight="bold" text-anchor="middle" x="138.78" y="148.93">R1</text><rect fill="#0a2010" height="46.2" rx="2" stroke="#00e87a" stroke-width="1.2" width="25.960000000000004" x="156.16" y="122.83000000000001" /><text fill="#00e87a" font-family="Arial" font-size="7" font-weight="bold" text-anchor="middle" x="169.14" y="148.93">R2</text><rect fill="#0a2010" height="46.2" rx="2" stroke="#00e87a" stroke-width="1.2" width="25.960000000000004" x="186.52" y="122.83000000000001" /><text fill="#00e87a" font-family="Arial" font-size="7" font-weight="bold" text-anchor="middle" x="199.5" y="148.93">R3</text><rect fill="#0a2010" height="46.2" rx="2" stroke="#00e87a" stroke-width="1.2" width="25.960000000000004" x="216.88000000000002" y="122.83000000000001" /><text fill="#00e87a" font-family="Arial" font-size="7" font-weight="bold" text-anchor="middle" x="229.86" y="148.93">R4</text><rect fill="#0a2010" height="46.2" rx="2" stroke="#00e87a" stroke-width="1.2" width="25.960000000000004" x="247.24000000000004" y="122.83000000000001" /><text fill="#00e87a" font-family="Arial" font-size="7" font-weight="bold" text-anchor="middle" x="260.22" y="148.93">R5</text><rect fill="#0a2010" height="46.2" rx="2" stroke="#00e87a" stroke-width="1.2" width="25.960000000000004" x="277.6" y="122.83000000000001" /><text fill="#00e87a" font-family="Arial" font-size="7" font-weight="bold" text-anchor="middle" x="290.58000000000004" y="148.93">R6</text><rect fill="#0a2010" height="46.2" rx="2" stroke="#00e87a" stroke-width="1.2" width="25.960000000000004" x="307.96000000000004" y="122.83000000000001" /><text fill="#00e87a" font-family="Arial" font-size="7" font-weight="bold" text-anchor="middle" x="320.94000000000005" y="148.93">R7</text><rect fill="#0a2010" height="46.2" rx="2" stroke="#00e87a" stroke-width="1.2" width="25.960000000000004" x="338.32000000000005" y="122.83000000000001" /><text fill="#00e87a" font-family="Arial" font-size="7" font-weight="bold" text-anchor="middle" x="351.30000000000007" y="148.93">R8</text><rect fill="#0a1628" height="46.2" rx="2" stroke="#3b9eff" stroke-width="1.2" width="25.960000000000004" x="368.68000000000006" y="122.83000000000001" /><text fill="#3b9eff" font-family="Arial" font-size="7" font-weight="bold" text-anchor="middle" x="381.6600000000001" y="148.93">R9</text><rect fill="#1a0a2e" height="46.2" rx="2" stroke="#a855f7" stroke-width="1.2" width="25.960000000000004" x="399.0400000000001" y="122.83000000000001" /><text fill="#a855f7" font-family="Arial" font-size="7" font-weight="bold" text-anchor="middle" x="412.0200000000001" y="148.93">R10</text><rect fill="#0a1628" height="99.86" stroke="#4fc3f7" stroke-width="1" width="39.6" x="429.40000000000003" y="96" /><text fill="#4fc3f7" font-family="Arial" font-size="6" font-weight="bold" text-anchor="middle" x="449.20000000000005" y="133.93">PATCH</text><text fill="#4fc3f7" font-family="Arial" font-size="6" font-weight="normal" text-anchor="middle" x="449.20000000000005" y="145.93">PANEL</text><text fill="#4fc3f7" font-family="Arial" font-size="6" font-weight="normal" text-anchor="middle" x="449.20000000000005" y="157.93">3'-0"</text><rect fill="#0a1628" height="99.86" stroke="#4fc3f7" stroke-width="1" width="78.2" x="469.00000000000006" y="96" /><text fill="#4fc3f7" font-family="Arial" font-size="6" font-weight="bold" text-anchor="middle" x="508.1000000000001" y="127.93">CDU ZONE</text><text fill="#4fc3f7" font-family="Arial" font-size="6" font-weight="normal" text-anchor="middle" x="508.1000000000001" y="139.93">6'-0"</text><text fill="#4fc3f7" font-family="Arial" font-size="6" font-weight="normal" text-anchor="middle" x="508.1000000000001" y="151.93">Primary + Redundant</text><text fill="#4fc3f7" font-family="Arial" font-size="6" font-weight="normal" text-anchor="middle" x="508.1000000000001" y="163.93">250 kW each</text><line stroke="#4fc3f7" stroke-width="2" x1="561.07" x2="576.07" y1="125.55799999999999" y2="125.55799999999999" /><text fill="#4fc3f7" font-family="Arial" font-size="5" x="579.07" y="128.558">SUPPLY 45C</text><line stroke="#ff6b6b" stroke-width="2" x1="561.07" x2="576.07" y1="166.302" y2="166.302" /><text fill="#ff6b6b" font-family="Arial" font-size="5" x="579.07" y="169.302">RETURN 55-65C</text><line stroke="#a855f7" stroke-width="2" x1="40" x2="25" y1="181.58100000000002" y2="181.58100000000002" /><text fill="#a855f7" font-family="Arial" font-size="5" text-anchor="end" x="22" y="184.58100000000002">800V DC IN</text><line stroke="#00e87a" stroke-dasharray="6,3" stroke-width="2" x1="127.8" x2="199.7" y1="95" y2="95" /><text fill="#00e87a" font-family="Arial" font-size="5" text-anchor="middle" x="163.75" y="90">AP-1</text><line stroke="#00e87a" stroke-dasharray="6,3" stroke-width="2" x1="127.8" x2="199.7" y1="196.86" y2="196.86" /><text fill="#00e87a" font-family="Arial" font-size="5" text-anchor="middle" x="163.75" y="206.86">AP-5</text><line stroke="#00e87a" stroke-dasharray="6,3" stroke-width="2" x1="203.7" x2="275.6" y1="95" y2="95" /><text fill="#00e87a" font-family="Arial" font-size="5" text-anchor="middle" x="239.65" y="90">AP-2</text><line stroke="#00e87a" stroke-dasharray="6,3" stroke-width="2" x1="203.7" x2="275.6" y1="196.86" y2="196.86" /><text fill="#00e87a" font-family="Arial" font-size="5" text-anchor="middle" x="239.65" y="206.86">AP-6</text><line stroke="#00e87a" stroke-dasharray="6,3" stroke-width="2" x1="279.6" x2="351.5" y1="95" y2="95" /><text fill="#00e87a" font-family="Arial" font-size="5" text-anchor="middle" x="315.55" y="90">AP-3</text><line stroke="#00e87a" stroke-dasharray="6,3" stroke-width="2" x1="279.6" x2="351.5" y1="196.86" y2="196.86" /><text fill="#00e87a" font-family="Arial" font-size="5" text-anchor="middle" x="315.55" y="206.86">AP-7</text><line stroke="#00e87a" stroke-dasharray="6,3" stroke-width="2" x1="355.5" x2="427.4" y1="95" y2="95" /><text fill="#00e87a" font-family="Arial" font-size="5" text-anchor="middle" x="391.45" y="90">AP-4</text><line stroke="#00e87a" stroke-dasharray="6,3" stroke-width="2" x1="355.5" x2="427.4" y1="196.86" y2="196.86" /><text fill="#00e87a" font-family="Arial" font-size="5" text-anchor="middle" x="391.45" y="206.86">AP-8</text><text fill="#888" font-family="Arial" font-size="5.5" text-anchor="middle" x="277.6" y="105">25.3" CLR</text><text fill="#888" font-family="Arial" font-size="5.5" text-anchor="middle" x="277.6" y="191.86">25.3" CLR</text><line stroke="#555" stroke-width="0.5" x1="40" x2="561.07" y1="218.86" y2="218.86" /><line stroke="#555" stroke-width="0.5" x1="40" x2="40" y1="214.86" y2="222.86" /><line stroke="#555" stroke-width="0.5" x1="561.07" x2="561.07" y1="214.86" y2="222.86" /><text fill="#888" font-family="Arial" font-size="6.5" text-anchor="middle" x="300.535" y="215.86">39'-5" (12,032 mm)</text><line stroke="#555" stroke-width="0.5" x1="621.07" x2="621.07" y1="95" y2="196.86" /><line stroke="#555" stroke-width="0.5" x1="617.07" x2="625.07" y1="95" y2="95" /><line stroke="#555" stroke-width="0.5" x1="617.07" x2="625.07" y1="196.86" y2="196.86" /><text fill="#888" font-family="Arial" font-size="6.5" x="626.07" y="148.93">7'-8" (2,352 mm)</text><line stroke="#555" stroke-width="0.5" x1="40" x2="79.6" y1="81" y2="81" /><line stroke="#555" stroke-width="0.5" x1="40" x2="40" y1="77" y2="85" /><line stroke="#555" stroke-width="0.5" x1="79.6" x2="79.6" y1="77" y2="85" /><text fill="#888" font-family="Arial" font-size="6.5" text-anchor="middle" x="59.8" y="78">3'-0"</text><line stroke="#555" stroke-width="0.5" x1="79.6" x2="125.8" y1="81" y2="81" /><line stroke="#555" stroke-width="0.5" x1="79.6" x2="79.6" y1="77" y2="85" /><line stroke="#555" stroke-width="0.5" x1="125.8" x2="125.8" y1="77" y2="85" /><text fill="#888" font-family="Arial" font-size="6.5" text-anchor="middle" x="102.69999999999999" y="78">3'-6"</text><line stroke="#555" stroke-width="0.5" x1="125.8" x2="429.40000000000003" y1="81" y2="81" /><line stroke="#555" stroke-width="0.5" x1="125.8" x2="125.8" y1="77" y2="85" /><line stroke="#555" stroke-width="0.5" x1="429.40000000000003" x2="429.40000000000003" y1="77" y2="85" /><text fill="#888" font-family="Arial" font-size="6.5" text-anchor="middle" x="277.6" y="78">23'-0" RACK ZONE (10 racks + 9 gaps @ 4")</text><line stroke="#555" stroke-width="0.5" x1="429.40000000000003" x2="469.00000000000006" y1="81" y2="81" /><line stroke="#555" stroke-width="0.5" x1="429.40000000000003" x2="429.40000000000003" y1="77" y2="85" /><line stroke="#555" stroke-width="0.5" x1="469.00000000000006" x2="469.00000000000006" y1="77" y2="85" /><text fill="#888" font-family="Arial" font-size="6.5" text-anchor="middle" x="449.20000000000005" y="78">3'-0"</text><line stroke="#555" stroke-width="0.5" x1="469.00000000000006" x2="548.2" y1="81" y2="81" /><line stroke="#555" stroke-width="0.5" x1="469.00000000000006" x2="469.00000000000006" y1="77" y2="85" /><line stroke="#555" stroke-width="0.5" x1="548.2" x2="548.2" y1="77" y2="85" /><text fill="#888" font-family="Arial" font-size="6.5" text-anchor="middle" x="508.6" y="78">6'-0"</text><rect fill="#111318" height="461.7" rx="6" stroke="#1e2230" width="661.07" x="10" y="270" /><text fill="#00e87a" font-family="Arial" font-size="11" font-weight="bold" text-anchor="middle" x="300.535" y="288">VIEW 2 — SIDE VIEW (LOOKING AT LONG WALL)</text><rect fill="#0d0d12" height="371.7" stroke="#00e87a" stroke-width="2" width="521.07" x="40" y="310" /><line stroke="#4b5563" stroke-width="2" x1="30" x2="571.07" y1="684.7" y2="684.7" /><text fill="#4b5563" font-family="Arial" font-size="6" text-anchor="middle" x="300.535" y="695.7">CONCRETE PAD</text><rect fill="none" height="8" stroke="#a855f7" stroke-dasharray="4,2" stroke-width="1" width="323.6" x="115.80000000000001" y="363.70000000000005" /><text fill="#a855f7" font-family="Arial" font-size="5" text-anchor="middle" x="277.6" y="360.70000000000005">CABLE TRAY (800V DC + FIBER)</text><line stroke="#555" stroke-width="0.5" x1="449.40000000000003" x2="449.40000000000003" y1="310" y2="373.70000000000005" /><line stroke="#555" stroke-width="0.5" x1="445.40000000000003" x2="453.40000000000003" y1="310" y2="310" /><line stroke="#555" stroke-width="0.5" x1="445.40000000000003" x2="453.40000000000003" y1="373.70000000000005" y2="373.70000000000005" /><text fill="#888" font-family="Arial" font-size="6.5" x="454.40000000000003" y="344.85">18.2" CLR</text><rect fill="#0a1a0a" height="308.0" rx="1" stroke="#00e87a" stroke-width="1" width="25.960000000000004" x="125.80000000000001" y="373.70000000000005" /><text fill="#00e87a" font-family="Arial" font-size="6" font-weight="bold" text-anchor="middle" x="138.78" y="530.7">R1</text><rect fill="#0a1a0a" height="308.0" rx="1" stroke="#00e87a" stroke-width="1" width="25.960000000000004" x="156.16000000000003" y="373.70000000000005" /><text fill="#00e87a" font-family="Arial" font-size="6" font-weight="bold" text-anchor="middle" x="169.14000000000001" y="530.7">R2</text><rect fill="#0a1a0a" height="308.0" rx="1" stroke="#00e87a" stroke-width="1" width="25.960000000000004" x="186.52000000000004" y="373.70000000000005" /><text fill="#00e87a" font-family="Arial" font-size="6" font-weight="bold" text-anchor="middle" x="199.50000000000003" y="530.7">R3</text><rect fill="#0a1a0a" height="308.0" rx="1" stroke="#00e87a" stroke-width="1" width="25.960000000000004" x="216.88000000000005" y="373.70000000000005" /><text fill="#00e87a" font-family="Arial" font-size="6" font-weight="bold" text-anchor="middle" x="229.86000000000004" y="530.7">R4</text><rect fill="#0a1a0a" height="308.0" rx="1" stroke="#00e87a" stroke-width="1" width="25.960000000000004" x="247.24000000000007" y="373.70000000000005" /><text fill="#00e87a" font-family="Arial" font-size="6" font-weight="bold" text-anchor="middle" x="260.2200000000001" y="530.7">R5</text><rect fill="#0a1a0a" height="308.0" rx="1" stroke="#00e87a" stroke-width="1" width="25.960000000000004" x="277.6000000000001" y="373.70000000000005" /><text fill="#00e87a" font-family="Arial" font-size="6" font-weight="bold" text-anchor="middle" x="290.5800000000001" y="530.7">R6</text><rect fill="#0a1a0a" height="308.0" rx="1" stroke="#00e87a" stroke-width="1" width="25.960000000000004" x="307.9600000000001" y="373.70000000000005" /><text fill="#00e87a" font-family="Arial" font-size="6" font-weight="bold" text-anchor="middle" x="320.9400000000001" y="530.7">R7</text><rect fill="#0a1a0a" height="308.0" rx="1" stroke="#00e87a" stroke-width="1" width="25.960000000000004" x="338.3200000000001" y="373.70000000000005" /><text fill="#00e87a" font-family="Arial" font-size="6" font-weight="bold" text-anchor="middle" x="351.3000000000001" y="530.7">R8</text><rect fill="#0a1628" height="308.0" rx="1" stroke="#3b9eff" stroke-width="1" width="25.960000000000004" x="368.6800000000001" y="373.70000000000005" /><text fill="#3b9eff" font-family="Arial" font-size="6" font-weight="bold" text-anchor="middle" x="381.66000000000014" y="530.7">R9</text><rect fill="#1a0a2e" height="308.0" rx="1" stroke="#a855f7" stroke-width="1" width="25.960000000000004" x="399.04000000000013" y="373.70000000000005" /><text fill="#a855f7" font-family="Arial" font-size="6" font-weight="bold" text-anchor="middle" x="412.02000000000015" y="530.7">R10</text><rect fill="#1a0a2e" height="215.6" stroke="#a855f7" stroke-width="1" width="46.2" x="79.6" y="466.1" /><text fill="#a855f7" font-family="Arial" font-size="6" font-weight="bold" text-anchor="middle" x="102.69999999999999" y="576.9000000000001">ELEC</text><rect fill="#0a1628" height="184.79999999999998" stroke="#4fc3f7" stroke-width="1" width="79.2" x="469.00000000000006" y="496.9000000000001" /><text fill="#4fc3f7" font-family="Arial" font-size="7" font-weight="bold" text-anchor="middle" x="508.6000000000001" y="592.3000000000001">CDU</text><line stroke="#4fc3f7" stroke-width="1.5" x1="561.07" x2="581.07" y1="626.2600000000001" y2="616.2600000000001" /><text fill="#4fc3f7" font-family="Arial" font-size="5" x="583.07" y="618.2600000000001">DRY COOLER</text><line stroke="#a855f7" stroke-width="1.5" x1="40" x2="20" y1="573.9000000000001" y2="563.9000000000001" /><text fill="#a855f7" font-family="Arial" font-size="5" text-anchor="end" x="18" y="565.9000000000001">800V DC POWER</text><rect fill="none" height="315.0" rx="2" stroke="#00e87a" stroke-dasharray="4,3" stroke-width="1" width="69.9" x="128.8" y="366.70000000000005" /><line stroke="#00e87a" stroke-width="2" x1="133.8" x2="193.70000000000002" y1="366.70000000000005" y2="366.70000000000005" /><text fill="#00e87a" font-family="Arial" font-size="5" text-anchor="middle" x="163.75" y="524.2">AP-1</text><text fill="#555" font-family="Arial" font-size="4" text-anchor="middle" x="163.75" y="532.2">TOP-HINGED</text><rect fill="none" height="315.0" rx="2" stroke="#00e87a" stroke-dasharray="4,3" stroke-width="1" width="69.9" x="204.70000000000002" y="366.70000000000005" /><line stroke="#00e87a" stroke-width="2" x1="209.70000000000002" x2="269.6" y1="366.70000000000005" y2="366.70000000000005" /><text fill="#00e87a" font-family="Arial" font-size="5" text-anchor="middle" x="239.65000000000003" y="524.2">AP-2</text><text fill="#555" font-family="Arial" font-size="4" text-anchor="middle" x="239.65000000000003" y="532.2">TOP-HINGED</text><rect fill="none" height="315.0" rx="2" stroke="#00e87a" stroke-dasharray="4,3" stroke-width="1" width="69.9" x="280.6" y="366.70000000000005" /><line stroke="#00e87a" stroke-width="2" x1="285.6" x2="345.5" y1="366.70000000000005" y2="366.70000000000005" /><text fill="#00e87a" font-family="Arial" font-size="5" text-anchor="middle" x="315.55" y="524.2">AP-3</text><text fill="#555" font-family="Arial" font-size="4" text-anchor="middle" x="315.55" y="532.2">TOP-HINGED</text><rect fill="none" height="315.0" rx="2" stroke="#00e87a" stroke-dasharray="4,3" stroke-width="1" width="69.9" x="356.5" y="366.70000000000005" /><line stroke="#00e87a" stroke-width="2" x1="361.5" x2="421.4" y1="366.70000000000005" y2="366.70000000000005" /><text fill="#00e87a" font-family="Arial" font-size="5" text-anchor="middle" x="391.45" y="524.2">AP-4</text><text fill="#555" font-family="Arial" font-size="4" text-anchor="middle" x="391.45" y="532.2">TOP-HINGED</text><circle cx="175.8" cy="318" fill="#fbbf24" opacity="0.6" r="3" stroke="none" /><text fill="#fbbf24" font-family="Arial" font-size="4" text-anchor="middle" x="175.8" y="328">LED</text><circle cx="277.6" cy="318" fill="#fbbf24" opacity="0.6" r="3" stroke="none" /><text fill="#fbbf24" font-family="Arial" font-size="4" text-anchor="middle" x="277.6" y="328">LED</text><circle cx="379.40000000000003" cy="318" fill="#fbbf24" opacity="0.6" r="3" stroke="none" /><text fill="#fbbf24" font-family="Arial" font-size="4" text-anchor="middle" x="379.40000000000003" y="328">LED</text><line stroke="#555" stroke-width="0.5" x1="40" x2="561.07" y1="701.7" y2="701.7" /><line stroke="#555" stroke-width="0.5" x1="40" x2="40" y1="697.7" y2="705.7" /><line stroke="#555" stroke-width="0.5" x1="561.07" x2="561.07" y1="697.7" y2="705.7" /><text fill="#888" font-family="Arial" font-size="6.5" text-anchor="middle" x="300.535" y="698.7">39'-5" (40-FT HC CONTAINER)</text><line stroke="#555" stroke-width="0.5" x1="621.07" x2="621.07" y1="310" y2="681.7" /><line stroke="#555" stroke-width="0.5" x1="617.07" x2="625.07" y1="310" y2="310" /><line stroke="#555" stroke-width="0.5" x1="617.07" x2="625.07" y1="681.7" y2="681.7" /><text fill="#888" font-family="Arial" font-size="6.5" x="626.07" y="498.85">8'-10" INT HEIGHT</text><line stroke="#555" stroke-width="0.5" x1="90.80000000000001" x2="90.80000000000001" y1="373.70000000000005" y2="681.7" /><line stroke="#555" stroke-width="0.5" x1="86.80000000000001" x2="94.80000000000001" y1="373.70000000000005" y2="373.70000000000005" /><line stroke="#555" stroke-width="0.5" x1="86.80000000000001" x2="94.80000000000001" y1="681.7" y2="681.7" /><text fill="#888" font-family="Arial" font-size="6.5" x="95.80000000000001" y="530.7">88" RACK</text><rect fill="#111318" height="461.7" rx="6" stroke="#1e2230" width="444.09999999999997" x="590" y="680" /><text fill="#00e87a" font-family="Arial" font-size="11" font-weight="bold" text-anchor="middle" x="782.05" y="698">VIEW 3 — END VIEW (THROUGH DOOR)</text><rect fill="#0d0d12" height="371.7" stroke="#00e87a" stroke-width="2" width="324.09999999999997" x="620" y="720" /><line stroke="#4b5563" stroke-width="2" x1="610" x2="954.0999999999999" y1="1094.7" y2="1094.7" /><text fill="#4b5563" font-family="Arial" font-size="5" text-anchor="middle" x="782.05" y="1105.7">STEEL CORRUGATED FLOOR + SPREADER PLATES</text><rect fill="#0a2010" height="308.0" rx="3" stroke="#00e87a" stroke-width="1.5" width="147.0" x="708.55" y="783.7" /><line opacity="0.4" stroke="#00e87a" stroke-width="0.3" x1="713.55" x2="850.55" y1="814.5" y2="814.5" /><line opacity="0.4" stroke="#00e87a" stroke-width="0.3" x1="713.55" x2="850.55" y1="845.3000000000001" y2="845.3000000000001" /><line opacity="0.4" stroke="#00e87a" stroke-width="0.3" x1="713.55" x2="850.55" y1="876.1" y2="876.1" /><line opacity="0.4" stroke="#00e87a" stroke-width="0.3" x1="713.55" x2="850.55" y1="906.9000000000001" y2="906.9000000000001" /><line opacity="0.4" stroke="#00e87a" stroke-width="0.3" x1="713.55" x2="850.55" y1="937.7" y2="937.7" /><line opacity="0.4" stroke="#00e87a" stroke-width="0.3" x1="713.55" x2="850.55" y1="968.5" y2="968.5" /><line opacity="0.4" stroke="#00e87a" stroke-width="0.3" x1="713.55" x2="850.55" y1="999.3000000000001" y2="999.3000000000001" /><line opacity="0.4" stroke="#00e87a" stroke-width="0.3" x1="713.55" x2="850.55" y1="1030.1000000000001" y2="1030.1000000000001" /><line opacity="0.4" stroke="#00e87a" stroke-width="0.3" x1="713.55" x2="850.55" y1="1060.9" y2="1060.9" /><text fill="#00e87a" font-family="Arial" font-size="8" font-weight="bold" text-anchor="middle" x="782.05" y="929.7">NVL72 RACK</text><text fill="#9ca3af" font-family="Arial" font-size="6" text-anchor="middle" x="782.05" y="941.7">42" DEEP x 23.6" WIDE</text><text fill="#9ca3af" font-family="Arial" font-size="6" text-anchor="middle" x="782.05" y="951.7">88" TALL / 48U</text><rect fill="none" height="308.0" stroke="#555" stroke-dasharray="3,3" stroke-width="0.5" width="84.54999999999995" x="622" y="783.7" /><text fill="#888" font-family="Arial" font-size="7" text-anchor="middle" x="664.275" y="937.7">25.3"</text><text fill="#888" font-family="Arial" font-size="6" text-anchor="middle" x="664.275" y="947.7">CLR</text><rect fill="none" height="308.0" stroke="#555" stroke-dasharray="3,3" stroke-width="0.5" width="84.54999999999995" x="857.55" y="783.7" /><text fill="#888" font-family="Arial" font-size="7" text-anchor="middle" x="899.8249999999999" y="937.7">25.3"</text><text fill="#888" font-family="Arial" font-size="6" text-anchor="middle" x="899.8249999999999" y="947.7">CLR</text><rect fill="none" height="12" stroke="#a855f7" stroke-dasharray="4,2" stroke-width="1" width="177.0" x="693.55" y="730" /><text fill="#a855f7" font-family="Arial" font-size="5" text-anchor="middle" x="782.05" y="739.0">CABLE TRAY</text><line stroke="#555" stroke-width="0.5" x1="835.55" x2="835.55" y1="783.7" y2="742" /><line stroke="#555" stroke-width="0.5" x1="831.55" x2="839.55" y1="783.7" y2="783.7" /><line stroke="#555" stroke-width="0.5" x1="831.55" x2="839.55" y1="742" y2="742" /><text fill="#888" font-family="Arial" font-size="6.5" x="840.55" y="765.85">18.2" OVERHEAD</text><rect fill="none" height="315.0" stroke="#00e87a" stroke-dasharray="5,3" stroke-width="1.5" width="4" x="620" y="776.7" /><text fill="#00e87a" font-family="Arial" font-size="5" text-anchor="middle" transform="rotate(-90,612,929.2)" x="612" y="929.2">ACCESS</text><text fill="#00e87a" font-family="Arial" font-size="5" text-anchor="middle" transform="rotate(-90,604,929.2)" x="604" y="929.2">PANEL</text><rect fill="none" height="315.0" stroke="#00e87a" stroke-dasharray="5,3" stroke-width="1.5" width="4" x="940.0999999999999" y="776.7" /><text fill="#00e87a" font-family="Arial" font-size="5" text-anchor="middle" transform="rotate(90,954.0999999999999,929.2)" x="954.0999999999999" y="929.2">ACCESS</text><text fill="#00e87a" font-family="Arial" font-size="5" text-anchor="middle" transform="rotate(90,962.0999999999999,929.2)" x="962.0999999999999" y="929.2">PANEL</text><line stroke="#555" stroke-width="0.5" x1="620" x2="944.0999999999999" y1="1113.7" y2="1113.7" /><line stroke="#555" stroke-width="0.5" x1="620" x2="620" y1="1109.7" y2="1117.7" /><line stroke="#555" stroke-width="0.5" x1="944.0999999999999" x2="944.0999999999999" y1="1109.7" y2="1117.7" /><text fill="#888" font-family="Arial" font-size="6.5" text-anchor="middle" x="782.05" y="1110.7">7'-8" (2,352 mm)</text><line stroke="#555" stroke-width="0.5" x1="974.0999999999999" x2="974.0999999999999" y1="720" y2="1091.7" /><line stroke="#555" stroke-width="0.5" x1="970.0999999999999" x2="978.0999999999999" y1="720" y2="720" /><line stroke="#555" stroke-width="0.5" x1="970.0999999999999" x2="978.0999999999999" y1="1091.7" y2="1091.7" /><text fill="#888" font-family="Arial" font-size="6.5" x="979.0999999999999" y="908.85">8'-10" (2,698 mm)</text><line stroke="#555" stroke-width="0.5" x1="708.55" x2="855.55" y1="769.7" y2="769.7" /><line stroke="#555" stroke-width="0.5" x1="708.55" x2="708.55" y1="765.7" y2="773.7" /><line stroke="#555" stroke-width="0.5" x1="855.55" x2="855.55" y1="765.7" y2="773.7" /><text fill="#888" font-family="Arial" font-size="6.5" text-anchor="middle" x="782.05" y="766.7">42.0" RACK DEPTH</text><line stroke="#555" stroke-width="0.5" x1="678.55" x2="678.55" y1="783.7" y2="1091.7" /><line stroke="#555" stroke-width="0.5" x1="674.55" x2="682.55" y1="783.7" y2="783.7" /><line stroke="#555" stroke-width="0.5" x1="674.55" x2="682.55" y1="1091.7" y2="1091.7" /><text fill="#888" font-family="Arial" font-size="6.5" x="683.55" y="940.7">88" (7'-4")</text><rect fill="#111318" height="170" rx="6" stroke="#1e2230" width="540" x="30" y="710" /><text fill="#00e87a" font-family="Arial" font-size="10" font-weight="bold" x="40" y="726">LEGEND</text><rect fill="#0a2010" height="8" rx="2" stroke="#00e87a" stroke-width="1" width="14" x="45" y="736" /><text fill="#9ca3af" font-family="Arial" font-size="7" x="66" y="743">Compute Rack (NVL72 R1-R8) — 130 kW ea, liquid cooled, 72 GPUs + 36 CPUs</text><rect fill="#0a1628" height="8" rx="2" stroke="#3b9eff" stroke-width="1" width="14" x="45" y="750" /><text fill="#9ca3af" font-family="Arial" font-size="7" x="66" y="757">Networking Rack (R9) — Quantum InfiniBand spine, Ethernet ToR, patch</text><rect fill="#1a0a2e" height="8" rx="2" stroke="#a855f7" stroke-width="1" width="14" x="45" y="764" /><text fill="#9ca3af" font-family="Arial" font-size="7" x="66" y="771">Storage + Mgmt Rack (R10) — NVMe-oF, Base Command, monitoring</text><line stroke="#4fc3f7" stroke-width="2" x1="45" x2="59" y1="782" y2="782" /><text fill="#9ca3af" font-family="Arial" font-size="7" x="66" y="785">CDU / Cooling connections (45C supply, 55-65C return)</text><line stroke="#a855f7" stroke-width="2" x1="45" x2="59" y1="796" y2="796" /><text fill="#9ca3af" font-family="Arial" font-size="7" x="66" y="799">800V DC power bus (Eaton Beam Rubin DSX)</text><line stroke="#00e87a" stroke-width="2" x1="45" x2="59" y1="810" y2="810" /><text fill="#9ca3af" font-family="Arial" font-size="7" x="66" y="813">Access panels (dashed) — 8 total, 4 per side, top-hinged, ~8' x 7.5'</text><line stroke="#fbbf24" stroke-width="2" x1="45" x2="59" y1="824" y2="824" /><text fill="#9ca3af" font-family="Arial" font-size="7" x="66" y="827">LED lighting</text><text fill="#4b5563" font-family="Arial" font-size="6.5" x="40" y="848">CONTAINER: 40-ft HC ISO (39'5" x 7'8" x 8'10" internal) | TARE: 8,686 lbs | PAYLOAD: 38,864 lbs | GROSS: 47,550 lbs</text><text fill="#4b5563" font-family="Arial" font-size="6.5" x="40" y="859">COMPUTE: 8 NVL72 (576 GPUs, 1 SuperPOD) + 1 NET + 1 STOR = 10 racks | IT LOAD: 1.3 MW | POWER: 800V DC native</text><text fill="#4b5563" font-family="Arial" font-size="6.5" x="40" y="870">COOLING: Direct-to-chip liquid, 45C supply, dual CDU (250 kW ea), external dry cooler | FIRE: Novec 1230 + VESDA</text><rect fill="#111318" height="100" rx="6" stroke="#1e2230" width="1740" x="30" y="910" /><text fill="#00e87a" font-family="Arial" font-size="9" font-weight="bold" x="40" y="926">ENGINEERING NOTES</text><text fill="#4b5563" font-family="Arial" font-size="6.5" x="40" y="940">1. NVL72 is OCP Open Rack V3 (600mm/23.6" wide), NOT standard 19" EIA-310. Rack depth 1,068mm (42").</text><text fill="#4b5563" font-family="Arial" font-size="6.5" x="40" y="951">2. Side clearance 25.3" does NOT meet NEC 110.26 (30" min). Access panels solve this — work from outside.</text><text fill="#4b5563" font-family="Arial" font-size="6.5" x="40" y="962">3. 8 access panels (4/side), top-hinged, ~8' wide x 7.5' tall. 32' of panels span rack zone. 8' structural at ends.</text><text fill="#4b5563" font-family="Arial" font-size="6.5" x="40" y="973">4. CDU zone at closed end: dual 250 kW CDUs, quick-disconnect bulkhead to external dry cooler / facility loop.</text><text fill="#4b5563" font-family="Arial" font-size="6.5" x="40" y="984">5. Floor: 1/4" steel plate overlay + 1/2" A36 spreader plates (24"x44") under each rack. Point load: 450 PSF.</text><text fill="#4b5563" font-family="Arial" font-size="6.5" x="40" y="995">6. Weight: 10 racks @ 3,300 lbs = 33,000 lbs. Total payload 38,864 lbs. Highway gross 62,550 lbs (under 80K limit).</text><text fill="#4b5563" font-family="Arial" font-size="6.5" x="40" y="1006">7. Vera Rubin (H2 2026) may increase to 190-230 kW/rack and ~4,000 lbs/rack. Power/cooling redesign required.</text><text fill="#4b5563" font-family="Arial" font-size="8" text-anchor="middle" x="900.0" y="1280">ADC 3K — Advantage Design &amp; Construction | adc3k.com | scott@adc3k.com</text><text fill="#333" font-family="Arial" font-size="7" text-anchor="middle" x="900.0" y="1292">CONFIDENTIAL — NOT FOR CONSTRUCTION — PRELIMINARY DESIGN</text></svg>