<?xml version="1.0" encoding="utf-8" ?>
<svg baseProfile="full" height="1000px" version="1.1" viewBox="0 0 1400 1000" width="1400px" xmlns="http://www.w3.org/2000/svg" xmlns:ev="http://www.w3.org/2001/xml-events" xmlns:xlink="http://www.w3.org/1999/xlink"><defs /><rect fill="#0a0b0f" height="1000" width="1400" x="0" y="0" /><text fill="#f0f2f5" font-family="Arial" font-size="16" font-weight="bold" text-anchor="middle" x="700.0" y="24">TIGER COMPUTE CAMPUS — WILLOW GLEN, ST. GABRIEL, LA</text><text fill="#3b82f6" font-family="Arial" font-size="10" font-weight="bold" text-anchor="middle" x="700.0" y="40">ELECTRICAL SINGLE-LINE DIAGRAM | 800V DC NATIVE ARCHITECTURE | NVIDIA DSX REFERENCE DESIGN</text><text fill="#6b7280" font-family="Arial" font-size="9" text-anchor="middle" x="700.0" y="54">Sheet E-001 | MVP Design Intent | 2026-03-22 | NOT FOR CONSTRUCTION</text><g><rect fill="#1a1a2e" height="55" rx="4" ry="4" stroke="#ef4444" stroke-width="1.5" width="160" x="20" y="75" /><text fill="#ef4444" font-family="Arial" font-size="11" font-weight="bold" text-anchor="middle" x="100.0" y="102.5">ENTERGY 500kV</text><text fill="#ef4444" font-family="Arial" font-size="10" font-weight="normal" text-anchor="middle" x="100.0" y="116.5">SUBSTATION</text><text fill="#6b7280" font-family="Arial" font-size="8" text-anchor="middle" x="100.0" y="126">On-site | Willow Glen–Waterford Line</text></g><g><rect fill="#1a1a2e" height="55" rx="4" ry="4" stroke="#ef4444" stroke-width="1.5" width="160" x="200" y="75" /><text fill="#ef4444" font-family="Arial" font-size="11" font-weight="bold" text-anchor="middle" x="280.0" y="102.5">ENTERGY 230kV</text><text fill="#ef4444" font-family="Arial" font-size="10" font-weight="normal" text-anchor="middle" x="280.0" y="116.5">SUBSTATION</text><text fill="#6b7280" font-family="Arial" font-size="8" text-anchor="middle" x="280.0" y="126">On-site | Willow Glen–Conway Line</text></g><g><rect fill="#1a2e1a" height="55" rx="4" ry="4" stroke="#22c55e" stroke-width="1.5" width="120" x="520" y="75" /><text fill="#22c55e" font-family="Arial" font-size="11" font-weight="bold" text-anchor="middle" x="580.0" y="102.5">CAT CG260-16</text><text fill="#22c55e" font-family="Arial" font-size="10" font-weight="normal" text-anchor="middle" x="580.0" y="116.5">#1 — 2.8 MW</text><text fill="#6b7280" font-family="Arial" font-size="8" text-anchor="middle" x="580.0" y="126">Natural Gas | H2-Ready 25%</text></g><g><rect fill="#1a2e1a" height="55" rx="4" ry="4" stroke="#22c55e" stroke-width="1.5" width="120" x="660" y="75" /><text fill="#22c55e" font-family="Arial" font-size="11" font-weight="bold" text-anchor="middle" x="720.0" y="102.5">CAT CG260-16</text><text fill="#22c55e" font-family="Arial" font-size="10" font-weight="normal" text-anchor="middle" x="720.0" y="116.5">#2 — 2.8 MW</text><text fill="#6b7280" font-family="Arial" font-size="8" text-anchor="middle" x="720.0" y="126">Natural Gas | H2-Ready 25%</text></g><g><rect fill="#1a2e1a" height="55" rx="4" ry="4" stroke="#22c55e" stroke-width="1.5" width="120" x="800" y="75" /><text fill="#22c55e" font-family="Arial" font-size="11" font-weight="bold" text-anchor="middle" x="860.0" y="102.5">CAT CG260-16</text><text fill="#22c55e" font-family="Arial" font-size="10" font-weight="normal" text-anchor="middle" x="860.0" y="116.5">#3 (N+1)</text><text fill="#6b7280" font-family="Arial" font-size="8" text-anchor="middle" x="860.0" y="126">Redundant | Maintenance Spare</text></g><g><rect fill="#1a1a2e" height="55" rx="4" ry="4" stroke="#fbbf24" stroke-width="1.5" width="140" x="980" y="75" /><text fill="#fbbf24" font-family="Arial" font-size="11" font-weight="bold" text-anchor="middle" x="1050.0" y="102.5">FIRST SOLAR</text><text fill="#fbbf24" font-family="Arial" font-size="10" font-weight="normal" text-anchor="middle" x="1050.0" y="116.5">Ground Mount</text><text fill="#6b7280" font-family="Arial" font-size="8" text-anchor="middle" x="1050.0" y="126">Series 7 TR1 | 5+ MW Phase 1</text></g><g><rect fill="#2e1a1a" height="55" rx="4" ry="4" stroke="#ef4444" stroke-width="1.5" width="120" x="1180" y="75" /><text fill="#ef4444" font-family="Arial" font-size="11" font-weight="bold" text-anchor="middle" x="1240.0" y="102.5">DIESEL GENSET</text><text fill="#ef4444" font-family="Arial" font-size="10" font-weight="normal" text-anchor="middle" x="1240.0" y="116.5">Emergency</text><text fill="#6b7280" font-family="Arial" font-size="8" text-anchor="middle" x="1240.0" y="126">Layer 3 | Pipeline-Independent</text></g><line stroke="#ef4444" stroke-width="1.5" x1="100" x2="100" y1="130" y2="180" /><polygon fill="#ef4444" points="96,174 104,174 100,180" /><line stroke="#ef4444" stroke-width="1.5" x1="280" x2="280" y1="130" y2="180" /><polygon fill="#ef4444" points="276,174 284,174 280,180" /><g><rect fill="#1a1a2e" height="50" rx="4" ry="4" stroke="#ef4444" stroke-width="1.5" width="240" x="80" y="180" /><text fill="#e0e0e0" font-family="Arial" font-size="11" font-weight="bold" text-anchor="middle" x="200.0" y="205.0">MAIN STEP-DOWN TRANSFORMERS</text><text fill="#e0e0e0" font-family="Arial" font-size="10" font-weight="normal" text-anchor="middle" x="200.0" y="219.0">500kV/230kV → 13.8kV AC</text><text fill="#6b7280" font-family="Arial" font-size="8" text-anchor="middle" x="200.0" y="226">Oil-filled | Entergy-owned | Bidirectional for sell-back</text></g><line stroke="#22c55e" stroke-width="1.5" x1="580" x2="580" y1="130" y2="180" /><polygon fill="#22c55e" points="576,174 584,174 580,180" /><line stroke="#22c55e" stroke-width="1.5" x1="720" x2="720" y1="130" y2="180" /><polygon fill="#22c55e" points="716,174 724,174 720,180" /><line stroke="#22c55e" stroke-width="1.5" x1="860" x2="860" y1="130" y2="180" /><polygon fill="#22c55e" points="856,174 864,174 860,180" /><g><rect fill="#1a1a2e" height="50" rx="4" ry="4" stroke="#22c55e" stroke-width="1.5" width="500" x="500" y="180" /><text fill="#e0e0e0" font-family="Arial" font-size="11" font-weight="bold" text-anchor="middle" x="750.0" y="205.0">PARALLELING SWITCHGEAR + ATS</text><text fill="#e0e0e0" font-family="Arial" font-size="10" font-weight="normal" text-anchor="middle" x="750.0" y="219.0">Louisiana Cat Switchgear &amp; Paralleling Controls</text><text fill="#6b7280" font-family="Arial" font-size="8" text-anchor="middle" x="750.0" y="226">Auto-sync generators to bus | Auto-transfer on loss | Load sharing</text></g><line stroke="#ef4444" stroke-width="1.5" x1="1240" x2="1240" y1="130" y2="180" /><polygon fill="#ef4444" points="1236,174 1244,174 1240,180" /><g><rect fill="#1a1a2e" height="50" rx="4" ry="4" stroke="#ef4444" stroke-width="1.5" width="160" x="1160" y="180" /><text fill="#e0e0e0" font-family="Arial" font-size="11" font-weight="bold" text-anchor="middle" x="1240.0" y="205.0">EMERGENCY ATS</text><text fill="#e0e0e0" font-family="Arial" font-size="10" font-weight="normal" text-anchor="middle" x="1240.0" y="219.0">Diesel Transfer</text><text fill="#6b7280" font-family="Arial" font-size="8" text-anchor="middle" x="1240.0" y="226">Auto-start on dual failure</text></g><line stroke="#ef4444" stroke-width="1.5" x1="200" x2="200" y1="230" y2="275" /><polygon fill="#ef4444" points="196,269 204,269 200,275" /><line stroke="#22c55e" stroke-width="1.5" x1="750" x2="750" y1="230" y2="275" /><polygon fill="#22c55e" points="746,269 754,269 750,275" /><line stroke="#ef4444" stroke-width="1.5" x1="1240" x2="1240" y1="230" y2="275" /><polygon fill="#ef4444" points="1236,269 1244,269 1240,275" /><rect fill="#ff6b35" height="6" rx="2" width="1290" x="30" y="272" /><text fill="#ff6b35" font-family="Arial" font-size="10" font-weight="bold" text-anchor="middle" x="675.0" y="267">13.8kV AC DISTRIBUTION BUS</text><line stroke="#ff6b35" stroke-width="1.5" x1="400" x2="400" y1="278" y2="320" /><polygon fill="#ff6b35" points="396,314 404,314 400,320" /><line stroke="#ff6b35" stroke-width="1.5" x1="700" x2="700" y1="278" y2="320" /><polygon fill="#ff6b35" points="696,314 704,314 700,320" /><line stroke="#ff6b35" stroke-width="1.5" x1="1000" x2="1000" y1="278" y2="320" /><polygon fill="#ff6b35" points="996,314 1004,314 1000,320" /><g><rect fill="#1a1a2e" height="55" rx="4" ry="4" stroke="#8b5cf6" stroke-width="1.5" width="230" x="300" y="320" /><text fill="#c4b5fd" font-family="Arial" font-size="11" font-weight="bold" text-anchor="middle" x="415.0" y="347.5">AC/DC RECTIFIER #1</text><text fill="#c4b5fd" font-family="Arial" font-size="10" font-weight="normal" text-anchor="middle" x="415.0" y="361.5">13.8kV AC → 800V DC</text><text fill="#6b7280" font-family="Arial" font-size="8" text-anchor="middle" x="415.0" y="371">Eaton Beam Rubin DSX | 96%+ Efficiency</text></g><g><rect fill="#1a1a2e" height="55" rx="4" ry="4" stroke="#8b5cf6" stroke-width="1.5" width="230" x="600" y="320" /><text fill="#c4b5fd" font-family="Arial" font-size="11" font-weight="bold" text-anchor="middle" x="715.0" y="347.5">AC/DC RECTIFIER #2</text><text fill="#c4b5fd" font-family="Arial" font-size="10" font-weight="normal" text-anchor="middle" x="715.0" y="361.5">13.8kV AC → 800V DC</text><text fill="#6b7280" font-family="Arial" font-size="8" text-anchor="middle" x="715.0" y="371">Eaton Beam Rubin DSX | 96%+ Efficiency</text></g><g><rect fill="#1a1a2e" height="55" rx="4" ry="4" stroke="#8b5cf6" stroke-width="1.5" width="230" x="900" y="320" /><text fill="#c4b5fd" font-family="Arial" font-size="11" font-weight="bold" text-anchor="middle" x="1015.0" y="347.5">AC/DC RECTIFIER #3</text><text fill="#c4b5fd" font-family="Arial" font-size="10" font-weight="normal" text-anchor="middle" x="1015.0" y="361.5">13.8kV AC → 800V DC</text><text fill="#6b7280" font-family="Arial" font-size="8" text-anchor="middle" x="1015.0" y="371">Eaton Beam Rubin DSX | N+1 Redundant</text></g><line stroke="#fbbf24" stroke-width="1.5" x1="1050" x2="1050" y1="130" y2="145" /><line stroke="#fbbf24" stroke-width="1.5" x1="1050" x2="1130" y1="145" y2="145" /><line stroke="#fbbf24" stroke-width="1.5" x1="1130" x2="1130" y1="145" y2="320" /><g><rect fill="#1a1a2e" height="55" rx="4" ry="4" stroke="#fbbf24" stroke-width="1.5" width="130" x="1075" y="320" /><text fill="#fbbf24" font-family="Arial" font-size="11" font-weight="bold" text-anchor="middle" x="1140.0" y="347.5">DC-DC CONVERTER</text><text fill="#fbbf24" font-family="Arial" font-size="10" font-weight="normal" text-anchor="middle" x="1140.0" y="361.5">952V → 800V DC</text><text fill="#6b7280" font-family="Arial" font-size="8" text-anchor="middle" x="1140.0" y="371">Buck converter | 97% Eff | Bypasses AC</text></g><line stroke="#8b5cf6" stroke-width="1.5" x1="415" x2="415" y1="375" y2="425" /><polygon fill="#8b5cf6" points="411,419 419,419 415,425" /><line stroke="#8b5cf6" stroke-width="1.5" x1="715" x2="715" y1="375" y2="425" /><polygon fill="#8b5cf6" points="711,419 719,419 715,425" /><line stroke="#8b5cf6" stroke-width="1.5" x1="1015" x2="1015" y1="375" y2="425" /><polygon fill="#8b5cf6" points="1011,419 1019,419 1015,425" /><line stroke="#8b5cf6" stroke-width="1.5" x1="1130" x2="1130" y1="375" y2="425" /><polygon fill="#8b5cf6" points="1126,419 1134,419 1130,425" /><rect fill="#8b5cf6" height="6" rx="2" width="1290" x="30" y="422" /><text fill="#8b5cf6" font-family="Arial" font-size="10" font-weight="bold" text-anchor="middle" x="675.0" y="417">800V DC DISTRIBUTION BUS — NVIDIA DSX REFERENCE ARCHITECTURE</text><line stroke="#8b5cf6" stroke-width="1.5" x1="100" x2="100" y1="428" y2="445" /><g><rect fill="#1a1a2e" height="50" rx="4" ry="4" stroke="#3b82f6" stroke-width="1.5" width="120" x="40" y="445" /><text fill="#93c5fd" font-family="Arial" font-size="11" font-weight="bold" text-anchor="middle" x="100.0" y="470.0">EATON xStorage</text><text fill="#93c5fd" font-family="Arial" font-size="10" font-weight="normal" text-anchor="middle" x="100.0" y="484.0">BESS</text><text fill="#6b7280" font-family="Arial" font-size="8" text-anchor="middle" x="100.0" y="491">800V DC | Grid Buffer
Ride-through | Peak Shaving</text></g><line stroke="#ef4444" stroke-width="1.5" x1="100" x2="100" y1="275" y2="260" /><text fill="#ef4444" font-family="Arial" font-size="8" x="110" y="267">↑ SELL-BACK TO ENTERGY (Layer 4)</text><line stroke="#8b5cf6" stroke-width="1.5" x1="255" x2="255" y1="428" y2="480" /><polygon fill="#8b5cf6" points="251,474 259,474 255,480" /><g><rect fill="#1a1a2e" height="40" rx="4" ry="4" stroke="#8b5cf6" stroke-width="1.5" width="110" x="200" y="480" /><text fill="#c4b5fd" font-family="Arial" font-size="9" font-weight="bold" text-anchor="middle" x="255.0" y="500.0">EATON BUSWAY</text><text fill="#c4b5fd" font-family="Arial" font-size="8" font-weight="normal" text-anchor="middle" x="255.0" y="514.0">800V DC</text></g><line stroke="#8b5cf6" stroke-width="1.5" x1="475" x2="475" y1="428" y2="480" /><polygon fill="#8b5cf6" points="471,474 479,474 475,480" /><g><rect fill="#1a1a2e" height="40" rx="4" ry="4" stroke="#8b5cf6" stroke-width="1.5" width="110" x="420" y="480" /><text fill="#c4b5fd" font-family="Arial" font-size="9" font-weight="bold" text-anchor="middle" x="475.0" y="500.0">EATON BUSWAY</text><text fill="#c4b5fd" font-family="Arial" font-size="8" font-weight="normal" text-anchor="middle" x="475.0" y="514.0">800V DC</text></g><line stroke="#8b5cf6" stroke-width="1.5" x1="695" x2="695" y1="428" y2="480" /><polygon fill="#8b5cf6" points="691,474 699,474 695,480" /><g><rect fill="#1a1a2e" height="40" rx="4" ry="4" stroke="#8b5cf6" stroke-width="1.5" width="110" x="640" y="480" /><text fill="#c4b5fd" font-family="Arial" font-size="9" font-weight="bold" text-anchor="middle" x="695.0" y="500.0">EATON BUSWAY</text><text fill="#c4b5fd" font-family="Arial" font-size="8" font-weight="normal" text-anchor="middle" x="695.0" y="514.0">800V DC</text></g><line stroke="#8b5cf6" stroke-width="1.5" x1="915" x2="915" y1="428" y2="480" /><polygon fill="#8b5cf6" points="911,474 919,474 915,480" /><g><rect fill="#1a1a2e" height="40" rx="4" ry="4" stroke="#8b5cf6" stroke-width="1.5" width="110" x="860" y="480" /><text fill="#c4b5fd" font-family="Arial" font-size="9" font-weight="bold" text-anchor="middle" x="915.0" y="500.0">EATON BUSWAY</text><text fill="#c4b5fd" font-family="Arial" font-size="8" font-weight="normal" text-anchor="middle" x="915.0" y="514.0">800V DC</text></g><line stroke="#8b5cf6" stroke-width="1.5" x1="1135" x2="1135" y1="428" y2="480" /><polygon fill="#8b5cf6" points="1131,474 1139,474 1135,480" /><g><rect fill="#1a1a2e" height="40" rx="4" ry="4" stroke="#8b5cf6" stroke-width="1.5" width="110" x="1080" y="480" /><text fill="#c4b5fd" font-family="Arial" font-size="9" font-weight="bold" text-anchor="middle" x="1135.0" y="500.0">EATON BUSWAY</text><text fill="#c4b5fd" font-family="Arial" font-size="8" font-weight="normal" text-anchor="middle" x="1135.0" y="514.0">800V DC</text></g><line stroke="#8b5cf6" stroke-width="1.5" x1="255" x2="255" y1="520" y2="555" /><polygon fill="#8b5cf6" points="251,549 259,549 255,555" /><g><rect fill="#1a1a2e" height="40" rx="4" ry="4" stroke="#8b5cf6" stroke-width="1.5" width="110" x="200" y="555" /><text fill="#c4b5fd" font-family="Arial" font-size="9" font-weight="bold" text-anchor="middle" x="255.0" y="575.0">RACK PDU</text><text fill="#c4b5fd" font-family="Arial" font-size="8" font-weight="normal" text-anchor="middle" x="255.0" y="589.0">800V DC Input</text></g><line stroke="#8b5cf6" stroke-width="1.5" x1="475" x2="475" y1="520" y2="555" /><polygon fill="#8b5cf6" points="471,549 479,549 475,555" /><g><rect fill="#1a1a2e" height="40" rx="4" ry="4" stroke="#8b5cf6" stroke-width="1.5" width="110" x="420" y="555" /><text fill="#c4b5fd" font-family="Arial" font-size="9" font-weight="bold" text-anchor="middle" x="475.0" y="575.0">RACK PDU</text><text fill="#c4b5fd" font-family="Arial" font-size="8" font-weight="normal" text-anchor="middle" x="475.0" y="589.0">800V DC Input</text></g><line stroke="#8b5cf6" stroke-width="1.5" x1="695" x2="695" y1="520" y2="555" /><polygon fill="#8b5cf6" points="691,549 699,549 695,555" /><g><rect fill="#1a1a2e" height="40" rx="4" ry="4" stroke="#8b5cf6" stroke-width="1.5" width="110" x="640" y="555" /><text fill="#c4b5fd" font-family="Arial" font-size="9" font-weight="bold" text-anchor="middle" x="695.0" y="575.0">RACK PDU</text><text fill="#c4b5fd" font-family="Arial" font-size="8" font-weight="normal" text-anchor="middle" x="695.0" y="589.0">800V DC Input</text></g><line stroke="#8b5cf6" stroke-width="1.5" x1="915" x2="915" y1="520" y2="555" /><polygon fill="#8b5cf6" points="911,549 919,549 915,555" /><g><rect fill="#1a1a2e" height="40" rx="4" ry="4" stroke="#8b5cf6" stroke-width="1.5" width="110" x="860" y="555" /><text fill="#c4b5fd" font-family="Arial" font-size="9" font-weight="bold" text-anchor="middle" x="915.0" y="575.0">RACK PDU</text><text fill="#c4b5fd" font-family="Arial" font-size="8" font-weight="normal" text-anchor="middle" x="915.0" y="589.0">800V DC Input</text></g><line stroke="#8b5cf6" stroke-width="1.5" x1="1135" x2="1135" y1="520" y2="555" /><polygon fill="#8b5cf6" points="1131,549 1139,549 1135,555" /><g><rect fill="#1a1a2e" height="40" rx="4" ry="4" stroke="#8b5cf6" stroke-width="1.5" width="110" x="1080" y="555" /><text fill="#c4b5fd" font-family="Arial" font-size="9" font-weight="bold" text-anchor="middle" x="1135.0" y="575.0">RACK PDU</text><text fill="#c4b5fd" font-family="Arial" font-size="8" font-weight="normal" text-anchor="middle" x="1135.0" y="589.0">800V DC Input</text></g><line stroke="#8b5cf6" stroke-width="1.5" x1="255" x2="255" y1="595" y2="630" /><polygon fill="#8b5cf6" points="251,624 259,624 255,630" /><g><rect fill="#1a1a2e" height="40" rx="4" ry="4" stroke="#76b900" stroke-width="1.5" width="110" x="200" y="630" /><text fill="#76b900" font-family="Arial" font-size="9" font-weight="bold" text-anchor="middle" x="255.0" y="650.0">64:1 LLC DC-DC</text><text fill="#76b900" font-family="Arial" font-size="8" font-weight="normal" text-anchor="middle" x="255.0" y="664.0">800V → 12.5V</text><text fill="#6b7280" font-family="Arial" font-size="8" text-anchor="middle" x="255.0" y="666">99%+ Efficiency</text></g><line stroke="#8b5cf6" stroke-width="1.5" x1="475" x2="475" y1="595" y2="630" /><polygon fill="#8b5cf6" points="471,624 479,624 475,630" /><g><rect fill="#1a1a2e" height="40" rx="4" ry="4" stroke="#76b900" stroke-width="1.5" width="110" x="420" y="630" /><text fill="#76b900" font-family="Arial" font-size="9" font-weight="bold" text-anchor="middle" x="475.0" y="650.0">64:1 LLC DC-DC</text><text fill="#76b900" font-family="Arial" font-size="8" font-weight="normal" text-anchor="middle" x="475.0" y="664.0">800V → 12.5V</text><text fill="#6b7280" font-family="Arial" font-size="8" text-anchor="middle" x="475.0" y="666">99%+ Efficiency</text></g><line stroke="#8b5cf6" stroke-width="1.5" x1="695" x2="695" y1="595" y2="630" /><polygon fill="#8b5cf6" points="691,624 699,624 695,630" /><g><rect fill="#1a1a2e" height="40" rx="4" ry="4" stroke="#76b900" stroke-width="1.5" width="110" x="640" y="630" /><text fill="#76b900" font-family="Arial" font-size="9" font-weight="bold" text-anchor="middle" x="695.0" y="650.0">64:1 LLC DC-DC</text><text fill="#76b900" font-family="Arial" font-size="8" font-weight="normal" text-anchor="middle" x="695.0" y="664.0">800V → 12.5V</text><text fill="#6b7280" font-family="Arial" font-size="8" text-anchor="middle" x="695.0" y="666">99%+ Efficiency</text></g><line stroke="#8b5cf6" stroke-width="1.5" x1="915" x2="915" y1="595" y2="630" /><polygon fill="#8b5cf6" points="911,624 919,624 915,630" /><g><rect fill="#1a1a2e" height="40" rx="4" ry="4" stroke="#76b900" stroke-width="1.5" width="110" x="860" y="630" /><text fill="#76b900" font-family="Arial" font-size="9" font-weight="bold" text-anchor="middle" x="915.0" y="650.0">64:1 LLC DC-DC</text><text fill="#76b900" font-family="Arial" font-size="8" font-weight="normal" text-anchor="middle" x="915.0" y="664.0">800V → 12.5V</text><text fill="#6b7280" font-family="Arial" font-size="8" text-anchor="middle" x="915.0" y="666">99%+ Efficiency</text></g><line stroke="#8b5cf6" stroke-width="1.5" x1="1135" x2="1135" y1="595" y2="630" /><polygon fill="#8b5cf6" points="1131,624 1139,624 1135,630" /><g><rect fill="#1a1a2e" height="40" rx="4" ry="4" stroke="#76b900" stroke-width="1.5" width="110" x="1080" y="630" /><text fill="#76b900" font-family="Arial" font-size="9" font-weight="bold" text-anchor="middle" x="1135.0" y="650.0">64:1 LLC DC-DC</text><text fill="#76b900" font-family="Arial" font-size="8" font-weight="normal" text-anchor="middle" x="1135.0" y="664.0">800V → 12.5V</text><text fill="#6b7280" font-family="Arial" font-size="8" text-anchor="middle" x="1135.0" y="666">99%+ Efficiency</text></g><line stroke="#76b900" stroke-width="1.5" x1="255" x2="255" y1="670" y2="710" /><polygon fill="#76b900" points="251,704 259,704 255,710" /><g><rect fill="#111a00" height="60" rx="4" ry="4" stroke="#76b900" stroke-width="1.5" width="110" x="200" y="710" /><text fill="#76b900" font-family="Arial" font-size="9" font-weight="bold" text-anchor="middle" x="255.0" y="726.0">NVIDIA NVL72</text><text fill="#76b900" font-family="Arial" font-size="8" font-weight="normal" text-anchor="middle" x="255.0" y="740.0">RACKS 1-7</text><text fill="#76b900" font-family="Arial" font-size="8" font-weight="normal" text-anchor="middle" x="255.0" y="754.0">130 kW each</text><text fill="#76b900" font-family="Arial" font-size="8" font-weight="normal" text-anchor="middle" x="255.0" y="768.0">0.91 MW</text><text fill="#6b7280" font-family="Arial" font-size="8" text-anchor="middle" x="255.0" y="766">Vera Rubin | Liquid Cooled</text></g><line stroke="#76b900" stroke-width="1.5" x1="475" x2="475" y1="670" y2="710" /><polygon fill="#76b900" points="471,704 479,704 475,710" /><g><rect fill="#111a00" height="60" rx="4" ry="4" stroke="#76b900" stroke-width="1.5" width="110" x="420" y="710" /><text fill="#76b900" font-family="Arial" font-size="9" font-weight="bold" text-anchor="middle" x="475.0" y="726.0">NVIDIA NVL72</text><text fill="#76b900" font-family="Arial" font-size="8" font-weight="normal" text-anchor="middle" x="475.0" y="740.0">RACKS 8-14</text><text fill="#76b900" font-family="Arial" font-size="8" font-weight="normal" text-anchor="middle" x="475.0" y="754.0">130 kW each</text><text fill="#76b900" font-family="Arial" font-size="8" font-weight="normal" text-anchor="middle" x="475.0" y="768.0">0.91 MW</text><text fill="#6b7280" font-family="Arial" font-size="8" text-anchor="middle" x="475.0" y="766">Vera Rubin | Liquid Cooled</text></g><line stroke="#76b900" stroke-width="1.5" x1="695" x2="695" y1="670" y2="710" /><polygon fill="#76b900" points="691,704 699,704 695,710" /><g><rect fill="#111a00" height="60" rx="4" ry="4" stroke="#76b900" stroke-width="1.5" width="110" x="640" y="710" /><text fill="#76b900" font-family="Arial" font-size="9" font-weight="bold" text-anchor="middle" x="695.0" y="726.0">NVIDIA NVL72</text><text fill="#76b900" font-family="Arial" font-size="8" font-weight="normal" text-anchor="middle" x="695.0" y="740.0">RACKS 15-21</text><text fill="#76b900" font-family="Arial" font-size="8" font-weight="normal" text-anchor="middle" x="695.0" y="754.0">130 kW each</text><text fill="#76b900" font-family="Arial" font-size="8" font-weight="normal" text-anchor="middle" x="695.0" y="768.0">0.91 MW</text><text fill="#6b7280" font-family="Arial" font-size="8" text-anchor="middle" x="695.0" y="766">Vera Rubin | Liquid Cooled</text></g><line stroke="#76b900" stroke-width="1.5" x1="915" x2="915" y1="670" y2="710" /><polygon fill="#76b900" points="911,704 919,704 915,710" /><g><rect fill="#111a00" height="60" rx="4" ry="4" stroke="#76b900" stroke-width="1.5" width="110" x="860" y="710" /><text fill="#76b900" font-family="Arial" font-size="9" font-weight="bold" text-anchor="middle" x="915.0" y="726.0">NVIDIA NVL72</text><text fill="#76b900" font-family="Arial" font-size="8" font-weight="normal" text-anchor="middle" x="915.0" y="740.0">RACKS 22-28</text><text fill="#76b900" font-family="Arial" font-size="8" font-weight="normal" text-anchor="middle" x="915.0" y="754.0">130 kW each</text><text fill="#76b900" font-family="Arial" font-size="8" font-weight="normal" text-anchor="middle" x="915.0" y="768.0">0.91 MW</text><text fill="#6b7280" font-family="Arial" font-size="8" text-anchor="middle" x="915.0" y="766">Vera Rubin | Liquid Cooled</text></g><line stroke="#76b900" stroke-width="1.5" x1="1135" x2="1135" y1="670" y2="710" /><polygon fill="#76b900" points="1131,704 1139,704 1135,710" /><g><rect fill="#111a00" height="60" rx="4" ry="4" stroke="#76b900" stroke-width="1.5" width="110" x="1080" y="710" /><text fill="#76b900" font-family="Arial" font-size="9" font-weight="bold" text-anchor="middle" x="1135.0" y="726.0">NVIDIA NVL72</text><text fill="#76b900" font-family="Arial" font-size="8" font-weight="normal" text-anchor="middle" x="1135.0" y="740.0">RACKS 29-36</text><text fill="#76b900" font-family="Arial" font-size="8" font-weight="normal" text-anchor="middle" x="1135.0" y="754.0">130 kW each</text><text fill="#76b900" font-family="Arial" font-size="8" font-weight="normal" text-anchor="middle" x="1135.0" y="768.0">1.04 MW</text><text fill="#6b7280" font-family="Arial" font-size="8" text-anchor="middle" x="1135.0" y="766">Vera Rubin | Liquid Cooled</text></g><rect fill="#111318" height="45" rx="6" stroke="#1e2230" stroke-width="1" width="1340" x="30" y="800" /><text fill="#6b7280" font-family="Arial" font-size="8" font-weight="bold" x="60" y="816">PHASE 1 IT LOAD</text><text fill="#76b900" font-family="Arial" font-size="11" font-weight="bold" x="60" y="830">4.68 MW</text><text fill="#6b7280" font-family="Arial" font-size="8" font-weight="bold" x="280" y="816">TOTAL FACILITY</text><text fill="#76b900" font-family="Arial" font-size="11" font-weight="bold" x="280" y="830">~6.5 MW</text><text fill="#6b7280" font-family="Arial" font-size="8" font-weight="bold" x="500" y="816">GENERATORS</text><text fill="#76b900" font-family="Arial" font-size="11" font-weight="bold" x="500" y="830">3x CG260 = 8.4 MW (N+1)</text><text fill="#6b7280" font-family="Arial" font-size="8" font-weight="bold" x="720" y="816">SOLAR</text><text fill="#76b900" font-family="Arial" font-size="11" font-weight="bold" x="720" y="830">5+ MW (DC-Direct)</text><text fill="#6b7280" font-family="Arial" font-size="8" font-weight="bold" x="940" y="816">RACKS</text><text fill="#76b900" font-family="Arial" font-size="11" font-weight="bold" x="940" y="830">36 NVL72 (2,592 GPUs)</text><text fill="#6b7280" font-family="Arial" font-size="8" font-weight="bold" x="1160" y="816">ARCHITECTURE</text><text fill="#76b900" font-family="Arial" font-size="11" font-weight="bold" x="1160" y="830">800V DC Native</text><text fill="#4b5563" font-family="Arial" font-size="8" x="35" y="860">1. 500kV and 230kV substations are EXISTING Entergy assets on-site — LIVE and accepting new interconnections</text><text fill="#4b5563" font-family="Arial" font-size="8" x="35" y="873">2. Cat CG260-16 generators are hydrogen-ready (25% blend) — future-proof for green fuel transition</text><text fill="#4b5563" font-family="Arial" font-size="8" x="35" y="886">3. First Solar arrays connect DC-direct to 800V bus at 97% efficiency, bypassing AC conversion entirely</text><text fill="#4b5563" font-family="Arial" font-size="8" x="35" y="899">4. 800V DC per NVIDIA DSX Reference Design — 85% more power through same copper vs 415V AC</text><text fill="#4b5563" font-family="Arial" font-size="8" x="35" y="912">5. 64:1 LLC resonant converters: 800V DC to 12.5V at GPU die — 99%+ conversion efficiency</text><text fill="#4b5563" font-family="Arial" font-size="8" x="35" y="925">6. Eaton Beam Rubin DSX: complete grid-to-chip platform (rectification + distribution + rack PDU)</text><text fill="#4b5563" font-family="Arial" font-size="8" x="35" y="938">7. N+1 generator redundancy — any single unit offline for maintenance without load reduction</text><text fill="#4b5563" font-family="Arial" font-size="8" x="35" y="951">8. Grid is SELL-BACK ONLY (Layer 4) — excess power returns to Entergy, never consumed from grid</text><text fill="#4b5563" font-family="Arial" font-size="8" x="35" y="964">9. BESS provides ride-through for transfer events + peak shaving for GPU training spike loads</text><rect fill="#fbbf24" height="8" width="8" x="35" y="979" /><text fill="#6b7280" font-family="Arial" font-size="8" font-weight="bold" x="49" y="987">LAYER 1: SOLAR — Primary Offset</text><rect fill="#22c55e" height="8" width="8" x="335" y="979" /><text fill="#6b7280" font-family="Arial" font-size="8" font-weight="bold" x="349" y="987">LAYER 2: NATURAL GAS — Backbone — 24/7</text><rect fill="#ef4444" height="8" width="8" x="635" y="979" /><text fill="#6b7280" font-family="Arial" font-size="8" font-weight="bold" x="649" y="987">LAYER 3: DIESEL — Emergency Only</text><rect fill="#ef4444" height="8" width="8" x="935" y="979" /><text fill="#6b7280" font-family="Arial" font-size="8" font-weight="bold" x="949" y="987">LAYER 4: GRID — Sell-Back Only</text></svg>