<?xml version="1.0" encoding="utf-8" ?>
<svg baseProfile="full" height="950px" version="1.1" viewBox="0 0 1400 950" width="1400px" xmlns="http://www.w3.org/2000/svg" xmlns:ev="http://www.w3.org/2001/xml-events" xmlns:xlink="http://www.w3.org/1999/xlink"><defs /><rect fill="#0a0b0f" height="950" width="1400" x="0" y="0" /><text fill="#f0f2f5" font-family="Arial" font-size="16" font-weight="bold" text-anchor="middle" x="700.0" y="24">MARLIE I — LAFAYETTE AI FACTORY &amp; COMMAND CENTER</text><text fill="#3b82f6" font-family="Arial" font-size="10" font-weight="bold" text-anchor="middle" x="700.0" y="40">COOLING FLOW SCHEMATIC | DRY COOLERS ONLY | 2 CDU PAIRS | LIQUID-COOLED GPU RACKS</text><text fill="#6b7280" font-family="Arial" font-size="9" text-anchor="middle" x="700.0" y="54">Sheet C-001 | Design Intent | 2026-03-23 | NOT FOR CONSTRUCTION</text><g><rect fill="#1a1a2e" height="180" rx="4" ry="4" stroke="#22c55e" stroke-width="1.5" width="160" x="30" y="100" /><text fill="#22c55e" font-family="Arial" font-size="11" font-weight="bold" text-anchor="middle" x="110.0" y="134.0">EXTERIOR</text><text fill="#22c55e" font-family="Arial" font-size="10" font-weight="normal" text-anchor="middle" x="110.0" y="148.0">DRY COOLERS</text><text fill="#22c55e" font-family="Arial" font-size="10" font-weight="normal" text-anchor="middle" x="110.0" y="162.0">(Concrete Pad)</text><text fill="#22c55e" font-family="Arial" font-size="10" font-weight="normal" text-anchor="middle" x="110.0" y="176.0" /><text fill="#22c55e" font-family="Arial" font-size="10" font-weight="normal" text-anchor="middle" x="110.0" y="190.0">Fan-Assisted</text><text fill="#22c55e" font-family="Arial" font-size="10" font-weight="normal" text-anchor="middle" x="110.0" y="204.0">Air-Cooled</text><text fill="#22c55e" font-family="Arial" font-size="10" font-weight="normal" text-anchor="middle" x="110.0" y="218.0">Heat Rejection</text><text fill="#22c55e" font-family="Arial" font-size="10" font-weight="normal" text-anchor="middle" x="110.0" y="232.0" /><text fill="#22c55e" font-family="Arial" font-size="10" font-weight="normal" text-anchor="middle" x="110.0" y="246.0">No Water Tower</text><text fill="#22c55e" font-family="Arial" font-size="10" font-weight="normal" text-anchor="middle" x="110.0" y="260.0">No River</text><text fill="#6b7280" font-family="Arial" font-size="8" text-anchor="middle" x="110.0" y="276">Infrastructure Yard | Outdoor</text></g><text fill="#22c55e" font-family="Arial" font-size="9" font-weight="bold" x="35" y="300">Ambient Rejection</text><text fill="#6b7280" font-family="Arial" font-size="8" x="35" y="315">Louisiana peak: ~95F ambient</text><text fill="#6b7280" font-family="Arial" font-size="8" x="35" y="328">Capacity: ~1,500 kW rejection</text><text fill="#6b7280" font-family="Arial" font-size="8" x="35" y="341">Headroom for hot days + expansion</text><polyline fill="none" points="190,160 260,160" stroke="#4fc3f7" stroke-width="4" /><polygon fill="#4fc3f7" points="258,155 258,165 266,160" /><text fill="#4fc3f7" font-family="Arial" font-size="9" font-weight="bold" x="195" y="150">COLD SUPPLY 30-35C (86-95F)</text><g><rect fill="#1a1a2e" height="100" rx="4" ry="4" stroke="#22c55e" stroke-width="1.5" width="180" x="260" y="90" /><text fill="#86efac" font-family="Arial" font-size="11" font-weight="bold" text-anchor="middle" x="350.0" y="112.0">FACILITY</text><text fill="#86efac" font-family="Arial" font-size="10" font-weight="normal" text-anchor="middle" x="350.0" y="126.0">COOLING LOOP</text><text fill="#86efac" font-family="Arial" font-size="10" font-weight="normal" text-anchor="middle" x="350.0" y="140.0" /><text fill="#86efac" font-family="Arial" font-size="10" font-weight="normal" text-anchor="middle" x="350.0" y="154.0">Treated Water/Glycol</text><text fill="#86efac" font-family="Arial" font-size="10" font-weight="normal" text-anchor="middle" x="350.0" y="168.0">Circulation Pumps</text><text fill="#86efac" font-family="Arial" font-size="10" font-weight="normal" text-anchor="middle" x="350.0" y="182.0">Flow Control</text></g><text fill="#6b7280" font-family="Arial" font-size="8" x="260" y="78">Inside building — mechanical room</text><polyline fill="none" points="350,190 350,220 130,220 130,280" stroke="#ff6b6b" stroke-width="3" /><text fill="#ff6b6b" font-family="Arial" font-size="9" font-weight="bold" x="230" y="215">HOT RETURN TO DRY COOLERS 50-55C (122-131F)</text><polyline fill="none" points="440,130 520,130" stroke="#22c55e" stroke-width="3" /><polygon fill="#22c55e" points="518,125 518,135 526,130" /><text fill="#22c55e" font-family="Arial" font-size="9" font-weight="bold" x="445" y="120">FACILITY LOOP 30-35C</text><g><rect fill="#1a1a2e" height="110" rx="4" ry="4" stroke="#76b900" stroke-width="1.5" width="160" x="520" y="80" /><text fill="#76b900" font-family="Arial" font-size="11" font-weight="bold" text-anchor="middle" x="600.0" y="86.0">FLOOR 1</text><text fill="#76b900" font-family="Arial" font-size="10" font-weight="normal" text-anchor="middle" x="600.0" y="100.0">CDU PAIR</text><text fill="#76b900" font-family="Arial" font-size="10" font-weight="normal" text-anchor="middle" x="600.0" y="114.0">(N+1)</text><text fill="#76b900" font-family="Arial" font-size="10" font-weight="normal" text-anchor="middle" x="600.0" y="128.0" /><text fill="#76b900" font-family="Arial" font-size="10" font-weight="normal" text-anchor="middle" x="600.0" y="142.0">Facility Loop In</text><text fill="#76b900" font-family="Arial" font-size="10" font-weight="normal" text-anchor="middle" x="600.0" y="156.0">vs</text><text fill="#76b900" font-family="Arial" font-size="10" font-weight="normal" text-anchor="middle" x="600.0" y="170.0">Rack Loop Out</text><text fill="#76b900" font-family="Arial" font-size="10" font-weight="normal" text-anchor="middle" x="600.0" y="184.0" /><text fill="#76b900" font-family="Arial" font-size="10" font-weight="normal" text-anchor="middle" x="600.0" y="198.0">Pumps + Controls</text><text fill="#6b7280" font-family="Arial" font-size="8" text-anchor="middle" x="600.0" y="186">Downstairs — System 1</text></g><polyline fill="none" points="680,110 750,110" stroke="#76b900" stroke-width="3" /><polygon fill="#76b900" points="748,105 748,115 756,110" /><text fill="#76b900" font-family="Arial" font-size="9" font-weight="bold" x="685" y="100">TO RACKS 45C (113F)</text><g><rect fill="#1a1a2e" height="40" rx="4" ry="4" stroke="#76b900" stroke-width="1.5" width="120" x="750" y="80" /><text fill="#76b900" font-family="Arial" font-size="9" font-weight="bold" text-anchor="middle" x="810.0" y="100.0">SUPPLY</text><text fill="#76b900" font-family="Arial" font-size="8" font-weight="normal" text-anchor="middle" x="810.0" y="114.0">MANIFOLD</text></g><polyline fill="none" points="810,120 810,130" stroke="#76b900" stroke-width="2" /><g><rect fill="#111a00" height="45" rx="4" ry="4" stroke="#76b900" stroke-width="1.5" width="120" x="750" y="130" /><text fill="#76b900" font-family="Arial" font-size="9" font-weight="bold" text-anchor="middle" x="810.0" y="152.5">NVL72 R1</text><text fill="#76b900" font-family="Arial" font-size="8" font-weight="normal" text-anchor="middle" x="810.0" y="166.5">130 kW</text><text fill="#6b7280" font-family="Arial" font-size="8" text-anchor="middle" x="810.0" y="171">Cold plates on GPU/HBM</text></g><polyline fill="none" points="870,152 905,152" stroke="#ff6b6b" stroke-width="2" /><polyline fill="none" points="810,120 810,190" stroke="#76b900" stroke-width="2" /><g><rect fill="#111a00" height="45" rx="4" ry="4" stroke="#76b900" stroke-width="1.5" width="120" x="750" y="190" /><text fill="#76b900" font-family="Arial" font-size="9" font-weight="bold" text-anchor="middle" x="810.0" y="212.5">NVL72 R2</text><text fill="#76b900" font-family="Arial" font-size="8" font-weight="normal" text-anchor="middle" x="810.0" y="226.5">130 kW</text><text fill="#6b7280" font-family="Arial" font-size="8" text-anchor="middle" x="810.0" y="231">Cold plates on GPU/HBM</text></g><polyline fill="none" points="870,212 905,212" stroke="#ff6b6b" stroke-width="2" /><polyline fill="none" points="810,120 810,250" stroke="#76b900" stroke-width="2" /><g><rect fill="#111a00" height="45" rx="4" ry="4" stroke="#76b900" stroke-width="1.5" width="120" x="750" y="250" /><text fill="#76b900" font-family="Arial" font-size="9" font-weight="bold" text-anchor="middle" x="810.0" y="272.5">NVL72 R3</text><text fill="#76b900" font-family="Arial" font-size="8" font-weight="normal" text-anchor="middle" x="810.0" y="286.5">130 kW</text><text fill="#6b7280" font-family="Arial" font-size="8" text-anchor="middle" x="810.0" y="291">Cold plates on GPU/HBM</text></g><polyline fill="none" points="870,272 905,272" stroke="#ff6b6b" stroke-width="2" /><polyline fill="none" points="810,120 810,310" stroke="#76b900" stroke-width="2" /><g><rect fill="#111a00" height="45" rx="4" ry="4" stroke="#76b900" stroke-width="1.5" width="120" x="750" y="310" /><text fill="#76b900" font-family="Arial" font-size="9" font-weight="bold" text-anchor="middle" x="810.0" y="332.5">NVL72 R4</text><text fill="#76b900" font-family="Arial" font-size="8" font-weight="normal" text-anchor="middle" x="810.0" y="346.5">130 kW</text><text fill="#6b7280" font-family="Arial" font-size="8" text-anchor="middle" x="810.0" y="351">Cold plates on GPU/HBM</text></g><polyline fill="none" points="870,332 905,332" stroke="#ff6b6b" stroke-width="2" /><g><rect fill="#1a1a2e" height="40" rx="4" ry="4" stroke="#ff6b6b" stroke-width="1.5" width="120" x="905" y="80" /><text fill="#ff6b6b" font-family="Arial" font-size="9" font-weight="bold" text-anchor="middle" x="965.0" y="100.0">RETURN</text><text fill="#ff6b6b" font-family="Arial" font-size="8" font-weight="normal" text-anchor="middle" x="965.0" y="114.0">MANIFOLD</text></g><polyline fill="none" points="965,152 965,120" stroke="#ff6b6b" stroke-width="2" /><polyline fill="none" points="965,212 965,120" stroke="#ff6b6b" stroke-width="2" /><polyline fill="none" points="965,272 965,120" stroke="#ff6b6b" stroke-width="2" /><polyline fill="none" points="965,332 965,120" stroke="#ff6b6b" stroke-width="2" /><polyline fill="none" points="965,120 965,380 600,380 600,190" stroke="#ff6b6b" stroke-width="3" /><text fill="#ff6b6b" font-family="Arial" font-size="9" font-weight="bold" x="975" y="375">RETURN 55-60C (131-140F)</text><polyline fill="none" points="520,170 440,170" stroke="#ff6b6b" stroke-width="3" /><text fill="#ff6b6b" font-family="Arial" font-size="9" font-weight="bold" x="445" y="165">CDU1 RETURN</text><polyline fill="none" points="440,460 520,460" stroke="#22c55e" stroke-width="3" /><polygon fill="#22c55e" points="518,455 518,465 526,460" /><text fill="#22c55e" font-family="Arial" font-size="9" font-weight="bold" x="445" y="450">FACILITY LOOP 30-35C</text><polyline fill="none" points="310,190 310,460 440,460" stroke="#22c55e" stroke-width="3" /><g><rect fill="#1a1a2e" height="110" rx="4" ry="4" stroke="#76b900" stroke-width="1.5" width="160" x="520" y="430" /><text fill="#76b900" font-family="Arial" font-size="11" font-weight="bold" text-anchor="middle" x="600.0" y="436.0">FLOOR 2</text><text fill="#76b900" font-family="Arial" font-size="10" font-weight="normal" text-anchor="middle" x="600.0" y="450.0">CDU PAIR</text><text fill="#76b900" font-family="Arial" font-size="10" font-weight="normal" text-anchor="middle" x="600.0" y="464.0">(N+1)</text><text fill="#76b900" font-family="Arial" font-size="10" font-weight="normal" text-anchor="middle" x="600.0" y="478.0" /><text fill="#76b900" font-family="Arial" font-size="10" font-weight="normal" text-anchor="middle" x="600.0" y="492.0">Facility Loop In</text><text fill="#76b900" font-family="Arial" font-size="10" font-weight="normal" text-anchor="middle" x="600.0" y="506.0">vs</text><text fill="#76b900" font-family="Arial" font-size="10" font-weight="normal" text-anchor="middle" x="600.0" y="520.0">Rack Loop Out</text><text fill="#76b900" font-family="Arial" font-size="10" font-weight="normal" text-anchor="middle" x="600.0" y="534.0" /><text fill="#76b900" font-family="Arial" font-size="10" font-weight="normal" text-anchor="middle" x="600.0" y="548.0">Pumps + Controls</text><text fill="#6b7280" font-family="Arial" font-size="8" text-anchor="middle" x="600.0" y="536">Upstairs — System 2</text></g><polyline fill="none" points="680,460 750,460" stroke="#76b900" stroke-width="3" /><polygon fill="#76b900" points="748,455 748,465 756,460" /><text fill="#76b900" font-family="Arial" font-size="9" font-weight="bold" x="685" y="450">TO RACKS 45C (113F)</text><g><rect fill="#1a1a2e" height="40" rx="4" ry="4" stroke="#76b900" stroke-width="1.5" width="120" x="750" y="430" /><text fill="#76b900" font-family="Arial" font-size="9" font-weight="bold" text-anchor="middle" x="810.0" y="450.0">SUPPLY</text><text fill="#76b900" font-family="Arial" font-size="8" font-weight="normal" text-anchor="middle" x="810.0" y="464.0">MANIFOLD</text></g><polyline fill="none" points="810,470 810,480" stroke="#76b900" stroke-width="2" /><g><rect fill="#111a00" height="45" rx="4" ry="4" stroke="#76b900" stroke-width="1.5" width="120" x="750" y="480" /><text fill="#76b900" font-family="Arial" font-size="9" font-weight="bold" text-anchor="middle" x="810.0" y="502.5">NVL72 R5</text><text fill="#76b900" font-family="Arial" font-size="8" font-weight="normal" text-anchor="middle" x="810.0" y="516.5">130 kW</text><text fill="#6b7280" font-family="Arial" font-size="8" text-anchor="middle" x="810.0" y="521">Cold plates on GPU/HBM</text></g><polyline fill="none" points="870,502 905,502" stroke="#ff6b6b" stroke-width="2" /><polyline fill="none" points="810,470 810,540" stroke="#76b900" stroke-width="2" /><g><rect fill="#111a00" height="45" rx="4" ry="4" stroke="#76b900" stroke-width="1.5" width="120" x="750" y="540" /><text fill="#76b900" font-family="Arial" font-size="9" font-weight="bold" text-anchor="middle" x="810.0" y="562.5">NVL72 R6</text><text fill="#76b900" font-family="Arial" font-size="8" font-weight="normal" text-anchor="middle" x="810.0" y="576.5">130 kW</text><text fill="#6b7280" font-family="Arial" font-size="8" text-anchor="middle" x="810.0" y="581">Cold plates on GPU/HBM</text></g><polyline fill="none" points="870,562 905,562" stroke="#ff6b6b" stroke-width="2" /><polyline fill="none" points="810,470 810,600" stroke="#76b900" stroke-width="2" /><g><rect fill="#111a00" height="45" rx="4" ry="4" stroke="#76b900" stroke-width="1.5" width="120" x="750" y="600" /><text fill="#76b900" font-family="Arial" font-size="9" font-weight="bold" text-anchor="middle" x="810.0" y="622.5">NVL72 R7</text><text fill="#76b900" font-family="Arial" font-size="8" font-weight="normal" text-anchor="middle" x="810.0" y="636.5">130 kW</text><text fill="#6b7280" font-family="Arial" font-size="8" text-anchor="middle" x="810.0" y="641">Cold plates on GPU/HBM</text></g><polyline fill="none" points="870,622 905,622" stroke="#ff6b6b" stroke-width="2" /><polyline fill="none" points="810,470 810,660" stroke="#76b900" stroke-width="2" /><g><rect fill="#111a00" height="45" rx="4" ry="4" stroke="#76b900" stroke-width="1.5" width="120" x="750" y="660" /><text fill="#76b900" font-family="Arial" font-size="9" font-weight="bold" text-anchor="middle" x="810.0" y="682.5">NVL72 R8</text><text fill="#76b900" font-family="Arial" font-size="8" font-weight="normal" text-anchor="middle" x="810.0" y="696.5">130 kW</text><text fill="#6b7280" font-family="Arial" font-size="8" text-anchor="middle" x="810.0" y="701">Cold plates on GPU/HBM</text></g><polyline fill="none" points="870,682 905,682" stroke="#ff6b6b" stroke-width="2" /><g><rect fill="#1a1a2e" height="40" rx="4" ry="4" stroke="#ff6b6b" stroke-width="1.5" width="120" x="905" y="430" /><text fill="#ff6b6b" font-family="Arial" font-size="9" font-weight="bold" text-anchor="middle" x="965.0" y="450.0">RETURN</text><text fill="#ff6b6b" font-family="Arial" font-size="8" font-weight="normal" text-anchor="middle" x="965.0" y="464.0">MANIFOLD</text></g><polyline fill="none" points="965,502 965,470" stroke="#ff6b6b" stroke-width="2" /><polyline fill="none" points="965,562 965,470" stroke="#ff6b6b" stroke-width="2" /><polyline fill="none" points="965,622 965,470" stroke="#ff6b6b" stroke-width="2" /><polyline fill="none" points="965,682 965,470" stroke="#ff6b6b" stroke-width="2" /><polyline fill="none" points="965,470 965,730 600,730 600,540" stroke="#ff6b6b" stroke-width="3" /><text fill="#ff6b6b" font-family="Arial" font-size="9" font-weight="bold" x="975" y="725">RETURN 55-60C (131-140F)</text><polyline fill="none" points="520,510 390,510 390,190" stroke="#ff6b6b" stroke-width="3" /><text fill="#ff6b6b" font-family="Arial" font-size="9" font-weight="bold" x="395" y="505">CDU2 RETURN</text><rect fill="#111318" height="100" rx="6" stroke="#555" stroke-width="1" width="200" x="30" y="410" /><text fill="#3b82f6" font-family="Arial" font-size="10" font-weight="bold" text-anchor="middle" x="130" y="428">MARLIE I vs TRAPPEYS</text><text fill="#9ca3af" font-family="Arial" font-size="8" x="40" y="445">MARLIE I: Dry coolers only</text><text fill="#9ca3af" font-family="Arial" font-size="8" x="40" y="456">Trappeys: Water tower + dry coolers</text><text fill="#9ca3af" font-family="Arial" font-size="8" x="40" y="467" /><text fill="#9ca3af" font-family="Arial" font-size="8" x="40" y="478">No water tower (not on site)</text><text fill="#9ca3af" font-family="Arial" font-size="8" x="40" y="489">No river (not nearby)</text><text fill="#9ca3af" font-family="Arial" font-size="8" x="40" y="500">Simpler system, faster deploy</text><rect fill="#111318" height="180" rx="6" stroke="#1e2230" width="200" x="30" y="530" /><text fill="#3b82f6" font-family="Arial" font-size="10" font-weight="bold" text-anchor="middle" x="130" y="548">THERMAL BUDGET</text><text fill="#6b7280" font-family="Arial" font-size="8" x="40" y="565">Floor 1 IT (4x NVL72)</text><text fill="#76b900" font-family="Arial" font-size="8" font-weight="bold" x="180" y="565">520 kW</text><text fill="#6b7280" font-family="Arial" font-size="8" x="40" y="582">Floor 2 IT (4x NVL72)</text><text fill="#76b900" font-family="Arial" font-size="8" font-weight="bold" x="180" y="582">520 kW</text><text fill="#6b7280" font-family="Arial" font-size="8" x="40" y="599">Total IT Load</text><text fill="#76b900" font-family="Arial" font-size="8" font-weight="bold" x="180" y="599">1,040 kW</text><text fill="#6b7280" font-family="Arial" font-size="8" x="40" y="616">Cooling Overhead</text><text fill="#76b900" font-family="Arial" font-size="8" font-weight="bold" x="180" y="616">~100 kW</text><text fill="#6b7280" font-family="Arial" font-size="8" x="40" y="633">Facility/Network</text><text fill="#76b900" font-family="Arial" font-size="8" font-weight="bold" x="180" y="633">~100 kW</text><text fill="#6b7280" font-family="Arial" font-size="8" x="40" y="650">Total Heat Rejection</text><text fill="#76b900" font-family="Arial" font-size="8" font-weight="bold" x="180" y="650">~1,240 kW</text><text fill="#6b7280" font-family="Arial" font-size="8" x="40" y="667">Dry Cooler Capacity</text><text fill="#76b900" font-family="Arial" font-size="8" font-weight="bold" x="180" y="667">~1,500 kW</text><text fill="#6b7280" font-family="Arial" font-size="8" x="40" y="684">Headroom</text><text fill="#76b900" font-family="Arial" font-size="8" font-weight="bold" x="180" y="684">~260 kW (21%)</text><rect fill="#111318" height="55" rx="6" stroke="#1e2230" width="500" x="50" y="745" /><rect fill="#4fc3f7" height="6" rx="1" width="12" x="65" y="755" /><text fill="#9ca3af" font-family="Arial" font-size="8" x="83" y="761">Cold Supply (Dry Cooler Out 30-35C / 86-95F)</text><rect fill="#22c55e" height="6" rx="1" width="12" x="65" y="767" /><text fill="#9ca3af" font-family="Arial" font-size="8" x="83" y="773">Facility Loop (Treated Water/Glycol)</text><rect fill="#76b900" height="6" rx="1" width="12" x="65" y="779" /><text fill="#9ca3af" font-family="Arial" font-size="8" x="83" y="785">Rack Supply (45C / 113F)</text><rect fill="#ff6b6b" height="6" rx="1" width="12" x="65" y="791" /><text fill="#9ca3af" font-family="Arial" font-size="8" x="83" y="797">Warm Return (55-60C / 131-140F)</text><rect fill="#111318" height="55" rx="6" stroke="#1e2230" width="650" x="600" y="745" /><text fill="#6b7280" font-family="Arial" font-size="7" font-weight="bold" x="615" y="762">COOLING TYPE</text><text fill="#4fc3f7" font-family="Arial" font-size="10" font-weight="bold" x="615" y="774">Dry Coolers</text><text fill="#6b7280" font-family="Arial" font-size="7" font-weight="bold" x="745" y="762">CDU PAIRS</text><text fill="#4fc3f7" font-family="Arial" font-size="10" font-weight="bold" x="745" y="774">2 (1 per floor)</text><text fill="#6b7280" font-family="Arial" font-size="7" font-weight="bold" x="875" y="762">RACK COOLING</text><text fill="#4fc3f7" font-family="Arial" font-size="10" font-weight="bold" x="875" y="774">45C Hot Water</text><text fill="#6b7280" font-family="Arial" font-size="7" font-weight="bold" x="1005" y="762">TOTAL REJECTION</text><text fill="#4fc3f7" font-family="Arial" font-size="10" font-weight="bold" x="1005" y="774">~1,240 kW</text><text fill="#6b7280" font-family="Arial" font-size="7" font-weight="bold" x="1135" y="762">PUE TARGET</text><text fill="#4fc3f7" font-family="Arial" font-size="10" font-weight="bold" x="1135" y="774">&lt; 1.20</text><text fill="#3b82f6" font-family="Arial" font-size="10" font-weight="bold" x="50" y="820">COMPLETE COOLING PATH:</text><text fill="#9ca3af" font-family="Arial" font-size="8" x="50" y="836">Dry Coolers (30-35C) -&gt; Facility Loop -&gt; CDU (per floor) -&gt; Rack Manifold (45C) -&gt; GPU Cold Plates -&gt; Return (55-60C) -&gt; CDU -&gt; Facility Loop -&gt; Dry Coolers</text><text fill="#4b5563" font-family="Arial" font-size="7.5" x="35" y="850">1. Dry coolers on concrete pad (infrastructure yard) reject heat to ambient air — no water consumption, no discharge permits</text><text fill="#4b5563" font-family="Arial" font-size="7.5" x="35" y="863">2. No water tower at MARLIE I — unlike Trappeys. Dry cooler capacity sized with margin for Louisiana summer peaks (~95F)</text><text fill="#4b5563" font-family="Arial" font-size="7.5" x="35" y="876">3. NVIDIA NVL72 racks use direct liquid cooling with 45C (113F) hot water supply — no chillers needed in most conditions</text><text fill="#4b5563" font-family="Arial" font-size="7.5" x="35" y="889">4. 2 CDU pairs (1 per floor), each N+1 redundant — regulate flow and temperature independently per floor</text><text fill="#4b5563" font-family="Arial" font-size="7.5" x="35" y="902">5. Facility loop uses treated water/glycol mix to prevent corrosion — isolated from IT rack cooling loops via CDUs</text><text fill="#4b5563" font-family="Arial" font-size="7.5" x="35" y="915">6. Total building heat rejection ~1,240 kW with ~1,500 kW dry cooler capacity — 21% headroom</text><text fill="#4b5563" font-family="Arial" font-size="7.5" x="35" y="928">7. Summer peak supplemental: evaporative pre-cooling spray on dry cooler coils (future upgrade if needed)</text></svg>