<?xml version="1.0" encoding="utf-8" ?>
<svg baseProfile="full" height="950px" version="1.1" viewBox="0 0 1400 950" width="1400px" xmlns="http://www.w3.org/2000/svg" xmlns:ev="http://www.w3.org/2001/xml-events" xmlns:xlink="http://www.w3.org/1999/xlink"><defs /><rect fill="#0a0b0f" height="950" width="1400" x="0" y="0" /><text fill="#f0f2f5" font-family="Arial" font-size="16" font-weight="bold" text-anchor="middle" x="700.0" y="24">MARLIE I — LAFAYETTE AI FACTORY &amp; COMMAND CENTER</text><text fill="#3b82f6" font-family="Arial" font-size="10" font-weight="bold" text-anchor="middle" x="700.0" y="40">FLOOR PLANS | 24' x 40' | 2 FLOORS | 8 NVL72 RACKS | 576 GPUs | 1,040 kW IT LOAD</text><text fill="#6b7280" font-family="Arial" font-size="9" text-anchor="middle" x="700.0" y="54">Sheet A-001 | Design Intent | Scale: Conceptual | 2026-03-23 | NOT FOR CONSTRUCTION</text><rect fill="#0d0d12" height="320" stroke="#3b82f6" stroke-width="2" width="192" x="100" y="120" /><line stroke="#555" stroke-width="0.5" x1="100" x2="292" y1="458" y2="458" /><line stroke="#555" stroke-width="0.5" x1="100" x2="100" y1="454" y2="462" /><line stroke="#555" stroke-width="0.5" x1="292" x2="292" y1="454" y2="462" /><text fill="#888" font-family="Arial" font-size="7" text-anchor="middle" x="196.0" y="455">24'-0"</text><line stroke="#555" stroke-width="0.5" x1="310" x2="310" y1="120" y2="440" /><line stroke="#555" stroke-width="0.5" x1="306" x2="314" y1="120" y2="120" /><line stroke="#555" stroke-width="0.5" x1="306" x2="314" y1="440" y2="440" /><text fill="#888" font-family="Arial" font-size="7" x="315" y="280.0">40'-0"</text><text fill="#3b82f6" font-family="Arial" font-size="12" font-weight="bold" text-anchor="middle" x="196.0" y="95">FLOOR 1 — DOWNSTAIRS (SYSTEM 1)</text><text fill="#93c5fd" font-family="Arial" font-size="8" text-anchor="middle" x="196.0" y="108">4 NVL72 RACKS | 288 GPUs | 520 kW | 1 CDU PAIR</text><rect fill="#111318" height="320" stroke="#8b5cf6" stroke-width="1" width="24" x="100" y="120" /><text fill="#8b5cf6" font-family="Arial" font-size="7" font-weight="bold" text-anchor="middle" x="112.0" y="268.0">STAIR</text><text fill="#8b5cf6" font-family="Arial" font-size="7" font-weight="normal" text-anchor="middle" x="112.0" y="280.0">CASE</text><text fill="#8b5cf6" font-family="Arial" font-size="7" font-weight="normal" text-anchor="middle" x="112.0" y="292.0">3' x 40'</text><line stroke="#8b5cf6" stroke-width="0.3" x1="102" x2="122" y1="120" y2="120" /><line stroke="#8b5cf6" stroke-width="0.3" x1="102" x2="122" y1="136" y2="136" /><line stroke="#8b5cf6" stroke-width="0.3" x1="102" x2="122" y1="152" y2="152" /><line stroke="#8b5cf6" stroke-width="0.3" x1="102" x2="122" y1="168" y2="168" /><line stroke="#8b5cf6" stroke-width="0.3" x1="102" x2="122" y1="184" y2="184" /><line stroke="#8b5cf6" stroke-width="0.3" x1="102" x2="122" y1="200" y2="200" /><line stroke="#8b5cf6" stroke-width="0.3" x1="102" x2="122" y1="216" y2="216" /><line stroke="#8b5cf6" stroke-width="0.3" x1="102" x2="122" y1="232" y2="232" /><line stroke="#8b5cf6" stroke-width="0.3" x1="102" x2="122" y1="248" y2="248" /><line stroke="#8b5cf6" stroke-width="0.3" x1="102" x2="122" y1="264" y2="264" /><line stroke="#8b5cf6" stroke-width="0.3" x1="102" x2="122" y1="280" y2="280" /><line stroke="#8b5cf6" stroke-width="0.3" x1="102" x2="122" y1="296" y2="296" /><line stroke="#8b5cf6" stroke-width="0.3" x1="102" x2="122" y1="312" y2="312" /><line stroke="#8b5cf6" stroke-width="0.3" x1="102" x2="122" y1="328" y2="328" /><line stroke="#8b5cf6" stroke-width="0.3" x1="102" x2="122" y1="344" y2="344" /><line stroke="#8b5cf6" stroke-width="0.3" x1="102" x2="122" y1="360" y2="360" /><line stroke="#8b5cf6" stroke-width="0.3" x1="102" x2="122" y1="376" y2="376" /><line stroke="#8b5cf6" stroke-width="0.3" x1="102" x2="122" y1="392" y2="392" /><line stroke="#8b5cf6" stroke-width="0.3" x1="102" x2="122" y1="408" y2="408" /><line stroke="#8b5cf6" stroke-width="0.3" x1="102" x2="122" y1="424" y2="424" /><line stroke="#555" stroke-width="0.5" x1="124" x2="292" y1="470" y2="470" /><line stroke="#555" stroke-width="0.5" x1="124" x2="124" y1="466" y2="474" /><line stroke="#555" stroke-width="0.5" x1="292" x2="292" y1="466" y2="474" /><text fill="#888" font-family="Arial" font-size="7" text-anchor="middle" x="208.0" y="467">21'-0" usable</text><rect fill="#111318" height="48" stroke="#4fc3f7" stroke-width="1" width="168" x="124" y="120" /><text fill="#4fc3f7" font-family="Arial" font-size="7" font-weight="bold" text-anchor="middle" x="208.0" y="132.0">CDU PAIR (N+1)</text><text fill="#4fc3f7" font-family="Arial" font-size="7" font-weight="normal" text-anchor="middle" x="208.0" y="144.0">Pumps + Valves</text><text fill="#4fc3f7" font-family="Arial" font-size="7" font-weight="normal" text-anchor="middle" x="208.0" y="156.0">6' deep</text><rect fill="#0a1628" height="24" stroke="#4fc3f7" stroke-width="1" width="24" x="140" y="132" /><text fill="#4fc3f7" font-family="Arial" font-size="6" font-weight="bold" text-anchor="middle" x="152.0" y="138.0">CDU</text><text fill="#4fc3f7" font-family="Arial" font-size="6" font-weight="normal" text-anchor="middle" x="152.0" y="150.0">1</text><rect fill="#0a1628" height="24" stroke="#4fc3f7" stroke-width="1" width="24" x="204" y="132" /><text fill="#4fc3f7" font-family="Arial" font-size="6" font-weight="bold" text-anchor="middle" x="216.0" y="138.0">CDU</text><text fill="#4fc3f7" font-family="Arial" font-size="6" font-weight="normal" text-anchor="middle" x="216.0" y="150.0">2</text><line stroke="#4fc3f7" stroke-width="2" x1="126" x2="126" y1="120" y2="105" /><text fill="#4fc3f7" font-family="Arial" font-size="6" x="130" y="115">SUPPLY</text><line stroke="#ff6b6b" stroke-width="2" x1="287" x2="287" y1="120" y2="105" /><text fill="#ff6b6b" font-family="Arial" font-size="6" x="272" y="115">RETURN</text><rect fill="#111318" height="32" stroke="#8b5cf6" stroke-width="1" width="32" x="260" y="408" /><text fill="#c4b5fd" font-family="Arial" font-size="7" font-weight="bold" text-anchor="middle" x="276.0" y="412.0">ELEC</text><text fill="#c4b5fd" font-family="Arial" font-size="7" font-weight="normal" text-anchor="middle" x="276.0" y="424.0">PANEL</text><text fill="#c4b5fd" font-family="Arial" font-size="7" font-weight="normal" text-anchor="middle" x="276.0" y="436.0">800V DC</text><rect fill="#1a2e0a" height="32" stroke="#76b900" stroke-width="1" width="16" x="176" y="200" /><text fill="#76b900" font-family="Arial" font-size="8" font-weight="bold" text-anchor="middle" x="184.0" y="219.0">R1</text><rect fill="#1a2e0a" height="32" stroke="#76b900" stroke-width="1" width="16" x="224" y="200" /><text fill="#76b900" font-family="Arial" font-size="8" font-weight="bold" text-anchor="middle" x="232.0" y="219.0">R2</text><rect fill="#1a0a0a" height="24" rx="3" width="80" x="168" y="232" /><text fill="#ef4444" font-family="Arial" font-size="7" font-weight="bold" text-anchor="middle" x="208.0" y="247.0">HOT AISLE</text><rect fill="#1a2e0a" height="32" stroke="#76b900" stroke-width="1" width="16" x="176" y="256" /><text fill="#76b900" font-family="Arial" font-size="8" font-weight="bold" text-anchor="middle" x="184.0" y="275.0">R3</text><rect fill="#1a2e0a" height="32" stroke="#76b900" stroke-width="1" width="16" x="224" y="256" /><text fill="#76b900" font-family="Arial" font-size="8" font-weight="bold" text-anchor="middle" x="232.0" y="275.0">R4</text><rect fill="#0a0a1e" height="16" rx="3" width="80" x="168" y="184" /><text fill="#3b82f6" font-family="Arial" font-size="6" font-weight="bold" text-anchor="middle" x="208.0" y="195.0">COLD</text><rect fill="#0a0a1e" height="16" rx="3" width="80" x="168" y="288" /><text fill="#3b82f6" font-family="Arial" font-size="6" font-weight="bold" text-anchor="middle" x="208.0" y="299.0">COLD</text><line stroke="#8b5cf6" stroke-dasharray="6,3" stroke-width="1" x1="256" x2="256" y1="408" y2="200" /><text fill="#8b5cf6" font-family="Arial" font-size="5" x="259" y="304.0">CABLE</text><rect fill="#3b82f6" height="16" rx="2" width="5" x="290" y="272.0" /><text fill="#6b7280" font-family="Arial" font-size="6" x="298" y="282.0">DOOR</text><rect fill="#0d0d12" height="320" stroke="#3b82f6" stroke-width="2" width="192" x="750" y="120" /><line stroke="#555" stroke-width="0.5" x1="750" x2="942" y1="458" y2="458" /><line stroke="#555" stroke-width="0.5" x1="750" x2="750" y1="454" y2="462" /><line stroke="#555" stroke-width="0.5" x1="942" x2="942" y1="454" y2="462" /><text fill="#888" font-family="Arial" font-size="7" text-anchor="middle" x="846.0" y="455">24'-0"</text><line stroke="#555" stroke-width="0.5" x1="960" x2="960" y1="120" y2="440" /><line stroke="#555" stroke-width="0.5" x1="956" x2="964" y1="120" y2="120" /><line stroke="#555" stroke-width="0.5" x1="956" x2="964" y1="440" y2="440" /><text fill="#888" font-family="Arial" font-size="7" x="965" y="280.0">40'-0"</text><text fill="#3b82f6" font-family="Arial" font-size="12" font-weight="bold" text-anchor="middle" x="846.0" y="95">FLOOR 2 — UPSTAIRS (SYSTEM 2)</text><text fill="#93c5fd" font-family="Arial" font-size="8" text-anchor="middle" x="846.0" y="108">4 NVL72 RACKS | 288 GPUs | 520 kW | 1 CDU PAIR</text><rect fill="#111318" height="320" stroke="#8b5cf6" stroke-width="1" width="24" x="750" y="120" /><text fill="#8b5cf6" font-family="Arial" font-size="7" font-weight="bold" text-anchor="middle" x="762.0" y="268.0">STAIR</text><text fill="#8b5cf6" font-family="Arial" font-size="7" font-weight="normal" text-anchor="middle" x="762.0" y="280.0">CASE</text><text fill="#8b5cf6" font-family="Arial" font-size="7" font-weight="normal" text-anchor="middle" x="762.0" y="292.0">3' x 40'</text><line stroke="#8b5cf6" stroke-width="0.3" x1="752" x2="772" y1="120" y2="120" /><line stroke="#8b5cf6" stroke-width="0.3" x1="752" x2="772" y1="136" y2="136" /><line stroke="#8b5cf6" stroke-width="0.3" x1="752" x2="772" y1="152" y2="152" /><line stroke="#8b5cf6" stroke-width="0.3" x1="752" x2="772" y1="168" y2="168" /><line stroke="#8b5cf6" stroke-width="0.3" x1="752" x2="772" y1="184" y2="184" /><line stroke="#8b5cf6" stroke-width="0.3" x1="752" x2="772" y1="200" y2="200" /><line stroke="#8b5cf6" stroke-width="0.3" x1="752" x2="772" y1="216" y2="216" /><line stroke="#8b5cf6" stroke-width="0.3" x1="752" x2="772" y1="232" y2="232" /><line stroke="#8b5cf6" stroke-width="0.3" x1="752" x2="772" y1="248" y2="248" /><line stroke="#8b5cf6" stroke-width="0.3" x1="752" x2="772" y1="264" y2="264" /><line stroke="#8b5cf6" stroke-width="0.3" x1="752" x2="772" y1="280" y2="280" /><line stroke="#8b5cf6" stroke-width="0.3" x1="752" x2="772" y1="296" y2="296" /><line stroke="#8b5cf6" stroke-width="0.3" x1="752" x2="772" y1="312" y2="312" /><line stroke="#8b5cf6" stroke-width="0.3" x1="752" x2="772" y1="328" y2="328" /><line stroke="#8b5cf6" stroke-width="0.3" x1="752" x2="772" y1="344" y2="344" /><line stroke="#8b5cf6" stroke-width="0.3" x1="752" x2="772" y1="360" y2="360" /><line stroke="#8b5cf6" stroke-width="0.3" x1="752" x2="772" y1="376" y2="376" /><line stroke="#8b5cf6" stroke-width="0.3" x1="752" x2="772" y1="392" y2="392" /><line stroke="#8b5cf6" stroke-width="0.3" x1="752" x2="772" y1="408" y2="408" /><line stroke="#8b5cf6" stroke-width="0.3" x1="752" x2="772" y1="424" y2="424" /><line stroke="#555" stroke-width="0.5" x1="774" x2="942" y1="470" y2="470" /><line stroke="#555" stroke-width="0.5" x1="774" x2="774" y1="466" y2="474" /><line stroke="#555" stroke-width="0.5" x1="942" x2="942" y1="466" y2="474" /><text fill="#888" font-family="Arial" font-size="7" text-anchor="middle" x="858.0" y="467">21'-0" usable</text><rect fill="#111318" height="48" stroke="#4fc3f7" stroke-width="1" width="168" x="774" y="120" /><text fill="#4fc3f7" font-family="Arial" font-size="7" font-weight="bold" text-anchor="middle" x="858.0" y="132.0">CDU PAIR (N+1)</text><text fill="#4fc3f7" font-family="Arial" font-size="7" font-weight="normal" text-anchor="middle" x="858.0" y="144.0">Pumps + Valves</text><text fill="#4fc3f7" font-family="Arial" font-size="7" font-weight="normal" text-anchor="middle" x="858.0" y="156.0">6' deep</text><rect fill="#0a1628" height="24" stroke="#4fc3f7" stroke-width="1" width="24" x="790" y="132" /><text fill="#4fc3f7" font-family="Arial" font-size="6" font-weight="bold" text-anchor="middle" x="802.0" y="138.0">CDU</text><text fill="#4fc3f7" font-family="Arial" font-size="6" font-weight="normal" text-anchor="middle" x="802.0" y="150.0">1</text><rect fill="#0a1628" height="24" stroke="#4fc3f7" stroke-width="1" width="24" x="854" y="132" /><text fill="#4fc3f7" font-family="Arial" font-size="6" font-weight="bold" text-anchor="middle" x="866.0" y="138.0">CDU</text><text fill="#4fc3f7" font-family="Arial" font-size="6" font-weight="normal" text-anchor="middle" x="866.0" y="150.0">2</text><line stroke="#4fc3f7" stroke-width="2" x1="776" x2="776" y1="120" y2="105" /><text fill="#4fc3f7" font-family="Arial" font-size="6" x="780" y="115">SUPPLY</text><line stroke="#ff6b6b" stroke-width="2" x1="937" x2="937" y1="120" y2="105" /><text fill="#ff6b6b" font-family="Arial" font-size="6" x="922" y="115">RETURN</text><rect fill="#111318" height="32" stroke="#8b5cf6" stroke-width="1" width="32" x="910" y="408" /><text fill="#c4b5fd" font-family="Arial" font-size="7" font-weight="bold" text-anchor="middle" x="926.0" y="412.0">ELEC</text><text fill="#c4b5fd" font-family="Arial" font-size="7" font-weight="normal" text-anchor="middle" x="926.0" y="424.0">PANEL</text><text fill="#c4b5fd" font-family="Arial" font-size="7" font-weight="normal" text-anchor="middle" x="926.0" y="436.0">800V DC</text><rect fill="#1a2e0a" height="32" stroke="#76b900" stroke-width="1" width="16" x="826" y="200" /><text fill="#76b900" font-family="Arial" font-size="8" font-weight="bold" text-anchor="middle" x="834.0" y="219.0">R5</text><rect fill="#1a2e0a" height="32" stroke="#76b900" stroke-width="1" width="16" x="874" y="200" /><text fill="#76b900" font-family="Arial" font-size="8" font-weight="bold" text-anchor="middle" x="882.0" y="219.0">R6</text><rect fill="#1a0a0a" height="24" rx="3" width="80" x="818" y="232" /><text fill="#ef4444" font-family="Arial" font-size="7" font-weight="bold" text-anchor="middle" x="858.0" y="247.0">HOT AISLE</text><rect fill="#1a2e0a" height="32" stroke="#76b900" stroke-width="1" width="16" x="826" y="256" /><text fill="#76b900" font-family="Arial" font-size="8" font-weight="bold" text-anchor="middle" x="834.0" y="275.0">R7</text><rect fill="#1a2e0a" height="32" stroke="#76b900" stroke-width="1" width="16" x="874" y="256" /><text fill="#76b900" font-family="Arial" font-size="8" font-weight="bold" text-anchor="middle" x="882.0" y="275.0">R8</text><rect fill="#0a0a1e" height="16" rx="3" width="80" x="818" y="184" /><text fill="#3b82f6" font-family="Arial" font-size="6" font-weight="bold" text-anchor="middle" x="858.0" y="195.0">COLD</text><rect fill="#0a0a1e" height="16" rx="3" width="80" x="818" y="288" /><text fill="#3b82f6" font-family="Arial" font-size="6" font-weight="bold" text-anchor="middle" x="858.0" y="299.0">COLD</text><line stroke="#8b5cf6" stroke-dasharray="6,3" stroke-width="1" x1="906" x2="906" y1="408" y2="200" /><text fill="#8b5cf6" font-family="Arial" font-size="5" x="909" y="304.0">CABLE</text><rect fill="#3b82f6" height="16" rx="2" width="5" x="940" y="272.0" /><text fill="#6b7280" font-family="Arial" font-size="6" x="948" y="282.0">DOOR</text><rect fill="#111318" height="100" rx="6" stroke="#1e2230" width="550" x="100" y="530" /><text fill="#3b82f6" font-family="Arial" font-size="10" font-weight="bold" text-anchor="middle" x="375" y="548">BUILDING CROSS-SECTION (CONCEPTUAL)</text><rect fill="#0d0d12" height="28" stroke="#3b82f6" stroke-width="1.5" width="450" x="150" y="590" /><text fill="#76b900" font-family="Arial" font-size="8" text-anchor="middle" x="375.0" y="608">FLOOR 1: 4 NVL72 racks | 520 kW | CDU pair | Elec panel</text><rect fill="#0d0d12" height="28" stroke="#3b82f6" stroke-width="1.5" width="450" x="150" y="560" /><text fill="#76b900" font-family="Arial" font-size="8" text-anchor="middle" x="375.0" y="578">FLOOR 2: 4 NVL72 racks | 520 kW | CDU pair | Elec panel</text><rect fill="#111318" height="58" stroke="#8b5cf6" stroke-width="1" width="20" x="150" y="560" /><text fill="#8b5cf6" font-family="Arial" font-size="6" text-anchor="middle" x="160" y="591">STAIR</text><line stroke="#fbbf24" stroke-width="2" x1="150" x2="600" y1="557" y2="557" /><text fill="#fbbf24" font-family="Arial" font-size="7" font-weight="bold" text-anchor="middle" x="375.0" y="552">300 kW SOLAR ROOF</text><rect fill="#111318" height="100" rx="6" stroke="#1e2230" width="640" x="700" y="530" /><rect fill="#1a2e0a" height="10" rx="2" stroke="#76b900" stroke-width="1" width="14" x="720" y="536" /><text fill="#9ca3af" font-family="Arial" font-size="8" x="740" y="545">NVL72 Rack (2' x 4') — 130 kW, liquid cooled</text><rect fill="#1a0a0a" height="10" rx="2" stroke="#ef4444" stroke-width="1" width="14" x="720" y="550" /><text fill="#9ca3af" font-family="Arial" font-size="8" x="740" y="559">Hot Aisle (Contained)</text><rect fill="#0a0a1e" height="10" rx="2" stroke="#3b82f6" stroke-width="1" width="14" x="720" y="564" /><text fill="#9ca3af" font-family="Arial" font-size="8" x="740" y="573">Cold Aisle</text><line stroke="#4fc3f7" stroke-width="2" x1="720" x2="734" y1="584" y2="584" /><text fill="#9ca3af" font-family="Arial" font-size="8" x="740" y="587">Supply Pipe (Cold from dry coolers)</text><line stroke="#ff6b6b" stroke-width="2" x1="720" x2="734" y1="598" y2="598" /><text fill="#9ca3af" font-family="Arial" font-size="8" x="740" y="601">Return Pipe (Hot to dry coolers)</text><line stroke="#8b5cf6" stroke-width="2" x1="720" x2="734" y1="612" y2="612" /><text fill="#9ca3af" font-family="Arial" font-size="8" x="740" y="615">Cable Tray (800V DC busway)</text><text fill="#6b7280" font-family="Arial" font-size="8" font-weight="bold" x="1080" y="542">PER FLOOR</text><text fill="#3b82f6" font-family="Arial" font-size="9" font-weight="bold" x="1170" y="542">24' x 37' usable</text><text fill="#3b82f6" font-family="Arial" font-size="9" font-weight="bold" x="1170" y="553">888 sq ft</text><text fill="#6b7280" font-family="Arial" font-size="8" font-weight="bold" x="1080" y="570">RACKS/FLOOR</text><text fill="#3b82f6" font-family="Arial" font-size="9" font-weight="bold" x="1170" y="570">4x NVL72</text><text fill="#3b82f6" font-family="Arial" font-size="9" font-weight="bold" x="1170" y="581">520 kW IT</text><text fill="#6b7280" font-family="Arial" font-size="8" font-weight="bold" x="1080" y="598">TOTAL</text><text fill="#3b82f6" font-family="Arial" font-size="9" font-weight="bold" x="1170" y="598">8 NVL72 racks</text><text fill="#3b82f6" font-family="Arial" font-size="9" font-weight="bold" x="1170" y="609">576 GPUs</text><text fill="#4b5563" font-family="Arial" font-size="7.5" x="35" y="650">1. Building footprint: 24' x 40' = 960 sq ft per floor, 1,920 sq ft total. Same as a 40-ft shipping container.</text><text fill="#4b5563" font-family="Arial" font-size="7.5" x="35" y="663">2. Staircase takes 3 ft off one side = 21' x 40' usable per floor (actual ~37' accounting for CDU + elec area = ~888 sq ft).</text><text fill="#4b5563" font-family="Arial" font-size="7.5" x="35" y="676">3. Each floor: 4x NVL72 racks in hot/cold aisle containment, 1 CDU pair (N+1), 1 electrical panel.</text><text fill="#4b5563" font-family="Arial" font-size="7.5" x="35" y="689">4. NVL72 rack: ~2' wide x 4' deep, 130 kW, liquid cooled, 45C hot water supply, ~2,500 lbs loaded.</text><text fill="#4b5563" font-family="Arial" font-size="7.5" x="35" y="702">5. Hot/cold aisle containment: cold supply from CDUs, hot exhaust contained and returned to CDU loop.</text><text fill="#4b5563" font-family="Arial" font-size="7.5" x="35" y="715">6. 800V DC busway runs via overhead cable tray from electrical panel to each rack position.</text><text fill="#4b5563" font-family="Arial" font-size="7.5" x="35" y="728">7. CDU pairs located at building edge for shortest pipe run to exterior dry coolers.</text><text fill="#4b5563" font-family="Arial" font-size="7.5" x="35" y="741">8. Floor loading: NVL72 ~250 lb/sq ft concentrated — structural reinforcement at rack positions required.</text><text fill="#4b5563" font-family="Arial" font-size="7.5" x="35" y="754">9. Each floor is a self-contained compute system (System 1 + System 2) with independent CDU and power feeds.</text><text fill="#4b5563" font-family="Arial" font-size="7.5" x="35" y="767">10. Total building: 8 NVL72 racks, 576 GPUs, 1,040 kW IT load, 2 CDU pairs, ~1.24 MW total with overhead.</text><rect fill="#111318" height="40" rx="6" stroke="#1e2230" width="600" x="35" y="795" /><text fill="#3b82f6" font-family="Arial" font-size="9" font-weight="bold" x="50" y="810">MARLIE I vs TRAPPEYS:</text><text fill="#9ca3af" font-family="Arial" font-size="8" x="50" y="823">MARLIE I = 1,920 sq ft / 8 racks / 576 GPUs  |  Trappeys = 112,500 sq ft / 4-84 racks / scalable</text></svg>