<?xml version="1.0" encoding="utf-8" ?>
<svg baseProfile="full" height="1000px" version="1.1" viewBox="0 0 1400 1000" width="1400px" xmlns="http://www.w3.org/2000/svg" xmlns:ev="http://www.w3.org/2001/xml-events" xmlns:xlink="http://www.w3.org/1999/xlink"><defs /><rect fill="#0a0b0f" height="1000" width="1400" x="0" y="0" /><text fill="#f0f2f5" font-family="Arial" font-size="15" font-weight="bold" text-anchor="middle" x="700.0" y="22">MARLIE I — LAFAYETTE AI FACTORY &amp; COMMAND CENTER</text><text fill="#3b82f6" font-family="Arial" font-size="9" font-weight="bold" text-anchor="middle" x="700.0" y="36">SITE PLAN | 1201 SE EVANGELINE THRUWAY | 0.60 ACRES | 3 PARCELS | GPS: 30.2198N, 92.0065W</text><text fill="#6b7280" font-family="Arial" font-size="8" text-anchor="middle" x="700.0" y="48">Sheet S-001 | MVP Design Intent | 2026-03-23 | NOT FOR CONSTRUCTION</text><rect fill="none" height="880" rx="0" stroke="#333" stroke-dasharray="8,4" stroke-width="1" width="600" x="160" y="160" /><text fill="#555" font-family="Arial" font-size="8" text-anchor="middle" x="460.0" y="140">PROPERTY LINE — 3 PARCELS, 0.60 ACRES</text><line stroke="#333" stroke-dasharray="4,4" stroke-width="0.5" x1="160" x2="760" y1="460" y2="460" /><line stroke="#333" stroke-dasharray="4,4" stroke-width="0.5" x1="160" x2="760" y1="720" y2="720" /><text fill="#555" font-family="Arial" font-size="7" transform="rotate(-90, 128, 320)" x="128" y="320">PARCEL 1</text><text fill="#555" font-family="Arial" font-size="7" transform="rotate(-90, 128, 580)" x="128" y="580">PARCEL 2</text><text fill="#555" font-family="Arial" font-size="7" transform="rotate(-90, 128, 840)" x="128" y="840">PARCEL 3</text><rect fill="#0a1028" height="160" rx="3" stroke="#3b82f6" stroke-width="2.5" width="96" x="320" y="280" /><text fill="#3b82f6" font-family="Arial" font-size="12" font-weight="bold" text-anchor="middle" x="368.0" y="320">MARLIE I</text><text fill="#3b82f6" font-family="Arial" font-size="8" text-anchor="middle" x="368.0" y="340">24' x 40' = 1,920 sq ft</text><text fill="#93c5fd" font-family="Arial" font-size="7" font-weight="bold" text-anchor="middle" x="368.0" y="360">2 FLOORS | 8 NVL72 RACKS</text><text fill="#93c5fd" font-family="Arial" font-size="7" text-anchor="middle" x="368.0" y="380">576 GPUs | 1,040 kW IT</text><text fill="#6b7280" font-family="Arial" font-size="7" text-anchor="middle" x="368.0" y="400">Backup NOC + Edge Compute</text><text fill="#6b7280" font-family="Arial" font-size="6" text-anchor="middle" x="368.0" y="420">Scott's Operations HQ</text><line stroke="#3b82f6" stroke-width="0.5" x1="320" x2="416" y1="452" y2="452" /><line stroke="#3b82f6" stroke-width="0.5" x1="320" x2="320" y1="448" y2="456" /><line stroke="#3b82f6" stroke-width="0.5" x1="416" x2="416" y1="448" y2="456" /><text fill="#3b82f6" font-family="Arial" font-size="7" text-anchor="middle" x="368.0" y="449">24'-0"</text><line stroke="#3b82f6" stroke-width="0.5" x1="431" x2="431" y1="280" y2="440" /><line stroke="#3b82f6" stroke-width="0.5" x1="427" x2="435" y1="280" y2="280" /><line stroke="#3b82f6" stroke-width="0.5" x1="427" x2="435" y1="440" y2="440" /><text fill="#3b82f6" font-family="Arial" font-size="7" x="436" y="363.0">40'-0"</text><rect fill="#1a1a2e" height="40" rx="1" stroke="#8b5cf6" stroke-width="1" width="12" x="320" y="340" /><text fill="#8b5cf6" font-family="Arial" font-size="5" text-anchor="middle" x="326.0" y="364">STAIR</text><text fill="#fbbf24" font-family="Arial" font-size="5" font-weight="bold" opacity="0.7" x="408" y="288">SOLAR</text><rect fill="#111318" height="240" rx="3" stroke="#6b7280" stroke-width="1.5" width="200" x="480" y="280" /><text fill="#6b7280" font-family="Arial" font-size="9" font-weight="bold" text-anchor="middle" x="580.0" y="312">CONCRETE PAD</text><text fill="#9ca3af" font-family="Arial" font-size="7" text-anchor="middle" x="580.0" y="336">Infrastructure Yard</text><rect fill="#0a1a0a" height="40" rx="2" stroke="#22c55e" stroke-width="1" width="80" x="492" y="352" /><text fill="#22c55e" font-family="Arial" font-size="6" font-weight="bold" text-anchor="middle" x="532" y="376">G3520C #1</text><text fill="#22c55e" font-family="Arial" font-size="5" text-anchor="middle" x="532" y="388">1.5 MW</text><rect fill="#0a1a0a" height="40" rx="2" stroke="#22c55e" stroke-width="1" width="80" x="588" y="352" /><text fill="#22c55e" font-family="Arial" font-size="6" font-weight="bold" text-anchor="middle" x="628" y="376">G3520C #2</text><text fill="#4ade80" font-family="Arial" font-size="5" text-anchor="middle" x="628" y="388">N+1</text><rect fill="#0a1628" height="48" rx="2" stroke="#4fc3f7" stroke-width="1" width="176" x="492" y="408" /><text fill="#4fc3f7" font-family="Arial" font-size="7" font-weight="bold" text-anchor="middle" x="580" y="428">DRY COOLERS</text><text fill="#4fc3f7" font-family="Arial" font-size="5" text-anchor="middle" x="580" y="444">Heat rejection | Fan-assisted</text><rect fill="#111318" height="32" rx="2" stroke="#8b5cf6" stroke-width="1" width="176" x="492" y="468" /><text fill="#c4b5fd" font-family="Arial" font-size="5" font-weight="bold" text-anchor="middle" x="580" y="488">EATON 800V DC | ATS | SWITCHGEAR</text><rect fill="#2e1a1a" height="32" rx="2" stroke="#ef4444" stroke-width="1" width="80" x="492" y="508" /><text fill="#ef4444" font-family="Arial" font-size="5" font-weight="bold" text-anchor="middle" x="532" y="528">DIESEL GENSET</text><rect fill="#0a0a1a" height="32" rx="2" stroke="#3b82f6" stroke-width="1" width="80" x="588" y="508" /><text fill="#93c5fd" font-family="Arial" font-size="5" font-weight="bold" text-anchor="middle" x="628" y="528">BESS 600 kWh</text><line stroke="#6b7280" stroke-width="0.5" x1="480" x2="680" y1="532" y2="532" /><line stroke="#6b7280" stroke-width="0.5" x1="480" x2="480" y1="528" y2="536" /><line stroke="#6b7280" stroke-width="0.5" x1="680" x2="680" y1="528" y2="536" /><text fill="#6b7280" font-family="Arial" font-size="7" text-anchor="middle" x="580.0" y="529">~50'-0"</text><rect fill="#0a0a0a" height="80" rx="2" stroke="#555" stroke-dasharray="4,3" stroke-width="1" width="100" x="240" y="520" /><text fill="#555" font-family="Arial" font-size="7" font-weight="bold" text-anchor="middle" x="290.0" y="552.0">BLIGHTED #1</text><text fill="#ef4444" font-family="Arial" font-size="5" text-anchor="middle" x="290.0" y="584.0">PHASE 1 DEMO</text><rect fill="#0a0a0a" height="100" rx="2" stroke="#555" stroke-dasharray="4,3" stroke-width="1" width="120" x="360" y="640" /><text fill="#555" font-family="Arial" font-size="7" font-weight="bold" text-anchor="middle" x="420.0" y="682.0">BLIGHTED #2</text><text fill="#ef4444" font-family="Arial" font-size="5" text-anchor="middle" x="420.0" y="714.0">PHASE 1 DEMO</text><rect fill="#0a0a0a" height="80" rx="2" stroke="#555" stroke-dasharray="4,3" stroke-width="1" width="140" x="520" y="640" /><text fill="#555" font-family="Arial" font-size="7" font-weight="bold" text-anchor="middle" x="590.0" y="672.0">BLIGHTED #3</text><text fill="#ef4444" font-family="Arial" font-size="5" text-anchor="middle" x="590.0" y="704.0">PHASE 1 DEMO</text><rect fill="#1a1a1a" height="48" rx="2" stroke="#333" stroke-width="1" width="680" x="120" y="1060" /><text fill="#444" font-family="Arial" font-size="9" font-weight="bold" text-anchor="middle" x="460.0" y="1092">CHAG STREET</text><rect fill="#1a1a1a" height="1000" rx="2" stroke="#333" stroke-width="1" width="48" x="820" y="120" /><text fill="#444" font-family="Arial" font-size="9" font-weight="bold" text-anchor="middle" transform="rotate(90, 844, 600.0)" x="844" y="600.0">SE EVANGELINE THRUWAY</text><text fill="#CE181E" font-family="Arial" font-size="10" font-weight="bold" x="900" y="280">TRAPPEYS CANNERY</text><text fill="#888" font-family="Arial" font-size="7" x="900" y="312">0.5 miles south</text><text fill="#888" font-family="Arial" font-size="6" x="900" y="336">Solar AI factory | 112,500 sq ft</text><text fill="#CE181E" font-family="Arial" font-size="10" font-weight="bold" x="900" y="400">UL LAFAYETTE</text><text fill="#888" font-family="Arial" font-size="7" x="900" y="432">0.5 miles east</text><text fill="#888" font-family="Arial" font-size="6" x="900" y="456">Anchor tenant | Grants | Workforce</text><text fill="#76b900" font-family="Arial" font-size="10" font-weight="bold" x="900" y="520">WILLOW GLEN</text><text fill="#888" font-family="Arial" font-size="7" x="900" y="552">60 miles east (fiber)</text><text fill="#888" font-family="Arial" font-size="6" x="900" y="576">PRIMARY HUB | Management traffic only</text><text fill="#3b82f6" font-family="Arial" font-size="9" font-weight="bold" x="900" y="648">LUS FIBER</text><text fill="#888" font-family="Arial" font-size="7" x="900" y="680">0.8 mi municipal fiber conduit</text><text fill="#22c55e" font-family="Arial" font-size="9" font-weight="bold" x="900" y="740">ATMOS GAS</text><text fill="#888" font-family="Arial" font-size="7" x="900" y="772">Natural gas on property</text><text fill="#888" font-family="Arial" font-size="6" x="900" y="796">Henry Hub 40 mi</text><text fill="#ef4444" font-family="Arial" font-size="9" font-weight="bold" x="900" y="860">LUS + SLEMCO</text><text fill="#888" font-family="Arial" font-size="7" x="900" y="892">Dual feed available | 3-phase confirmed</text><text fill="#ef4444" font-family="Arial" font-size="6" x="900" y="916">Backup only — NOT primary</text><polygon fill="#fff" points="1340,75 1332,100 1348,100" /><text fill="#fff" font-family="Arial" font-size="12" font-weight="bold" text-anchor="middle" x="1340" y="70">N</text><rect fill="#111318" height="180" rx="6" stroke="#1e2230" width="370" x="1010" y="150" /><text fill="#f0f2f5" font-family="Arial" font-size="9" font-weight="bold" x="1020" y="165">LEGEND</text><rect fill="#3b82f6" height="8" rx="2" width="12" x="1020" y="180" /><text fill="#9ca3af" font-family="Arial" font-size="7" x="1038" y="187">MARLIE I — 24x40 building, 2 floors, 1,920 sq ft</text><rect fill="#6b7280" height="8" rx="2" width="12" x="1020" y="196" /><text fill="#9ca3af" font-family="Arial" font-size="7" x="1038" y="203">Concrete Pad (generators, dry coolers, switchgear)</text><rect fill="#22c55e" height="8" rx="2" width="12" x="1020" y="212" /><text fill="#9ca3af" font-family="Arial" font-size="7" x="1038" y="219">Natural Gas Generators (2x Cat G3520C, 3 MW)</text><rect fill="#4fc3f7" height="8" rx="2" width="12" x="1020" y="228" /><text fill="#9ca3af" font-family="Arial" font-size="7" x="1038" y="235">Dry Coolers (air-cooled heat rejection)</text><rect fill="#8b5cf6" height="8" rx="2" width="12" x="1020" y="244" /><text fill="#9ca3af" font-family="Arial" font-size="7" x="1038" y="251">Eaton 800V DC distribution</text><rect fill="#ef4444" height="8" rx="2" width="12" x="1020" y="260" /><text fill="#9ca3af" font-family="Arial" font-size="7" x="1038" y="267">Diesel Emergency + Grid Backup</text><rect fill="#fbbf24" height="8" rx="2" width="12" x="1020" y="276" /><text fill="#9ca3af" font-family="Arial" font-size="7" x="1038" y="283">Solar (300 kW rooftop)</text><rect fill="#555555" height="8" rx="2" width="12" x="1020" y="292" /><text fill="#9ca3af" font-family="Arial" font-size="7" x="1038" y="299">Blighted Structures (Phase 1 demolition)</text><rect fill="#CE181E" height="8" rx="2" width="12" x="1020" y="308" /><text fill="#9ca3af" font-family="Arial" font-size="7" x="1038" y="315">Nearby: Trappeys + UL Lafayette</text><rect fill="#111318" height="50" rx="6" stroke="#1e2230" width="1320" x="40" y="780" /><text fill="#6b7280" font-family="Arial" font-size="7" font-weight="bold" x="65" y="798">BUILDING</text><text fill="#3b82f6" font-family="Arial" font-size="10" font-weight="bold" x="65" y="812">24' x 40' x 2 floors</text><text fill="#6b7280" font-family="Arial" font-size="7" font-weight="bold" x="255" y="798">TOTAL AREA</text><text fill="#3b82f6" font-family="Arial" font-size="10" font-weight="bold" x="255" y="812">1,920 sq ft</text><text fill="#6b7280" font-family="Arial" font-size="7" font-weight="bold" x="445" y="798">LAND</text><text fill="#3b82f6" font-family="Arial" font-size="10" font-weight="bold" x="445" y="812">0.60 acres (3 parcels)</text><text fill="#6b7280" font-family="Arial" font-size="7" font-weight="bold" x="635" y="798">LAND DEBT</text><text fill="#3b82f6" font-family="Arial" font-size="10" font-weight="bold" x="635" y="812">$15,000</text><text fill="#6b7280" font-family="Arial" font-size="7" font-weight="bold" x="825" y="798">GPU RACKS</text><text fill="#3b82f6" font-family="Arial" font-size="10" font-weight="bold" x="825" y="812">8 NVL72 (576 GPUs)</text><text fill="#6b7280" font-family="Arial" font-size="7" font-weight="bold" x="1015" y="798">IT LOAD</text><text fill="#3b82f6" font-family="Arial" font-size="10" font-weight="bold" x="1015" y="812">1,040 kW</text><text fill="#6b7280" font-family="Arial" font-size="7" font-weight="bold" x="1205" y="798">GENERATION</text><text fill="#3b82f6" font-family="Arial" font-size="10" font-weight="bold" x="1205" y="812">3.0 MW (N+1)</text><rect fill="#111318" height="55" rx="6" stroke="#1e2230" width="1320" x="40" y="845" /><text fill="#f0f2f5" font-family="Arial" font-size="10" font-weight="bold" x="60" y="861">DEPLOY SEQUENCE</text><text fill="#ef4444" font-family="Arial" font-size="16" font-weight="bold" x="80" y="882">1</text><text fill="#ef4444" font-family="Arial" font-size="9" font-weight="bold" x="96" y="880">DEMO</text><text fill="#9ca3af" font-family="Arial" font-size="7" x="96" y="890">3 blighted structures</text><text fill="#6b7280" font-family="Arial" font-size="16" font-weight="bold" x="410" y="882">2</text><text fill="#6b7280" font-family="Arial" font-size="9" font-weight="bold" x="426" y="880">PAD</text><text fill="#9ca3af" font-family="Arial" font-size="7" x="426" y="890">Concrete pad + utilities</text><text fill="#3b82f6" font-family="Arial" font-size="16" font-weight="bold" x="740" y="882">3</text><text fill="#3b82f6" font-family="Arial" font-size="9" font-weight="bold" x="756" y="880">FLOOR 1</text><text fill="#9ca3af" font-family="Arial" font-size="7" x="756" y="890">Downstairs compute</text><text fill="#76b900" font-family="Arial" font-size="16" font-weight="bold" x="1070" y="882">4</text><text fill="#76b900" font-family="Arial" font-size="9" font-weight="bold" x="1086" y="880">FLOOR 2</text><text fill="#9ca3af" font-family="Arial" font-size="7" x="1086" y="890">Upstairs compute</text><text fill="#4b5563" font-family="Arial" font-size="7" x="35" y="915">1. 1201 SE Evangeline Thruway, Lafayette, LA — industrial corridor zoning, 3 adjacent parcels on Chag Street</text><text fill="#4b5563" font-family="Arial" font-size="7" x="35" y="926">2. Land debt $15,000 — effectively debt-free. 0.60 acres total across 3 parcels.</text><text fill="#4b5563" font-family="Arial" font-size="7" x="35" y="937">3. 3 blighted structures require Phase 1 demolition before concrete pad construction</text><text fill="#4b5563" font-family="Arial" font-size="7" x="35" y="948">4. Building footprint matches 40-ft shipping container (24' x 40'). 2 floors = 1,920 sq ft total.</text><text fill="#4b5563" font-family="Arial" font-size="7" x="35" y="959">5. Concrete pad houses generators, dry coolers, Eaton switchgear, diesel genset, and battery storage</text><text fill="#4b5563" font-family="Arial" font-size="7" x="35" y="970">6. 0.5 miles from Trappeys Cannery, 0.5 miles from UL Lafayette, 60 miles from Willow Glen (fiber)</text></svg>