<?xml version="1.0" encoding="utf-8" ?>
<svg baseProfile="full" height="1050px" version="1.1" viewBox="0 0 1400 1050" width="1400px" xmlns="http://www.w3.org/2000/svg" xmlns:ev="http://www.w3.org/2001/xml-events" xmlns:xlink="http://www.w3.org/1999/xlink"><defs /><rect fill="#0a0b0f" height="1050" width="1400" x="0" y="0" /><text fill="#f0f2f5" font-family="Arial" font-size="16" font-weight="bold" text-anchor="middle" x="700.0" y="24">MARLIE I — LAFAYETTE AI FACTORY &amp; COMMAND CENTER</text><text fill="#3b82f6" font-family="Arial" font-size="10" font-weight="bold" text-anchor="middle" x="700.0" y="40">POWER DISTRIBUTION SCHEMATIC | FUEL TO CHIP | 4-LAYER POWER HIERARCHY | 1,040 kW IT</text><text fill="#6b7280" font-family="Arial" font-size="9" text-anchor="middle" x="700.0" y="54">Sheet P-001 | Design Intent | 2026-03-23 | NOT FOR CONSTRUCTION</text><g><rect fill="#0a1a0a" height="55" rx="4" ry="4" stroke="#22c55e" stroke-width="1.5" width="130" x="30" y="75" /><text fill="#22c55e" font-family="Arial" font-size="10" font-weight="bold" text-anchor="middle" x="95.0" y="95.0">ATMOS ENERGY</text><text fill="#22c55e" font-family="Arial" font-size="9" font-weight="normal" text-anchor="middle" x="95.0" y="108.0">Natural Gas</text><text fill="#22c55e" font-family="Arial" font-size="9" font-weight="normal" text-anchor="middle" x="95.0" y="121.0">On Property</text><text fill="#6b7280" font-family="Arial" font-size="7" text-anchor="middle" x="95.0" y="126">Henry Hub 40 mi</text></g><g><rect fill="#1a1a2e" height="55" rx="4" ry="4" stroke="#22c55e" stroke-width="1.5" width="100" x="180" y="75" /><text fill="#86efac" font-family="Arial" font-size="10" font-weight="bold" text-anchor="middle" x="230.0" y="95.0">GAS METER</text><text fill="#86efac" font-family="Arial" font-size="9" font-weight="normal" text-anchor="middle" x="230.0" y="108.0">+ REGULATOR</text><text fill="#86efac" font-family="Arial" font-size="9" font-weight="normal" text-anchor="middle" x="230.0" y="121.0">Station</text><text fill="#6b7280" font-family="Arial" font-size="7" text-anchor="middle" x="230.0" y="126">Custody transfer</text></g><g><rect fill="#2e1a1a" height="55" rx="4" ry="4" stroke="#ef4444" stroke-width="1.5" width="120" x="310" y="75" /><text fill="#ef4444" font-family="Arial" font-size="10" font-weight="bold" text-anchor="middle" x="370.0" y="95.0">DIESEL FUEL</text><text fill="#ef4444" font-family="Arial" font-size="9" font-weight="normal" text-anchor="middle" x="370.0" y="108.0">STORAGE</text><text fill="#ef4444" font-family="Arial" font-size="9" font-weight="normal" text-anchor="middle" x="370.0" y="121.0">2,000 gal</text><text fill="#6b7280" font-family="Arial" font-size="7" text-anchor="middle" x="370.0" y="126">Layer 3 backup</text></g><g><rect fill="#1a1a00" height="55" rx="4" ry="4" stroke="#fbbf24" stroke-width="1.5" width="130" x="460" y="75" /><text fill="#fbbf24" font-family="Arial" font-size="10" font-weight="bold" text-anchor="middle" x="525.0" y="95.0">SOLAR</text><text fill="#fbbf24" font-family="Arial" font-size="9" font-weight="normal" text-anchor="middle" x="525.0" y="108.0">IRRADIANCE</text><text fill="#fbbf24" font-family="Arial" font-size="9" font-weight="normal" text-anchor="middle" x="525.0" y="121.0">4.5-5.2 kWh/m2/day</text><text fill="#6b7280" font-family="Arial" font-size="7" text-anchor="middle" x="525.0" y="126">300 kW Rooftop</text></g><g><rect fill="#1a0a0a" height="55" rx="4" ry="4" stroke="#ef4444" stroke-width="1.5" width="130" x="620" y="75" /><text fill="#ef4444" font-family="Arial" font-size="10" font-weight="bold" text-anchor="middle" x="685.0" y="95.0">LUS + SLEMCO</text><text fill="#ef4444" font-family="Arial" font-size="9" font-weight="normal" text-anchor="middle" x="685.0" y="108.0">GRID</text><text fill="#ef4444" font-family="Arial" font-size="9" font-weight="normal" text-anchor="middle" x="685.0" y="121.0">BACKUP ONLY</text><text fill="#6b7280" font-family="Arial" font-size="7" text-anchor="middle" x="685.0" y="126">Layer 4 — dual feed</text></g><line stroke="#22c55e" stroke-width="1.5" x1="95" x2="95" y1="130" y2="160" /><polygon fill="#22c55e" points="91,154 99,154 95,160" /><line stroke="#22c55e" stroke-width="1.5" x1="230" x2="230" y1="130" y2="160" /><polygon fill="#22c55e" points="226,154 234,154 230,160" /><line stroke="#ef4444" stroke-width="1.5" x1="370" x2="370" y1="130" y2="160" /><polygon fill="#ef4444" points="366,154 374,154 370,160" /><line stroke="#fbbf24" stroke-width="1.5" x1="525" x2="525" y1="130" y2="160" /><polygon fill="#fbbf24" points="521,154 529,154 525,160" /><g><rect fill="#0a1a0a" height="65" rx="4" ry="4" stroke="#22c55e" stroke-width="1.5" width="140" x="30" y="165" /><text fill="#22c55e" font-family="Arial" font-size="10" font-weight="bold" text-anchor="middle" x="100.0" y="183.5">CAT G3520C #1</text><text fill="#22c55e" font-family="Arial" font-size="9" font-weight="normal" text-anchor="middle" x="100.0" y="196.5">1.5 MW | 480V AC</text><text fill="#22c55e" font-family="Arial" font-size="9" font-weight="normal" text-anchor="middle" x="100.0" y="209.5">Natural Gas Prime</text><text fill="#22c55e" font-family="Arial" font-size="9" font-weight="normal" text-anchor="middle" x="100.0" y="222.5">Layer 2 Backbone</text><text fill="#6b7280" font-family="Arial" font-size="7" text-anchor="middle" x="100.0" y="226">Louisiana Cat | American Made</text></g><g><rect fill="#0a1a0a" height="65" rx="4" ry="4" stroke="#22c55e" stroke-width="1.5" width="140" x="185" y="165" /><text fill="#4ade80" font-family="Arial" font-size="10" font-weight="bold" text-anchor="middle" x="255.0" y="183.5">CAT G3520C #2</text><text fill="#4ade80" font-family="Arial" font-size="9" font-weight="normal" text-anchor="middle" x="255.0" y="196.5">1.5 MW | 480V AC</text><text fill="#4ade80" font-family="Arial" font-size="9" font-weight="normal" text-anchor="middle" x="255.0" y="209.5">N+1 REDUNDANT</text><text fill="#4ade80" font-family="Arial" font-size="9" font-weight="normal" text-anchor="middle" x="255.0" y="222.5">Maintenance Spare</text><text fill="#6b7280" font-family="Arial" font-size="7" text-anchor="middle" x="255.0" y="226">Either offline = no impact</text></g><g><rect fill="#2e1a1a" height="65" rx="4" ry="4" stroke="#ef4444" stroke-width="1.5" width="110" x="340" y="165" /><text fill="#ef4444" font-family="Arial" font-size="10" font-weight="bold" text-anchor="middle" x="395.0" y="183.5">DIESEL GENSET</text><text fill="#ef4444" font-family="Arial" font-size="9" font-weight="normal" text-anchor="middle" x="395.0" y="196.5">250 kW</text><text fill="#ef4444" font-family="Arial" font-size="9" font-weight="normal" text-anchor="middle" x="395.0" y="209.5">480V | Emergency</text><text fill="#ef4444" font-family="Arial" font-size="9" font-weight="normal" text-anchor="middle" x="395.0" y="222.5">Auto-Start</text><text fill="#6b7280" font-family="Arial" font-size="7" text-anchor="middle" x="395.0" y="226">Layer 3 only</text></g><g><rect fill="#1a1a00" height="65" rx="4" ry="4" stroke="#fbbf24" stroke-width="1.5" width="140" x="470" y="165" /><text fill="#fbbf24" font-family="Arial" font-size="10" font-weight="bold" text-anchor="middle" x="540.0" y="183.5">SOLAR ARRAY</text><text fill="#fbbf24" font-family="Arial" font-size="9" font-weight="normal" text-anchor="middle" x="540.0" y="196.5">300 kW Rooftop</text><text fill="#fbbf24" font-family="Arial" font-size="9" font-weight="normal" text-anchor="middle" x="540.0" y="209.5">24x40 = 960 sq ft</text><text fill="#fbbf24" font-family="Arial" font-size="9" font-weight="normal" text-anchor="middle" x="540.0" y="222.5">DC-Direct 952V</text><text fill="#6b7280" font-family="Arial" font-size="7" text-anchor="middle" x="540.0" y="226">First Solar TR1</text></g><line stroke="#22c55e" stroke-width="1.5" x1="100" x2="100" y1="230" y2="280" /><polygon fill="#22c55e" points="96,274 104,274 100,280" /><line stroke="#22c55e" stroke-width="1.5" x1="255" x2="255" y1="230" y2="280" /><polygon fill="#22c55e" points="251,274 259,274 255,280" /><line stroke="#ef4444" stroke-width="1.5" x1="395" x2="395" y1="230" y2="280" /><polygon fill="#ef4444" points="391,274 399,274 395,280" /><g><rect fill="#1a1a2e" height="50" rx="4" ry="4" stroke="#22c55e" stroke-width="1.5" width="300" x="30" y="280" /><text fill="#86efac" font-family="Arial" font-size="10" font-weight="bold" text-anchor="middle" x="180.0" y="297.5">PARALLELING SWITCHGEAR + ATS</text><text fill="#86efac" font-family="Arial" font-size="9" font-weight="normal" text-anchor="middle" x="180.0" y="310.5">Louisiana Cat Controls | Auto-Sync</text><text fill="#86efac" font-family="Arial" font-size="9" font-weight="normal" text-anchor="middle" x="180.0" y="323.5">Both G3520C parallel to common 480V AC bus</text><text fill="#6b7280" font-family="Arial" font-size="7" text-anchor="middle" x="180.0" y="326">Automatic load balancing</text></g><g><rect fill="#1a1a2e" height="50" rx="4" ry="4" stroke="#ef4444" stroke-width="1.5" width="110" x="345" y="280" /><text fill="#fca5a5" font-family="Arial" font-size="10" font-weight="bold" text-anchor="middle" x="400.0" y="291.0">EMERGENCY</text><text fill="#fca5a5" font-family="Arial" font-size="9" font-weight="normal" text-anchor="middle" x="400.0" y="304.0">ATS</text><text fill="#fca5a5" font-family="Arial" font-size="9" font-weight="normal" text-anchor="middle" x="400.0" y="317.0">Diesel Auto</text><text fill="#fca5a5" font-family="Arial" font-size="9" font-weight="normal" text-anchor="middle" x="400.0" y="330.0">Transfer</text></g><line stroke="#fbbf24" stroke-width="1.5" x1="540" x2="540" y1="230" y2="280" /><polygon fill="#fbbf24" points="536,274 544,274 540,280" /><g><rect fill="#1a1a2e" height="50" rx="4" ry="4" stroke="#fbbf24" stroke-width="1.5" width="110" x="480" y="280" /><text fill="#fbbf24" font-family="Arial" font-size="10" font-weight="bold" text-anchor="middle" x="535.0" y="291.0">SOLAR</text><text fill="#fbbf24" font-family="Arial" font-size="9" font-weight="normal" text-anchor="middle" x="535.0" y="304.0">COMBINER</text><text fill="#fbbf24" font-family="Arial" font-size="9" font-weight="normal" text-anchor="middle" x="535.0" y="317.0">BOX</text><text fill="#fbbf24" font-family="Arial" font-size="9" font-weight="normal" text-anchor="middle" x="535.0" y="330.0">String Fusing</text></g><line stroke="#ef4444" stroke-width="1.5" x1="685" x2="685" y1="130" y2="305" /><line stroke="#ef4444" stroke-width="1.5" x1="620" x2="685" y1="305" y2="305" /><text fill="#ef4444" font-family="Arial" font-size="7" x="625" y="300">BACKUP ONLY</text><text fill="#ef4444" font-family="Arial" font-size="6" x="625" y="310">NOT PRIMARY</text><line stroke="#ff6b35" stroke-width="1.5" x1="180" x2="180" y1="330" y2="375" /><polygon fill="#ff6b35" points="176,369 184,369 180,375" /><line stroke="#ff6b35" stroke-width="1.5" x1="400" x2="400" y1="330" y2="375" /><polygon fill="#ff6b35" points="396,369 404,369 400,375" /><line stroke="#ff6b35" stroke-width="1.5" x1="535" x2="535" y1="330" y2="375" /><polygon fill="#ff6b35" points="531,369 539,369 535,375" /><rect fill="#ff6b35" height="6" rx="2" width="680" x="30" y="372" /><text fill="#ff6b35" font-family="Arial" font-size="10" font-weight="bold" text-anchor="middle" x="370" y="365">480V AC DISTRIBUTION BUS</text><line stroke="#ff6b35" stroke-width="1.5" x1="150" x2="150" y1="378" y2="415" /><polygon fill="#ff6b35" points="146,409 154,409 150,415" /><line stroke="#ff6b35" stroke-width="1.5" x1="370" x2="370" y1="378" y2="415" /><polygon fill="#ff6b35" points="366,409 374,409 370,415" /><g><rect fill="#1a1a2e" height="55" rx="4" ry="4" stroke="#8b5cf6" stroke-width="1.5" width="200" x="60" y="415" /><text fill="#c4b5fd" font-family="Arial" font-size="10" font-weight="bold" text-anchor="middle" x="160.0" y="435.0">EATON BEAM RUBIN DSX</text><text fill="#c4b5fd" font-family="Arial" font-size="9" font-weight="normal" text-anchor="middle" x="160.0" y="448.0">AC/DC RECTIFIER #1</text><text fill="#c4b5fd" font-family="Arial" font-size="9" font-weight="normal" text-anchor="middle" x="160.0" y="461.0">480V AC -&gt; 800V DC</text><text fill="#6b7280" font-family="Arial" font-size="7" text-anchor="middle" x="160.0" y="466">96%+ Efficiency</text></g><g><rect fill="#1a1a2e" height="55" rx="4" ry="4" stroke="#8b5cf6" stroke-width="1.5" width="200" x="290" y="415" /><text fill="#c4b5fd" font-family="Arial" font-size="10" font-weight="bold" text-anchor="middle" x="390.0" y="435.0">EATON BEAM RUBIN DSX</text><text fill="#c4b5fd" font-family="Arial" font-size="9" font-weight="normal" text-anchor="middle" x="390.0" y="448.0">AC/DC RECTIFIER #2</text><text fill="#c4b5fd" font-family="Arial" font-size="9" font-weight="normal" text-anchor="middle" x="390.0" y="461.0">480V AC -&gt; 800V DC</text><text fill="#6b7280" font-family="Arial" font-size="7" text-anchor="middle" x="390.0" y="466">N+1 Redundant</text></g><polyline fill="none" points="535,330 535,340 570,340 570,415" stroke="#fbbf24" stroke-width="2" /><g><rect fill="#1a1a2e" height="55" rx="4" ry="4" stroke="#fbbf24" stroke-width="1.5" width="170" x="520" y="415" /><text fill="#fbbf24" font-family="Arial" font-size="10" font-weight="bold" text-anchor="middle" x="605.0" y="428.5">DC-DC BUCK</text><text fill="#fbbf24" font-family="Arial" font-size="9" font-weight="normal" text-anchor="middle" x="605.0" y="441.5">CONVERTER</text><text fill="#fbbf24" font-family="Arial" font-size="9" font-weight="normal" text-anchor="middle" x="605.0" y="454.5">952V -&gt; 800V Bus</text><text fill="#fbbf24" font-family="Arial" font-size="9" font-weight="normal" text-anchor="middle" x="605.0" y="467.5">97% Efficiency</text><text fill="#6b7280" font-family="Arial" font-size="7" text-anchor="middle" x="605.0" y="466">Solar DC-Direct</text></g><line stroke="#8b5cf6" stroke-width="1.5" x1="160" x2="160" y1="470" y2="515" /><polygon fill="#8b5cf6" points="156,509 164,509 160,515" /><line stroke="#8b5cf6" stroke-width="1.5" x1="390" x2="390" y1="470" y2="515" /><polygon fill="#8b5cf6" points="386,509 394,509 390,515" /><line stroke="#8b5cf6" stroke-width="1.5" x1="605" x2="605" y1="470" y2="515" /><polygon fill="#8b5cf6" points="601,509 609,509 605,515" /><rect fill="#8b5cf6" height="6" rx="2" width="680" x="30" y="512" /><text fill="#8b5cf6" font-family="Arial" font-size="10" font-weight="bold" text-anchor="middle" x="370" y="505">800V DC MAIN DISTRIBUTION BUS — NVIDIA DSX REFERENCE</text><line stroke="#8b5cf6" stroke-width="1.5" x1="80" x2="80" y1="518" y2="530" /><g><rect fill="#1a1a2e" height="50" rx="4" ry="4" stroke="#3b82f6" stroke-width="1.5" width="100" x="30" y="530" /><text fill="#93c5fd" font-family="Arial" font-size="10" font-weight="bold" text-anchor="middle" x="80.0" y="541.0">EATON xStorage</text><text fill="#93c5fd" font-family="Arial" font-size="9" font-weight="normal" text-anchor="middle" x="80.0" y="554.0">BATTERY (BESS)</text><text fill="#93c5fd" font-family="Arial" font-size="9" font-weight="normal" text-anchor="middle" x="80.0" y="567.0">600 kWh</text><text fill="#93c5fd" font-family="Arial" font-size="9" font-weight="normal" text-anchor="middle" x="80.0" y="580.0">800V DC Native</text><text fill="#6b7280" font-family="Arial" font-size="7" text-anchor="middle" x="80.0" y="576">Ride-through + bridge</text></g><line stroke="#8b5cf6" stroke-width="1.5" x1="200" x2="200" y1="518" y2="540" /><polygon fill="#8b5cf6" points="196,534 204,534 200,540" /><g><rect fill="#1a1a2e" height="30" rx="4" ry="4" stroke="#8b5cf6" stroke-width="1.5" width="80" x="160" y="540" /><text fill="#c4b5fd" font-family="Arial" font-size="8" font-weight="bold" text-anchor="middle" x="200.0" y="554.0">BUSWAY</text><text fill="#c4b5fd" font-family="Arial" font-size="7" font-weight="normal" text-anchor="middle" x="200.0" y="567.0">F1 R1-2</text></g><line stroke="#8b5cf6" stroke-width="1.5" x1="200" x2="200" y1="570" y2="580" /><polygon fill="#8b5cf6" points="196,574 204,574 200,580" /><g><rect fill="#1a1a2e" height="28" rx="4" ry="4" stroke="#76b900" stroke-width="1.5" width="70" x="165" y="580" /><text fill="#76b900" font-family="Arial" font-size="7" font-weight="bold" text-anchor="middle" x="200.0" y="593.0">PDU + LLC</text><text fill="#76b900" font-family="Arial" font-size="6" font-weight="normal" text-anchor="middle" x="200.0" y="606.0">800V-&gt;12.5V</text></g><line stroke="#76b900" stroke-width="1.5" x1="200" x2="200" y1="608" y2="620" /><polygon fill="#76b900" points="196,614 204,614 200,620" /><line stroke="#8b5cf6" stroke-width="1.5" x1="350" x2="350" y1="518" y2="540" /><polygon fill="#8b5cf6" points="346,534 354,534 350,540" /><g><rect fill="#1a1a2e" height="30" rx="4" ry="4" stroke="#8b5cf6" stroke-width="1.5" width="80" x="310" y="540" /><text fill="#c4b5fd" font-family="Arial" font-size="8" font-weight="bold" text-anchor="middle" x="350.0" y="554.0">BUSWAY</text><text fill="#c4b5fd" font-family="Arial" font-size="7" font-weight="normal" text-anchor="middle" x="350.0" y="567.0">F1 R3-4</text></g><line stroke="#8b5cf6" stroke-width="1.5" x1="350" x2="350" y1="570" y2="580" /><polygon fill="#8b5cf6" points="346,574 354,574 350,580" /><g><rect fill="#1a1a2e" height="28" rx="4" ry="4" stroke="#76b900" stroke-width="1.5" width="70" x="315" y="580" /><text fill="#76b900" font-family="Arial" font-size="7" font-weight="bold" text-anchor="middle" x="350.0" y="593.0">PDU + LLC</text><text fill="#76b900" font-family="Arial" font-size="6" font-weight="normal" text-anchor="middle" x="350.0" y="606.0">800V-&gt;12.5V</text></g><line stroke="#76b900" stroke-width="1.5" x1="350" x2="350" y1="608" y2="620" /><polygon fill="#76b900" points="346,614 354,614 350,620" /><g><rect fill="#111a00" height="45" rx="4" ry="4" stroke="#76b900" stroke-width="1.5" width="100" x="150" y="620" /><text fill="#76b900" font-family="Arial" font-size="9" font-weight="bold" text-anchor="middle" x="200.0" y="635.0">FLOOR 1</text><text fill="#76b900" font-family="Arial" font-size="8" font-weight="normal" text-anchor="middle" x="200.0" y="648.0">RACKS 1-4</text><text fill="#76b900" font-family="Arial" font-size="8" font-weight="normal" text-anchor="middle" x="200.0" y="661.0">520 kW</text><text fill="#6b7280" font-family="Arial" font-size="7" text-anchor="middle" x="200.0" y="661">4x NVL72 | Liquid Cooled</text></g><g><rect fill="#111a00" height="45" rx="4" ry="4" stroke="#76b900" stroke-width="1.5" width="100" x="300" y="620" /><text fill="#76b900" font-family="Arial" font-size="9" font-weight="bold" text-anchor="middle" x="350.0" y="635.0">FLOOR 1</text><text fill="#76b900" font-family="Arial" font-size="8" font-weight="normal" text-anchor="middle" x="350.0" y="648.0">(continued)</text><text fill="#76b900" font-family="Arial" font-size="8" font-weight="normal" text-anchor="middle" x="350.0" y="661.0">288 GPUs</text><text fill="#6b7280" font-family="Arial" font-size="7" text-anchor="middle" x="350.0" y="661">System 1 | CDU Pair</text></g><line stroke="#8b5cf6" stroke-width="1.5" x1="500" x2="500" y1="518" y2="540" /><polygon fill="#8b5cf6" points="496,534 504,534 500,540" /><g><rect fill="#1a1a2e" height="30" rx="4" ry="4" stroke="#8b5cf6" stroke-width="1.5" width="80" x="460" y="540" /><text fill="#c4b5fd" font-family="Arial" font-size="8" font-weight="bold" text-anchor="middle" x="500.0" y="554.0">BUSWAY</text><text fill="#c4b5fd" font-family="Arial" font-size="7" font-weight="normal" text-anchor="middle" x="500.0" y="567.0">F2 R5-6</text></g><line stroke="#8b5cf6" stroke-width="1.5" x1="500" x2="500" y1="570" y2="580" /><polygon fill="#8b5cf6" points="496,574 504,574 500,580" /><g><rect fill="#1a1a2e" height="28" rx="4" ry="4" stroke="#76b900" stroke-width="1.5" width="70" x="465" y="580" /><text fill="#76b900" font-family="Arial" font-size="7" font-weight="bold" text-anchor="middle" x="500.0" y="593.0">PDU + LLC</text><text fill="#76b900" font-family="Arial" font-size="6" font-weight="normal" text-anchor="middle" x="500.0" y="606.0">800V-&gt;12.5V</text></g><line stroke="#76b900" stroke-width="1.5" x1="500" x2="500" y1="608" y2="620" /><polygon fill="#76b900" points="496,614 504,614 500,620" /><line stroke="#8b5cf6" stroke-width="1.5" x1="640" x2="640" y1="518" y2="540" /><polygon fill="#8b5cf6" points="636,534 644,534 640,540" /><g><rect fill="#1a1a2e" height="30" rx="4" ry="4" stroke="#8b5cf6" stroke-width="1.5" width="80" x="600" y="540" /><text fill="#c4b5fd" font-family="Arial" font-size="8" font-weight="bold" text-anchor="middle" x="640.0" y="554.0">BUSWAY</text><text fill="#c4b5fd" font-family="Arial" font-size="7" font-weight="normal" text-anchor="middle" x="640.0" y="567.0">F2 R7-8</text></g><line stroke="#8b5cf6" stroke-width="1.5" x1="640" x2="640" y1="570" y2="580" /><polygon fill="#8b5cf6" points="636,574 644,574 640,580" /><g><rect fill="#1a1a2e" height="28" rx="4" ry="4" stroke="#76b900" stroke-width="1.5" width="70" x="605" y="580" /><text fill="#76b900" font-family="Arial" font-size="7" font-weight="bold" text-anchor="middle" x="640.0" y="593.0">PDU + LLC</text><text fill="#76b900" font-family="Arial" font-size="6" font-weight="normal" text-anchor="middle" x="640.0" y="606.0">800V-&gt;12.5V</text></g><line stroke="#76b900" stroke-width="1.5" x1="640" x2="640" y1="608" y2="620" /><polygon fill="#76b900" points="636,614 644,614 640,620" /><g><rect fill="#111a00" height="45" rx="4" ry="4" stroke="#76b900" stroke-width="1.5" width="100" x="450" y="620" /><text fill="#76b900" font-family="Arial" font-size="9" font-weight="bold" text-anchor="middle" x="500.0" y="635.0">FLOOR 2</text><text fill="#76b900" font-family="Arial" font-size="8" font-weight="normal" text-anchor="middle" x="500.0" y="648.0">RACKS 5-8</text><text fill="#76b900" font-family="Arial" font-size="8" font-weight="normal" text-anchor="middle" x="500.0" y="661.0">520 kW</text><text fill="#6b7280" font-family="Arial" font-size="7" text-anchor="middle" x="500.0" y="661">4x NVL72 | Liquid Cooled</text></g><g><rect fill="#111a00" height="45" rx="4" ry="4" stroke="#76b900" stroke-width="1.5" width="100" x="590" y="620" /><text fill="#76b900" font-family="Arial" font-size="9" font-weight="bold" text-anchor="middle" x="640.0" y="635.0">FLOOR 2</text><text fill="#76b900" font-family="Arial" font-size="8" font-weight="normal" text-anchor="middle" x="640.0" y="648.0">(continued)</text><text fill="#76b900" font-family="Arial" font-size="8" font-weight="normal" text-anchor="middle" x="640.0" y="661.0">288 GPUs</text><text fill="#6b7280" font-family="Arial" font-size="7" text-anchor="middle" x="640.0" y="661">System 2 | CDU Pair</text></g><rect fill="#111318" height="820" rx="8" stroke="#1e2230" stroke-width="1" width="590" x="780" y="75" /><text fill="#f0f2f5" font-family="Arial" font-size="12" font-weight="bold" text-anchor="middle" x="1075" y="95">4-LAYER POWER HIERARCHY — MARLIE I</text><text fill="#ef4444" font-family="Arial" font-size="9" font-weight="bold" text-anchor="middle" x="1075" y="110">(DIFFERENT from Trappeys — Grid is BACKUP here, not sell-back)</text><rect fill="#111318" height="25" rx="4" stroke="#fbbf24" stroke-width="1" width="560" x="795" y="125" /><text fill="#fbbf24" font-family="Arial" font-size="11" font-weight="bold" x="805" y="141">LAYER 1: SOLAR</text><text fill="#fbbf24" font-family="Arial" font-size="8" font-weight="bold" text-anchor="end" x="1350" y="141">PRIMARY OFFSET</text><text fill="#9ca3af" font-family="Arial" font-size="8" x="810" y="163">  300 kW rooftop on 24x40 building</text><text fill="#9ca3af" font-family="Arial" font-size="8" x="810" y="176">  960 sq ft roof = ~55 First Solar TR1 panels</text><text fill="#9ca3af" font-family="Arial" font-size="8" x="810" y="189">  DC-Direct to 800V bus (97% eff)</text><text fill="#9ca3af" font-family="Arial" font-size="8" x="810" y="202">  Small scale but meaningful offset (~24%)</text><text fill="#9ca3af" font-family="Arial" font-size="8" x="810" y="215">  600 kWh BESS battery bridge</text><text fill="#9ca3af" font-family="Arial" font-size="8" x="810" y="228">  Made 30 miles away in New Iberia, LA</text><rect fill="#111318" height="25" rx="4" stroke="#22c55e" stroke-width="1" width="560" x="795" y="248" /><text fill="#22c55e" font-family="Arial" font-size="11" font-weight="bold" x="805" y="264">LAYER 2: NATURAL GAS</text><text fill="#22c55e" font-family="Arial" font-size="8" font-weight="bold" text-anchor="end" x="1350" y="264">BACKBONE — ALWAYS RUNNING</text><text fill="#9ca3af" font-family="Arial" font-size="8" x="810" y="286">  Cat G3520C generators (1.5 MW each)</text><text fill="#9ca3af" font-family="Arial" font-size="8" x="810" y="299">  2 units: 3.0 MW total (N+1 redundant)</text><text fill="#9ca3af" font-family="Arial" font-size="8" x="810" y="312">  ATMOS Energy gas on property</text><text fill="#9ca3af" font-family="Arial" font-size="8" x="810" y="325">  Henry Hub 40 miles — cheapest in USA</text><text fill="#9ca3af" font-family="Arial" font-size="8" x="810" y="338">  480V AC output to Eaton rectifiers</text><text fill="#9ca3af" font-family="Arial" font-size="8" x="810" y="351">  Carries FULL load 24/7/365</text><text fill="#9ca3af" font-family="Arial" font-size="8" x="810" y="364">  ~41% load per unit (1.24 MW on 3 MW)</text><rect fill="#111318" height="25" rx="4" stroke="#ef4444" stroke-width="1" width="560" x="795" y="384" /><text fill="#ef4444" font-family="Arial" font-size="11" font-weight="bold" x="805" y="400">LAYER 3: DIESEL</text><text fill="#ef4444" font-family="Arial" font-size="8" font-weight="bold" text-anchor="end" x="1350" y="400">EMERGENCY ONLY</text><text fill="#9ca3af" font-family="Arial" font-size="8" x="810" y="422">  Diesel emergency generator (250 kW)</text><text fill="#9ca3af" font-family="Arial" font-size="8" x="810" y="435">  On-site fuel storage (2,000 gal)</text><text fill="#9ca3af" font-family="Arial" font-size="8" x="810" y="448">  Auto-start on dual gas failure</text><text fill="#9ca3af" font-family="Arial" font-size="8" x="810" y="461">  Pipeline-independent fuel source</text><text fill="#9ca3af" font-family="Arial" font-size="8" x="810" y="474">  Bridges until gas restored</text><text fill="#9ca3af" font-family="Arial" font-size="8" x="810" y="487">  Required for NVIDIA certification</text><rect fill="#111318" height="25" rx="4" stroke="#ef4444" stroke-width="1" width="560" x="795" y="507" /><text fill="#ef4444" font-family="Arial" font-size="11" font-weight="bold" x="805" y="523">LAYER 4: GRID (LUS + SLEMCO)</text><text fill="#ef4444" font-family="Arial" font-size="8" font-weight="bold" text-anchor="end" x="1350" y="523">BACKUP ONLY — NOT SELL-BACK</text><text fill="#9ca3af" font-family="Arial" font-size="8" x="810" y="545">  Lafayette Utilities System (LUS)</text><text fill="#9ca3af" font-family="Arial" font-size="8" x="810" y="558">  SLEMCO dual feed available</text><text fill="#9ca3af" font-family="Arial" font-size="8" x="810" y="571">  3-phase power confirmed on site</text><text fill="#9ca3af" font-family="Arial" font-size="8" x="810" y="584">  BACKUP power source (unlike Trappeys)</text><text fill="#9ca3af" font-family="Arial" font-size="8" x="810" y="597">  NOT sell-back — grid supports building</text><text fill="#9ca3af" font-family="Arial" font-size="8" x="810" y="610">  Cloudy day + gas down = grid bridges</text><text fill="#9ca3af" font-family="Arial" font-size="8" x="810" y="623">  Industrial corridor = reliable service</text><rect fill="#1a0a0a" height="60" rx="6" stroke="#ef4444" stroke-width="1.5" width="560" x="795" y="653" /><text fill="#ef4444" font-family="Arial" font-size="10" font-weight="bold" text-anchor="middle" x="1075" y="671">KEY DIFFERENCE: MARLIE I vs TRAPPEYS/WILLOW GLEN</text><text fill="#fca5a5" font-family="Arial" font-size="8" x="810" y="688">Trappeys/Willow Glen: Grid = SELL-BACK only (Layer 4 revenue)</text><text fill="#fca5a5" font-family="Arial" font-size="8" x="810" y="703">MARLIE I: Grid = BACKUP power (Layer 4 safety net) — smaller facility, grid supports ops</text><rect fill="#111318" height="40" rx="6" stroke="#1e2230" width="1340" x="30" y="920" /><text fill="#6b7280" font-family="Arial" font-size="7" font-weight="bold" x="55" y="934">GAS GENERATION</text><text fill="#3b82f6" font-family="Arial" font-size="10" font-weight="bold" x="55" y="948">3.0 MW (N+1)</text><text fill="#6b7280" font-family="Arial" font-size="7" font-weight="bold" x="245" y="934">SOLAR</text><text fill="#3b82f6" font-family="Arial" font-size="10" font-weight="bold" x="245" y="948">300 kW Rooftop</text><text fill="#6b7280" font-family="Arial" font-size="7" font-weight="bold" x="435" y="934">IT LOAD</text><text fill="#3b82f6" font-family="Arial" font-size="10" font-weight="bold" x="435" y="948">1,040 kW</text><text fill="#6b7280" font-family="Arial" font-size="7" font-weight="bold" x="625" y="934">TOTAL FACILITY</text><text fill="#3b82f6" font-family="Arial" font-size="10" font-weight="bold" x="625" y="948">~1,240 kW</text><text fill="#6b7280" font-family="Arial" font-size="7" font-weight="bold" x="815" y="934">GENSET LOAD</text><text fill="#3b82f6" font-family="Arial" font-size="10" font-weight="bold" x="815" y="948">~41% each</text><text fill="#6b7280" font-family="Arial" font-size="7" font-weight="bold" x="1005" y="934">RACKS</text><text fill="#3b82f6" font-family="Arial" font-size="10" font-weight="bold" x="1005" y="948">8 NVL72</text><text fill="#6b7280" font-family="Arial" font-size="7" font-weight="bold" x="1195" y="934">GPUs</text><text fill="#3b82f6" font-family="Arial" font-size="10" font-weight="bold" x="1195" y="948">576</text><text fill="#4b5563" font-family="Arial" font-size="7" x="35" y="975">1. Gas is BACKBONE (Layer 2) — always running, carries full facility load. Solar offsets but does not replace gas.</text><text fill="#4b5563" font-family="Arial" font-size="7" x="35" y="987">2. Grid (LUS + SLEMCO) is BACKUP (Layer 4) — different from Trappeys where grid is sell-back only.</text><text fill="#4b5563" font-family="Arial" font-size="7" x="35" y="999">3. MARLIE I is smaller (1,920 sq ft vs 112,500 sq ft) — grid backup makes sense at this scale.</text><text fill="#4b5563" font-family="Arial" font-size="7" x="35" y="1011">4. N+1 generator redundancy: 2x G3520C for 1.24 MW load. Either unit offline = zero impact.</text><text fill="#4b5563" font-family="Arial" font-size="7" x="35" y="1023">5. Solar DC-Direct: 300 kW rooftop feeds 800V bus at 97% efficiency. ~24% offset of total load.</text><text fill="#4b5563" font-family="Arial" font-size="7" x="35" y="1035">6. BESS 600 kWh provides ride-through during transfer events + battery bridge for short outages.</text></svg>