<?xml version="1.0" encoding="utf-8" ?>
<svg baseProfile="full" height="1000px" version="1.1" viewBox="0 0 1400 1000" width="1400px" xmlns="http://www.w3.org/2000/svg" xmlns:ev="http://www.w3.org/2001/xml-events" xmlns:xlink="http://www.w3.org/1999/xlink"><defs /><rect fill="#0a0b0f" height="1000" width="1400" x="0" y="0" /><text fill="#f0f2f5" font-family="Arial" font-size="16" font-weight="bold" text-anchor="middle" x="700.0" y="24">MARLIE I — LAFAYETTE AI FACTORY &amp; COMMAND CENTER</text><text fill="#3b82f6" font-family="Arial" font-size="10" font-weight="bold" text-anchor="middle" x="700.0" y="40">ELECTRICAL SINGLE-LINE DIAGRAM | 800V DC NATIVE | EATON BEAM RUBIN DSX | 1,040 kW IT LOAD</text><text fill="#6b7280" font-family="Arial" font-size="9" text-anchor="middle" x="700.0" y="54">Sheet E-001 | Design Intent | 2026-03-23 | NOT FOR CONSTRUCTION</text><g><rect fill="#0a1a0a" height="50" rx="4" ry="4" stroke="#22c55e" stroke-width="1.5" width="140" x="30" y="75" /><text fill="#22c55e" font-family="Arial" font-size="11" font-weight="bold" text-anchor="middle" x="100.0" y="100.0">ATMOS ENERGY</text><text fill="#22c55e" font-family="Arial" font-size="10" font-weight="normal" text-anchor="middle" x="100.0" y="114.0">Natural Gas</text><text fill="#6b7280" font-family="Arial" font-size="8" text-anchor="middle" x="100.0" y="121">On-property | Henry Hub 40 mi</text></g><g><rect fill="#0a1a0a" height="50" rx="4" ry="4" stroke="#22c55e" stroke-width="1.5" width="130" x="200" y="75" /><text fill="#22c55e" font-family="Arial" font-size="11" font-weight="bold" text-anchor="middle" x="265.0" y="100.0">CAT G3520C #1</text><text fill="#22c55e" font-family="Arial" font-size="10" font-weight="normal" text-anchor="middle" x="265.0" y="114.0">1.5 MW | 480V AC</text><text fill="#6b7280" font-family="Arial" font-size="8" text-anchor="middle" x="265.0" y="121">Natural Gas | Layer 2</text></g><g><rect fill="#0a1a0a" height="50" rx="4" ry="4" stroke="#22c55e" stroke-width="1.5" width="130" x="350" y="75" /><text fill="#22c55e" font-family="Arial" font-size="11" font-weight="bold" text-anchor="middle" x="415.0" y="100.0">CAT G3520C #2</text><text fill="#22c55e" font-family="Arial" font-size="10" font-weight="normal" text-anchor="middle" x="415.0" y="114.0">1.5 MW | 480V AC</text><text fill="#6b7280" font-family="Arial" font-size="8" text-anchor="middle" x="415.0" y="121">N+1 Redundant</text></g><g><rect fill="#1a1a00" height="50" rx="4" ry="4" stroke="#fbbf24" stroke-width="1.5" width="140" x="510" y="75" /><text fill="#fbbf24" font-family="Arial" font-size="11" font-weight="bold" text-anchor="middle" x="580.0" y="100.0">SOLAR ROOFTOP</text><text fill="#fbbf24" font-family="Arial" font-size="10" font-weight="normal" text-anchor="middle" x="580.0" y="114.0">300 kW</text><text fill="#6b7280" font-family="Arial" font-size="8" text-anchor="middle" x="580.0" y="121">24x40 roof | DC-Direct</text></g><g><rect fill="#2e1a1a" height="50" rx="4" ry="4" stroke="#ef4444" stroke-width="1.5" width="120" x="680" y="75" /><text fill="#ef4444" font-family="Arial" font-size="11" font-weight="bold" text-anchor="middle" x="740.0" y="100.0">DIESEL GENSET</text><text fill="#ef4444" font-family="Arial" font-size="10" font-weight="normal" text-anchor="middle" x="740.0" y="114.0">Emergency</text><text fill="#6b7280" font-family="Arial" font-size="8" text-anchor="middle" x="740.0" y="121">Layer 3 | Pipeline-Independent</text></g><g><rect fill="#1a0a0a" height="50" rx="4" ry="4" stroke="#ef4444" stroke-width="1.5" width="120" x="830" y="75" /><text fill="#ef4444" font-family="Arial" font-size="11" font-weight="bold" text-anchor="middle" x="890.0" y="100.0">LUS GRID</text><text fill="#ef4444" font-family="Arial" font-size="10" font-weight="normal" text-anchor="middle" x="890.0" y="114.0">BACKUP ONLY</text><text fill="#6b7280" font-family="Arial" font-size="8" text-anchor="middle" x="890.0" y="121">Layer 4 | Dual Feed Available</text></g><g><rect fill="#1a1a2e" height="50" rx="4" ry="4" stroke="#3b82f6" stroke-width="1.5" width="120" x="980" y="75" /><text fill="#93c5fd" font-family="Arial" font-size="11" font-weight="bold" text-anchor="middle" x="1040.0" y="100.0">EATON xStorage</text><text fill="#93c5fd" font-family="Arial" font-size="10" font-weight="normal" text-anchor="middle" x="1040.0" y="114.0">BESS 600 kWh</text><text fill="#6b7280" font-family="Arial" font-size="8" text-anchor="middle" x="1040.0" y="121">800V DC | Ride-through</text></g><line stroke="#22c55e" stroke-width="1.5" x1="100" x2="100" y1="125" y2="170" /><polygon fill="#22c55e" points="96,164 104,164 100,170" /><line stroke="#22c55e" stroke-width="1.5" x1="265" x2="265" y1="125" y2="170" /><polygon fill="#22c55e" points="261,164 269,164 265,170" /><line stroke="#22c55e" stroke-width="1.5" x1="415" x2="415" y1="125" y2="170" /><polygon fill="#22c55e" points="411,164 419,164 415,170" /><line stroke="#ef4444" stroke-width="1.5" x1="740" x2="740" y1="125" y2="170" /><polygon fill="#ef4444" points="736,164 744,164 740,170" /><g><rect fill="#1a1a2e" height="45" rx="4" ry="4" stroke="#22c55e" stroke-width="1.5" width="240" x="30" y="170" /><text fill="#e0e0e0" font-family="Arial" font-size="11" font-weight="bold" text-anchor="middle" x="150.0" y="192.5">PARALLELING SWITCHGEAR + ATS</text><text fill="#e0e0e0" font-family="Arial" font-size="10" font-weight="normal" text-anchor="middle" x="150.0" y="206.5">480V AC | Auto-Sync | Load Sharing</text><text fill="#6b7280" font-family="Arial" font-size="8" text-anchor="middle" x="150.0" y="211">Louisiana Cat controls</text></g><g><rect fill="#1a1a2e" height="45" rx="4" ry="4" stroke="#ff6b35" stroke-width="1.5" width="170" x="290" y="170" /><text fill="#ff6b35" font-family="Arial" font-size="11" font-weight="bold" text-anchor="middle" x="375.0" y="192.5">MAIN BREAKER + METERING</text><text fill="#ff6b35" font-family="Arial" font-size="10" font-weight="normal" text-anchor="middle" x="375.0" y="206.5">480V AC | Protection Relays</text></g><g><rect fill="#1a1a2e" height="45" rx="4" ry="4" stroke="#ef4444" stroke-width="1.5" width="150" x="660" y="170" /><text fill="#e0e0e0" font-family="Arial" font-size="11" font-weight="bold" text-anchor="middle" x="735.0" y="192.5">EMERGENCY ATS</text><text fill="#e0e0e0" font-family="Arial" font-size="10" font-weight="normal" text-anchor="middle" x="735.0" y="206.5">Diesel Auto-Transfer</text><text fill="#6b7280" font-family="Arial" font-size="8" text-anchor="middle" x="735.0" y="211">Auto-start on gas failure</text></g><line stroke="#ef4444" stroke-width="1.5" x1="890" x2="890" y1="125" y2="192" /><line stroke="#ef4444" stroke-width="1.5" x1="810" x2="890" y1="192" y2="192" /><text fill="#ef4444" font-family="Arial" font-size="7" x="820" y="188">BACKUP FEED</text><line stroke="#22c55e" stroke-width="1.5" x1="150" x2="150" y1="215" y2="255" /><polygon fill="#22c55e" points="146,249 154,249 150,255" /><line stroke="#ff6b35" stroke-width="1.5" x1="375" x2="375" y1="215" y2="255" /><polygon fill="#ff6b35" points="371,249 379,249 375,255" /><line stroke="#ef4444" stroke-width="1.5" x1="735" x2="735" y1="215" y2="255" /><polygon fill="#ef4444" points="731,249 739,249 735,255" /><rect fill="#ff6b35" height="6" rx="2" width="840" x="30" y="252" /><text fill="#ff6b35" font-family="Arial" font-size="10" font-weight="bold" text-anchor="middle" x="450.0" y="247">480V AC DISTRIBUTION BUS</text><line stroke="#ff6b35" stroke-width="1.5" x1="150" x2="150" y1="258" y2="300" /><polygon fill="#ff6b35" points="146,294 154,294 150,300" /><line stroke="#ff6b35" stroke-width="1.5" x1="400" x2="400" y1="258" y2="300" /><polygon fill="#ff6b35" points="396,294 404,294 400,300" /><line stroke="#ff6b35" stroke-width="1.5" x1="650" x2="650" y1="258" y2="300" /><polygon fill="#ff6b35" points="646,294 654,294 650,300" /><g><rect fill="#1a1a2e" height="50" rx="4" ry="4" stroke="#8b5cf6" stroke-width="1.5" width="190" x="60" y="300" /><text fill="#c4b5fd" font-family="Arial" font-size="11" font-weight="bold" text-anchor="middle" x="155.0" y="318.0">EATON BEAM RUBIN DSX</text><text fill="#c4b5fd" font-family="Arial" font-size="10" font-weight="normal" text-anchor="middle" x="155.0" y="332.0">480V AC -&gt; 800V DC</text><text fill="#c4b5fd" font-family="Arial" font-size="10" font-weight="normal" text-anchor="middle" x="155.0" y="346.0">Rectifier #1</text><text fill="#6b7280" font-family="Arial" font-size="8" text-anchor="middle" x="155.0" y="346">96%+ Efficiency</text></g><g><rect fill="#1a1a2e" height="50" rx="4" ry="4" stroke="#8b5cf6" stroke-width="1.5" width="190" x="310" y="300" /><text fill="#c4b5fd" font-family="Arial" font-size="11" font-weight="bold" text-anchor="middle" x="405.0" y="318.0">EATON BEAM RUBIN DSX</text><text fill="#c4b5fd" font-family="Arial" font-size="10" font-weight="normal" text-anchor="middle" x="405.0" y="332.0">480V AC -&gt; 800V DC</text><text fill="#c4b5fd" font-family="Arial" font-size="10" font-weight="normal" text-anchor="middle" x="405.0" y="346.0">Rectifier #2</text><text fill="#6b7280" font-family="Arial" font-size="8" text-anchor="middle" x="405.0" y="346">N+1 Redundant</text></g><line stroke="#fbbf24" stroke-width="1.5" x1="580" x2="580" y1="125" y2="140" /><line stroke="#fbbf24" stroke-width="1.5" x1="580" x2="630" y1="140" y2="140" /><line stroke="#fbbf24" stroke-width="1.5" x1="630" x2="630" y1="140" y2="300" /><g><rect fill="#1a1a2e" height="50" rx="4" ry="4" stroke="#fbbf24" stroke-width="1.5" width="190" x="560" y="300" /><text fill="#fbbf24" font-family="Arial" font-size="11" font-weight="bold" text-anchor="middle" x="655.0" y="325.0">DC-DC BUCK CONVERTER</text><text fill="#fbbf24" font-family="Arial" font-size="10" font-weight="normal" text-anchor="middle" x="655.0" y="339.0">952V String -&gt; 800V DC</text><text fill="#6b7280" font-family="Arial" font-size="8" text-anchor="middle" x="655.0" y="346">Solar DC-Direct | 97% Eff</text></g><g><rect fill="#1a1a2e" height="50" rx="4" ry="4" stroke="#ef4444" stroke-width="1.5" width="100" x="770" y="300" /><text fill="#fca5a5" font-family="Arial" font-size="9" font-weight="bold" text-anchor="middle" x="820.0" y="318.0">DIESEL</text><text fill="#fca5a5" font-family="Arial" font-size="8" font-weight="normal" text-anchor="middle" x="820.0" y="332.0">FEED</text><text fill="#fca5a5" font-family="Arial" font-size="8" font-weight="normal" text-anchor="middle" x="820.0" y="346.0">To 480V Bus</text></g><line stroke="#ef4444" stroke-width="1.5" x1="820" x2="820" y1="258" y2="300" /><polygon fill="#ef4444" points="816,294 824,294 820,300" /><line stroke="#8b5cf6" stroke-width="1.5" x1="155" x2="155" y1="350" y2="400" /><polygon fill="#8b5cf6" points="151,394 159,394 155,400" /><line stroke="#8b5cf6" stroke-width="1.5" x1="405" x2="405" y1="350" y2="400" /><polygon fill="#8b5cf6" points="401,394 409,394 405,400" /><line stroke="#8b5cf6" stroke-width="1.5" x1="655" x2="655" y1="350" y2="400" /><polygon fill="#8b5cf6" points="651,394 659,394 655,400" /><rect fill="#8b5cf6" height="6" rx="2" width="840" x="30" y="397" /><text fill="#8b5cf6" font-family="Arial" font-size="10" font-weight="bold" text-anchor="middle" x="450.0" y="392">800V DC DISTRIBUTION BUS — NVIDIA DSX REFERENCE ARCHITECTURE</text><line stroke="#3b82f6" stroke-width="1.5" x1="1040" x2="1040" y1="125" y2="400" /><text fill="#93c5fd" font-family="Arial" font-size="7" x="1050" y="380">BESS on</text><text fill="#93c5fd" font-family="Arial" font-size="7" x="1050" y="390">800V DC</text><text fill="#3b82f6" font-family="Arial" font-size="9" font-weight="bold" text-anchor="middle" x="130" y="420">FLOOR 1 (DOWNSTAIRS) — SYSTEM 1</text><text fill="#93c5fd" font-family="Arial" font-size="8" text-anchor="middle" x="130" y="432">4 NVL72 RACKS | 288 GPUs | 520 kW</text><line stroke="#8b5cf6" stroke-width="1.5" x1="90" x2="90" y1="403" y2="450" /><polygon fill="#8b5cf6" points="86,444 94,444 90,450" /><g><rect fill="#1a1a2e" height="30" rx="4" ry="4" stroke="#8b5cf6" stroke-width="1.5" width="80" x="50" y="450" /><text fill="#c4b5fd" font-family="Arial" font-size="8" font-weight="bold" text-anchor="middle" x="90.0" y="465.0">BUSWAY</text><text fill="#c4b5fd" font-family="Arial" font-size="7" font-weight="normal" text-anchor="middle" x="90.0" y="479.0">800V DC</text></g><line stroke="#8b5cf6" stroke-width="1.5" x1="90" x2="90" y1="480" y2="490" /><polygon fill="#8b5cf6" points="86,484 94,484 90,490" /><g><rect fill="#1a1a2e" height="30" rx="4" ry="4" stroke="#8b5cf6" stroke-width="1.5" width="80" x="50" y="490" /><text fill="#c4b5fd" font-family="Arial" font-size="8" font-weight="bold" text-anchor="middle" x="90.0" y="505.0">RACK PDU</text><text fill="#c4b5fd" font-family="Arial" font-size="7" font-weight="normal" text-anchor="middle" x="90.0" y="519.0">800V In</text></g><line stroke="#76b900" stroke-width="1.5" x1="90" x2="90" y1="520" y2="530" /><polygon fill="#76b900" points="86,524 94,524 90,530" /><g><rect fill="#1a1a2e" height="30" rx="4" ry="4" stroke="#76b900" stroke-width="1.5" width="80" x="50" y="530" /><text fill="#76b900" font-family="Arial" font-size="8" font-weight="bold" text-anchor="middle" x="90.0" y="545.0">64:1 LLC</text><text fill="#76b900" font-family="Arial" font-size="7" font-weight="normal" text-anchor="middle" x="90.0" y="559.0">800V-&gt;12.5V</text><text fill="#6b7280" font-family="Arial" font-size="8" text-anchor="middle" x="90.0" y="556">99%+ eff</text></g><line stroke="#76b900" stroke-width="1.5" x1="90" x2="90" y1="560" y2="570" /><polygon fill="#76b900" points="86,564 94,564 90,570" /><line stroke="#8b5cf6" stroke-width="1.5" x1="195" x2="195" y1="403" y2="450" /><polygon fill="#8b5cf6" points="191,444 199,444 195,450" /><g><rect fill="#1a1a2e" height="30" rx="4" ry="4" stroke="#8b5cf6" stroke-width="1.5" width="80" x="155" y="450" /><text fill="#c4b5fd" font-family="Arial" font-size="8" font-weight="bold" text-anchor="middle" x="195.0" y="465.0">BUSWAY</text><text fill="#c4b5fd" font-family="Arial" font-size="7" font-weight="normal" text-anchor="middle" x="195.0" y="479.0">800V DC</text></g><line stroke="#8b5cf6" stroke-width="1.5" x1="195" x2="195" y1="480" y2="490" /><polygon fill="#8b5cf6" points="191,484 199,484 195,490" /><g><rect fill="#1a1a2e" height="30" rx="4" ry="4" stroke="#8b5cf6" stroke-width="1.5" width="80" x="155" y="490" /><text fill="#c4b5fd" font-family="Arial" font-size="8" font-weight="bold" text-anchor="middle" x="195.0" y="505.0">RACK PDU</text><text fill="#c4b5fd" font-family="Arial" font-size="7" font-weight="normal" text-anchor="middle" x="195.0" y="519.0">800V In</text></g><line stroke="#76b900" stroke-width="1.5" x1="195" x2="195" y1="520" y2="530" /><polygon fill="#76b900" points="191,524 199,524 195,530" /><g><rect fill="#1a1a2e" height="30" rx="4" ry="4" stroke="#76b900" stroke-width="1.5" width="80" x="155" y="530" /><text fill="#76b900" font-family="Arial" font-size="8" font-weight="bold" text-anchor="middle" x="195.0" y="545.0">64:1 LLC</text><text fill="#76b900" font-family="Arial" font-size="7" font-weight="normal" text-anchor="middle" x="195.0" y="559.0">800V-&gt;12.5V</text><text fill="#6b7280" font-family="Arial" font-size="8" text-anchor="middle" x="195.0" y="556">99%+ eff</text></g><line stroke="#76b900" stroke-width="1.5" x1="195" x2="195" y1="560" y2="570" /><polygon fill="#76b900" points="191,564 199,564 195,570" /><line stroke="#8b5cf6" stroke-width="1.5" x1="300" x2="300" y1="403" y2="450" /><polygon fill="#8b5cf6" points="296,444 304,444 300,450" /><g><rect fill="#1a1a2e" height="30" rx="4" ry="4" stroke="#8b5cf6" stroke-width="1.5" width="80" x="260" y="450" /><text fill="#c4b5fd" font-family="Arial" font-size="8" font-weight="bold" text-anchor="middle" x="300.0" y="465.0">BUSWAY</text><text fill="#c4b5fd" font-family="Arial" font-size="7" font-weight="normal" text-anchor="middle" x="300.0" y="479.0">800V DC</text></g><line stroke="#8b5cf6" stroke-width="1.5" x1="300" x2="300" y1="480" y2="490" /><polygon fill="#8b5cf6" points="296,484 304,484 300,490" /><g><rect fill="#1a1a2e" height="30" rx="4" ry="4" stroke="#8b5cf6" stroke-width="1.5" width="80" x="260" y="490" /><text fill="#c4b5fd" font-family="Arial" font-size="8" font-weight="bold" text-anchor="middle" x="300.0" y="505.0">RACK PDU</text><text fill="#c4b5fd" font-family="Arial" font-size="7" font-weight="normal" text-anchor="middle" x="300.0" y="519.0">800V In</text></g><line stroke="#76b900" stroke-width="1.5" x1="300" x2="300" y1="520" y2="530" /><polygon fill="#76b900" points="296,524 304,524 300,530" /><g><rect fill="#1a1a2e" height="30" rx="4" ry="4" stroke="#76b900" stroke-width="1.5" width="80" x="260" y="530" /><text fill="#76b900" font-family="Arial" font-size="8" font-weight="bold" text-anchor="middle" x="300.0" y="545.0">64:1 LLC</text><text fill="#76b900" font-family="Arial" font-size="7" font-weight="normal" text-anchor="middle" x="300.0" y="559.0">800V-&gt;12.5V</text><text fill="#6b7280" font-family="Arial" font-size="8" text-anchor="middle" x="300.0" y="556">99%+ eff</text></g><line stroke="#76b900" stroke-width="1.5" x1="300" x2="300" y1="560" y2="570" /><polygon fill="#76b900" points="296,564 304,564 300,570" /><line stroke="#8b5cf6" stroke-width="1.5" x1="405" x2="405" y1="403" y2="450" /><polygon fill="#8b5cf6" points="401,444 409,444 405,450" /><g><rect fill="#1a1a2e" height="30" rx="4" ry="4" stroke="#8b5cf6" stroke-width="1.5" width="80" x="365" y="450" /><text fill="#c4b5fd" font-family="Arial" font-size="8" font-weight="bold" text-anchor="middle" x="405.0" y="465.0">BUSWAY</text><text fill="#c4b5fd" font-family="Arial" font-size="7" font-weight="normal" text-anchor="middle" x="405.0" y="479.0">800V DC</text></g><line stroke="#8b5cf6" stroke-width="1.5" x1="405" x2="405" y1="480" y2="490" /><polygon fill="#8b5cf6" points="401,484 409,484 405,490" /><g><rect fill="#1a1a2e" height="30" rx="4" ry="4" stroke="#8b5cf6" stroke-width="1.5" width="80" x="365" y="490" /><text fill="#c4b5fd" font-family="Arial" font-size="8" font-weight="bold" text-anchor="middle" x="405.0" y="505.0">RACK PDU</text><text fill="#c4b5fd" font-family="Arial" font-size="7" font-weight="normal" text-anchor="middle" x="405.0" y="519.0">800V In</text></g><line stroke="#76b900" stroke-width="1.5" x1="405" x2="405" y1="520" y2="530" /><polygon fill="#76b900" points="401,524 409,524 405,530" /><g><rect fill="#1a1a2e" height="30" rx="4" ry="4" stroke="#76b900" stroke-width="1.5" width="80" x="365" y="530" /><text fill="#76b900" font-family="Arial" font-size="8" font-weight="bold" text-anchor="middle" x="405.0" y="545.0">64:1 LLC</text><text fill="#76b900" font-family="Arial" font-size="7" font-weight="normal" text-anchor="middle" x="405.0" y="559.0">800V-&gt;12.5V</text><text fill="#6b7280" font-family="Arial" font-size="8" text-anchor="middle" x="405.0" y="556">99%+ eff</text></g><line stroke="#76b900" stroke-width="1.5" x1="405" x2="405" y1="560" y2="570" /><polygon fill="#76b900" points="401,564 409,564 405,570" /><g><rect fill="#111a00" height="45" rx="4" ry="4" stroke="#76b900" stroke-width="1.5" width="80" x="50" y="570" /><text fill="#76b900" font-family="Arial" font-size="9" font-weight="bold" text-anchor="middle" x="90.0" y="592.5">NVL72 R1</text><text fill="#76b900" font-family="Arial" font-size="8" font-weight="normal" text-anchor="middle" x="90.0" y="606.5">130 kW</text><text fill="#6b7280" font-family="Arial" font-size="8" text-anchor="middle" x="90.0" y="611">Liquid Cooled</text></g><g><rect fill="#111a00" height="45" rx="4" ry="4" stroke="#76b900" stroke-width="1.5" width="80" x="155" y="570" /><text fill="#76b900" font-family="Arial" font-size="9" font-weight="bold" text-anchor="middle" x="195.0" y="592.5">NVL72 R2</text><text fill="#76b900" font-family="Arial" font-size="8" font-weight="normal" text-anchor="middle" x="195.0" y="606.5">130 kW</text><text fill="#6b7280" font-family="Arial" font-size="8" text-anchor="middle" x="195.0" y="611">Liquid Cooled</text></g><g><rect fill="#111a00" height="45" rx="4" ry="4" stroke="#76b900" stroke-width="1.5" width="80" x="260" y="570" /><text fill="#76b900" font-family="Arial" font-size="9" font-weight="bold" text-anchor="middle" x="300.0" y="592.5">NVL72 R3</text><text fill="#76b900" font-family="Arial" font-size="8" font-weight="normal" text-anchor="middle" x="300.0" y="606.5">130 kW</text><text fill="#6b7280" font-family="Arial" font-size="8" text-anchor="middle" x="300.0" y="611">Liquid Cooled</text></g><g><rect fill="#111a00" height="45" rx="4" ry="4" stroke="#76b900" stroke-width="1.5" width="80" x="365" y="570" /><text fill="#76b900" font-family="Arial" font-size="9" font-weight="bold" text-anchor="middle" x="405.0" y="592.5">NVL72 R4</text><text fill="#76b900" font-family="Arial" font-size="8" font-weight="normal" text-anchor="middle" x="405.0" y="606.5">130 kW</text><text fill="#6b7280" font-family="Arial" font-size="8" text-anchor="middle" x="405.0" y="611">Liquid Cooled</text></g><text fill="#3b82f6" font-family="Arial" font-size="9" font-weight="bold" text-anchor="middle" x="730" y="420">FLOOR 2 (UPSTAIRS) — SYSTEM 2</text><text fill="#93c5fd" font-family="Arial" font-size="8" text-anchor="middle" x="730" y="432">4 NVL72 RACKS | 288 GPUs | 520 kW</text><line stroke="#8b5cf6" stroke-width="1.5" x1="590" x2="590" y1="403" y2="450" /><polygon fill="#8b5cf6" points="586,444 594,444 590,450" /><g><rect fill="#1a1a2e" height="30" rx="4" ry="4" stroke="#8b5cf6" stroke-width="1.5" width="80" x="550" y="450" /><text fill="#c4b5fd" font-family="Arial" font-size="8" font-weight="bold" text-anchor="middle" x="590.0" y="465.0">BUSWAY</text><text fill="#c4b5fd" font-family="Arial" font-size="7" font-weight="normal" text-anchor="middle" x="590.0" y="479.0">800V DC</text></g><line stroke="#8b5cf6" stroke-width="1.5" x1="590" x2="590" y1="480" y2="490" /><polygon fill="#8b5cf6" points="586,484 594,484 590,490" /><g><rect fill="#1a1a2e" height="30" rx="4" ry="4" stroke="#8b5cf6" stroke-width="1.5" width="80" x="550" y="490" /><text fill="#c4b5fd" font-family="Arial" font-size="8" font-weight="bold" text-anchor="middle" x="590.0" y="505.0">RACK PDU</text><text fill="#c4b5fd" font-family="Arial" font-size="7" font-weight="normal" text-anchor="middle" x="590.0" y="519.0">800V In</text></g><line stroke="#76b900" stroke-width="1.5" x1="590" x2="590" y1="520" y2="530" /><polygon fill="#76b900" points="586,524 594,524 590,530" /><g><rect fill="#1a1a2e" height="30" rx="4" ry="4" stroke="#76b900" stroke-width="1.5" width="80" x="550" y="530" /><text fill="#76b900" font-family="Arial" font-size="8" font-weight="bold" text-anchor="middle" x="590.0" y="545.0">64:1 LLC</text><text fill="#76b900" font-family="Arial" font-size="7" font-weight="normal" text-anchor="middle" x="590.0" y="559.0">800V-&gt;12.5V</text><text fill="#6b7280" font-family="Arial" font-size="8" text-anchor="middle" x="590.0" y="556">99%+ eff</text></g><line stroke="#76b900" stroke-width="1.5" x1="590" x2="590" y1="560" y2="570" /><polygon fill="#76b900" points="586,564 594,564 590,570" /><line stroke="#8b5cf6" stroke-width="1.5" x1="695" x2="695" y1="403" y2="450" /><polygon fill="#8b5cf6" points="691,444 699,444 695,450" /><g><rect fill="#1a1a2e" height="30" rx="4" ry="4" stroke="#8b5cf6" stroke-width="1.5" width="80" x="655" y="450" /><text fill="#c4b5fd" font-family="Arial" font-size="8" font-weight="bold" text-anchor="middle" x="695.0" y="465.0">BUSWAY</text><text fill="#c4b5fd" font-family="Arial" font-size="7" font-weight="normal" text-anchor="middle" x="695.0" y="479.0">800V DC</text></g><line stroke="#8b5cf6" stroke-width="1.5" x1="695" x2="695" y1="480" y2="490" /><polygon fill="#8b5cf6" points="691,484 699,484 695,490" /><g><rect fill="#1a1a2e" height="30" rx="4" ry="4" stroke="#8b5cf6" stroke-width="1.5" width="80" x="655" y="490" /><text fill="#c4b5fd" font-family="Arial" font-size="8" font-weight="bold" text-anchor="middle" x="695.0" y="505.0">RACK PDU</text><text fill="#c4b5fd" font-family="Arial" font-size="7" font-weight="normal" text-anchor="middle" x="695.0" y="519.0">800V In</text></g><line stroke="#76b900" stroke-width="1.5" x1="695" x2="695" y1="520" y2="530" /><polygon fill="#76b900" points="691,524 699,524 695,530" /><g><rect fill="#1a1a2e" height="30" rx="4" ry="4" stroke="#76b900" stroke-width="1.5" width="80" x="655" y="530" /><text fill="#76b900" font-family="Arial" font-size="8" font-weight="bold" text-anchor="middle" x="695.0" y="545.0">64:1 LLC</text><text fill="#76b900" font-family="Arial" font-size="7" font-weight="normal" text-anchor="middle" x="695.0" y="559.0">800V-&gt;12.5V</text><text fill="#6b7280" font-family="Arial" font-size="8" text-anchor="middle" x="695.0" y="556">99%+ eff</text></g><line stroke="#76b900" stroke-width="1.5" x1="695" x2="695" y1="560" y2="570" /><polygon fill="#76b900" points="691,564 699,564 695,570" /><line stroke="#8b5cf6" stroke-width="1.5" x1="800" x2="800" y1="403" y2="450" /><polygon fill="#8b5cf6" points="796,444 804,444 800,450" /><g><rect fill="#1a1a2e" height="30" rx="4" ry="4" stroke="#8b5cf6" stroke-width="1.5" width="80" x="760" y="450" /><text fill="#c4b5fd" font-family="Arial" font-size="8" font-weight="bold" text-anchor="middle" x="800.0" y="465.0">BUSWAY</text><text fill="#c4b5fd" font-family="Arial" font-size="7" font-weight="normal" text-anchor="middle" x="800.0" y="479.0">800V DC</text></g><line stroke="#8b5cf6" stroke-width="1.5" x1="800" x2="800" y1="480" y2="490" /><polygon fill="#8b5cf6" points="796,484 804,484 800,490" /><g><rect fill="#1a1a2e" height="30" rx="4" ry="4" stroke="#8b5cf6" stroke-width="1.5" width="80" x="760" y="490" /><text fill="#c4b5fd" font-family="Arial" font-size="8" font-weight="bold" text-anchor="middle" x="800.0" y="505.0">RACK PDU</text><text fill="#c4b5fd" font-family="Arial" font-size="7" font-weight="normal" text-anchor="middle" x="800.0" y="519.0">800V In</text></g><line stroke="#76b900" stroke-width="1.5" x1="800" x2="800" y1="520" y2="530" /><polygon fill="#76b900" points="796,524 804,524 800,530" /><g><rect fill="#1a1a2e" height="30" rx="4" ry="4" stroke="#76b900" stroke-width="1.5" width="80" x="760" y="530" /><text fill="#76b900" font-family="Arial" font-size="8" font-weight="bold" text-anchor="middle" x="800.0" y="545.0">64:1 LLC</text><text fill="#76b900" font-family="Arial" font-size="7" font-weight="normal" text-anchor="middle" x="800.0" y="559.0">800V-&gt;12.5V</text><text fill="#6b7280" font-family="Arial" font-size="8" text-anchor="middle" x="800.0" y="556">99%+ eff</text></g><line stroke="#76b900" stroke-width="1.5" x1="800" x2="800" y1="560" y2="570" /><polygon fill="#76b900" points="796,564 804,564 800,570" /><line stroke="#8b5cf6" stroke-width="1.5" x1="905" x2="905" y1="403" y2="450" /><polygon fill="#8b5cf6" points="901,444 909,444 905,450" /><g><rect fill="#1a1a2e" height="30" rx="4" ry="4" stroke="#8b5cf6" stroke-width="1.5" width="80" x="865" y="450" /><text fill="#c4b5fd" font-family="Arial" font-size="8" font-weight="bold" text-anchor="middle" x="905.0" y="465.0">BUSWAY</text><text fill="#c4b5fd" font-family="Arial" font-size="7" font-weight="normal" text-anchor="middle" x="905.0" y="479.0">800V DC</text></g><line stroke="#8b5cf6" stroke-width="1.5" x1="905" x2="905" y1="480" y2="490" /><polygon fill="#8b5cf6" points="901,484 909,484 905,490" /><g><rect fill="#1a1a2e" height="30" rx="4" ry="4" stroke="#8b5cf6" stroke-width="1.5" width="80" x="865" y="490" /><text fill="#c4b5fd" font-family="Arial" font-size="8" font-weight="bold" text-anchor="middle" x="905.0" y="505.0">RACK PDU</text><text fill="#c4b5fd" font-family="Arial" font-size="7" font-weight="normal" text-anchor="middle" x="905.0" y="519.0">800V In</text></g><line stroke="#76b900" stroke-width="1.5" x1="905" x2="905" y1="520" y2="530" /><polygon fill="#76b900" points="901,524 909,524 905,530" /><g><rect fill="#1a1a2e" height="30" rx="4" ry="4" stroke="#76b900" stroke-width="1.5" width="80" x="865" y="530" /><text fill="#76b900" font-family="Arial" font-size="8" font-weight="bold" text-anchor="middle" x="905.0" y="545.0">64:1 LLC</text><text fill="#76b900" font-family="Arial" font-size="7" font-weight="normal" text-anchor="middle" x="905.0" y="559.0">800V-&gt;12.5V</text><text fill="#6b7280" font-family="Arial" font-size="8" text-anchor="middle" x="905.0" y="556">99%+ eff</text></g><line stroke="#76b900" stroke-width="1.5" x1="905" x2="905" y1="560" y2="570" /><polygon fill="#76b900" points="901,564 909,564 905,570" /><g><rect fill="#111a00" height="45" rx="4" ry="4" stroke="#76b900" stroke-width="1.5" width="80" x="550" y="570" /><text fill="#76b900" font-family="Arial" font-size="9" font-weight="bold" text-anchor="middle" x="590.0" y="592.5">NVL72 R5</text><text fill="#76b900" font-family="Arial" font-size="8" font-weight="normal" text-anchor="middle" x="590.0" y="606.5">130 kW</text><text fill="#6b7280" font-family="Arial" font-size="8" text-anchor="middle" x="590.0" y="611">Liquid Cooled</text></g><g><rect fill="#111a00" height="45" rx="4" ry="4" stroke="#76b900" stroke-width="1.5" width="80" x="655" y="570" /><text fill="#76b900" font-family="Arial" font-size="9" font-weight="bold" text-anchor="middle" x="695.0" y="592.5">NVL72 R6</text><text fill="#76b900" font-family="Arial" font-size="8" font-weight="normal" text-anchor="middle" x="695.0" y="606.5">130 kW</text><text fill="#6b7280" font-family="Arial" font-size="8" text-anchor="middle" x="695.0" y="611">Liquid Cooled</text></g><g><rect fill="#111a00" height="45" rx="4" ry="4" stroke="#76b900" stroke-width="1.5" width="80" x="760" y="570" /><text fill="#76b900" font-family="Arial" font-size="9" font-weight="bold" text-anchor="middle" x="800.0" y="592.5">NVL72 R7</text><text fill="#76b900" font-family="Arial" font-size="8" font-weight="normal" text-anchor="middle" x="800.0" y="606.5">130 kW</text><text fill="#6b7280" font-family="Arial" font-size="8" text-anchor="middle" x="800.0" y="611">Liquid Cooled</text></g><g><rect fill="#111a00" height="45" rx="4" ry="4" stroke="#76b900" stroke-width="1.5" width="80" x="865" y="570" /><text fill="#76b900" font-family="Arial" font-size="9" font-weight="bold" text-anchor="middle" x="905.0" y="592.5">NVL72 R8</text><text fill="#76b900" font-family="Arial" font-size="8" font-weight="normal" text-anchor="middle" x="905.0" y="606.5">130 kW</text><text fill="#6b7280" font-family="Arial" font-size="8" text-anchor="middle" x="905.0" y="611">Liquid Cooled</text></g><line stroke="#333" stroke-dasharray="8,4" stroke-width="1" x1="530" x2="530" y1="415" y2="620" /><rect fill="#111318" height="45" rx="6" stroke="#1e2230" width="1340" x="30" y="780" /><text fill="#6b7280" font-family="Arial" font-size="8" font-weight="bold" x="55" y="796">FLOOR 1 IT</text><text fill="#3b82f6" font-family="Arial" font-size="11" font-weight="bold" x="55" y="810">520 kW (4 racks)</text><text fill="#6b7280" font-family="Arial" font-size="8" font-weight="bold" x="275" y="796">FLOOR 2 IT</text><text fill="#3b82f6" font-family="Arial" font-size="11" font-weight="bold" x="275" y="810">520 kW (4 racks)</text><text fill="#6b7280" font-family="Arial" font-size="8" font-weight="bold" x="495" y="796">TOTAL IT</text><text fill="#3b82f6" font-family="Arial" font-size="11" font-weight="bold" x="495" y="810">1,040 kW (8 racks)</text><text fill="#6b7280" font-family="Arial" font-size="8" font-weight="bold" x="715" y="796">OVERHEAD</text><text fill="#3b82f6" font-family="Arial" font-size="11" font-weight="bold" x="715" y="810">~200 kW</text><text fill="#6b7280" font-family="Arial" font-size="8" font-weight="bold" x="935" y="796">TOTAL DRAW</text><text fill="#3b82f6" font-family="Arial" font-size="11" font-weight="bold" x="935" y="810">~1,240 kW</text><text fill="#6b7280" font-family="Arial" font-size="8" font-weight="bold" x="1155" y="796">GEN CAPACITY</text><text fill="#3b82f6" font-family="Arial" font-size="11" font-weight="bold" x="1155" y="810">3,000 kW (N+1)</text><text fill="#4b5563" font-family="Arial" font-size="8" x="35" y="840">1. 2x Cat G3520C natural gas generators: 1.5 MW each, 480V AC output — ATMOS gas on property, Henry Hub 40 mi</text><text fill="#4b5563" font-family="Arial" font-size="8" x="35" y="853">2. N+1 redundancy: each genset at ~41% load (1,240 kW on 3,000 kW capacity)</text><text fill="#4b5563" font-family="Arial" font-size="8" x="35" y="866">3. Eaton Beam Rubin DSX rectifiers convert 480V AC to 800V DC per NVIDIA DSX Reference Design</text><text fill="#4b5563" font-family="Arial" font-size="8" x="35" y="879">4. 300 kW rooftop solar DC-Direct to 800V bus via buck converter at 97% efficiency</text><text fill="#4b5563" font-family="Arial" font-size="8" x="35" y="892">5. 64:1 LLC resonant converters: 800V DC to 12.5V at GPU die — 99%+ efficiency</text><text fill="#4b5563" font-family="Arial" font-size="8" x="35" y="905">6. LUS grid is BACKUP ONLY (Layer 4) — dual feed (LUS + SLEMCO) available for redundancy</text><text fill="#4b5563" font-family="Arial" font-size="8" x="35" y="918">7. BESS 600 kWh on 800V DC bus — ride-through for transfer events + battery bridge</text><text fill="#4b5563" font-family="Arial" font-size="8" x="35" y="931">8. Diesel genset (Layer 3) provides pipeline-independent backup, auto-start on gas failure</text><text fill="#4b5563" font-family="Arial" font-size="8" x="35" y="944">9. 8 NVL72 racks across 2 floors: 576 GPUs total, 1,040 kW IT load, 1 CDU pair per floor</text><rect fill="#fbbf24" height="8" width="8" x="35" y="959" /><text fill="#6b7280" font-family="Arial" font-size="8" font-weight="bold" x="49" y="967">LAYER 1: SOLAR — Primary Offset — 300 kW rooftop</text><rect fill="#22c55e" height="8" width="8" x="365" y="959" /><text fill="#6b7280" font-family="Arial" font-size="8" font-weight="bold" x="379" y="967">LAYER 2: NATURAL GAS — Backbone — 2x G3520C 24/7</text><rect fill="#ef4444" height="8" width="8" x="695" y="959" /><text fill="#6b7280" font-family="Arial" font-size="8" font-weight="bold" x="709" y="967">LAYER 3: DIESEL — Emergency Only</text><rect fill="#ef4444" height="8" width="8" x="1025" y="959" /><text fill="#6b7280" font-family="Arial" font-size="8" font-weight="bold" x="1039" y="967">LAYER 4: GRID (LUS) — Backup Only — dual feed</text></svg>