<?xml version="1.0" encoding="utf-8" ?>
<svg baseProfile="full" height="1000px" version="1.1" viewBox="0 0 1400 1000" width="1400px" xmlns="http://www.w3.org/2000/svg" xmlns:ev="http://www.w3.org/2001/xml-events" xmlns:xlink="http://www.w3.org/1999/xlink"><defs /><rect fill="#0a0b0f" height="1000" width="1400" x="0" y="0" /><text fill="#f0f2f5" font-family="Arial" font-size="15" font-weight="bold" text-anchor="middle" x="700.0" y="22">TIGER COMPUTE CAMPUS — WILLOW GLEN, ST. GABRIEL, LA</text><text fill="#3b82f6" font-family="Arial" font-size="9" font-weight="bold" text-anchor="middle" x="700.0" y="36">SITE PLAN | 700 ACRES | GPS: 30.2767N, 91.1160W | IBERVILLE PARISH</text><text fill="#6b7280" font-family="Arial" font-size="8" text-anchor="middle" x="700.0" y="48">Sheet S-001 | MVP Design Intent | Scale: ~1"=400' | 2026-03-22 | NOT FOR CONSTRUCTION</text><polygon fill="#0a1628" points="20,60 70,70 90,130 75,380 85,580 70,780 80,930 60,980 20,990" stroke="none" /><polyline fill="none" points="70,70 90,130 75,380 85,580 70,780 80,930 60,980" stroke="#1e3a5f" stroke-width="2" /><text fill="#1e3a5f" font-family="Arial" font-size="11" font-weight="bold" transform="rotate(-90, 45, 480)" x="45" y="480">MISSISSIPPI RIVER</text><text fill="#1e3a5f" font-family="Arial" font-size="7" transform="rotate(-90, 58, 480)" x="58" y="480">43 ft depth | 3,500 ft frontage</text><polygon fill="none" points="100.0,80.0 1100.0,80.0 1100.0,880.0 725.0,955.0 100.0,955.0" stroke="#3b82f6" stroke-dasharray="8,4" stroke-width="1.5" /><text fill="#3b82f6" font-family="Arial" font-size="8" text-anchor="middle" x="600.0" y="72.5">PROPERTY BOUNDARY — 700 ACRES</text><rect fill="#2a2a2a" height="15" stroke="#6b7280" stroke-width="1" width="55.0" x="75.0" y="230.0" /><text fill="#6b7280" font-family="Arial" font-size="7" font-weight="bold" x="85.0" y="225.0">DEEPWATER DOCK</text><text fill="#555" font-family="Arial" font-size="6" x="85.0" y="255.0">43 ft draft | Oceangoing vessels</text><rect fill="#0a1628" height="20" stroke="#4fc3f7" stroke-width="1.5" width="80" x="87.5" y="180.0" /><text fill="#4fc3f7" font-family="Arial" font-size="7" font-weight="bold" x="92.5" y="193.0">WATER INTAKE</text><rect fill="#111318" height="300.0" rx="4" stroke="#6b7280" stroke-dasharray="6,3" stroke-width="1" width="500.0" x="475.0" y="105.0" /><text fill="#6b7280" font-family="Arial" font-size="9" font-weight="bold" text-anchor="middle" x="725.0" y="130.0">TANK FARM — WGT OPERATIONS</text><text fill="#555" font-family="Arial" font-size="7" text-anchor="middle" x="725.0" y="155.0">8 x 280,000 bbl = 2.33M bbl</text><circle cx="515.0" cy="145.0" fill="#1a1a1a" r="15" stroke="#555" stroke-width="0.5" /><circle cx="590.0" cy="145.0" fill="#1a1a1a" r="15" stroke="#555" stroke-width="0.5" /><circle cx="665.0" cy="145.0" fill="#1a1a1a" r="15" stroke="#555" stroke-width="0.5" /><circle cx="740.0" cy="145.0" fill="#1a1a1a" r="15" stroke="#555" stroke-width="0.5" /><circle cx="515.0" cy="245.0" fill="#1a1a1a" r="15" stroke="#555" stroke-width="0.5" /><circle cx="590.0" cy="245.0" fill="#1a1a1a" r="15" stroke="#555" stroke-width="0.5" /><circle cx="665.0" cy="245.0" fill="#1a1a1a" r="15" stroke="#555" stroke-width="0.5" /><circle cx="740.0" cy="245.0" fill="#1a1a1a" r="15" stroke="#555" stroke-width="0.5" /><rect fill="#1a0a1a" height="100.0" rx="3" stroke="#ef4444" stroke-width="1.5" width="150.0" x="800.0" y="180.0" /><text fill="#ef4444" font-family="Arial" font-size="9" font-weight="bold" text-anchor="middle" x="875.0" y="217.5">500kV SUBSTATION</text><text fill="#ef4444" font-family="Arial" font-size="7" text-anchor="middle" x="875.0" y="242.5">Entergy — LIVE</text><text fill="#888" font-family="Arial" font-size="6" text-anchor="middle" x="875.0" y="262.5">Willow Glen-Waterford Line</text><rect fill="#1a0a1a" height="100.0" rx="3" stroke="#ef4444" stroke-width="1.5" width="150.0" x="800.0" y="305.0" /><text fill="#ef4444" font-family="Arial" font-size="9" font-weight="bold" text-anchor="middle" x="875.0" y="342.5">230kV SUBSTATION</text><text fill="#ef4444" font-family="Arial" font-size="7" text-anchor="middle" x="875.0" y="367.5">Entergy — LIVE</text><text fill="#888" font-family="Arial" font-size="6" text-anchor="middle" x="875.0" y="387.5">Willow Glen-Conway Line (15 mi)</text><circle cx="400.0" cy="380.0" fill="#333" r="6" stroke="#666" stroke-width="1" /><text fill="#666" font-family="Arial" font-size="6" x="408.0" y="383.0">STACK</text><circle cx="500.0" cy="380.0" fill="#333" r="6" stroke="#666" stroke-width="1" /><text fill="#666" font-family="Arial" font-size="6" x="508.0" y="383.0">STACK</text><rect fill="#111a00" height="100.0" rx="4" stroke="#76b900" stroke-width="2" width="200.0" x="200.0" y="455.0" /><text fill="#76b900" font-family="Arial" font-size="11" font-weight="bold" text-anchor="middle" x="300.0" y="485.0">COMPUTE HALL</text><text fill="#76b900" font-family="Arial" font-size="8" text-anchor="middle" x="300.0" y="505.0">36 NVL72 Racks | 4.68 MW</text><text fill="#76b900" font-family="Arial" font-size="7" text-anchor="middle" x="300.0" y="525.0">200' x 100' | 20,000 sq ft</text><rect fill="#0a1a0a" height="100.0" rx="4" stroke="#22c55e" stroke-width="1.5" width="150.0" x="450.0" y="455.0" /><text fill="#22c55e" font-family="Arial" font-size="9" font-weight="bold" text-anchor="middle" x="525.0" y="480.0">GENERATOR YARD</text><text fill="#22c55e" font-family="Arial" font-size="7" text-anchor="middle" x="525.0" y="500.0">3x Cat CG260-16 (8.4 MW)</text><text fill="#22c55e" font-family="Arial" font-size="7" text-anchor="middle" x="525.0" y="517.5">Natural Gas | H2-Ready</text><text fill="#555" font-family="Arial" font-size="6" text-anchor="middle" x="525.0" y="535.0">150' x 100' | Fenced</text><rect fill="#0a0a1a" height="75.0" rx="4" stroke="#8b5cf6" stroke-width="1.5" width="150.0" x="200.0" y="580.0" /><text fill="#8b5cf6" font-family="Arial" font-size="9" font-weight="bold" text-anchor="middle" x="275.0" y="605.0">POWER BUILDING</text><text fill="#c4b5fd" font-family="Arial" font-size="7" text-anchor="middle" x="275.0" y="622.5">800V DC Rectifiers | Eaton Beam Rubin DSX</text><text fill="#c4b5fd" font-family="Arial" font-size="7" text-anchor="middle" x="275.0" y="637.5">Switchgear | ATS | BESS</text><rect fill="#1a1a00" height="200.0" rx="4" stroke="#fbbf24" stroke-dasharray="6,3" stroke-width="1" width="600.0" x="150.0" y="705.0" /><text fill="#fbbf24" font-family="Arial" font-size="10" font-weight="bold" text-anchor="middle" x="450.0" y="780.0">SOLAR ARRAY ZONE A</text><text fill="#fbbf24" font-family="Arial" font-size="7" text-anchor="middle" x="450.0" y="810.0">First Solar Series 7 TR1 | Ground Mount</text><text fill="#fbbf24" font-family="Arial" font-size="7" text-anchor="middle" x="450.0" y="835.0">~3 MW | DC-Direct to 800V Bus</text><line stroke="#fbbf24" stroke-dasharray="2,4" stroke-width="0.5" x1="175.0" x2="715.0" y1="730.0" y2="730.0" /><line stroke="#fbbf24" stroke-dasharray="2,4" stroke-width="0.5" x1="175.0" x2="715.0" y1="760.0" y2="760.0" /><line stroke="#fbbf24" stroke-dasharray="2,4" stroke-width="0.5" x1="175.0" x2="715.0" y1="790.0" y2="790.0" /><line stroke="#fbbf24" stroke-dasharray="2,4" stroke-width="0.5" x1="175.0" x2="715.0" y1="820.0" y2="820.0" /><line stroke="#fbbf24" stroke-dasharray="2,4" stroke-width="0.5" x1="175.0" x2="715.0" y1="850.0" y2="850.0" /><line stroke="#fbbf24" stroke-dasharray="2,4" stroke-width="0.5" x1="175.0" x2="715.0" y1="880.0" y2="880.0" /><rect fill="#1a1a00" height="200.0" rx="4" stroke="#fbbf24" stroke-dasharray="6,3" stroke-width="1" width="300.0" x="650.0" y="480.0" /><text fill="#fbbf24" font-family="Arial" font-size="9" font-weight="bold" text-anchor="middle" x="800.0" y="555.0">SOLAR ARRAY
ZONE B</text><text fill="#fbbf24" font-family="Arial" font-size="7" text-anchor="middle" x="800.0" y="592.5">~2 MW</text><polyline fill="none" points="1100.0,530.0 650.0,530.0 600.0,505.0 400.0,455.0 300.0,455.0 200.0,455.0" stroke="#444" stroke-width="3" /><text fill="#444" font-family="Arial" font-size="7" x="975.0" y="512.5">ACCESS ROAD FROM LA-75</text><polyline fill="none" points="200.0,442.5 200.0,680.0 400.0,680.0 600.0,580.0 600.0,442.5 200.0,442.5" stroke="#333" stroke-width="2" /><rect fill="#111318" height="50.0" rx="3" stroke="#6b7280" stroke-width="1" width="100.0" x="400.0" y="605.0" /><text fill="#6b7280" font-family="Arial" font-size="7" font-weight="bold" text-anchor="middle" x="450.0" y="625.0">EXISTING WAREHOUSE</text><text fill="#555" font-family="Arial" font-size="6" text-anchor="middle" x="450.0" y="640.0">20,000+ sq ft | Available</text><polyline fill="none" points="1050.0,80.0 1000.0,330.0 975.0,580.0 950.0,955.0" stroke="#8b4513" stroke-dasharray="10,5" stroke-width="2" /><text fill="#8b4513" font-family="Arial" font-size="8" font-weight="bold" transform="rotate(-80, 1025.0, 205.0)" x="1025.0" y="205.0">CN RAILROAD</text><polyline fill="none" points="125.0,930.0 475.0,905.0 850.0,930.0 1100.0,905.0" stroke="#ff6b35" stroke-dasharray="6,3" stroke-width="1.5" /><text fill="#ff6b35" font-family="Arial" font-size="7" font-weight="bold" text-anchor="middle" x="600.0" y="917.5">GAS PIPELINE CORRIDOR</text><polygon fill="#fff" points="1340,75 1332,100 1348,100" /><text fill="#fff" font-family="Arial" font-size="12" font-weight="bold" text-anchor="middle" x="1340" y="70">N</text><rect fill="#111318" height="220" rx="6" stroke="#1e2230" width="290" x="1090" y="130" /><text fill="#f0f2f5" font-family="Arial" font-size="9" font-weight="bold" x="1100" y="145">LEGEND</text><rect fill="#76b900" height="8" rx="2" width="12" x="1100" y="160" /><text fill="#9ca3af" font-family="Arial" font-size="8" x="1118" y="167">New Compute Hall</text><rect fill="#22c55e" height="8" rx="2" width="12" x="1100" y="176" /><text fill="#9ca3af" font-family="Arial" font-size="8" x="1118" y="183">Generator Yard</text><rect fill="#8b5cf6" height="8" rx="2" width="12" x="1100" y="192" /><text fill="#9ca3af" font-family="Arial" font-size="8" x="1118" y="199">Power Building (800V DC)</text><rect fill="#fbbf24" height="8" rx="2" width="12" x="1100" y="208" /><text fill="#9ca3af" font-family="Arial" font-size="8" x="1118" y="215">Solar Array Zones</text><rect fill="#ef4444" height="8" rx="2" width="12" x="1100" y="224" /><text fill="#9ca3af" font-family="Arial" font-size="8" x="1118" y="231">Substations (500kV + 230kV)</text><rect fill="#6b7280" height="8" rx="2" width="12" x="1100" y="240" /><text fill="#9ca3af" font-family="Arial" font-size="8" x="1118" y="247">Existing Structures (WGT)</text><rect fill="#4fc3f7" height="8" rx="2" width="12" x="1100" y="256" /><text fill="#9ca3af" font-family="Arial" font-size="8" x="1118" y="263">Water Intake Structure</text><rect fill="#444444" height="8" rx="2" width="12" x="1100" y="272" /><text fill="#9ca3af" font-family="Arial" font-size="8" x="1118" y="279">Access Roads</text><rect fill="#8b4513" height="8" rx="2" width="12" x="1100" y="288" /><text fill="#9ca3af" font-family="Arial" font-size="8" x="1118" y="295">CN Railroad</text><rect fill="#ff6b35" height="8" rx="2" width="12" x="1100" y="304" /><text fill="#9ca3af" font-family="Arial" font-size="8" x="1118" y="311">Gas Pipeline Corridor</text><rect fill="#3b82f6" height="8" rx="2" width="12" x="1100" y="320" /><text fill="#9ca3af" font-family="Arial" font-size="8" x="1118" y="327">Property Boundary</text><rect fill="#1e3a5f" height="8" rx="2" width="12" x="1100" y="336" /><text fill="#9ca3af" font-family="Arial" font-size="8" x="1118" y="343">Mississippi River</text><line stroke="#888" stroke-width="1" x1="100.0" x2="100.0" y1="970" y2="964" /><text fill="#888" font-family="Arial" font-size="7" text-anchor="middle" x="100.0" y="980">0'</text><line stroke="#888" stroke-width="1" x1="225.0" x2="225.0" y1="970" y2="964" /><text fill="#888" font-family="Arial" font-size="7" text-anchor="middle" x="225.0" y="980">500'</text><line stroke="#888" stroke-width="1" x1="350.0" x2="350.0" y1="970" y2="964" /><text fill="#888" font-family="Arial" font-size="7" text-anchor="middle" x="350.0" y="980">1000'</text><line stroke="#888" stroke-width="1" x1="475.0" x2="475.0" y1="970" y2="964" /><text fill="#888" font-family="Arial" font-size="7" text-anchor="middle" x="475.0" y="980">1500'</text><line stroke="#888" stroke-width="1" x1="600.0" x2="600.0" y1="970" y2="964" /><text fill="#888" font-family="Arial" font-size="7" text-anchor="middle" x="600.0" y="980">2000'</text><line stroke="#888" stroke-width="1" x1="100" x2="600.0" y1="970" y2="970" /><text fill="#888" font-family="Arial" font-size="7" text-anchor="middle" x="350.0" y="990">SCALE (FEET)</text></svg>