<?xml version="1.0" encoding="utf-8" ?>
<svg baseProfile="full" height="1000px" version="1.1" viewBox="0 0 1400 1000" width="1400px" xmlns="http://www.w3.org/2000/svg" xmlns:ev="http://www.w3.org/2001/xml-events" xmlns:xlink="http://www.w3.org/1999/xlink"><defs /><rect fill="#0a0b0f" height="1000" width="1400" x="0" y="0" /><text fill="#f0f2f5" font-family="Arial" font-size="16" font-weight="bold" text-anchor="middle" x="700.0" y="24">RAGIN' CAJUN COMPUTE CAMPUS — TRAPPEYS CANNERY, LAFAYETTE, LA</text><text fill="#CE181E" font-family="Arial" font-size="10" font-weight="bold" text-anchor="middle" x="700.0" y="40">ELECTRICAL SINGLE-LINE DIAGRAM | 800V DC NATIVE ARCHITECTURE | NVIDIA DSX REFERENCE DESIGN</text><text fill="#6b7280" font-family="Arial" font-size="9" text-anchor="middle" x="700.0" y="54">Sheet E-001 | Design Intent | 2026-03-23 | NOT FOR CONSTRUCTION</text><g><rect fill="#0a1a0a" height="55" rx="4" ry="4" stroke="#22c55e" stroke-width="1.5" width="150" x="30" y="75" /><text fill="#22c55e" font-family="Arial" font-size="11" font-weight="bold" text-anchor="middle" x="105.0" y="102.5">ATMOS ENERGY</text><text fill="#22c55e" font-family="Arial" font-size="10" font-weight="normal" text-anchor="middle" x="105.0" y="116.5">Gas Trunk Line</text><text fill="#6b7280" font-family="Arial" font-size="8" text-anchor="middle" x="105.0" y="126">On-property | Henry Hub pricing</text></g><g><rect fill="#0a1a0a" height="55" rx="4" ry="4" stroke="#22c55e" stroke-width="1.5" width="140" x="220" y="75" /><text fill="#22c55e" font-family="Arial" font-size="11" font-weight="bold" text-anchor="middle" x="290.0" y="102.5">CAT G3520C #1</text><text fill="#22c55e" font-family="Arial" font-size="10" font-weight="normal" text-anchor="middle" x="290.0" y="116.5">1.5 MW | 480V AC</text><text fill="#6b7280" font-family="Arial" font-size="8" text-anchor="middle" x="290.0" y="126">Natural Gas | Layer 2</text></g><g><rect fill="#0a1a0a" height="55" rx="4" ry="4" stroke="#22c55e" stroke-width="1.5" width="140" x="380" y="75" /><text fill="#22c55e" font-family="Arial" font-size="11" font-weight="bold" text-anchor="middle" x="450.0" y="102.5">CAT G3520C #2</text><text fill="#22c55e" font-family="Arial" font-size="10" font-weight="normal" text-anchor="middle" x="450.0" y="116.5">1.5 MW | 480V AC</text><text fill="#6b7280" font-family="Arial" font-size="8" text-anchor="middle" x="450.0" y="126">N+1 Redundant</text></g><g><rect fill="#1a1a00" height="55" rx="4" ry="4" stroke="#fbbf24" stroke-width="1.5" width="160" x="560" y="75" /><text fill="#fbbf24" font-family="Arial" font-size="11" font-weight="bold" text-anchor="middle" x="640.0" y="102.5">FIRST SOLAR</text><text fill="#fbbf24" font-family="Arial" font-size="10" font-weight="normal" text-anchor="middle" x="640.0" y="116.5">Rooftop Arrays</text><text fill="#6b7280" font-family="Arial" font-size="8" text-anchor="middle" x="640.0" y="126">3,731 panels | 2.05 MW | All 4 buildings</text></g><g><rect fill="#2e1a1a" height="55" rx="4" ry="4" stroke="#ef4444" stroke-width="1.5" width="130" x="760" y="75" /><text fill="#ef4444" font-family="Arial" font-size="11" font-weight="bold" text-anchor="middle" x="825.0" y="102.5">DIESEL GENSET</text><text fill="#ef4444" font-family="Arial" font-size="10" font-weight="normal" text-anchor="middle" x="825.0" y="116.5">Emergency</text><text fill="#6b7280" font-family="Arial" font-size="8" text-anchor="middle" x="825.0" y="126">Layer 3 | Pipeline-Independent</text></g><g><rect fill="#1a0a0a" height="55" rx="4" ry="4" stroke="#ef4444" stroke-width="1.5" width="130" x="930" y="75" /><text fill="#ef4444" font-family="Arial" font-size="11" font-weight="bold" text-anchor="middle" x="995.0" y="102.5">LUS GRID</text><text fill="#ef4444" font-family="Arial" font-size="10" font-weight="normal" text-anchor="middle" x="995.0" y="116.5">SELL-BACK ONLY</text><text fill="#6b7280" font-family="Arial" font-size="8" text-anchor="middle" x="995.0" y="126">Layer 4 | Excess to grid</text></g><g><rect fill="#1a1a2e" height="55" rx="4" ry="4" stroke="#3b82f6" stroke-width="1.5" width="130" x="1100" y="75" /><text fill="#93c5fd" font-family="Arial" font-size="11" font-weight="bold" text-anchor="middle" x="1165.0" y="102.5">EATON xStorage</text><text fill="#93c5fd" font-family="Arial" font-size="10" font-weight="normal" text-anchor="middle" x="1165.0" y="116.5">BESS</text><text fill="#6b7280" font-family="Arial" font-size="8" text-anchor="middle" x="1165.0" y="126">800V DC | Ride-through
Peak shaving</text></g><line stroke="#22c55e" stroke-width="1.5" x1="100" x2="100" y1="130" y2="180" /><polygon fill="#22c55e" points="96,174 104,174 100,180" /><line stroke="#22c55e" stroke-width="1.5" x1="290" x2="290" y1="130" y2="180" /><polygon fill="#22c55e" points="286,174 294,174 290,180" /><line stroke="#22c55e" stroke-width="1.5" x1="450" x2="450" y1="130" y2="180" /><polygon fill="#22c55e" points="446,174 454,174 450,180" /><line stroke="#ef4444" stroke-width="1.5" x1="825" x2="825" y1="130" y2="180" /><polygon fill="#ef4444" points="821,174 829,174 825,180" /><g><rect fill="#1a1a2e" height="50" rx="4" ry="4" stroke="#22c55e" stroke-width="1.5" width="240" x="30" y="180" /><text fill="#e0e0e0" font-family="Arial" font-size="11" font-weight="bold" text-anchor="middle" x="150.0" y="205.0">PARALLELING SWITCHGEAR + ATS</text><text fill="#e0e0e0" font-family="Arial" font-size="10" font-weight="normal" text-anchor="middle" x="150.0" y="219.0">480V AC | Auto-Sync | Load Sharing</text><text fill="#6b7280" font-family="Arial" font-size="8" text-anchor="middle" x="150.0" y="226">Louisiana Cat controls | Both G3520C to common bus</text></g><g><rect fill="#1a1a2e" height="50" rx="4" ry="4" stroke="#ff6b35" stroke-width="1.5" width="180" x="290" y="180" /><text fill="#ff6b35" font-family="Arial" font-size="11" font-weight="bold" text-anchor="middle" x="380.0" y="205.0">MAIN BREAKER + METERING</text><text fill="#ff6b35" font-family="Arial" font-size="10" font-weight="normal" text-anchor="middle" x="380.0" y="219.0">480V AC Rated | Protection Relays</text></g><g><rect fill="#1a1a2e" height="50" rx="4" ry="4" stroke="#ef4444" stroke-width="1.5" width="170" x="740" y="180" /><text fill="#e0e0e0" font-family="Arial" font-size="11" font-weight="bold" text-anchor="middle" x="825.0" y="205.0">EMERGENCY ATS</text><text fill="#e0e0e0" font-family="Arial" font-size="10" font-weight="normal" text-anchor="middle" x="825.0" y="219.0">Diesel Auto-Transfer</text><text fill="#6b7280" font-family="Arial" font-size="8" text-anchor="middle" x="825.0" y="226">Auto-start on dual gas failure</text></g><line stroke="#22c55e" stroke-width="1.5" x1="150" x2="150" y1="230" y2="275" /><polygon fill="#22c55e" points="146,269 154,269 150,275" /><line stroke="#ff6b35" stroke-width="1.5" x1="380" x2="380" y1="230" y2="275" /><polygon fill="#ff6b35" points="376,269 384,269 380,275" /><line stroke="#ef4444" stroke-width="1.5" x1="825" x2="825" y1="230" y2="275" /><polygon fill="#ef4444" points="821,269 829,269 825,275" /><rect fill="#ff6b35" height="6" rx="2" width="940" x="30" y="272" /><text fill="#ff6b35" font-family="Arial" font-size="10" font-weight="bold" text-anchor="middle" x="500.0" y="267">480V AC DISTRIBUTION BUS</text><line stroke="#ef4444" stroke-width="1.5" x1="995" x2="995" y1="130" y2="255" /><text fill="#ef4444" font-family="Arial" font-size="8" x="1005" y="250">SELL-BACK TO LUS (Layer 4)</text><line stroke="#ef4444" stroke-width="1.5" x1="940" x2="995" y1="275" y2="275" /><line stroke="#ff6b35" stroke-width="1.5" x1="150" x2="150" y1="278" y2="320" /><polygon fill="#ff6b35" points="146,314 154,314 150,320" /><line stroke="#ff6b35" stroke-width="1.5" x1="450" x2="450" y1="278" y2="320" /><polygon fill="#ff6b35" points="446,314 454,314 450,320" /><line stroke="#ff6b35" stroke-width="1.5" x1="750" x2="750" y1="278" y2="320" /><polygon fill="#ff6b35" points="746,314 754,314 750,320" /><g><rect fill="#1a1a2e" height="55" rx="4" ry="4" stroke="#8b5cf6" stroke-width="1.5" width="200" x="60" y="320" /><text fill="#c4b5fd" font-family="Arial" font-size="11" font-weight="bold" text-anchor="middle" x="160.0" y="340.5">EATON BEAM RUBIN DSX</text><text fill="#c4b5fd" font-family="Arial" font-size="10" font-weight="normal" text-anchor="middle" x="160.0" y="354.5">480V AC -&gt; 800V DC</text><text fill="#c4b5fd" font-family="Arial" font-size="10" font-weight="normal" text-anchor="middle" x="160.0" y="368.5">Rectifier Module #1</text><text fill="#6b7280" font-family="Arial" font-size="8" text-anchor="middle" x="160.0" y="371">96%+ Efficiency</text></g><g><rect fill="#1a1a2e" height="55" rx="4" ry="4" stroke="#8b5cf6" stroke-width="1.5" width="200" x="350" y="320" /><text fill="#c4b5fd" font-family="Arial" font-size="11" font-weight="bold" text-anchor="middle" x="450.0" y="340.5">EATON BEAM RUBIN DSX</text><text fill="#c4b5fd" font-family="Arial" font-size="10" font-weight="normal" text-anchor="middle" x="450.0" y="354.5">480V AC -&gt; 800V DC</text><text fill="#c4b5fd" font-family="Arial" font-size="10" font-weight="normal" text-anchor="middle" x="450.0" y="368.5">Rectifier Module #2</text><text fill="#6b7280" font-family="Arial" font-size="8" text-anchor="middle" x="450.0" y="371">N+1 Redundant</text></g><line stroke="#fbbf24" stroke-width="1.5" x1="640" x2="640" y1="130" y2="145" /><line stroke="#fbbf24" stroke-width="1.5" x1="640" x2="710" y1="145" y2="145" /><line stroke="#fbbf24" stroke-width="1.5" x1="710" x2="710" y1="145" y2="320" /><g><rect fill="#1a1a2e" height="55" rx="4" ry="4" stroke="#fbbf24" stroke-width="1.5" width="200" x="640" y="320" /><text fill="#fbbf24" font-family="Arial" font-size="11" font-weight="bold" text-anchor="middle" x="740.0" y="347.5">DC-DC BUCK CONVERTER</text><text fill="#fbbf24" font-family="Arial" font-size="10" font-weight="normal" text-anchor="middle" x="740.0" y="361.5">952V String -&gt; 800V DC</text><text fill="#6b7280" font-family="Arial" font-size="8" text-anchor="middle" x="740.0" y="371">Solar DC-Direct | 97% Eff | Bypasses AC</text></g><g><rect fill="#1a1a2e" height="55" rx="4" ry="4" stroke="#ef4444" stroke-width="1.5" width="110" x="860" y="320" /><text fill="#fca5a5" font-family="Arial" font-size="9" font-weight="bold" text-anchor="middle" x="915.0" y="340.5">DIESEL</text><text fill="#fca5a5" font-family="Arial" font-size="8" font-weight="normal" text-anchor="middle" x="915.0" y="354.5">FEED</text><text fill="#fca5a5" font-family="Arial" font-size="8" font-weight="normal" text-anchor="middle" x="915.0" y="368.5">To 480V Bus</text></g><line stroke="#ef4444" stroke-width="1.5" x1="915" x2="915" y1="278" y2="320" /><polygon fill="#ef4444" points="911,314 919,314 915,320" /><line stroke="#8b5cf6" stroke-width="1.5" x1="160" x2="160" y1="375" y2="425" /><polygon fill="#8b5cf6" points="156,419 164,419 160,425" /><line stroke="#8b5cf6" stroke-width="1.5" x1="450" x2="450" y1="375" y2="425" /><polygon fill="#8b5cf6" points="446,419 454,419 450,425" /><line stroke="#8b5cf6" stroke-width="1.5" x1="740" x2="740" y1="375" y2="425" /><polygon fill="#8b5cf6" points="736,419 744,419 740,425" /><rect fill="#8b5cf6" height="6" rx="2" width="940" x="30" y="422" /><text fill="#8b5cf6" font-family="Arial" font-size="10" font-weight="bold" text-anchor="middle" x="500.0" y="417">800V DC DISTRIBUTION BUS — NVIDIA DSX REFERENCE ARCHITECTURE</text><line stroke="#3b82f6" stroke-width="1.5" x1="1165" x2="1165" y1="130" y2="425" /><text fill="#93c5fd" font-family="Arial" font-size="7" x="1175" y="405">BESS on</text><text fill="#93c5fd" font-family="Arial" font-size="7" x="1175" y="415">800V DC</text><line stroke="#8b5cf6" stroke-width="1.5" x1="205" x2="205" y1="428" y2="480" /><polygon fill="#8b5cf6" points="201,474 209,474 205,480" /><g><rect fill="#1a1a2e" height="40" rx="4" ry="4" stroke="#8b5cf6" stroke-width="1.5" width="110" x="150" y="480" /><text fill="#c4b5fd" font-family="Arial" font-size="9" font-weight="bold" text-anchor="middle" x="205.0" y="500.0">EATON BUSWAY</text><text fill="#c4b5fd" font-family="Arial" font-size="8" font-weight="normal" text-anchor="middle" x="205.0" y="514.0">800V DC</text></g><line stroke="#8b5cf6" stroke-width="1.5" x1="425" x2="425" y1="428" y2="480" /><polygon fill="#8b5cf6" points="421,474 429,474 425,480" /><g><rect fill="#1a1a2e" height="40" rx="4" ry="4" stroke="#8b5cf6" stroke-width="1.5" width="110" x="370" y="480" /><text fill="#c4b5fd" font-family="Arial" font-size="9" font-weight="bold" text-anchor="middle" x="425.0" y="500.0">EATON BUSWAY</text><text fill="#c4b5fd" font-family="Arial" font-size="8" font-weight="normal" text-anchor="middle" x="425.0" y="514.0">800V DC</text></g><line stroke="#8b5cf6" stroke-width="1.5" x1="645" x2="645" y1="428" y2="480" /><polygon fill="#8b5cf6" points="641,474 649,474 645,480" /><g><rect fill="#1a1a2e" height="40" rx="4" ry="4" stroke="#8b5cf6" stroke-width="1.5" width="110" x="590" y="480" /><text fill="#c4b5fd" font-family="Arial" font-size="9" font-weight="bold" text-anchor="middle" x="645.0" y="500.0">EATON BUSWAY</text><text fill="#c4b5fd" font-family="Arial" font-size="8" font-weight="normal" text-anchor="middle" x="645.0" y="514.0">800V DC</text></g><line stroke="#8b5cf6" stroke-width="1.5" x1="865" x2="865" y1="428" y2="480" /><polygon fill="#8b5cf6" points="861,474 869,474 865,480" /><g><rect fill="#1a1a2e" height="40" rx="4" ry="4" stroke="#8b5cf6" stroke-width="1.5" width="110" x="810" y="480" /><text fill="#c4b5fd" font-family="Arial" font-size="9" font-weight="bold" text-anchor="middle" x="865.0" y="500.0">EATON BUSWAY</text><text fill="#c4b5fd" font-family="Arial" font-size="8" font-weight="normal" text-anchor="middle" x="865.0" y="514.0">800V DC</text></g><line stroke="#8b5cf6" stroke-width="1.5" x1="205" x2="205" y1="520" y2="555" /><polygon fill="#8b5cf6" points="201,549 209,549 205,555" /><g><rect fill="#1a1a2e" height="40" rx="4" ry="4" stroke="#8b5cf6" stroke-width="1.5" width="110" x="150" y="555" /><text fill="#c4b5fd" font-family="Arial" font-size="9" font-weight="bold" text-anchor="middle" x="205.0" y="575.0">RACK PDU</text><text fill="#c4b5fd" font-family="Arial" font-size="8" font-weight="normal" text-anchor="middle" x="205.0" y="589.0">800V DC Input</text></g><line stroke="#8b5cf6" stroke-width="1.5" x1="425" x2="425" y1="520" y2="555" /><polygon fill="#8b5cf6" points="421,549 429,549 425,555" /><g><rect fill="#1a1a2e" height="40" rx="4" ry="4" stroke="#8b5cf6" stroke-width="1.5" width="110" x="370" y="555" /><text fill="#c4b5fd" font-family="Arial" font-size="9" font-weight="bold" text-anchor="middle" x="425.0" y="575.0">RACK PDU</text><text fill="#c4b5fd" font-family="Arial" font-size="8" font-weight="normal" text-anchor="middle" x="425.0" y="589.0">800V DC Input</text></g><line stroke="#8b5cf6" stroke-width="1.5" x1="645" x2="645" y1="520" y2="555" /><polygon fill="#8b5cf6" points="641,549 649,549 645,555" /><g><rect fill="#1a1a2e" height="40" rx="4" ry="4" stroke="#8b5cf6" stroke-width="1.5" width="110" x="590" y="555" /><text fill="#c4b5fd" font-family="Arial" font-size="9" font-weight="bold" text-anchor="middle" x="645.0" y="575.0">RACK PDU</text><text fill="#c4b5fd" font-family="Arial" font-size="8" font-weight="normal" text-anchor="middle" x="645.0" y="589.0">800V DC Input</text></g><line stroke="#8b5cf6" stroke-width="1.5" x1="865" x2="865" y1="520" y2="555" /><polygon fill="#8b5cf6" points="861,549 869,549 865,555" /><g><rect fill="#1a1a2e" height="40" rx="4" ry="4" stroke="#8b5cf6" stroke-width="1.5" width="110" x="810" y="555" /><text fill="#c4b5fd" font-family="Arial" font-size="9" font-weight="bold" text-anchor="middle" x="865.0" y="575.0">RACK PDU</text><text fill="#c4b5fd" font-family="Arial" font-size="8" font-weight="normal" text-anchor="middle" x="865.0" y="589.0">800V DC Input</text></g><line stroke="#8b5cf6" stroke-width="1.5" x1="205" x2="205" y1="595" y2="630" /><polygon fill="#8b5cf6" points="201,624 209,624 205,630" /><g><rect fill="#1a1a2e" height="40" rx="4" ry="4" stroke="#76b900" stroke-width="1.5" width="110" x="150" y="630" /><text fill="#76b900" font-family="Arial" font-size="9" font-weight="bold" text-anchor="middle" x="205.0" y="650.0">64:1 LLC DC-DC</text><text fill="#76b900" font-family="Arial" font-size="8" font-weight="normal" text-anchor="middle" x="205.0" y="664.0">800V -&gt; 12.5V</text><text fill="#6b7280" font-family="Arial" font-size="8" text-anchor="middle" x="205.0" y="666">99%+ Efficiency</text></g><line stroke="#8b5cf6" stroke-width="1.5" x1="425" x2="425" y1="595" y2="630" /><polygon fill="#8b5cf6" points="421,624 429,624 425,630" /><g><rect fill="#1a1a2e" height="40" rx="4" ry="4" stroke="#76b900" stroke-width="1.5" width="110" x="370" y="630" /><text fill="#76b900" font-family="Arial" font-size="9" font-weight="bold" text-anchor="middle" x="425.0" y="650.0">64:1 LLC DC-DC</text><text fill="#76b900" font-family="Arial" font-size="8" font-weight="normal" text-anchor="middle" x="425.0" y="664.0">800V -&gt; 12.5V</text><text fill="#6b7280" font-family="Arial" font-size="8" text-anchor="middle" x="425.0" y="666">99%+ Efficiency</text></g><line stroke="#8b5cf6" stroke-width="1.5" x1="645" x2="645" y1="595" y2="630" /><polygon fill="#8b5cf6" points="641,624 649,624 645,630" /><g><rect fill="#1a1a2e" height="40" rx="4" ry="4" stroke="#76b900" stroke-width="1.5" width="110" x="590" y="630" /><text fill="#76b900" font-family="Arial" font-size="9" font-weight="bold" text-anchor="middle" x="645.0" y="650.0">64:1 LLC DC-DC</text><text fill="#76b900" font-family="Arial" font-size="8" font-weight="normal" text-anchor="middle" x="645.0" y="664.0">800V -&gt; 12.5V</text><text fill="#6b7280" font-family="Arial" font-size="8" text-anchor="middle" x="645.0" y="666">99%+ Efficiency</text></g><line stroke="#8b5cf6" stroke-width="1.5" x1="865" x2="865" y1="595" y2="630" /><polygon fill="#8b5cf6" points="861,624 869,624 865,630" /><g><rect fill="#1a1a2e" height="40" rx="4" ry="4" stroke="#76b900" stroke-width="1.5" width="110" x="810" y="630" /><text fill="#76b900" font-family="Arial" font-size="9" font-weight="bold" text-anchor="middle" x="865.0" y="650.0">64:1 LLC DC-DC</text><text fill="#76b900" font-family="Arial" font-size="8" font-weight="normal" text-anchor="middle" x="865.0" y="664.0">800V -&gt; 12.5V</text><text fill="#6b7280" font-family="Arial" font-size="8" text-anchor="middle" x="865.0" y="666">99%+ Efficiency</text></g><line stroke="#76b900" stroke-width="1.5" x1="205" x2="205" y1="670" y2="710" /><polygon fill="#76b900" points="201,704 209,704 205,710" /><g><rect fill="#111a00" height="60" rx="4" ry="4" stroke="#76b900" stroke-width="1.5" width="110" x="150" y="710" /><text fill="#76b900" font-family="Arial" font-size="9" font-weight="bold" text-anchor="middle" x="205.0" y="733.0">NVIDIA NVL72</text><text fill="#76b900" font-family="Arial" font-size="8" font-weight="normal" text-anchor="middle" x="205.0" y="747.0">RACK 1</text><text fill="#76b900" font-family="Arial" font-size="8" font-weight="normal" text-anchor="middle" x="205.0" y="761.0">130 kW</text><text fill="#6b7280" font-family="Arial" font-size="8" text-anchor="middle" x="205.0" y="766">Vera Rubin | Liquid Cooled</text></g><line stroke="#76b900" stroke-width="1.5" x1="425" x2="425" y1="670" y2="710" /><polygon fill="#76b900" points="421,704 429,704 425,710" /><g><rect fill="#111a00" height="60" rx="4" ry="4" stroke="#76b900" stroke-width="1.5" width="110" x="370" y="710" /><text fill="#76b900" font-family="Arial" font-size="9" font-weight="bold" text-anchor="middle" x="425.0" y="733.0">NVIDIA NVL72</text><text fill="#76b900" font-family="Arial" font-size="8" font-weight="normal" text-anchor="middle" x="425.0" y="747.0">RACK 2</text><text fill="#76b900" font-family="Arial" font-size="8" font-weight="normal" text-anchor="middle" x="425.0" y="761.0">130 kW</text><text fill="#6b7280" font-family="Arial" font-size="8" text-anchor="middle" x="425.0" y="766">Vera Rubin | Liquid Cooled</text></g><line stroke="#76b900" stroke-width="1.5" x1="645" x2="645" y1="670" y2="710" /><polygon fill="#76b900" points="641,704 649,704 645,710" /><g><rect fill="#111a00" height="60" rx="4" ry="4" stroke="#76b900" stroke-width="1.5" width="110" x="590" y="710" /><text fill="#76b900" font-family="Arial" font-size="9" font-weight="bold" text-anchor="middle" x="645.0" y="733.0">NVIDIA NVL72</text><text fill="#76b900" font-family="Arial" font-size="8" font-weight="normal" text-anchor="middle" x="645.0" y="747.0">RACK 3</text><text fill="#76b900" font-family="Arial" font-size="8" font-weight="normal" text-anchor="middle" x="645.0" y="761.0">130 kW</text><text fill="#6b7280" font-family="Arial" font-size="8" text-anchor="middle" x="645.0" y="766">Vera Rubin | Liquid Cooled</text></g><line stroke="#76b900" stroke-width="1.5" x1="865" x2="865" y1="670" y2="710" /><polygon fill="#76b900" points="861,704 869,704 865,710" /><g><rect fill="#111a00" height="60" rx="4" ry="4" stroke="#76b900" stroke-width="1.5" width="110" x="810" y="710" /><text fill="#76b900" font-family="Arial" font-size="9" font-weight="bold" text-anchor="middle" x="865.0" y="733.0">NVIDIA NVL72</text><text fill="#76b900" font-family="Arial" font-size="8" font-weight="normal" text-anchor="middle" x="865.0" y="747.0">RACK 4</text><text fill="#76b900" font-family="Arial" font-size="8" font-weight="normal" text-anchor="middle" x="865.0" y="761.0">130 kW</text><text fill="#6b7280" font-family="Arial" font-size="8" text-anchor="middle" x="865.0" y="766">Vera Rubin | Liquid Cooled</text></g><rect fill="#111318" height="45" rx="6" stroke="#1e2230" stroke-width="1" width="1340" x="30" y="800" /><text fill="#6b7280" font-family="Arial" font-size="8" font-weight="bold" x="60" y="816">PHASE 1 IT LOAD</text><text fill="#CE181E" font-family="Arial" font-size="11" font-weight="bold" x="60" y="830">520 kW (4 racks)</text><text fill="#6b7280" font-family="Arial" font-size="8" font-weight="bold" x="280" y="816">COOLING</text><text fill="#CE181E" font-family="Arial" font-size="11" font-weight="bold" x="280" y="830">~65 kW</text><text fill="#6b7280" font-family="Arial" font-size="8" font-weight="bold" x="500" y="816">FACILITY</text><text fill="#CE181E" font-family="Arial" font-size="11" font-weight="bold" x="500" y="830">~50 kW</text><text fill="#6b7280" font-family="Arial" font-size="8" font-weight="bold" x="720" y="816">NETWORK</text><text fill="#CE181E" font-family="Arial" font-size="11" font-weight="bold" x="720" y="830">~15 kW</text><text fill="#6b7280" font-family="Arial" font-size="8" font-weight="bold" x="940" y="816">TOTAL DRAW</text><text fill="#CE181E" font-family="Arial" font-size="11" font-weight="bold" x="940" y="830">~650 kW</text><text fill="#6b7280" font-family="Arial" font-size="8" font-weight="bold" x="1160" y="816">GENSET CAPACITY</text><text fill="#CE181E" font-family="Arial" font-size="11" font-weight="bold" x="1160" y="830">3,000 kW (N+1)</text><text fill="#4b5563" font-family="Arial" font-size="8" x="35" y="860">1. 2x Cat G3520C natural gas generators: 1.5 MW each, 480V AC output — ATMOS gas trunk line on property</text><text fill="#4b5563" font-family="Arial" font-size="8" x="35" y="873">2. N+1 redundancy: each genset at ~22% load in Phase 1 (650 kW on 3,000 kW capacity)</text><text fill="#4b5563" font-family="Arial" font-size="8" x="35" y="886">3. Eaton Beam Rubin DSX rectifiers convert 480V AC to 800V DC per NVIDIA DSX Reference Design</text><text fill="#4b5563" font-family="Arial" font-size="8" x="35" y="899">4. First Solar rooftop arrays connect DC-Direct: 952V strings buck to 800V at 97% efficiency, bypassing AC</text><text fill="#4b5563" font-family="Arial" font-size="8" x="35" y="912">5. 64:1 LLC resonant converters: 800V DC to 12.5V at GPU die — 99%+ conversion efficiency</text><text fill="#4b5563" font-family="Arial" font-size="8" x="35" y="925">6. LUS grid is SELL-BACK ONLY (Layer 4) — excess power returns to grid, never consumed from grid</text><text fill="#4b5563" font-family="Arial" font-size="8" x="35" y="938">7. Eaton xStorage BESS on 800V DC bus — ride-through for transfer events + peak shaving</text><text fill="#4b5563" font-family="Arial" font-size="8" x="35" y="951">8. Diesel emergency genset (Layer 3) provides pipeline-independent backup, auto-start on dual gas failure</text><text fill="#4b5563" font-family="Arial" font-size="8" x="35" y="964">9. All 4 buildings receive rooftop solar: 3,731 First Solar TR1 panels = 2.05 MW total</text><rect fill="#fbbf24" height="8" width="8" x="35" y="979" /><text fill="#6b7280" font-family="Arial" font-size="8" font-weight="bold" x="49" y="987">LAYER 1: SOLAR — Primary Offset — 2.05 MW rooftop</text><rect fill="#22c55e" height="8" width="8" x="365" y="979" /><text fill="#6b7280" font-family="Arial" font-size="8" font-weight="bold" x="379" y="987">LAYER 2: NATURAL GAS — Backbone — 2x G3520C 24/7</text><rect fill="#ef4444" height="8" width="8" x="695" y="979" /><text fill="#6b7280" font-family="Arial" font-size="8" font-weight="bold" x="709" y="987">LAYER 3: DIESEL — Emergency Only</text><rect fill="#ef4444" height="8" width="8" x="1025" y="979" /><text fill="#6b7280" font-family="Arial" font-size="8" font-weight="bold" x="1039" y="987">LAYER 4: GRID (LUS) — Sell-Back Only</text></svg>