<?xml version="1.0" encoding="utf-8" ?>
<svg baseProfile="full" height="1050px" version="1.1" viewBox="0 0 1400 1050" width="1400px" xmlns="http://www.w3.org/2000/svg" xmlns:ev="http://www.w3.org/2001/xml-events" xmlns:xlink="http://www.w3.org/1999/xlink"><defs /><rect fill="#0a0b0f" height="1050" width="1400" x="0" y="0" /><text fill="#f0f2f5" font-family="Arial" font-size="16" font-weight="bold" text-anchor="middle" x="700.0" y="24">RAGIN' CAJUN COMPUTE CAMPUS — TRAPPEYS CANNERY, LAFAYETTE, LA</text><text fill="#CE181E" font-family="Arial" font-size="10" font-weight="bold" text-anchor="middle" x="700.0" y="40">POWER DISTRIBUTION SCHEMATIC | FUEL TO CHIP | 4-LAYER POWER HIERARCHY</text><text fill="#6b7280" font-family="Arial" font-size="9" text-anchor="middle" x="700.0" y="54">Sheet P-001 | Design Intent | 2026-03-23 | NOT FOR CONSTRUCTION</text><g><rect fill="#0a1a0a" height="55" rx="4" ry="4" stroke="#22c55e" stroke-width="1.5" width="140" x="30" y="75" /><text fill="#22c55e" font-family="Arial" font-size="10" font-weight="bold" text-anchor="middle" x="100.0" y="95.0">ATMOS ENERGY</text><text fill="#22c55e" font-family="Arial" font-size="9" font-weight="normal" text-anchor="middle" x="100.0" y="108.0">Natural Gas</text><text fill="#22c55e" font-family="Arial" font-size="9" font-weight="normal" text-anchor="middle" x="100.0" y="121.0">Trunk Line on Property</text><text fill="#6b7280" font-family="Arial" font-size="7" text-anchor="middle" x="100.0" y="126">Henry Hub Pricing</text></g><g><rect fill="#1a1a2e" height="55" rx="4" ry="4" stroke="#22c55e" stroke-width="1.5" width="110" x="200" y="75" /><text fill="#86efac" font-family="Arial" font-size="10" font-weight="bold" text-anchor="middle" x="255.0" y="95.0">GAS METER</text><text fill="#86efac" font-family="Arial" font-size="9" font-weight="normal" text-anchor="middle" x="255.0" y="108.0">+ REGULATOR</text><text fill="#86efac" font-family="Arial" font-size="9" font-weight="normal" text-anchor="middle" x="255.0" y="121.0">Station</text><text fill="#6b7280" font-family="Arial" font-size="7" text-anchor="middle" x="255.0" y="126">Custody transfer</text></g><g><rect fill="#2e1a1a" height="55" rx="4" ry="4" stroke="#ef4444" stroke-width="1.5" width="120" x="340" y="75" /><text fill="#ef4444" font-family="Arial" font-size="10" font-weight="bold" text-anchor="middle" x="400.0" y="95.0">DIESEL FUEL</text><text fill="#ef4444" font-family="Arial" font-size="9" font-weight="normal" text-anchor="middle" x="400.0" y="108.0">STORAGE</text><text fill="#ef4444" font-family="Arial" font-size="9" font-weight="normal" text-anchor="middle" x="400.0" y="121.0">5,000 gal</text><text fill="#6b7280" font-family="Arial" font-size="7" text-anchor="middle" x="400.0" y="126">Layer 3 backup</text></g><g><rect fill="#1a1a00" height="55" rx="4" ry="4" stroke="#fbbf24" stroke-width="1.5" width="140" x="490" y="75" /><text fill="#fbbf24" font-family="Arial" font-size="10" font-weight="bold" text-anchor="middle" x="560.0" y="95.0">SOLAR</text><text fill="#fbbf24" font-family="Arial" font-size="9" font-weight="normal" text-anchor="middle" x="560.0" y="108.0">IRRADIANCE</text><text fill="#fbbf24" font-family="Arial" font-size="9" font-weight="normal" text-anchor="middle" x="560.0" y="121.0">4.5-5.2 kWh/m2/day</text><text fill="#6b7280" font-family="Arial" font-size="7" text-anchor="middle" x="560.0" y="126">Louisiana avg | Rooftop</text></g><g><rect fill="#1a0a0a" height="55" rx="4" ry="4" stroke="#ef4444" stroke-width="1.5" width="140" x="660" y="75" /><text fill="#ef4444" font-family="Arial" font-size="10" font-weight="bold" text-anchor="middle" x="730.0" y="95.0">LUS GRID</text><text fill="#ef4444" font-family="Arial" font-size="9" font-weight="normal" text-anchor="middle" x="730.0" y="108.0">480V Service</text><text fill="#ef4444" font-family="Arial" font-size="9" font-weight="normal" text-anchor="middle" x="730.0" y="121.0">SELL-BACK ONLY</text><text fill="#6b7280" font-family="Arial" font-size="7" text-anchor="middle" x="730.0" y="126">NOT a source</text></g><line stroke="#22c55e" stroke-width="1.5" x1="100" x2="100" y1="130" y2="160" /><polygon fill="#22c55e" points="96,154 104,154 100,160" /><line stroke="#22c55e" stroke-width="1.5" x1="255" x2="255" y1="130" y2="160" /><polygon fill="#22c55e" points="251,154 259,154 255,160" /><line stroke="#ef4444" stroke-width="1.5" x1="400" x2="400" y1="130" y2="160" /><polygon fill="#ef4444" points="396,154 404,154 400,160" /><line stroke="#fbbf24" stroke-width="1.5" x1="560" x2="560" y1="130" y2="160" /><polygon fill="#fbbf24" points="556,154 564,154 560,160" /><g><rect fill="#0a1a0a" height="70" rx="4" ry="4" stroke="#22c55e" stroke-width="1.5" width="155" x="30" y="165" /><text fill="#22c55e" font-family="Arial" font-size="10" font-weight="bold" text-anchor="middle" x="107.5" y="186.0">CAT G3520C #1</text><text fill="#22c55e" font-family="Arial" font-size="9" font-weight="normal" text-anchor="middle" x="107.5" y="199.0">1.5 MW | 480V AC</text><text fill="#22c55e" font-family="Arial" font-size="9" font-weight="normal" text-anchor="middle" x="107.5" y="212.0">Natural Gas Prime</text><text fill="#22c55e" font-family="Arial" font-size="9" font-weight="normal" text-anchor="middle" x="107.5" y="225.0">Layer 2 Backbone</text><text fill="#6b7280" font-family="Arial" font-size="7" text-anchor="middle" x="107.5" y="231">Louisiana Cat | American Made</text></g><g><rect fill="#0a1a0a" height="70" rx="4" ry="4" stroke="#22c55e" stroke-width="1.5" width="155" x="200" y="165" /><text fill="#4ade80" font-family="Arial" font-size="10" font-weight="bold" text-anchor="middle" x="277.5" y="186.0">CAT G3520C #2</text><text fill="#4ade80" font-family="Arial" font-size="9" font-weight="normal" text-anchor="middle" x="277.5" y="199.0">1.5 MW | 480V AC</text><text fill="#4ade80" font-family="Arial" font-size="9" font-weight="normal" text-anchor="middle" x="277.5" y="212.0">N+1 REDUNDANT</text><text fill="#4ade80" font-family="Arial" font-size="9" font-weight="normal" text-anchor="middle" x="277.5" y="225.0">Maintenance Spare</text><text fill="#6b7280" font-family="Arial" font-size="7" text-anchor="middle" x="277.5" y="231">Any unit offline = no impact</text></g><g><rect fill="#2e1a1a" height="70" rx="4" ry="4" stroke="#ef4444" stroke-width="1.5" width="120" x="370" y="165" /><text fill="#ef4444" font-family="Arial" font-size="10" font-weight="bold" text-anchor="middle" x="430.0" y="186.0">DIESEL GENSET</text><text fill="#ef4444" font-family="Arial" font-size="9" font-weight="normal" text-anchor="middle" x="430.0" y="199.0">250 kW</text><text fill="#ef4444" font-family="Arial" font-size="9" font-weight="normal" text-anchor="middle" x="430.0" y="212.0">480V | Emergency</text><text fill="#ef4444" font-family="Arial" font-size="9" font-weight="normal" text-anchor="middle" x="430.0" y="225.0">Auto-Start</text><text fill="#6b7280" font-family="Arial" font-size="7" text-anchor="middle" x="430.0" y="231">Layer 3 only</text></g><g><rect fill="#1a1a00" height="70" rx="4" ry="4" stroke="#fbbf24" stroke-width="1.5" width="150" x="510" y="165" /><text fill="#fbbf24" font-family="Arial" font-size="10" font-weight="bold" text-anchor="middle" x="585.0" y="186.0">FIRST SOLAR ARRAY</text><text fill="#fbbf24" font-family="Arial" font-size="9" font-weight="normal" text-anchor="middle" x="585.0" y="199.0">2.05 MW Rooftop</text><text fill="#fbbf24" font-family="Arial" font-size="9" font-weight="normal" text-anchor="middle" x="585.0" y="212.0">Series 7 TR1 Panels</text><text fill="#fbbf24" font-family="Arial" font-size="9" font-weight="normal" text-anchor="middle" x="585.0" y="225.0">952V DC Strings</text><text fill="#6b7280" font-family="Arial" font-size="7" text-anchor="middle" x="585.0" y="231">3,731 panels | All 4 buildings</text></g><line stroke="#22c55e" stroke-width="1.5" x1="107" x2="107" y1="235" y2="285" /><polygon fill="#22c55e" points="103,279 111,279 107,285" /><line stroke="#22c55e" stroke-width="1.5" x1="277" x2="277" y1="235" y2="285" /><polygon fill="#22c55e" points="273,279 281,279 277,285" /><line stroke="#ef4444" stroke-width="1.5" x1="430" x2="430" y1="235" y2="285" /><polygon fill="#ef4444" points="426,279 434,279 430,285" /><g><rect fill="#1a1a2e" height="55" rx="4" ry="4" stroke="#22c55e" stroke-width="1.5" width="330" x="30" y="285" /><text fill="#86efac" font-family="Arial" font-size="10" font-weight="bold" text-anchor="middle" x="195.0" y="305.0">PARALLELING SWITCHGEAR + ATS</text><text fill="#86efac" font-family="Arial" font-size="9" font-weight="normal" text-anchor="middle" x="195.0" y="318.0">Louisiana Cat Controls | Auto-Sync | Load Sharing</text><text fill="#86efac" font-family="Arial" font-size="9" font-weight="normal" text-anchor="middle" x="195.0" y="331.0">Both G3520C parallel to common 480V AC bus</text><text fill="#6b7280" font-family="Arial" font-size="7" text-anchor="middle" x="195.0" y="336">Automatic load balancing | Generator protection relays</text></g><g><rect fill="#1a1a2e" height="55" rx="4" ry="4" stroke="#ef4444" stroke-width="1.5" width="120" x="380" y="285" /><text fill="#fca5a5" font-family="Arial" font-size="10" font-weight="bold" text-anchor="middle" x="440.0" y="298.5">EMERGENCY</text><text fill="#fca5a5" font-family="Arial" font-size="9" font-weight="normal" text-anchor="middle" x="440.0" y="311.5">ATS</text><text fill="#fca5a5" font-family="Arial" font-size="9" font-weight="normal" text-anchor="middle" x="440.0" y="324.5">Diesel Auto</text><text fill="#fca5a5" font-family="Arial" font-size="9" font-weight="normal" text-anchor="middle" x="440.0" y="337.5">Transfer</text></g><line stroke="#fbbf24" stroke-width="1.5" x1="585" x2="585" y1="235" y2="285" /><polygon fill="#fbbf24" points="581,279 589,279 585,285" /><g><rect fill="#1a1a2e" height="55" rx="4" ry="4" stroke="#fbbf24" stroke-width="1.5" width="120" x="520" y="285" /><text fill="#fbbf24" font-family="Arial" font-size="10" font-weight="bold" text-anchor="middle" x="580.0" y="298.5">SOLAR</text><text fill="#fbbf24" font-family="Arial" font-size="9" font-weight="normal" text-anchor="middle" x="580.0" y="311.5">COMBINER</text><text fill="#fbbf24" font-family="Arial" font-size="9" font-weight="normal" text-anchor="middle" x="580.0" y="324.5">BOX</text><text fill="#fbbf24" font-family="Arial" font-size="9" font-weight="normal" text-anchor="middle" x="580.0" y="337.5">String Fusing</text></g><line stroke="#ff6b35" stroke-width="1.5" x1="195" x2="195" y1="340" y2="385" /><polygon fill="#ff6b35" points="191,379 199,379 195,385" /><line stroke="#ff6b35" stroke-width="1.5" x1="440" x2="440" y1="340" y2="385" /><polygon fill="#ff6b35" points="436,379 444,379 440,385" /><line stroke="#ff6b35" stroke-width="1.5" x1="580" x2="580" y1="340" y2="385" /><polygon fill="#ff6b35" points="576,379 584,379 580,385" /><rect fill="#ff6b35" height="6" rx="2" width="780" x="30" y="382" /><text fill="#ff6b35" font-family="Arial" font-size="10" font-weight="bold" text-anchor="middle" x="420" y="375">480V AC DISTRIBUTION BUS</text><line stroke="#ef4444" stroke-width="1.5" x1="730" x2="730" y1="130" y2="365" /><text fill="#ef4444" font-family="Arial" font-size="7" x="740" y="360">SELL-BACK</text><text fill="#ef4444" font-family="Arial" font-size="7" x="740" y="370">to LUS</text><line stroke="#ff6b35" stroke-width="1.5" x1="200" x2="200" y1="388" y2="420" /><polygon fill="#ff6b35" points="196,414 204,414 200,420" /><line stroke="#ff6b35" stroke-width="1.5" x1="450" x2="450" y1="388" y2="420" /><polygon fill="#ff6b35" points="446,414 454,414 450,420" /><g><rect fill="#1a1a2e" height="45" rx="4" ry="4" stroke="#ff6b35" stroke-width="1.5" width="150" x="130" y="420" /><text fill="#ff6b35" font-family="Arial" font-size="9" font-weight="bold" text-anchor="middle" x="205.0" y="435.0">REVENUE METER</text><text fill="#ff6b35" font-family="Arial" font-size="8" font-weight="normal" text-anchor="middle" x="205.0" y="448.0">+ PROTECTION</text><text fill="#ff6b35" font-family="Arial" font-size="8" font-weight="normal" text-anchor="middle" x="205.0" y="461.0">Relays | CT/PT</text></g><g><rect fill="#1a1a2e" height="45" rx="4" ry="4" stroke="#ff6b35" stroke-width="1.5" width="150" x="380" y="420" /><text fill="#ff6b35" font-family="Arial" font-size="9" font-weight="bold" text-anchor="middle" x="455.0" y="435.0">MAIN BREAKER</text><text fill="#ff6b35" font-family="Arial" font-size="8" font-weight="normal" text-anchor="middle" x="455.0" y="448.0">+ DISCONNECT</text><text fill="#ff6b35" font-family="Arial" font-size="8" font-weight="normal" text-anchor="middle" x="455.0" y="461.0">480V Rated</text></g><line stroke="#ff6b35" stroke-width="1.5" x1="200" x2="200" y1="465" y2="510" /><polygon fill="#ff6b35" points="196,504 204,504 200,510" /><line stroke="#ff6b35" stroke-width="1.5" x1="450" x2="450" y1="465" y2="510" /><polygon fill="#ff6b35" points="446,504 454,504 450,510" /><g><rect fill="#1a1a2e" height="65" rx="4" ry="4" stroke="#8b5cf6" stroke-width="1.5" width="250" x="80" y="510" /><text fill="#c4b5fd" font-family="Arial" font-size="10" font-weight="bold" text-anchor="middle" x="205.0" y="528.5">EATON BEAM RUBIN DSX</text><text fill="#c4b5fd" font-family="Arial" font-size="9" font-weight="normal" text-anchor="middle" x="205.0" y="541.5">AC/DC RECTIFIER #1</text><text fill="#c4b5fd" font-family="Arial" font-size="9" font-weight="normal" text-anchor="middle" x="205.0" y="554.5">480V AC -&gt; 800V DC</text><text fill="#c4b5fd" font-family="Arial" font-size="9" font-weight="normal" text-anchor="middle" x="205.0" y="567.5">96%+ Conversion Efficiency</text><text fill="#6b7280" font-family="Arial" font-size="7" text-anchor="middle" x="205.0" y="571">Grid-to-chip platform | Modular</text></g><g><rect fill="#1a1a2e" height="65" rx="4" ry="4" stroke="#8b5cf6" stroke-width="1.5" width="250" x="370" y="510" /><text fill="#c4b5fd" font-family="Arial" font-size="10" font-weight="bold" text-anchor="middle" x="495.0" y="528.5">EATON BEAM RUBIN DSX</text><text fill="#c4b5fd" font-family="Arial" font-size="9" font-weight="normal" text-anchor="middle" x="495.0" y="541.5">AC/DC RECTIFIER #2</text><text fill="#c4b5fd" font-family="Arial" font-size="9" font-weight="normal" text-anchor="middle" x="495.0" y="554.5">480V AC -&gt; 800V DC</text><text fill="#c4b5fd" font-family="Arial" font-size="9" font-weight="normal" text-anchor="middle" x="495.0" y="567.5">N+1 Redundant Module</text><text fill="#6b7280" font-family="Arial" font-size="7" text-anchor="middle" x="495.0" y="571">Automatic failover</text></g><polyline fill="none" points="580,340 580,355 710,355 710,510" stroke="#fbbf24" stroke-width="2" /><g><rect fill="#1a1a2e" height="65" rx="4" ry="4" stroke="#fbbf24" stroke-width="1.5" width="180" x="660" y="510" /><text fill="#fbbf24" font-family="Arial" font-size="10" font-weight="bold" text-anchor="middle" x="750.0" y="528.5">DC-DC BUCK</text><text fill="#fbbf24" font-family="Arial" font-size="9" font-weight="normal" text-anchor="middle" x="750.0" y="541.5">CONVERTER</text><text fill="#fbbf24" font-family="Arial" font-size="9" font-weight="normal" text-anchor="middle" x="750.0" y="554.5">952V String -&gt; 800V Bus</text><text fill="#fbbf24" font-family="Arial" font-size="9" font-weight="normal" text-anchor="middle" x="750.0" y="567.5">97% Efficiency</text><text fill="#6b7280" font-family="Arial" font-size="7" text-anchor="middle" x="750.0" y="571">Bypasses AC entirely | Solar DC-Direct</text></g><line stroke="#8b5cf6" stroke-width="1.5" x1="205" x2="205" y1="575" y2="620" /><polygon fill="#8b5cf6" points="201,614 209,614 205,620" /><line stroke="#8b5cf6" stroke-width="1.5" x1="495" x2="495" y1="575" y2="620" /><polygon fill="#8b5cf6" points="491,614 499,614 495,620" /><line stroke="#8b5cf6" stroke-width="1.5" x1="750" x2="750" y1="575" y2="620" /><polygon fill="#8b5cf6" points="746,614 754,614 750,620" /><rect fill="#8b5cf6" height="6" rx="2" width="810" x="30" y="617" /><text fill="#8b5cf6" font-family="Arial" font-size="10" font-weight="bold" text-anchor="middle" x="435" y="610">800V DC MAIN DISTRIBUTION BUS — NVIDIA DSX REFERENCE</text><line stroke="#8b5cf6" stroke-width="1.5" x1="90" x2="90" y1="623" y2="635" /><g><rect fill="#1a1a2e" height="55" rx="4" ry="4" stroke="#3b82f6" stroke-width="1.5" width="120" x="30" y="635" /><text fill="#93c5fd" font-family="Arial" font-size="10" font-weight="bold" text-anchor="middle" x="90.0" y="648.5">EATON xStorage</text><text fill="#93c5fd" font-family="Arial" font-size="9" font-weight="normal" text-anchor="middle" x="90.0" y="661.5">BATTERY (BESS)</text><text fill="#93c5fd" font-family="Arial" font-size="9" font-weight="normal" text-anchor="middle" x="90.0" y="674.5">800V DC Native</text><text fill="#93c5fd" font-family="Arial" font-size="9" font-weight="normal" text-anchor="middle" x="90.0" y="687.5">Ride-Through</text><text fill="#6b7280" font-family="Arial" font-size="7" text-anchor="middle" x="90.0" y="686">Peak shaving | Reserve</text></g><line stroke="#8b5cf6" stroke-width="1.5" x1="250" x2="250" y1="623" y2="680" /><polygon fill="#8b5cf6" points="246,674 254,674 250,680" /><g><rect fill="#1a1a2e" height="35" rx="4" ry="4" stroke="#8b5cf6" stroke-width="1.5" width="100" x="200" y="680" /><text fill="#c4b5fd" font-family="Arial" font-size="8" font-weight="bold" text-anchor="middle" x="250.0" y="696.5">EATON BUSWAY</text><text fill="#c4b5fd" font-family="Arial" font-size="7" font-weight="normal" text-anchor="middle" x="250.0" y="709.5">Rack 1-2</text></g><line stroke="#8b5cf6" stroke-width="1.5" x1="450" x2="450" y1="623" y2="680" /><polygon fill="#8b5cf6" points="446,674 454,674 450,680" /><g><rect fill="#1a1a2e" height="35" rx="4" ry="4" stroke="#8b5cf6" stroke-width="1.5" width="100" x="400" y="680" /><text fill="#c4b5fd" font-family="Arial" font-size="8" font-weight="bold" text-anchor="middle" x="450.0" y="696.5">EATON BUSWAY</text><text fill="#c4b5fd" font-family="Arial" font-size="7" font-weight="normal" text-anchor="middle" x="450.0" y="709.5">Rack 3-4</text></g><line stroke="#8b5cf6" stroke-width="1.5" x1="650" x2="650" y1="623" y2="680" /><polygon fill="#8b5cf6" points="646,674 654,674 650,680" /><g><rect fill="#1a1a2e" height="35" rx="4" ry="4" stroke="#8b5cf6" stroke-width="1.5" width="100" x="600" y="680" /><text fill="#c4b5fd" font-family="Arial" font-size="8" font-weight="bold" text-anchor="middle" x="650.0" y="696.5">EATON BUSWAY</text><text fill="#c4b5fd" font-family="Arial" font-size="7" font-weight="normal" text-anchor="middle" x="650.0" y="709.5">Expansion</text></g><line stroke="#8b5cf6" stroke-width="1.5" x1="250" x2="250" y1="715" y2="740" /><polygon fill="#8b5cf6" points="246,734 254,734 250,740" /><g><rect fill="#1a1a2e" height="30" rx="4" ry="4" stroke="#8b5cf6" stroke-width="1.5" width="80" x="210" y="740" /><text fill="#c4b5fd" font-family="Arial" font-size="7" font-weight="bold" text-anchor="middle" x="250.0" y="754.0">RACK PDU</text><text fill="#c4b5fd" font-family="Arial" font-size="6" font-weight="normal" text-anchor="middle" x="250.0" y="767.0">800V DC</text></g><line stroke="#76b900" stroke-width="1.5" x1="250" x2="250" y1="770" y2="790" /><polygon fill="#76b900" points="246,784 254,784 250,790" /><g><rect fill="#1a1a2e" height="30" rx="4" ry="4" stroke="#76b900" stroke-width="1.5" width="90" x="205" y="790" /><text fill="#76b900" font-family="Arial" font-size="7" font-weight="bold" text-anchor="middle" x="250.0" y="804.0">64:1 LLC DC-DC</text><text fill="#76b900" font-family="Arial" font-size="6" font-weight="normal" text-anchor="middle" x="250.0" y="817.0">800V -&gt; 12.5V</text><text fill="#6b7280" font-family="Arial" font-size="7" text-anchor="middle" x="250.0" y="816">99%+ eff</text></g><line stroke="#76b900" stroke-width="1.5" x1="250" x2="250" y1="820" y2="840" /><polygon fill="#76b900" points="246,834 254,834 250,840" /><line stroke="#8b5cf6" stroke-width="1.5" x1="450" x2="450" y1="715" y2="740" /><polygon fill="#8b5cf6" points="446,734 454,734 450,740" /><g><rect fill="#1a1a2e" height="30" rx="4" ry="4" stroke="#8b5cf6" stroke-width="1.5" width="80" x="410" y="740" /><text fill="#c4b5fd" font-family="Arial" font-size="7" font-weight="bold" text-anchor="middle" x="450.0" y="754.0">RACK PDU</text><text fill="#c4b5fd" font-family="Arial" font-size="6" font-weight="normal" text-anchor="middle" x="450.0" y="767.0">800V DC</text></g><line stroke="#76b900" stroke-width="1.5" x1="450" x2="450" y1="770" y2="790" /><polygon fill="#76b900" points="446,784 454,784 450,790" /><g><rect fill="#1a1a2e" height="30" rx="4" ry="4" stroke="#76b900" stroke-width="1.5" width="90" x="405" y="790" /><text fill="#76b900" font-family="Arial" font-size="7" font-weight="bold" text-anchor="middle" x="450.0" y="804.0">64:1 LLC DC-DC</text><text fill="#76b900" font-family="Arial" font-size="6" font-weight="normal" text-anchor="middle" x="450.0" y="817.0">800V -&gt; 12.5V</text><text fill="#6b7280" font-family="Arial" font-size="7" text-anchor="middle" x="450.0" y="816">99%+ eff</text></g><line stroke="#76b900" stroke-width="1.5" x1="450" x2="450" y1="820" y2="840" /><polygon fill="#76b900" points="446,834 454,834 450,840" /><g><rect fill="#111a00" height="50" rx="4" ry="4" stroke="#76b900" stroke-width="1.5" width="110" x="195" y="840" /><text fill="#76b900" font-family="Arial" font-size="8" font-weight="bold" text-anchor="middle" x="250.0" y="857.5">NVL72 x2</text><text fill="#76b900" font-family="Arial" font-size="7" font-weight="normal" text-anchor="middle" x="250.0" y="870.5">RACKS 1-2</text><text fill="#76b900" font-family="Arial" font-size="7" font-weight="normal" text-anchor="middle" x="250.0" y="883.5">260 kW</text><text fill="#6b7280" font-family="Arial" font-size="7" text-anchor="middle" x="250.0" y="886">Vera Rubin | 130 kW | Liquid Cooled</text></g><g><rect fill="#111a00" height="50" rx="4" ry="4" stroke="#76b900" stroke-width="1.5" width="110" x="395" y="840" /><text fill="#76b900" font-family="Arial" font-size="8" font-weight="bold" text-anchor="middle" x="450.0" y="857.5">NVL72 x2</text><text fill="#76b900" font-family="Arial" font-size="7" font-weight="normal" text-anchor="middle" x="450.0" y="870.5">RACKS 3-4</text><text fill="#76b900" font-family="Arial" font-size="7" font-weight="normal" text-anchor="middle" x="450.0" y="883.5">260 kW</text><text fill="#6b7280" font-family="Arial" font-size="7" text-anchor="middle" x="450.0" y="886">Vera Rubin | 130 kW | Liquid Cooled</text></g><g><rect fill="#1a1a2e" height="150" rx="4" ry="4" stroke="#333" stroke-width="1.5" width="110" x="595" y="740" /><text fill="#555" font-family="Arial" font-size="8" font-weight="bold" text-anchor="middle" x="650.0" y="775.0">EXPANSION</text><text fill="#555" font-family="Arial" font-size="7" font-weight="normal" text-anchor="middle" x="650.0" y="788.0">PHASE 2</text><text fill="#555" font-family="Arial" font-size="7" font-weight="normal" text-anchor="middle" x="650.0" y="801.0" /><text fill="#555" font-family="Arial" font-size="7" font-weight="normal" text-anchor="middle" x="650.0" y="814.0">Up to 32</text><text fill="#555" font-family="Arial" font-size="7" font-weight="normal" text-anchor="middle" x="650.0" y="827.0">more racks</text><text fill="#555" font-family="Arial" font-size="7" font-weight="normal" text-anchor="middle" x="650.0" y="840.0">in Middle Low</text><text fill="#555" font-family="Arial" font-size="7" font-weight="normal" text-anchor="middle" x="650.0" y="853.0" /><text fill="#555" font-family="Arial" font-size="7" font-weight="normal" text-anchor="middle" x="650.0" y="866.0">Pre-wired</text></g><rect fill="#111318" height="820" rx="8" stroke="#1e2230" stroke-width="1" width="490" x="880" y="75" /><text fill="#f0f2f5" font-family="Arial" font-size="12" font-weight="bold" text-anchor="middle" x="1125" y="95">4-LAYER POWER HIERARCHY</text><rect fill="#111318" height="25" rx="4" stroke="#fbbf24" stroke-width="1" width="460" x="895" y="115" /><text fill="#fbbf24" font-family="Arial" font-size="11" font-weight="bold" x="905" y="131">LAYER 1: SOLAR</text><text fill="#fbbf24" font-family="Arial" font-size="8" font-weight="bold" text-anchor="end" x="1350" y="131">PRIMARY OFFSET</text><text fill="#9ca3af" font-family="Arial" font-size="8" x="910" y="153">  First Solar Series 7 TR1 panels</text><text fill="#9ca3af" font-family="Arial" font-size="8" x="910" y="166">  Rooftop arrays across all 4 buildings</text><text fill="#9ca3af" font-family="Arial" font-size="8" x="910" y="179">  3,731 panels = 2.05 MW total</text><text fill="#9ca3af" font-family="Arial" font-size="8" x="910" y="192">  DC-Direct to 800V bus (97% eff)</text><text fill="#9ca3af" font-family="Arial" font-size="8" x="910" y="205">  Made 30 miles away in New Iberia, LA</text><text fill="#9ca3af" font-family="Arial" font-size="8" x="910" y="218">  0.3%/yr degradation (industry best)</text><text fill="#9ca3af" font-family="Arial" font-size="8" x="910" y="231">  30-year manufacturer warranty</text><rect fill="#111318" height="25" rx="4" stroke="#22c55e" stroke-width="1" width="460" x="895" y="251" /><text fill="#22c55e" font-family="Arial" font-size="11" font-weight="bold" x="905" y="267">LAYER 2: NATURAL GAS</text><text fill="#22c55e" font-family="Arial" font-size="8" font-weight="bold" text-anchor="end" x="1350" y="267">BACKBONE — ALWAYS RUNNING</text><text fill="#9ca3af" font-family="Arial" font-size="8" x="910" y="289">  Cat G3520C generators (1.5 MW each)</text><text fill="#9ca3af" font-family="Arial" font-size="8" x="910" y="302">  2 units: 3.0 MW total (N+1 redundant)</text><text fill="#9ca3af" font-family="Arial" font-size="8" x="910" y="315">  ATMOS Energy trunk line on property</text><text fill="#9ca3af" font-family="Arial" font-size="8" x="910" y="328">  Henry Hub pricing = cheapest in USA</text><text fill="#9ca3af" font-family="Arial" font-size="8" x="910" y="341">  480V AC output to Eaton rectifiers</text><text fill="#9ca3af" font-family="Arial" font-size="8" x="910" y="354">  Louisiana Cat service contract</text><text fill="#9ca3af" font-family="Arial" font-size="8" x="910" y="367">  Carries FULL load 24/7/365</text><rect fill="#111318" height="25" rx="4" stroke="#ef4444" stroke-width="1" width="460" x="895" y="387" /><text fill="#ef4444" font-family="Arial" font-size="11" font-weight="bold" x="905" y="403">LAYER 3: DIESEL</text><text fill="#ef4444" font-family="Arial" font-size="8" font-weight="bold" text-anchor="end" x="1350" y="403">EMERGENCY ONLY</text><text fill="#9ca3af" font-family="Arial" font-size="8" x="910" y="425">  Diesel emergency generator</text><text fill="#9ca3af" font-family="Arial" font-size="8" x="910" y="438">  On-site fuel storage</text><text fill="#9ca3af" font-family="Arial" font-size="8" x="910" y="451">  Auto-start on dual gas failure</text><text fill="#9ca3af" font-family="Arial" font-size="8" x="910" y="464">  Pipeline-independent fuel source</text><text fill="#9ca3af" font-family="Arial" font-size="8" x="910" y="477">  Bridges until gas restored</text><text fill="#9ca3af" font-family="Arial" font-size="8" x="910" y="490">  Required for NVIDIA certification</text><rect fill="#111318" height="25" rx="4" stroke="#ef4444" stroke-width="1" width="460" x="895" y="510" /><text fill="#ef4444" font-family="Arial" font-size="11" font-weight="bold" x="905" y="526">LAYER 4: GRID (LUS)</text><text fill="#ef4444" font-family="Arial" font-size="8" font-weight="bold" text-anchor="end" x="1350" y="526">SELL-BACK ONLY — NOT A SOURCE</text><text fill="#9ca3af" font-family="Arial" font-size="8" x="910" y="548">  Lafayette Utilities System (LUS)</text><text fill="#9ca3af" font-family="Arial" font-size="8" x="910" y="561">  480V service connection</text><text fill="#9ca3af" font-family="Arial" font-size="8" x="910" y="574">  Excess power sold BACK to grid</text><text fill="#9ca3af" font-family="Arial" font-size="8" x="910" y="587">  Revenue generation, not consumption</text><text fill="#9ca3af" font-family="Arial" font-size="8" x="910" y="600">  Grid is NEVER used to power GPUs</text><text fill="#9ca3af" font-family="Arial" font-size="8" x="910" y="613">  Cloudy day = gas carries the load</text><rect fill="#111318" height="40" rx="6" stroke="#1e2230" width="1340" x="30" y="920" /><text fill="#6b7280" font-family="Arial" font-size="7" font-weight="bold" x="55" y="934">GAS GENERATION</text><text fill="#CE181E" font-family="Arial" font-size="10" font-weight="bold" x="55" y="948">3.0 MW (N+1)</text><text fill="#6b7280" font-family="Arial" font-size="7" font-weight="bold" x="245" y="934">SOLAR</text><text fill="#CE181E" font-family="Arial" font-size="10" font-weight="bold" x="245" y="948">2.05 MW Rooftop</text><text fill="#6b7280" font-family="Arial" font-size="7" font-weight="bold" x="435" y="934">IT LOAD</text><text fill="#CE181E" font-family="Arial" font-size="10" font-weight="bold" x="435" y="948">520 kW</text><text fill="#6b7280" font-family="Arial" font-size="7" font-weight="bold" x="625" y="934">TOTAL FACILITY</text><text fill="#CE181E" font-family="Arial" font-size="10" font-weight="bold" x="625" y="948">~650 kW</text><text fill="#6b7280" font-family="Arial" font-size="7" font-weight="bold" x="815" y="934">GENSET LOAD</text><text fill="#CE181E" font-family="Arial" font-size="10" font-weight="bold" x="815" y="948">~22% each</text><text fill="#6b7280" font-family="Arial" font-size="7" font-weight="bold" x="1005" y="934">RACKS</text><text fill="#CE181E" font-family="Arial" font-size="10" font-weight="bold" x="1005" y="948">4 NVL72</text><text fill="#6b7280" font-family="Arial" font-size="7" font-weight="bold" x="1195" y="934">GPUs</text><text fill="#CE181E" font-family="Arial" font-size="10" font-weight="bold" x="1195" y="948">288</text><text fill="#4b5563" font-family="Arial" font-size="7" x="35" y="975">1. Gas is the BACKBONE (Layer 2) — always running, carries full facility load 24/7. Solar offsets but does not replace gas.</text><text fill="#4b5563" font-family="Arial" font-size="7" x="35" y="987">2. Grid (LUS) is SELL-BACK ONLY (Layer 4) — excess generation returns to LUS. GPUs NEVER run on grid power.</text><text fill="#4b5563" font-family="Arial" font-size="7" x="35" y="999">3. N+1 generator redundancy: 2x G3520C for single-unit load. Either unit offline = zero impact to operations.</text><text fill="#4b5563" font-family="Arial" font-size="7" x="35" y="1011">4. Solar DC-Direct bypasses all AC conversion — 952V strings buck to 800V, feeds DSX bus at 97% efficiency.</text><text fill="#4b5563" font-family="Arial" font-size="7" x="35" y="1023">5. BESS provides ride-through during generator sync/transfer events + peak shaving for GPU training spikes.</text><text fill="#4b5563" font-family="Arial" font-size="7" x="35" y="1035">6. All equipment American-made: Cat generators (Louisiana Cat), Eaton power distribution, First Solar panels.</text></svg>