<?xml version="1.0" encoding="UTF-8"?>
<svg xmlns="http://www.w3.org/2000/svg" viewBox="0 0 1400 600" width="1400" height="600" style="background-color:white; font-family:Arial,sans-serif;">

  <defs>
    <marker id="arr" markerWidth="8" markerHeight="6" refX="8" refY="3" orient="auto">
      <polygon points="0 0, 8 3, 0 6" fill="#444"/>
    </marker>
    <marker id="arrL" markerWidth="8" markerHeight="6" refX="0" refY="3" orient="auto-start-reverse">
      <polygon points="8 0, 0 3, 8 6" fill="#444"/>
    </marker>
  </defs>

  <!-- White background -->
  <rect width="1400" height="600" fill="white"/>

  <!-- ====== TITLE BLOCK ====== -->
  <rect x="0" y="0" width="1400" height="58" fill="#1c2841"/>
  <text x="700" y="24" text-anchor="middle" font-size="17" font-weight="bold" fill="white" letter-spacing="1">ADC PURE DC AI FACTORY CASSETTE</text>
  <text x="700" y="46" text-anchor="middle" font-size="10.5" fill="#8ab" letter-spacing="0.4">INTERIOR FLOOR PLAN — TOP VIEW  ·  Scale: 1 ft = 30 px  ·  Enclosure: 40' × 8' × 9'6"  ·  CONFIDENTIAL — ADC / FIBREBOND  ·  2026-04-08</text>

  <!-- ====== DIMENSION LINES (above enclosure) ====== -->
  <!-- 40ft total -->
  <line x1="100" y1="70" x2="1300" y2="70" stroke="#444" stroke-width="1" marker-start="url(#arrL)" marker-end="url(#arr)"/>
  <line x1="100" y1="65" x2="100" y2="75" stroke="#444" stroke-width="1"/>
  <line x1="1300" y1="65" x2="1300" y2="75" stroke="#444" stroke-width="1"/>
  <rect x="625" y="62" width="150" height="15" fill="white"/>
  <text x="700" y="74" text-anchor="middle" font-size="11" fill="#222" font-weight="bold">40 ft  (12.19 m)</text>
  <!-- Zone dims -->
  <line x1="100" y1="81" x2="375" y2="81" stroke="#777" stroke-width="0.8" marker-start="url(#arrL)" marker-end="url(#arr)"/>
  <text x="237" y="90" text-anchor="middle" font-size="8.5" fill="#555">9 ft  MECH BAY</text>
  <line x1="375" y1="81" x2="1185" y2="81" stroke="#777" stroke-width="0.8" marker-start="url(#arrL)" marker-end="url(#arr)"/>
  <text x="780" y="90" text-anchor="middle" font-size="8.5" fill="#555">27 ft  RACK ROW (10 × NVL72)</text>
  <line x1="1185" y1="81" x2="1300" y2="81" stroke="#777" stroke-width="0.8" marker-start="url(#arrL)" marker-end="url(#arr)"/>
  <text x="1242" y="90" text-anchor="middle" font-size="8.5" fill="#555">~4 ft</text>

  <!-- ====== ENCLOSURE SHELL ====== -->
  <rect x="100" y="95" width="1200" height="240" fill="none" stroke="#111" stroke-width="5"/>

  <!-- ISO corner castings -->
  <rect x="100" y="95" width="15" height="15" fill="#555" stroke="#222" stroke-width="1"/>
  <rect x="1285" y="95" width="15" height="15" fill="#555" stroke="#222" stroke-width="1"/>
  <rect x="100" y="320" width="15" height="15" fill="#555" stroke="#222" stroke-width="1"/>
  <rect x="1285" y="320" width="15" height="15" fill="#555" stroke="#222" stroke-width="1"/>
  <text x="130" y="107" font-size="7" fill="#666">ISO CORNER CASTING (TYP.)</text>
  <line x1="128" y1="104" x2="114" y2="103" stroke="#666" stroke-width="0.8"/>

  <!-- Access panels — TOP wall (4 panels, green dashed) -->
  <line x1="375" y1="95" x2="578" y2="95" stroke="#27ae60" stroke-width="5" stroke-dasharray="14,7"/>
  <line x1="578" y1="95" x2="780" y2="95" stroke="#27ae60" stroke-width="5" stroke-dasharray="14,7"/>
  <line x1="780" y1="95" x2="982" y2="95" stroke="#27ae60" stroke-width="5" stroke-dasharray="14,7"/>
  <line x1="982" y1="95" x2="1185" y2="95" stroke="#27ae60" stroke-width="5" stroke-dasharray="14,7"/>
  <!-- Panel labels above -->
  <text x="476" y="93" text-anchor="middle" font-size="7" fill="#27ae60">PANEL 1</text>
  <text x="679" y="93" text-anchor="middle" font-size="7" fill="#27ae60">PANEL 2</text>
  <text x="881" y="93" text-anchor="middle" font-size="7" fill="#27ae60">PANEL 3</text>
  <text x="1083" y="93" text-anchor="middle" font-size="7" fill="#27ae60">PANEL 4</text>

  <!-- Access panels — BOTTOM wall (4 panels, green dashed) -->
  <line x1="375" y1="335" x2="578" y2="335" stroke="#27ae60" stroke-width="5" stroke-dasharray="14,7"/>
  <line x1="578" y1="335" x2="780" y2="335" stroke="#27ae60" stroke-width="5" stroke-dasharray="14,7"/>
  <line x1="780" y1="335" x2="982" y2="335" stroke="#27ae60" stroke-width="5" stroke-dasharray="14,7"/>
  <line x1="982" y1="335" x2="1185" y2="335" stroke="#27ae60" stroke-width="5" stroke-dasharray="14,7"/>
  <!-- Panel labels below -->
  <text x="476" y="344" text-anchor="middle" font-size="7" fill="#27ae60">PANEL 5</text>
  <text x="679" y="344" text-anchor="middle" font-size="7" fill="#27ae60">PANEL 6</text>
  <text x="881" y="344" text-anchor="middle" font-size="7" fill="#27ae60">PANEL 7</text>
  <text x="1083" y="344" text-anchor="middle" font-size="7" fill="#27ae60">PANEL 8</text>

  <!-- Zone dividers -->
  <line x1="375" y1="100" x2="375" y2="330" stroke="#555" stroke-width="2" stroke-dasharray="8,5"/>
  <line x1="1185" y1="100" x2="1185" y2="330" stroke="#555" stroke-width="2" stroke-dasharray="8,5"/>

  <!-- Zone background fills -->
  <rect x="105" y="100" width="270" height="230" fill="#eef5ff" opacity="0.55"/>
  <rect x="1190" y="100" width="105" height="230" fill="#f4f4f4" opacity="0.8"/>

  <!-- ====== OVERHEAD UTILITIES (projected, running full length overhead) ====== -->

  <!-- 800V DC Copper Busbar — full length -->
  <line x1="105" y1="110" x2="1185" y2="110" stroke="#c8960c" stroke-width="5"/>
  <text x="108" y="107" font-size="7.5" fill="#8a6500" font-weight="bold">800V DC COPPER BUSBAR</text>

  <!-- Cold Coolant Supply Header — rack row + mech bay -->
  <line x1="375" y1="121" x2="1185" y2="121" stroke="#1565c0" stroke-width="3.5"/>
  <!-- Arrow head showing direction -->
  <polygon points="1182,117 1192,121 1182,125" fill="#1565c0"/>
  <text x="380" y="118" font-size="7.5" fill="#1565c0" font-weight="bold">COLD SUPPLY →</text>

  <!-- Warm Coolant Return Header — rack row -->
  <line x1="375" y1="132" x2="1185" y2="132" stroke="#b71c1c" stroke-width="3.5"/>
  <polygon points="378,128 368,132 378,136" fill="#b71c1c"/>
  <text x="380" y="129" font-size="7.5" fill="#b71c1c" font-weight="bold">← WARM RETURN</text>

  <!-- VESDA sampling tube 1 (front) -->
  <line x1="375" y1="143" x2="1185" y2="143" stroke="#888" stroke-width="1.5" stroke-dasharray="7,4"/>

  <!-- Fire suppression manifold (overhead) -->
  <line x1="375" y1="152" x2="1185" y2="152" stroke="#e65100" stroke-width="1.5" stroke-dasharray="4,4"/>

  <!-- VESDA sampling tube 2 (rear) -->
  <line x1="375" y1="319" x2="1185" y2="319" stroke="#888" stroke-width="1.5" stroke-dasharray="7,4"/>

  <!-- Flexible drops — cold supply (blue, at each rack center) -->
  <!-- Rack centers x: 429,507,585,663,741,819,897,975,1053,1131 -->
  <line x1="429" y1="121" x2="429" y2="174" stroke="#1565c0" stroke-width="1.5" stroke-dasharray="3,2"/>
  <line x1="507" y1="121" x2="507" y2="174" stroke="#1565c0" stroke-width="1.5" stroke-dasharray="3,2"/>
  <line x1="585" y1="121" x2="585" y2="174" stroke="#1565c0" stroke-width="1.5" stroke-dasharray="3,2"/>
  <line x1="663" y1="121" x2="663" y2="174" stroke="#1565c0" stroke-width="1.5" stroke-dasharray="3,2"/>
  <line x1="741" y1="121" x2="741" y2="174" stroke="#1565c0" stroke-width="1.5" stroke-dasharray="3,2"/>
  <line x1="819" y1="121" x2="819" y2="174" stroke="#1565c0" stroke-width="1.5" stroke-dasharray="3,2"/>
  <line x1="897" y1="121" x2="897" y2="174" stroke="#1565c0" stroke-width="1.5" stroke-dasharray="3,2"/>
  <line x1="975" y1="121" x2="975" y2="174" stroke="#1565c0" stroke-width="1.5" stroke-dasharray="3,2"/>
  <line x1="1053" y1="121" x2="1053" y2="174" stroke="#1565c0" stroke-width="1.5" stroke-dasharray="3,2"/>
  <line x1="1131" y1="121" x2="1131" y2="174" stroke="#1565c0" stroke-width="1.5" stroke-dasharray="3,2"/>

  <!-- Flexible drops — warm return (red, offset +4px) -->
  <line x1="433" y1="132" x2="433" y2="174" stroke="#b71c1c" stroke-width="1.5" stroke-dasharray="3,2"/>
  <line x1="511" y1="132" x2="511" y2="174" stroke="#b71c1c" stroke-width="1.5" stroke-dasharray="3,2"/>
  <line x1="589" y1="132" x2="589" y2="174" stroke="#b71c1c" stroke-width="1.5" stroke-dasharray="3,2"/>
  <line x1="667" y1="132" x2="667" y2="174" stroke="#b71c1c" stroke-width="1.5" stroke-dasharray="3,2"/>
  <line x1="745" y1="132" x2="745" y2="174" stroke="#b71c1c" stroke-width="1.5" stroke-dasharray="3,2"/>
  <line x1="823" y1="132" x2="823" y2="174" stroke="#b71c1c" stroke-width="1.5" stroke-dasharray="3,2"/>
  <line x1="901" y1="132" x2="901" y2="174" stroke="#b71c1c" stroke-width="1.5" stroke-dasharray="3,2"/>
  <line x1="979" y1="132" x2="979" y2="174" stroke="#b71c1c" stroke-width="1.5" stroke-dasharray="3,2"/>
  <line x1="1057" y1="132" x2="1057" y2="174" stroke="#b71c1c" stroke-width="1.5" stroke-dasharray="3,2"/>
  <line x1="1135" y1="132" x2="1135" y2="174" stroke="#b71c1c" stroke-width="1.5" stroke-dasharray="3,2"/>

  <!-- TraceTek leak detection cable (floor level, rear of rack row) -->
  <line x1="380" y1="309" x2="1182" y2="309" stroke="#6a1fbd" stroke-width="2" stroke-dasharray="6,3"/>

  <!-- ====== MECHANICAL BAY EQUIPMENT ====== -->

  <!-- CDU -->
  <rect x="112" y="107" width="100" height="110" rx="3" fill="#dbeeff" stroke="#1565c0" stroke-width="1.8"/>
  <text x="162" y="148" text-anchor="middle" font-size="9" font-weight="bold" fill="#0d3c73">CDU</text>
  <text x="162" y="161" text-anchor="middle" font-size="8" fill="#0d3c73">Boyd  2,000 kW</text>
  <text x="162" y="174" text-anchor="middle" font-size="8" fill="#0d3c73">N+1 Pumps</text>
  <text x="162" y="187" text-anchor="middle" font-size="7.5" fill="#0d3c73">Primary Loop</text>
  <text x="162" y="200" text-anchor="middle" font-size="7.5" fill="#0d3c73">&lt;=45°C supply</text>

  <!-- Pumps / HX -->
  <rect x="112" y="227" width="100" height="95" rx="3" fill="#dbeeff" stroke="#1565c0" stroke-width="1.8"/>
  <text x="162" y="258" text-anchor="middle" font-size="9" font-weight="bold" fill="#0d3c73">PUMPS / HX</text>
  <text x="162" y="272" text-anchor="middle" font-size="7.5" fill="#0d3c73">Secondary Loop</text>
  <text x="162" y="285" text-anchor="middle" font-size="7.5" fill="#0d3c73">to Dry Cooler /</text>
  <text x="162" y="298" text-anchor="middle" font-size="7.5" fill="#0d3c73">BAC TrilliumSeries</text>
  <text x="162" y="311" text-anchor="middle" font-size="7.5" fill="#0d3c73">~1,300 LPM flow</text>

  <!-- PDU / SSCB -->
  <rect x="222" y="107" width="80" height="122" rx="3" fill="#fef3d0" stroke="#c8960c" stroke-width="1.8"/>
  <text x="262" y="143" text-anchor="middle" font-size="9" font-weight="bold" fill="#6b4e00">PDU</text>
  <text x="262" y="156" text-anchor="middle" font-size="7.5" fill="#6b4e00">800V DC</text>
  <text x="262" y="169" text-anchor="middle" font-size="7.5" fill="#6b4e00">SSCB Prot.</text>
  <text x="262" y="182" text-anchor="middle" font-size="7.5" fill="#6b4e00">Main Disc.</text>
  <text x="262" y="195" text-anchor="middle" font-size="7.5" fill="#6b4e00">GF Prot.</text>
  <text x="262" y="208" text-anchor="middle" font-size="7.5" fill="#6b4e00">Metering</text>
  <text x="262" y="221" text-anchor="middle" font-size="7.5" fill="#6b4e00">NEC 210.13(B)</text>

  <!-- Munters -->
  <rect x="222" y="239" width="80" height="83" rx="3" fill="#e8f8ee" stroke="#2e7d32" stroke-width="1.8"/>
  <text x="262" y="267" text-anchor="middle" font-size="9" font-weight="bold" fill="#1a5c21">MUNTERS</text>
  <text x="262" y="280" text-anchor="middle" font-size="7.5" fill="#1a5c21">Desiccant</text>
  <text x="262" y="293" text-anchor="middle" font-size="7.5" fill="#1a5c21">Dehumid.</text>
  <text x="262" y="306" text-anchor="middle" font-size="7.5" fill="#1a5c21">&lt;=50% RH</text>

  <!-- QM9700 -->
  <rect x="312" y="107" width="56" height="76" rx="3" fill="#f3e8ff" stroke="#6a1fbd" stroke-width="1.8"/>
  <text x="340" y="134" text-anchor="middle" font-size="8" font-weight="bold" fill="#3d0a7a">QM9700</text>
  <text x="340" y="147" text-anchor="middle" font-size="7.5" fill="#3d0a7a">NDR IB</text>
  <text x="340" y="160" text-anchor="middle" font-size="7.5" fill="#3d0a7a">Switch</text>
  <text x="340" y="173" text-anchor="middle" font-size="7.5" fill="#3d0a7a">400 Gb/s</text>

  <!-- BMS / Jetson -->
  <rect x="312" y="193" width="56" height="65" rx="3" fill="#f3e8ff" stroke="#6a1fbd" stroke-width="1.8"/>
  <text x="340" y="217" text-anchor="middle" font-size="8" font-weight="bold" fill="#3d0a7a">JETSON</text>
  <text x="340" y="230" text-anchor="middle" font-size="7.5" fill="#3d0a7a">AGX Orin</text>
  <text x="340" y="243" text-anchor="middle" font-size="7.5" fill="#3d0a7a">BMS / AI</text>

  <!-- Novec Cylinders -->
  <rect x="312" y="268" width="56" height="55" rx="3" fill="#fde8e8" stroke="#b71c1c" stroke-width="1.8"/>
  <text x="340" y="289" text-anchor="middle" font-size="8" font-weight="bold" fill="#6a0000">NOVEC</text>
  <text x="340" y="302" text-anchor="middle" font-size="7.5" fill="#6a0000">1230</text>
  <text x="340" y="315" text-anchor="middle" font-size="7.5" fill="#6a0000">Cylinders</text>

  <!-- Mech bay zone label -->
  <text x="237" y="352" text-anchor="middle" font-size="10" font-weight="bold" fill="#222">MECHANICAL BAY</text>
  <text x="237" y="364" text-anchor="middle" font-size="9" fill="#555">9 ft  (CDU · PDU · Munters · BMS · Suppression)</text>

  <!-- ====== RACK ROW ====== -->

  <!-- Front aisle label -->
  <text x="780" y="166" text-anchor="middle" font-size="8" fill="#555" font-style="italic">FRONT AISLE — SERVICE ACCESS VIA TOP PANELS  (~2.5 ft)</text>

  <!-- 10 × NVL72 Racks -->
  <!-- R1 --><rect x="399" y="174" width="60" height="107" fill="#1e3a5f" stroke="#0a1828" stroke-width="1.5" rx="2"/>
  <text x="429" y="221" text-anchor="middle" font-size="7.5" fill="white" font-weight="bold">NVL72</text>
  <text x="429" y="234" text-anchor="middle" font-size="7" fill="#90b8e0">R1</text>
  <!-- R2 --><rect x="477" y="174" width="60" height="107" fill="#1e3a5f" stroke="#0a1828" stroke-width="1.5" rx="2"/>
  <text x="507" y="221" text-anchor="middle" font-size="7.5" fill="white" font-weight="bold">NVL72</text>
  <text x="507" y="234" text-anchor="middle" font-size="7" fill="#90b8e0">R2</text>
  <!-- R3 --><rect x="555" y="174" width="60" height="107" fill="#1e3a5f" stroke="#0a1828" stroke-width="1.5" rx="2"/>
  <text x="585" y="221" text-anchor="middle" font-size="7.5" fill="white" font-weight="bold">NVL72</text>
  <text x="585" y="234" text-anchor="middle" font-size="7" fill="#90b8e0">R3</text>
  <!-- R4 --><rect x="633" y="174" width="60" height="107" fill="#1e3a5f" stroke="#0a1828" stroke-width="1.5" rx="2"/>
  <text x="663" y="221" text-anchor="middle" font-size="7.5" fill="white" font-weight="bold">NVL72</text>
  <text x="663" y="234" text-anchor="middle" font-size="7" fill="#90b8e0">R4</text>
  <!-- R5 --><rect x="711" y="174" width="60" height="107" fill="#1e3a5f" stroke="#0a1828" stroke-width="1.5" rx="2"/>
  <text x="741" y="221" text-anchor="middle" font-size="7.5" fill="white" font-weight="bold">NVL72</text>
  <text x="741" y="234" text-anchor="middle" font-size="7" fill="#90b8e0">R5</text>
  <!-- R6 --><rect x="789" y="174" width="60" height="107" fill="#1e3a5f" stroke="#0a1828" stroke-width="1.5" rx="2"/>
  <text x="819" y="221" text-anchor="middle" font-size="7.5" fill="white" font-weight="bold">NVL72</text>
  <text x="819" y="234" text-anchor="middle" font-size="7" fill="#90b8e0">R6</text>
  <!-- R7 --><rect x="867" y="174" width="60" height="107" fill="#1e3a5f" stroke="#0a1828" stroke-width="1.5" rx="2"/>
  <text x="897" y="221" text-anchor="middle" font-size="7.5" fill="white" font-weight="bold">NVL72</text>
  <text x="897" y="234" text-anchor="middle" font-size="7" fill="#90b8e0">R7</text>
  <!-- R8 --><rect x="945" y="174" width="60" height="107" fill="#1e3a5f" stroke="#0a1828" stroke-width="1.5" rx="2"/>
  <text x="975" y="221" text-anchor="middle" font-size="7.5" fill="white" font-weight="bold">NVL72</text>
  <text x="975" y="234" text-anchor="middle" font-size="7" fill="#90b8e0">R8</text>
  <!-- R9 --><rect x="1023" y="174" width="60" height="107" fill="#1e3a5f" stroke="#0a1828" stroke-width="1.5" rx="2"/>
  <text x="1053" y="221" text-anchor="middle" font-size="7.5" fill="white" font-weight="bold">NVL72</text>
  <text x="1053" y="234" text-anchor="middle" font-size="7" fill="#90b8e0">R9</text>
  <!-- R10 --><rect x="1101" y="174" width="60" height="107" fill="#1e3a5f" stroke="#0a1828" stroke-width="1.5" rx="2"/>
  <text x="1131" y="221" text-anchor="middle" font-size="7.5" fill="white" font-weight="bold">NVL72</text>
  <text x="1131" y="234" text-anchor="middle" font-size="7" fill="#90b8e0">R10</text>

  <!-- ORV3 Sidecars (rear of rack row) -->
  <!-- ORV3-A: R1–R4, x=399 to 693, width=294 -->
  <rect x="399" y="285" width="294" height="19" fill="#4a3800" stroke="#c8960c" stroke-width="1.5" rx="2"/>
  <text x="546" y="298" text-anchor="middle" font-size="7.5" fill="#ffd700" font-weight="bold">ORV3-A  ·  R1–R4  ·  920 kW  ·  ±400V DC</text>
  <!-- ORV3-B: R5–R8, x=711 to 1005, width=294 -->
  <rect x="711" y="285" width="294" height="19" fill="#4a3800" stroke="#c8960c" stroke-width="1.5" rx="2"/>
  <text x="858" y="298" text-anchor="middle" font-size="7.5" fill="#ffd700" font-weight="bold">ORV3-B  ·  R5–R8  ·  920 kW  ·  ±400V DC</text>
  <!-- ORV3-C: R9–R10, x=1023 to 1161, width=138 -->
  <rect x="1023" y="285" width="138" height="19" fill="#4a3800" stroke="#c8960c" stroke-width="1.5" rx="2"/>
  <text x="1092" y="298" text-anchor="middle" font-size="7.5" fill="#ffd700" font-weight="bold">ORV3-C  R9–R10</text>

  <!-- Rear clearance label -->
  <text x="780" y="316" text-anchor="middle" font-size="8" fill="#555" font-style="italic">REAR CLEARANCE — POWER / COOLING SERVICE (~1.6 ft)</text>

  <!-- Rack row zone label -->
  <text x="780" y="352" text-anchor="middle" font-size="10" font-weight="bold" fill="#222">RACK ROW — 10 × NVIDIA NVL72  (Vera Rubin Max P)</text>
  <text x="780" y="364" text-anchor="middle" font-size="9" fill="#555">2,300 kW IT Load  ·  72 GPUs/rack  ·  288 GB HBM4/GPU  ·  20.7 TB HBM4/rack  ·  OCP ORV3</text>

  <!-- ====== EXTERNAL CONNECTION PANEL ====== -->
  <rect x="1192" y="103" width="100" height="225" fill="#f0f0f0" stroke="#333" stroke-width="2" rx="3"/>
  <text x="1242" y="121" text-anchor="middle" font-size="8" font-weight="bold" fill="#111">EXTERNAL</text>
  <text x="1242" y="132" text-anchor="middle" font-size="8" font-weight="bold" fill="#111">CONN. PANEL</text>
  <!-- DC Bus -->
  <rect x="1198" y="140" width="88" height="26" fill="#fef3d0" stroke="#c8960c" stroke-width="1.2" rx="2"/>
  <text x="1242" y="154" text-anchor="middle" font-size="8" font-weight="bold" fill="#6b4e00">DC BUS IN</text>
  <text x="1242" y="163" text-anchor="middle" font-size="7" fill="#6b4e00">800V · 3,019A</text>
  <!-- Cool Supply -->
  <rect x="1198" y="172" width="88" height="26" fill="#dbeeff" stroke="#1565c0" stroke-width="1.2" rx="2"/>
  <text x="1242" y="186" text-anchor="middle" font-size="8" font-weight="bold" fill="#0d3c73">COOL SUPPLY</text>
  <text x="1242" y="195" text-anchor="middle" font-size="7" fill="#0d3c73">Staubli UQD</text>
  <!-- Cool Return -->
  <rect x="1198" y="204" width="88" height="26" fill="#fde8e8" stroke="#b71c1c" stroke-width="1.2" rx="2"/>
  <text x="1242" y="218" text-anchor="middle" font-size="8" font-weight="bold" fill="#6a0000">COOL RETURN</text>
  <text x="1242" y="227" text-anchor="middle" font-size="7" fill="#6a0000">Staubli UQD</text>
  <!-- Fiber -->
  <rect x="1198" y="236" width="88" height="26" fill="#e8f8ee" stroke="#2e7d32" stroke-width="1.2" rx="2"/>
  <text x="1242" y="250" text-anchor="middle" font-size="8" font-weight="bold" fill="#1a5c21">FIBER</text>
  <text x="1242" y="259" text-anchor="middle" font-size="7" fill="#1a5c21">2× OS2 SM</text>
  <!-- BMS Conduit -->
  <rect x="1198" y="268" width="88" height="26" fill="#f3e8ff" stroke="#6a1fbd" stroke-width="1.2" rx="2"/>
  <text x="1242" y="282" text-anchor="middle" font-size="8" font-weight="bold" fill="#3d0a7a">BMS / SENSOR</text>
  <text x="1242" y="291" text-anchor="middle" font-size="7" fill="#3d0a7a">Conduit</text>

  <text x="1242" y="352" text-anchor="middle" font-size="9" font-weight="bold" fill="#333">EXT. PANEL</text>
  <text x="1242" y="364" text-anchor="middle" font-size="9" fill="#555">~4 ft  (all site</text>

  <!-- ====== WIDTH DIMENSION LINES (left side) ====== -->
  <line x1="78" y1="95" x2="78" y2="335" stroke="#444" stroke-width="1" marker-start="url(#arrL)" marker-end="url(#arr)"/>
  <line x1="72" y1="95" x2="84" y2="95" stroke="#444" stroke-width="1"/>
  <line x1="72" y1="335" x2="84" y2="335" stroke="#444" stroke-width="1"/>
  <rect x="50" y="204" width="25" height="30" fill="white"/>
  <text x="62" y="217" text-anchor="middle" font-size="10" fill="#222" font-weight="bold">8 ft</text>
  <text x="62" y="229" text-anchor="middle" font-size="8.5" fill="#555">2.44 m</text>
  <!-- Sub-dims -->
  <line x1="87" y1="100" x2="87" y2="174" stroke="#999" stroke-width="0.8" marker-start="url(#arrL)" marker-end="url(#arr)"/>
  <text x="90" y="140" font-size="7.5" fill="#888">2.5 ft</text>
  <line x1="87" y1="174" x2="87" y2="281" stroke="#999" stroke-width="0.8" marker-start="url(#arrL)" marker-end="url(#arr)"/>
  <text x="90" y="230" font-size="7.5" fill="#888">3.6 ft</text>
  <line x1="87" y1="281" x2="87" y2="330" stroke="#999" stroke-width="0.8" marker-start="url(#arrL)" marker-end="url(#arr)"/>
  <text x="90" y="310" font-size="7.5" fill="#888">1.6 ft</text>

  <!-- ====== LEGEND ====== -->
  <rect x="100" y="380" width="590" height="195" rx="4" fill="#fafafa" stroke="#ccc" stroke-width="1"/>
  <text x="395" y="397" text-anchor="middle" font-size="11" font-weight="bold" fill="#111">LEGEND — OVERHEAD UTILITIES &amp; COMPONENTS</text>
  <!-- Col 1 -->
  <line x1="116" y1="411" x2="156" y2="411" stroke="#c8960c" stroke-width="5"/>
  <text x="163" y="415" font-size="8.5" fill="#222">800V DC Copper Busbar (overhead — full length)</text>
  <line x1="116" y1="426" x2="156" y2="426" stroke="#1565c0" stroke-width="3.5"/>
  <text x="163" y="430" font-size="8.5" fill="#222">Cold Coolant Supply Header (overhead — blue)</text>
  <line x1="116" y1="441" x2="156" y2="441" stroke="#b71c1c" stroke-width="3.5"/>
  <text x="163" y="445" font-size="8.5" fill="#222">Warm Coolant Return Header (overhead — red)</text>
  <line x1="116" y1="456" x2="156" y2="456" stroke="#1565c0" stroke-width="1.5" stroke-dasharray="4,3"/>
  <text x="163" y="460" font-size="8.5" fill="#222">Flexible Drops — Staubli UQD to each rack</text>
  <line x1="116" y1="471" x2="156" y2="471" stroke="#888" stroke-width="1.5" stroke-dasharray="7,4"/>
  <text x="163" y="475" font-size="8.5" fill="#222">VESDA Aspirating Smoke Detection Tube (overhead)</text>
  <line x1="116" y1="486" x2="156" y2="486" stroke="#e65100" stroke-width="1.5" stroke-dasharray="4,4"/>
  <text x="163" y="490" font-size="8.5" fill="#222">Novec 1230 Suppression Manifold (overhead)</text>
  <line x1="116" y1="501" x2="156" y2="501" stroke="#6a1fbd" stroke-width="2" stroke-dasharray="6,3"/>
  <text x="163" y="505" font-size="8.5" fill="#222">TraceTek Rope Leak Detection (OCP R1.0.0)</text>
  <line x1="116" y1="516" x2="156" y2="516" stroke="#27ae60" stroke-width="5" stroke-dasharray="14,7"/>
  <text x="163" y="520" font-size="8.5" fill="#222">Access Panel — top-hinged, NEC 110.26 compliant</text>
  <!-- Col 2 -->
  <rect x="370" y="405" width="18" height="12" fill="#1e3a5f" stroke="#0a1828" stroke-width="1"/>
  <text x="393" y="415" font-size="8.5" fill="#222">NVIDIA NVL72 (OCP ORV3, 230 kW, Vera Rubin Max P)</text>
  <rect x="370" y="421" width="18" height="12" fill="#4a3800" stroke="#c8960c" stroke-width="1"/>
  <text x="393" y="431" font-size="8.5" fill="#222">Eaton ORV3 Power Sidecar (800 kW, ±400V DC)</text>
  <rect x="370" y="437" width="18" height="12" fill="#dbeeff" stroke="#1565c0" stroke-width="1"/>
  <text x="393" y="447" font-size="8.5" fill="#222">CDU / Pumps / HX (Boyd, 2,000 kW, N+1 pumps)</text>
  <rect x="370" y="453" width="18" height="12" fill="#fef3d0" stroke="#c8960c" stroke-width="1"/>
  <text x="393" y="463" font-size="8.5" fill="#222">PDU / SSCB (main disc., GF protect., metering)</text>
  <rect x="370" y="469" width="18" height="12" fill="#e8f8ee" stroke="#2e7d32" stroke-width="1"/>
  <text x="393" y="479" font-size="8.5" fill="#222">Munters Desiccant Dehumidification (&lt;=50% RH)</text>
  <rect x="370" y="485" width="18" height="12" fill="#f3e8ff" stroke="#6a1fbd" stroke-width="1"/>
  <text x="393" y="495" font-size="8.5" fill="#222">QM9700 NDR InfiniBand Switch / Jetson BMS</text>
  <rect x="370" y="501" width="18" height="12" fill="#fde8e8" stroke="#b71c1c" stroke-width="1"/>
  <text x="393" y="511" font-size="8.5" fill="#222">Novec 1230 Cylinders (NFPA 2001 total flood)</text>
  <rect x="370" y="517" width="18" height="12" fill="#555" stroke="#222" stroke-width="1"/>
  <text x="393" y="527" font-size="8.5" fill="#222">ISO Corner Casting (crane, flatbed, 2-high stack)</text>

  <!-- ====== NOTES ====== -->
  <rect x="710" y="380" width="590" height="195" rx="4" fill="#fffdf0" stroke="#ccc" stroke-width="1"/>
  <text x="1005" y="397" text-anchor="middle" font-size="11" font-weight="bold" fill="#111">ENGINEERING NOTES</text>
  <text x="720" y="413" font-size="8.5" fill="#333">1.  Overhead elements (busbar, cooling headers, VESDA, suppression) projected onto floor plan.</text>
  <text x="720" y="427" font-size="8.5" fill="#333">2.  Enclosure: 40' × 8' × 9'6" ISO external dims — purpose-built steel, not a converted container.</text>
  <text x="720" y="441" font-size="8.5" fill="#333">3.  All site connections at External Connection Panel (right end) — single-face, four connections.</text>
  <text x="720" y="455" font-size="8.5" fill="#333">4.  Rack depth shown ~1,068 mm (42"). Internal clearances to be confirmed by Fibrebond.</text>
  <text x="720" y="469" font-size="8.5" fill="#333">5.  Bus conductor sizing: 3,774A nameplate (3,019A × 1.25 — NEC 210.19(A)(1) continuous load rule).</text>
  <text x="720" y="483" font-size="8.5" fill="#333">6.  IT racks shipped empty from Minden. Server hardware installed on-site post-placement.</text>
  <text x="720" y="497" font-size="8.5" fill="#333">7.  Wind: ASCE 7-22, Risk Cat. III, 150 mph. Anchor bolt pattern per Fibrebond structural eng.</text>
  <text x="720" y="511" font-size="8.5" fill="#333">8.  Coolant: water-glycol type, concentration, and inhibitor pkg. to be specified (Boyd + NVIDIA req.).</text>
  <text x="720" y="525" font-size="8.5" fill="#333">9.  NEC 110.26 working space: front aisle ~30" — confirm compliance with Fibrebond / AHJ.</text>
  <text x="720" y="539" font-size="8.5" fill="#555" font-style="italic">CONFIDENTIAL — ADC / FIBREBOND ENGINEERING USE ONLY  ·  scott@adc3k.com  ·  (337) 780-1535</text>

</svg>
