<?xml version="1.0" encoding="utf-8" ?>
<svg baseProfile="full" height="1200px" version="1.1" viewBox="0 0 1400 1200" width="1400px" xmlns="http://www.w3.org/2000/svg" xmlns:ev="http://www.w3.org/2001/xml-events" xmlns:xlink="http://www.w3.org/1999/xlink"><defs /><rect fill="#0a0b0f" height="1200" width="1400" x="0" y="0" /><text fill="#f0f2f5" font-family="Arial" font-size="16" font-weight="bold" text-anchor="middle" x="700.0" y="24">RAGIN' CAJUN COMPUTE CAMPUS — TRAPPEYS CANNERY, LAFAYETTE, LA</text><text fill="#CE181E" font-family="Arial" font-size="10" font-weight="bold" text-anchor="middle" x="700.0" y="40">ELECTRICAL SINGLE-LINE DIAGRAM | 800V DC NATIVE ARCHITECTURE | NVIDIA DSX REFERENCE DESIGN</text><text fill="#6b7280" font-family="Arial" font-size="9" text-anchor="middle" x="700.0" y="54">Sheet E-001 | Design Intent | 2026-03-23 | NOT FOR CONSTRUCTION</text><g><rect fill="#0a1a0a" height="55" rx="4" ry="4" stroke="#22c55e" stroke-width="1.5" width="150" x="30" y="75" /><text fill="#22c55e" font-family="Arial" font-size="11" font-weight="bold" text-anchor="middle" x="105.0" y="102.5">ATMOS ENERGY</text><text fill="#22c55e" font-family="Arial" font-size="10" font-weight="normal" text-anchor="middle" x="105.0" y="116.5">Gas Trunk Line</text><text fill="#6b7280" font-family="Arial" font-size="8" text-anchor="middle" x="105.0" y="126">On-property | Henry Hub pricing</text></g><g><rect fill="#0a1a0a" height="55" rx="4" ry="4" stroke="#22c55e" stroke-width="1.5" width="140" x="220" y="75" /><text fill="#22c55e" font-family="Arial" font-size="11" font-weight="bold" text-anchor="middle" x="290.0" y="102.5">CAT G3516J #1</text><text fill="#22c55e" font-family="Arial" font-size="10" font-weight="normal" text-anchor="middle" x="290.0" y="116.5">1.6 MW | 480V AC</text><text fill="#6b7280" font-family="Arial" font-size="8" text-anchor="middle" x="290.0" y="126">Natural Gas | Layer 2</text></g><g><rect fill="#0a1a0a" height="55" rx="4" ry="4" stroke="#22c55e" stroke-width="1.5" width="140" x="380" y="75" /><text fill="#22c55e" font-family="Arial" font-size="11" font-weight="bold" text-anchor="middle" x="450.0" y="102.5">CAT G3516J #2</text><text fill="#22c55e" font-family="Arial" font-size="10" font-weight="normal" text-anchor="middle" x="450.0" y="116.5">1.6 MW | 480V AC</text><text fill="#6b7280" font-family="Arial" font-size="8" text-anchor="middle" x="450.0" y="126">Natural Gas | Layer 2</text></g><g><rect fill="#0a1a0a" height="55" rx="4" ry="4" stroke="#22c55e" stroke-width="1.5" width="140" x="540" y="75" /><text fill="#22c55e" font-family="Arial" font-size="11" font-weight="bold" text-anchor="middle" x="610.0" y="102.5">CAT G3516J #3</text><text fill="#22c55e" font-family="Arial" font-size="10" font-weight="normal" text-anchor="middle" x="610.0" y="116.5">1.6 MW | 480V AC</text><text fill="#6b7280" font-family="Arial" font-size="8" text-anchor="middle" x="610.0" y="126">N+1 Redundant</text></g><g><rect fill="#1a1a00" height="55" rx="4" ry="4" stroke="#fbbf24" stroke-width="1.5" width="160" x="720" y="75" /><text fill="#fbbf24" font-family="Arial" font-size="11" font-weight="bold" text-anchor="middle" x="800.0" y="95.5">FIRST SOLAR</text><text fill="#fbbf24" font-family="Arial" font-size="10" font-weight="normal" text-anchor="middle" x="800.0" y="109.5">Series 7 TR1 (550W)</text><text fill="#fbbf24" font-family="Arial" font-size="10" font-weight="normal" text-anchor="middle" x="800.0" y="123.5">Rooftop Arrays</text><text fill="#6b7280" font-family="Arial" font-size="8" text-anchor="middle" x="800.0" y="126">3,731 panels = 2.05 MW | 5-panel strings @ 952V</text></g><g><rect fill="#2e1a1a" height="55" rx="4" ry="4" stroke="#ef4444" stroke-width="1.5" width="130" x="920" y="75" /><text fill="#ef4444" font-family="Arial" font-size="11" font-weight="bold" text-anchor="middle" x="985.0" y="102.5">DIESEL GENSET</text><text fill="#ef4444" font-family="Arial" font-size="10" font-weight="normal" text-anchor="middle" x="985.0" y="116.5">Emergency</text><text fill="#6b7280" font-family="Arial" font-size="8" text-anchor="middle" x="985.0" y="126">Layer 3 | Pipeline-Independent</text></g><g><rect fill="#1a0a0a" height="55" rx="4" ry="4" stroke="#ef4444" stroke-width="1.5" width="130" x="1080" y="75" /><text fill="#ef4444" font-family="Arial" font-size="11" font-weight="bold" text-anchor="middle" x="1145.0" y="102.5">LUS GRID</text><text fill="#ef4444" font-family="Arial" font-size="10" font-weight="normal" text-anchor="middle" x="1145.0" y="116.5">SELL-BACK ONLY</text><text fill="#6b7280" font-family="Arial" font-size="8" text-anchor="middle" x="1145.0" y="126">Layer 4 | Excess to grid</text></g><g><rect fill="#1a1a2e" height="55" rx="4" ry="4" stroke="#3b82f6" stroke-width="1.5" width="130" x="1240" y="75" /><text fill="#93c5fd" font-family="Arial" font-size="11" font-weight="bold" text-anchor="middle" x="1305.0" y="102.5">EATON xStorage</text><text fill="#93c5fd" font-family="Arial" font-size="10" font-weight="normal" text-anchor="middle" x="1305.0" y="116.5">BESS</text><text fill="#6b7280" font-family="Arial" font-size="8" text-anchor="middle" x="1305.0" y="126">800V DC | Ride-through
Peak shaving</text></g><line stroke="#22c55e" stroke-width="1.5" x1="100" x2="100" y1="130" y2="180" /><polygon fill="#22c55e" points="96,174 104,174 100,180" /><line stroke="#22c55e" stroke-width="1.5" x1="290" x2="290" y1="130" y2="180" /><polygon fill="#22c55e" points="286,174 294,174 290,180" /><line stroke="#22c55e" stroke-width="1.5" x1="450" x2="450" y1="130" y2="180" /><polygon fill="#22c55e" points="446,174 454,174 450,180" /><line stroke="#22c55e" stroke-width="1.5" x1="610" x2="610" y1="130" y2="180" /><polygon fill="#22c55e" points="606,174 614,174 610,180" /><line stroke="#ef4444" stroke-width="1.5" x1="985" x2="985" y1="130" y2="180" /><polygon fill="#ef4444" points="981,174 989,174 985,180" /><g><rect fill="#1a1a2e" height="50" rx="4" ry="4" stroke="#22c55e" stroke-width="1.5" width="280" x="30" y="180" /><text fill="#e0e0e0" font-family="Arial" font-size="11" font-weight="bold" text-anchor="middle" x="170.0" y="205.0">PARALLELING SWITCHGEAR + ATS</text><text fill="#e0e0e0" font-family="Arial" font-size="10" font-weight="normal" text-anchor="middle" x="170.0" y="219.0">480V AC | Auto-Sync | Load Sharing</text><text fill="#6b7280" font-family="Arial" font-size="8" text-anchor="middle" x="170.0" y="226">Louisiana Cat controls | 3x G3516J to common bus</text></g><g><rect fill="#1a1a2e" height="50" rx="4" ry="4" stroke="#ff6b35" stroke-width="1.5" width="180" x="330" y="180" /><text fill="#ff6b35" font-family="Arial" font-size="11" font-weight="bold" text-anchor="middle" x="420.0" y="205.0">ABB SACE INFINITUS</text><text fill="#ff6b35" font-family="Arial" font-size="10" font-weight="normal" text-anchor="middle" x="420.0" y="219.0">800V DC Protection | Breakers</text></g><g><rect fill="#1a1a2e" height="50" rx="4" ry="4" stroke="#ef4444" stroke-width="1.5" width="170" x="900" y="180" /><text fill="#e0e0e0" font-family="Arial" font-size="11" font-weight="bold" text-anchor="middle" x="985.0" y="205.0">EMERGENCY ATS</text><text fill="#e0e0e0" font-family="Arial" font-size="10" font-weight="normal" text-anchor="middle" x="985.0" y="219.0">Diesel Auto-Transfer</text><text fill="#6b7280" font-family="Arial" font-size="8" text-anchor="middle" x="985.0" y="226">Auto-start on triple gas failure</text></g><line stroke="#22c55e" stroke-width="1.5" x1="170" x2="170" y1="230" y2="275" /><polygon fill="#22c55e" points="166,269 174,269 170,275" /><line stroke="#ff6b35" stroke-width="1.5" x1="420" x2="420" y1="230" y2="275" /><polygon fill="#ff6b35" points="416,269 424,269 420,275" /><line stroke="#ef4444" stroke-width="1.5" x1="985" x2="985" y1="230" y2="275" /><polygon fill="#ef4444" points="981,269 989,269 985,275" /><rect fill="#ff6b35" height="6" rx="2" width="1100" x="30" y="272" /><text fill="#ff6b35" font-family="Arial" font-size="10" font-weight="bold" text-anchor="middle" x="580.0" y="267">480V AC DISTRIBUTION BUS</text><line stroke="#ef4444" stroke-width="1.5" x1="1145" x2="1145" y1="130" y2="255" /><text fill="#ef4444" font-family="Arial" font-size="8" x="1155" y="250">SELL-BACK TO LUS (Layer 4)</text><line stroke="#ef4444" stroke-width="1.5" x1="1100" x2="1145" y1="275" y2="275" /><line stroke="#ff6b35" stroke-width="1.5" x1="150" x2="150" y1="278" y2="320" /><polygon fill="#ff6b35" points="146,314 154,314 150,320" /><line stroke="#ff6b35" stroke-width="1.5" x1="450" x2="450" y1="278" y2="320" /><polygon fill="#ff6b35" points="446,314 454,314 450,320" /><line stroke="#ff6b35" stroke-width="1.5" x1="750" x2="750" y1="278" y2="320" /><polygon fill="#ff6b35" points="746,314 754,314 750,320" /><g><rect fill="#1a1a2e" height="55" rx="4" ry="4" stroke="#8b5cf6" stroke-width="1.5" width="200" x="60" y="320" /><text fill="#c4b5fd" font-family="Arial" font-size="11" font-weight="bold" text-anchor="middle" x="160.0" y="340.5">EATON BEAM RUBIN DSX</text><text fill="#c4b5fd" font-family="Arial" font-size="10" font-weight="normal" text-anchor="middle" x="160.0" y="354.5">+ ORV3 SIDECAR</text><text fill="#c4b5fd" font-family="Arial" font-size="10" font-weight="normal" text-anchor="middle" x="160.0" y="368.5">480V AC -&gt; 800V DC | #1</text><text fill="#6b7280" font-family="Arial" font-size="8" text-anchor="middle" x="160.0" y="371">96%+ Efficiency</text></g><g><rect fill="#1a1a2e" height="55" rx="4" ry="4" stroke="#8b5cf6" stroke-width="1.5" width="200" x="350" y="320" /><text fill="#c4b5fd" font-family="Arial" font-size="11" font-weight="bold" text-anchor="middle" x="450.0" y="340.5">EATON BEAM RUBIN DSX</text><text fill="#c4b5fd" font-family="Arial" font-size="10" font-weight="normal" text-anchor="middle" x="450.0" y="354.5">+ ORV3 SIDECAR</text><text fill="#c4b5fd" font-family="Arial" font-size="10" font-weight="normal" text-anchor="middle" x="450.0" y="368.5">480V AC -&gt; 800V DC | #2</text><text fill="#6b7280" font-family="Arial" font-size="8" text-anchor="middle" x="450.0" y="371">N+1 Redundant</text></g><line stroke="#fbbf24" stroke-width="1.5" x1="800" x2="800" y1="130" y2="145" /><line stroke="#fbbf24" stroke-width="1.5" x1="800" x2="710" y1="145" y2="145" /><line stroke="#fbbf24" stroke-width="1.5" x1="710" x2="710" y1="145" y2="320" /><g><rect fill="#1a1a2e" height="55" rx="4" ry="4" stroke="#fbbf24" stroke-width="1.5" width="200" x="640" y="320" /><text fill="#fbbf24" font-family="Arial" font-size="11" font-weight="bold" text-anchor="middle" x="740.0" y="347.5">DC-DC BUCK CONVERTER</text><text fill="#fbbf24" font-family="Arial" font-size="10" font-weight="normal" text-anchor="middle" x="740.0" y="361.5">952V String -&gt; 800V DC</text><text fill="#6b7280" font-family="Arial" font-size="8" text-anchor="middle" x="740.0" y="371">Solar DC-Direct | 97% Eff | Bypasses AC</text></g><g><rect fill="#1a1a2e" height="55" rx="4" ry="4" stroke="#ef4444" stroke-width="1.5" width="110" x="860" y="320" /><text fill="#fca5a5" font-family="Arial" font-size="9" font-weight="bold" text-anchor="middle" x="915.0" y="340.5">DIESEL</text><text fill="#fca5a5" font-family="Arial" font-size="8" font-weight="normal" text-anchor="middle" x="915.0" y="354.5">FEED</text><text fill="#fca5a5" font-family="Arial" font-size="8" font-weight="normal" text-anchor="middle" x="915.0" y="368.5">To 480V Bus</text></g><line stroke="#ef4444" stroke-width="1.5" x1="915" x2="915" y1="278" y2="320" /><polygon fill="#ef4444" points="911,314 919,314 915,320" /><line stroke="#8b5cf6" stroke-width="1.5" x1="160" x2="160" y1="375" y2="425" /><polygon fill="#8b5cf6" points="156,419 164,419 160,425" /><line stroke="#8b5cf6" stroke-width="1.5" x1="450" x2="450" y1="375" y2="425" /><polygon fill="#8b5cf6" points="446,419 454,419 450,425" /><line stroke="#8b5cf6" stroke-width="1.5" x1="740" x2="740" y1="375" y2="425" /><polygon fill="#8b5cf6" points="736,419 744,419 740,425" /><rect fill="#8b5cf6" height="6" rx="2" width="1100" x="30" y="422" /><text fill="#8b5cf6" font-family="Arial" font-size="10" font-weight="bold" text-anchor="middle" x="580.0" y="417">800V DC DISTRIBUTION BUS — NVIDIA DSX REFERENCE ARCHITECTURE</text><line stroke="#3b82f6" stroke-width="1.5" x1="1305" x2="1305" y1="130" y2="425" /><text fill="#93c5fd" font-family="Arial" font-size="7" x="1315" y="405">Eaton xStorage</text><text fill="#93c5fd" font-family="Arial" font-size="7" x="1315" y="415">BESS on 800V</text><line stroke="#8b5cf6" stroke-width="1.5" x1="205" x2="205" y1="428" y2="480" /><polygon fill="#8b5cf6" points="201,474 209,474 205,480" /><g><rect fill="#1a1a2e" height="40" rx="4" ry="4" stroke="#8b5cf6" stroke-width="1.5" width="110" x="150" y="480" /><text fill="#c4b5fd" font-family="Arial" font-size="9" font-weight="bold" text-anchor="middle" x="205.0" y="500.0">EATON BUSWAY</text><text fill="#c4b5fd" font-family="Arial" font-size="8" font-weight="normal" text-anchor="middle" x="205.0" y="514.0">800V DC</text></g><line stroke="#8b5cf6" stroke-width="1.5" x1="425" x2="425" y1="428" y2="480" /><polygon fill="#8b5cf6" points="421,474 429,474 425,480" /><g><rect fill="#1a1a2e" height="40" rx="4" ry="4" stroke="#8b5cf6" stroke-width="1.5" width="110" x="370" y="480" /><text fill="#c4b5fd" font-family="Arial" font-size="9" font-weight="bold" text-anchor="middle" x="425.0" y="500.0">EATON BUSWAY</text><text fill="#c4b5fd" font-family="Arial" font-size="8" font-weight="normal" text-anchor="middle" x="425.0" y="514.0">800V DC</text></g><line stroke="#8b5cf6" stroke-width="1.5" x1="645" x2="645" y1="428" y2="480" /><polygon fill="#8b5cf6" points="641,474 649,474 645,480" /><g><rect fill="#1a1a2e" height="40" rx="4" ry="4" stroke="#8b5cf6" stroke-width="1.5" width="110" x="590" y="480" /><text fill="#c4b5fd" font-family="Arial" font-size="9" font-weight="bold" text-anchor="middle" x="645.0" y="500.0">EATON BUSWAY</text><text fill="#c4b5fd" font-family="Arial" font-size="8" font-weight="normal" text-anchor="middle" x="645.0" y="514.0">800V DC</text></g><line stroke="#8b5cf6" stroke-width="1.5" x1="865" x2="865" y1="428" y2="480" /><polygon fill="#8b5cf6" points="861,474 869,474 865,480" /><g><rect fill="#1a1a2e" height="40" rx="4" ry="4" stroke="#8b5cf6" stroke-width="1.5" width="110" x="810" y="480" /><text fill="#c4b5fd" font-family="Arial" font-size="9" font-weight="bold" text-anchor="middle" x="865.0" y="500.0">EATON BUSWAY</text><text fill="#c4b5fd" font-family="Arial" font-size="8" font-weight="normal" text-anchor="middle" x="865.0" y="514.0">800V DC</text></g><line stroke="#8b5cf6" stroke-width="1.5" x1="205" x2="205" y1="520" y2="545" /><polygon fill="#8b5cf6" points="201,539 209,539 205,545" /><g><rect fill="#1a1a2e" height="45" rx="4" ry="4" stroke="#00bcd4" stroke-width="1.5" width="110" x="150" y="545" /><text fill="#00e5ff" font-family="Arial" font-size="9" font-weight="bold" text-anchor="middle" x="205.0" y="560.5">DELTA 660 kW</text><text fill="#00e5ff" font-family="Arial" font-size="8" font-weight="normal" text-anchor="middle" x="205.0" y="574.5">POWER RACK</text><text fill="#00e5ff" font-family="Arial" font-size="8" font-weight="normal" text-anchor="middle" x="205.0" y="588.5">6x 110 kW Shelves</text><text fill="#6b7280" font-family="Arial" font-size="8" text-anchor="middle" x="205.0" y="586">480 kW Embedded BBU</text></g><line stroke="#8b5cf6" stroke-width="1.5" x1="425" x2="425" y1="520" y2="545" /><polygon fill="#8b5cf6" points="421,539 429,539 425,545" /><g><rect fill="#1a1a2e" height="45" rx="4" ry="4" stroke="#00bcd4" stroke-width="1.5" width="110" x="370" y="545" /><text fill="#00e5ff" font-family="Arial" font-size="9" font-weight="bold" text-anchor="middle" x="425.0" y="560.5">DELTA 660 kW</text><text fill="#00e5ff" font-family="Arial" font-size="8" font-weight="normal" text-anchor="middle" x="425.0" y="574.5">POWER RACK</text><text fill="#00e5ff" font-family="Arial" font-size="8" font-weight="normal" text-anchor="middle" x="425.0" y="588.5">6x 110 kW Shelves</text><text fill="#6b7280" font-family="Arial" font-size="8" text-anchor="middle" x="425.0" y="586">480 kW Embedded BBU</text></g><line stroke="#8b5cf6" stroke-width="1.5" x1="645" x2="645" y1="520" y2="545" /><polygon fill="#8b5cf6" points="641,539 649,539 645,545" /><g><rect fill="#1a1a2e" height="45" rx="4" ry="4" stroke="#00bcd4" stroke-width="1.5" width="110" x="590" y="545" /><text fill="#00e5ff" font-family="Arial" font-size="9" font-weight="bold" text-anchor="middle" x="645.0" y="560.5">DELTA 660 kW</text><text fill="#00e5ff" font-family="Arial" font-size="8" font-weight="normal" text-anchor="middle" x="645.0" y="574.5">POWER RACK</text><text fill="#00e5ff" font-family="Arial" font-size="8" font-weight="normal" text-anchor="middle" x="645.0" y="588.5">6x 110 kW Shelves</text><text fill="#6b7280" font-family="Arial" font-size="8" text-anchor="middle" x="645.0" y="586">480 kW Embedded BBU</text></g><line stroke="#8b5cf6" stroke-width="1.5" x1="865" x2="865" y1="520" y2="545" /><polygon fill="#8b5cf6" points="861,539 869,539 865,545" /><g><rect fill="#1a1a2e" height="45" rx="4" ry="4" stroke="#00bcd4" stroke-width="1.5" width="110" x="810" y="545" /><text fill="#00e5ff" font-family="Arial" font-size="9" font-weight="bold" text-anchor="middle" x="865.0" y="560.5">DELTA 660 kW</text><text fill="#00e5ff" font-family="Arial" font-size="8" font-weight="normal" text-anchor="middle" x="865.0" y="574.5">POWER RACK</text><text fill="#00e5ff" font-family="Arial" font-size="8" font-weight="normal" text-anchor="middle" x="865.0" y="588.5">6x 110 kW Shelves</text><text fill="#6b7280" font-family="Arial" font-size="8" text-anchor="middle" x="865.0" y="586">480 kW Embedded BBU</text></g><line stroke="#00bcd4" stroke-width="1.5" x1="205" x2="205" y1="590" y2="615" /><polygon fill="#00bcd4" points="201,609 209,609 205,615" /><g><rect fill="#1a1a2e" height="35" rx="4" ry="4" stroke="#00bcd4" stroke-width="1.5" width="110" x="150" y="615" /><text fill="#00e5ff" font-family="Arial" font-size="9" font-weight="bold" text-anchor="middle" x="205.0" y="632.5">DELTA e-FUSE</text><text fill="#00e5ff" font-family="Arial" font-size="8" font-weight="normal" text-anchor="middle" x="205.0" y="646.5">SiC | &lt;3 us</text></g><line stroke="#00bcd4" stroke-width="1.5" x1="425" x2="425" y1="590" y2="615" /><polygon fill="#00bcd4" points="421,609 429,609 425,615" /><g><rect fill="#1a1a2e" height="35" rx="4" ry="4" stroke="#00bcd4" stroke-width="1.5" width="110" x="370" y="615" /><text fill="#00e5ff" font-family="Arial" font-size="9" font-weight="bold" text-anchor="middle" x="425.0" y="632.5">DELTA e-FUSE</text><text fill="#00e5ff" font-family="Arial" font-size="8" font-weight="normal" text-anchor="middle" x="425.0" y="646.5">SiC | &lt;3 us</text></g><line stroke="#00bcd4" stroke-width="1.5" x1="645" x2="645" y1="590" y2="615" /><polygon fill="#00bcd4" points="641,609 649,609 645,615" /><g><rect fill="#1a1a2e" height="35" rx="4" ry="4" stroke="#00bcd4" stroke-width="1.5" width="110" x="590" y="615" /><text fill="#00e5ff" font-family="Arial" font-size="9" font-weight="bold" text-anchor="middle" x="645.0" y="632.5">DELTA e-FUSE</text><text fill="#00e5ff" font-family="Arial" font-size="8" font-weight="normal" text-anchor="middle" x="645.0" y="646.5">SiC | &lt;3 us</text></g><line stroke="#00bcd4" stroke-width="1.5" x1="865" x2="865" y1="590" y2="615" /><polygon fill="#00bcd4" points="861,609 869,609 865,615" /><g><rect fill="#1a1a2e" height="35" rx="4" ry="4" stroke="#00bcd4" stroke-width="1.5" width="110" x="810" y="615" /><text fill="#00e5ff" font-family="Arial" font-size="9" font-weight="bold" text-anchor="middle" x="865.0" y="632.5">DELTA e-FUSE</text><text fill="#00e5ff" font-family="Arial" font-size="8" font-weight="normal" text-anchor="middle" x="865.0" y="646.5">SiC | &lt;3 us</text></g><line stroke="#00bcd4" stroke-width="1.5" x1="205" x2="205" y1="650" y2="675" /><polygon fill="#00bcd4" points="201,669 209,669 205,675" /><g><rect fill="#1a1a2e" height="40" rx="4" ry="4" stroke="#00bcd4" stroke-width="1.5" width="110" x="150" y="675" /><text fill="#00e5ff" font-family="Arial" font-size="9" font-weight="bold" text-anchor="middle" x="205.0" y="695.0">DELTA 90 kW DC/DC</text><text fill="#00e5ff" font-family="Arial" font-size="8" font-weight="normal" text-anchor="middle" x="205.0" y="709.0">800V -&gt; 50V</text><text fill="#6b7280" font-family="Arial" font-size="8" text-anchor="middle" x="205.0" y="711">NVIDIA MGX Bus</text></g><line stroke="#00bcd4" stroke-width="1.5" x1="425" x2="425" y1="650" y2="675" /><polygon fill="#00bcd4" points="421,669 429,669 425,675" /><g><rect fill="#1a1a2e" height="40" rx="4" ry="4" stroke="#00bcd4" stroke-width="1.5" width="110" x="370" y="675" /><text fill="#00e5ff" font-family="Arial" font-size="9" font-weight="bold" text-anchor="middle" x="425.0" y="695.0">DELTA 90 kW DC/DC</text><text fill="#00e5ff" font-family="Arial" font-size="8" font-weight="normal" text-anchor="middle" x="425.0" y="709.0">800V -&gt; 50V</text><text fill="#6b7280" font-family="Arial" font-size="8" text-anchor="middle" x="425.0" y="711">NVIDIA MGX Bus</text></g><line stroke="#00bcd4" stroke-width="1.5" x1="645" x2="645" y1="650" y2="675" /><polygon fill="#00bcd4" points="641,669 649,669 645,675" /><g><rect fill="#1a1a2e" height="40" rx="4" ry="4" stroke="#00bcd4" stroke-width="1.5" width="110" x="590" y="675" /><text fill="#00e5ff" font-family="Arial" font-size="9" font-weight="bold" text-anchor="middle" x="645.0" y="695.0">DELTA 90 kW DC/DC</text><text fill="#00e5ff" font-family="Arial" font-size="8" font-weight="normal" text-anchor="middle" x="645.0" y="709.0">800V -&gt; 50V</text><text fill="#6b7280" font-family="Arial" font-size="8" text-anchor="middle" x="645.0" y="711">NVIDIA MGX Bus</text></g><line stroke="#00bcd4" stroke-width="1.5" x1="865" x2="865" y1="650" y2="675" /><polygon fill="#00bcd4" points="861,669 869,669 865,675" /><g><rect fill="#1a1a2e" height="40" rx="4" ry="4" stroke="#00bcd4" stroke-width="1.5" width="110" x="810" y="675" /><text fill="#00e5ff" font-family="Arial" font-size="9" font-weight="bold" text-anchor="middle" x="865.0" y="695.0">DELTA 90 kW DC/DC</text><text fill="#00e5ff" font-family="Arial" font-size="8" font-weight="normal" text-anchor="middle" x="865.0" y="709.0">800V -&gt; 50V</text><text fill="#6b7280" font-family="Arial" font-size="8" text-anchor="middle" x="865.0" y="711">NVIDIA MGX Bus</text></g><line stroke="#8b5cf6" stroke-width="1.5" x1="205" x2="205" y1="715" y2="740" /><polygon fill="#8b5cf6" points="201,734 209,734 205,740" /><g><rect fill="#1a1a2e" height="40" rx="4" ry="4" stroke="#8b5cf6" stroke-width="1.5" width="110" x="150" y="740" /><text fill="#c4b5fd" font-family="Arial" font-size="9" font-weight="bold" text-anchor="middle" x="205.0" y="760.0">RACK PDU</text><text fill="#c4b5fd" font-family="Arial" font-size="8" font-weight="normal" text-anchor="middle" x="205.0" y="774.0">800V DC Input</text></g><line stroke="#8b5cf6" stroke-width="1.5" x1="425" x2="425" y1="715" y2="740" /><polygon fill="#8b5cf6" points="421,734 429,734 425,740" /><g><rect fill="#1a1a2e" height="40" rx="4" ry="4" stroke="#8b5cf6" stroke-width="1.5" width="110" x="370" y="740" /><text fill="#c4b5fd" font-family="Arial" font-size="9" font-weight="bold" text-anchor="middle" x="425.0" y="760.0">RACK PDU</text><text fill="#c4b5fd" font-family="Arial" font-size="8" font-weight="normal" text-anchor="middle" x="425.0" y="774.0">800V DC Input</text></g><line stroke="#8b5cf6" stroke-width="1.5" x1="645" x2="645" y1="715" y2="740" /><polygon fill="#8b5cf6" points="641,734 649,734 645,740" /><g><rect fill="#1a1a2e" height="40" rx="4" ry="4" stroke="#8b5cf6" stroke-width="1.5" width="110" x="590" y="740" /><text fill="#c4b5fd" font-family="Arial" font-size="9" font-weight="bold" text-anchor="middle" x="645.0" y="760.0">RACK PDU</text><text fill="#c4b5fd" font-family="Arial" font-size="8" font-weight="normal" text-anchor="middle" x="645.0" y="774.0">800V DC Input</text></g><line stroke="#8b5cf6" stroke-width="1.5" x1="865" x2="865" y1="715" y2="740" /><polygon fill="#8b5cf6" points="861,734 869,734 865,740" /><g><rect fill="#1a1a2e" height="40" rx="4" ry="4" stroke="#8b5cf6" stroke-width="1.5" width="110" x="810" y="740" /><text fill="#c4b5fd" font-family="Arial" font-size="9" font-weight="bold" text-anchor="middle" x="865.0" y="760.0">RACK PDU</text><text fill="#c4b5fd" font-family="Arial" font-size="8" font-weight="normal" text-anchor="middle" x="865.0" y="774.0">800V DC Input</text></g><line stroke="#8b5cf6" stroke-width="1.5" x1="205" x2="205" y1="780" y2="805" /><polygon fill="#8b5cf6" points="201,799 209,799 205,805" /><g><rect fill="#1a1a2e" height="40" rx="4" ry="4" stroke="#76b900" stroke-width="1.5" width="110" x="150" y="805" /><text fill="#76b900" font-family="Arial" font-size="9" font-weight="bold" text-anchor="middle" x="205.0" y="825.0">TI 800V-to-6V GaN</text><text fill="#76b900" font-family="Arial" font-size="8" font-weight="normal" text-anchor="middle" x="205.0" y="839.0">Infineon CoolGaN IBC</text><text fill="#6b7280" font-family="Arial" font-size="8" text-anchor="middle" x="205.0" y="841">99%+ Efficiency</text></g><line stroke="#8b5cf6" stroke-width="1.5" x1="425" x2="425" y1="780" y2="805" /><polygon fill="#8b5cf6" points="421,799 429,799 425,805" /><g><rect fill="#1a1a2e" height="40" rx="4" ry="4" stroke="#76b900" stroke-width="1.5" width="110" x="370" y="805" /><text fill="#76b900" font-family="Arial" font-size="9" font-weight="bold" text-anchor="middle" x="425.0" y="825.0">TI 800V-to-6V GaN</text><text fill="#76b900" font-family="Arial" font-size="8" font-weight="normal" text-anchor="middle" x="425.0" y="839.0">Infineon CoolGaN IBC</text><text fill="#6b7280" font-family="Arial" font-size="8" text-anchor="middle" x="425.0" y="841">99%+ Efficiency</text></g><line stroke="#8b5cf6" stroke-width="1.5" x1="645" x2="645" y1="780" y2="805" /><polygon fill="#8b5cf6" points="641,799 649,799 645,805" /><g><rect fill="#1a1a2e" height="40" rx="4" ry="4" stroke="#76b900" stroke-width="1.5" width="110" x="590" y="805" /><text fill="#76b900" font-family="Arial" font-size="9" font-weight="bold" text-anchor="middle" x="645.0" y="825.0">TI 800V-to-6V GaN</text><text fill="#76b900" font-family="Arial" font-size="8" font-weight="normal" text-anchor="middle" x="645.0" y="839.0">Infineon CoolGaN IBC</text><text fill="#6b7280" font-family="Arial" font-size="8" text-anchor="middle" x="645.0" y="841">99%+ Efficiency</text></g><line stroke="#8b5cf6" stroke-width="1.5" x1="865" x2="865" y1="780" y2="805" /><polygon fill="#8b5cf6" points="861,799 869,799 865,805" /><g><rect fill="#1a1a2e" height="40" rx="4" ry="4" stroke="#76b900" stroke-width="1.5" width="110" x="810" y="805" /><text fill="#76b900" font-family="Arial" font-size="9" font-weight="bold" text-anchor="middle" x="865.0" y="825.0">TI 800V-to-6V GaN</text><text fill="#76b900" font-family="Arial" font-size="8" font-weight="normal" text-anchor="middle" x="865.0" y="839.0">Infineon CoolGaN IBC</text><text fill="#6b7280" font-family="Arial" font-size="8" text-anchor="middle" x="865.0" y="841">99%+ Efficiency</text></g><line stroke="#76b900" stroke-width="1.5" x1="205" x2="205" y1="845" y2="870" /><polygon fill="#76b900" points="201,864 209,864 205,870" /><g><rect fill="#111a00" height="60" rx="4" ry="4" stroke="#76b900" stroke-width="1.5" width="110" x="150" y="870" /><text fill="#76b900" font-family="Arial" font-size="9" font-weight="bold" text-anchor="middle" x="205.0" y="893.0">NVIDIA NVL72</text><text fill="#76b900" font-family="Arial" font-size="8" font-weight="normal" text-anchor="middle" x="205.0" y="907.0">RACK 1</text><text fill="#76b900" font-family="Arial" font-size="8" font-weight="normal" text-anchor="middle" x="205.0" y="921.0">130 kW</text><text fill="#6b7280" font-family="Arial" font-size="8" text-anchor="middle" x="205.0" y="926">Vera Rubin | Liquid Cooled</text></g><line stroke="#76b900" stroke-width="1.5" x1="425" x2="425" y1="845" y2="870" /><polygon fill="#76b900" points="421,864 429,864 425,870" /><g><rect fill="#111a00" height="60" rx="4" ry="4" stroke="#76b900" stroke-width="1.5" width="110" x="370" y="870" /><text fill="#76b900" font-family="Arial" font-size="9" font-weight="bold" text-anchor="middle" x="425.0" y="893.0">NVIDIA NVL72</text><text fill="#76b900" font-family="Arial" font-size="8" font-weight="normal" text-anchor="middle" x="425.0" y="907.0">RACK 2</text><text fill="#76b900" font-family="Arial" font-size="8" font-weight="normal" text-anchor="middle" x="425.0" y="921.0">130 kW</text><text fill="#6b7280" font-family="Arial" font-size="8" text-anchor="middle" x="425.0" y="926">Vera Rubin | Liquid Cooled</text></g><line stroke="#76b900" stroke-width="1.5" x1="645" x2="645" y1="845" y2="870" /><polygon fill="#76b900" points="641,864 649,864 645,870" /><g><rect fill="#111a00" height="60" rx="4" ry="4" stroke="#76b900" stroke-width="1.5" width="110" x="590" y="870" /><text fill="#76b900" font-family="Arial" font-size="9" font-weight="bold" text-anchor="middle" x="645.0" y="893.0">NVIDIA NVL72</text><text fill="#76b900" font-family="Arial" font-size="8" font-weight="normal" text-anchor="middle" x="645.0" y="907.0">RACK 3</text><text fill="#76b900" font-family="Arial" font-size="8" font-weight="normal" text-anchor="middle" x="645.0" y="921.0">130 kW</text><text fill="#6b7280" font-family="Arial" font-size="8" text-anchor="middle" x="645.0" y="926">Vera Rubin | Liquid Cooled</text></g><line stroke="#76b900" stroke-width="1.5" x1="865" x2="865" y1="845" y2="870" /><polygon fill="#76b900" points="861,864 869,864 865,870" /><g><rect fill="#111a00" height="60" rx="4" ry="4" stroke="#76b900" stroke-width="1.5" width="110" x="810" y="870" /><text fill="#76b900" font-family="Arial" font-size="9" font-weight="bold" text-anchor="middle" x="865.0" y="893.0">NVIDIA NVL72</text><text fill="#76b900" font-family="Arial" font-size="8" font-weight="normal" text-anchor="middle" x="865.0" y="907.0">RACK 4</text><text fill="#76b900" font-family="Arial" font-size="8" font-weight="normal" text-anchor="middle" x="865.0" y="921.0">130 kW</text><text fill="#6b7280" font-family="Arial" font-size="8" text-anchor="middle" x="865.0" y="926">Vera Rubin | Liquid Cooled</text></g><rect fill="#111318" height="45" rx="6" stroke="#1e2230" stroke-width="1" width="1340" x="30" y="960" /><text fill="#6b7280" font-family="Arial" font-size="8" font-weight="bold" x="60" y="976">PHASE 1 IT LOAD</text><text fill="#CE181E" font-family="Arial" font-size="11" font-weight="bold" x="60" y="990">520 kW (4 racks)</text><text fill="#6b7280" font-family="Arial" font-size="8" font-weight="bold" x="280" y="976">COOLING</text><text fill="#CE181E" font-family="Arial" font-size="11" font-weight="bold" x="280" y="990">~65 kW</text><text fill="#6b7280" font-family="Arial" font-size="8" font-weight="bold" x="500" y="976">FACILITY</text><text fill="#CE181E" font-family="Arial" font-size="11" font-weight="bold" x="500" y="990">~50 kW</text><text fill="#6b7280" font-family="Arial" font-size="8" font-weight="bold" x="720" y="976">NETWORK</text><text fill="#CE181E" font-family="Arial" font-size="11" font-weight="bold" x="720" y="990">~15 kW</text><text fill="#6b7280" font-family="Arial" font-size="8" font-weight="bold" x="940" y="976">TOTAL DRAW</text><text fill="#CE181E" font-family="Arial" font-size="11" font-weight="bold" x="940" y="990">~650 kW</text><text fill="#6b7280" font-family="Arial" font-size="8" font-weight="bold" x="1160" y="976">GENSET CAPACITY</text><text fill="#CE181E" font-family="Arial" font-size="11" font-weight="bold" x="1160" y="990">4,800 kW (3x G3516J N+1)</text><text fill="#4b5563" font-family="Arial" font-size="8" x="35" y="1020">1. 3x Caterpillar G3516J natural gas generators: 1.6 MW each, 480V AC output — ATMOS gas trunk line on property</text><text fill="#4b5563" font-family="Arial" font-size="8" x="35" y="1033">2. N+1 redundancy: 3x G3516J = 4.8 MW total capacity for single-unit-offline resilience</text><text fill="#4b5563" font-family="Arial" font-size="8" x="35" y="1046">3. Eaton Beam Rubin DSX + ORV3 Sidecar: facility-level rectification (480V AC to 800V DC per NVIDIA DSX Reference Design)</text><text fill="#4b5563" font-family="Arial" font-size="8" x="35" y="1059">4. DELTA 660 kW Power Rack: rack-level distribution (6x 110 kW shelves, 480 kW embedded BBU). e-Fuse: SiC, &lt;3 us fault isolation</text><text fill="#4b5563" font-family="Arial" font-size="8" x="35" y="1072">5. DELTA 90 kW DC/DC: 800V to 50V for NVIDIA MGX bus. Complete dual-vendor power stack: Eaton (facility) + Delta (rack)</text><text fill="#4b5563" font-family="Arial" font-size="8" x="35" y="1085">6. First Solar Series 7 TR1 (550W) rooftop arrays: 3,731 panels = 2.05 MW, DC-Direct at 97% eff</text><text fill="#4b5563" font-family="Arial" font-size="8" x="35" y="1098">7. ABB SACE Infinitus DC protection. Eaton xStorage BESS on 800V DC bus — ride-through + peak shaving</text><text fill="#4b5563" font-family="Arial" font-size="8" x="35" y="1111">8. Diesel genset (Layer 3) pipeline-independent backup. LUS grid SELL-BACK ONLY (Layer 4)</text><rect fill="#fbbf24" height="8" width="8" x="35" y="1126" /><text fill="#6b7280" font-family="Arial" font-size="8" font-weight="bold" x="49" y="1134">LAYER 1: SOLAR — Primary Offset — 2.05 MW rooftop</text><rect fill="#22c55e" height="8" width="8" x="365" y="1126" /><text fill="#6b7280" font-family="Arial" font-size="8" font-weight="bold" x="379" y="1134">LAYER 2: NATURAL GAS — Backbone — 3x G3516J 24/7</text><rect fill="#ef4444" height="8" width="8" x="695" y="1126" /><text fill="#6b7280" font-family="Arial" font-size="8" font-weight="bold" x="709" y="1134">LAYER 3: DIESEL — Emergency Only</text><rect fill="#ef4444" height="8" width="8" x="1025" y="1126" /><text fill="#6b7280" font-family="Arial" font-size="8" font-weight="bold" x="1039" y="1134">LAYER 4: GRID (LUS) — Sell-Back Only</text></svg>