<?xml version="1.0" encoding="utf-8" ?>
<svg baseProfile="full" height="960px" version="1.1" viewBox="0 0 1400 960" width="1400px" xmlns="http://www.w3.org/2000/svg" xmlns:ev="http://www.w3.org/2001/xml-events" xmlns:xlink="http://www.w3.org/1999/xlink"><defs /><rect fill="#0a0b0f" height="960" width="1400" x="0" y="0" /><text fill="#f0f2f5" font-family="Arial" font-size="16" font-weight="bold" text-anchor="middle" x="700.0" y="24">TIGER COMPUTE CAMPUS — WILLOW GLEN, ST. GABRIEL, LA</text><text fill="#4fc3f7" font-family="Arial" font-size="10" font-weight="bold" text-anchor="middle" x="700.0" y="40">COOLING FLOW SCHEMATIC | MISSISSIPPI RIVER ONCE-THROUGH + LIQUID-COOLED GPU RACKS</text><text fill="#6b7280" font-family="Arial" font-size="9" text-anchor="middle" x="700.0" y="54">Sheet C-001 | MVP Design Intent | 2026-03-22 | NOT FOR CONSTRUCTION</text><rect fill="#0a1628" height="680" rx="8" stroke="#1e3a5f" stroke-width="2" width="100" x="30" y="80" /><text fill="#1e3a5f" font-family="Arial" font-size="14" font-weight="bold" text-anchor="middle" transform="rotate(90, 80, 120)" x="80" y="120">MISSISSIPPI</text><text fill="#1e3a5f" font-family="Arial" font-size="14" font-weight="bold" text-anchor="middle" transform="rotate(90, 80, 180)" x="80" y="180">RIVER</text><text fill="#1e3a5f" font-family="Arial" font-size="9" font-weight="bold" x="40" y="760">Avg: 68-82F</text><text fill="#1e3a5f" font-family="Arial" font-size="9" font-weight="bold" x="40" y="772">3,500 ft frontage</text><polyline fill="none" points="130,200 170,200" stroke="#4fc3f7" stroke-width="4" /><polygon fill="#4fc3f7" points="168,195 168,205 176,200" /><text fill="#4fc3f7" font-family="Arial" font-size="9" font-weight="bold" x="135" y="190">COLD SUPPLY</text><g><rect fill="#1a1a2e" height="160" rx="4" ry="4" stroke="#4fc3f7" stroke-width="1.5" width="150" x="170" y="120" /><text fill="#4fc3f7" font-family="Arial" font-size="11" font-weight="bold" text-anchor="middle" x="245.0" y="165.0">RIVER WATER</text><text fill="#4fc3f7" font-family="Arial" font-size="10" font-weight="normal" text-anchor="middle" x="245.0" y="179.0">INTAKE</text><text fill="#4fc3f7" font-family="Arial" font-size="10" font-weight="normal" text-anchor="middle" x="245.0" y="193.0">STRUCTURE</text><text fill="#4fc3f7" font-family="Arial" font-size="10" font-weight="normal" text-anchor="middle" x="245.0" y="207.0" /><text fill="#4fc3f7" font-family="Arial" font-size="10" font-weight="normal" text-anchor="middle" x="245.0" y="221.0">Trash Racks</text><text fill="#4fc3f7" font-family="Arial" font-size="10" font-weight="normal" text-anchor="middle" x="245.0" y="235.0">Traveling Screens</text><text fill="#4fc3f7" font-family="Arial" font-size="10" font-weight="normal" text-anchor="middle" x="245.0" y="249.0">Intake Pumps</text><text fill="#6b7280" font-family="Arial" font-size="8" text-anchor="middle" x="245.0" y="276">43 ft depth | Existing infrastructure</text></g><polyline fill="none" points="170,500 130,500" stroke="#ff6b6b" stroke-width="4" /><polygon fill="#ff6b6b" points="132,495 132,505 124,500" /><text fill="#ff6b6b" font-family="Arial" font-size="9" font-weight="bold" x="135" y="490">WARM RETURN</text><polyline fill="none" points="320,200 370,200" stroke="#4fc3f7" stroke-width="3" /><polygon fill="#4fc3f7" points="368,195 368,205 376,200" /><text fill="#4fc3f7" font-family="Arial" font-size="9" font-weight="bold" x="330" y="190">68-82F</text><g><rect fill="#1a1a2e" height="120" rx="4" ry="4" stroke="#4fc3f7" stroke-width="1.5" width="130" x="370" y="140" /><text fill="#93c5fd" font-family="Arial" font-size="11" font-weight="bold" text-anchor="middle" x="435.0" y="172.0">FILTRATION</text><text fill="#93c5fd" font-family="Arial" font-size="10" font-weight="normal" text-anchor="middle" x="435.0" y="186.0">SYSTEM</text><text fill="#93c5fd" font-family="Arial" font-size="10" font-weight="normal" text-anchor="middle" x="435.0" y="200.0" /><text fill="#93c5fd" font-family="Arial" font-size="10" font-weight="normal" text-anchor="middle" x="435.0" y="214.0">Sand Filters</text><text fill="#93c5fd" font-family="Arial" font-size="10" font-weight="normal" text-anchor="middle" x="435.0" y="228.0">Strainers</text><text fill="#93c5fd" font-family="Arial" font-size="10" font-weight="normal" text-anchor="middle" x="435.0" y="242.0">Chemical Treatment</text><text fill="#6b7280" font-family="Arial" font-size="8" text-anchor="middle" x="435.0" y="256">Prevent fouling</text></g><polyline fill="none" points="500,200 550,200" stroke="#4fc3f7" stroke-width="3" /><polygon fill="#4fc3f7" points="548,195 548,205 556,200" /><g><rect fill="#1a1a2e" height="200" rx="4" ry="4" stroke="#22c55e" stroke-width="1.5" width="180" x="550" y="100" /><text fill="#86efac" font-family="Arial" font-size="11" font-weight="bold" text-anchor="middle" x="640.0" y="151.0">PLATE HEAT</text><text fill="#86efac" font-family="Arial" font-size="10" font-weight="normal" text-anchor="middle" x="640.0" y="165.0">EXCHANGERS</text><text fill="#86efac" font-family="Arial" font-size="10" font-weight="normal" text-anchor="middle" x="640.0" y="179.0">(PHX)</text><text fill="#86efac" font-family="Arial" font-size="10" font-weight="normal" text-anchor="middle" x="640.0" y="193.0" /><text fill="#86efac" font-family="Arial" font-size="10" font-weight="normal" text-anchor="middle" x="640.0" y="207.0">Mississippi River +</text><text fill="#86efac" font-family="Arial" font-size="10" font-weight="normal" text-anchor="middle" x="640.0" y="221.0">Plate Heat Exchangers</text><text fill="#86efac" font-family="Arial" font-size="10" font-weight="normal" text-anchor="middle" x="640.0" y="235.0" /><text fill="#86efac" font-family="Arial" font-size="10" font-weight="normal" text-anchor="middle" x="640.0" y="249.0">Isolates river from</text><text fill="#86efac" font-family="Arial" font-size="10" font-weight="normal" text-anchor="middle" x="640.0" y="263.0">IT cooling loop</text><text fill="#6b7280" font-family="Arial" font-size="8" text-anchor="middle" x="640.0" y="296">Titanium plates | Corrosion-resistant</text></g><polyline fill="none" points="640,300 640,380 435,380 435,500 245,500" stroke="#ff6b6b" stroke-width="3" /><polygon fill="#ff6b6b" points="247,495 247,505 239,500" /><text fill="#ff6b6b" font-family="Arial" font-size="9" font-weight="bold" x="530" y="375">RIVER RETURN 78-92F</text><text fill="#6b7280" font-family="Arial" font-size="8" x="440" y="510">Thermal discharge to Mississippi (LPDES LA0005851)</text><polyline fill="none" points="730,180 800,180" stroke="#22c55e" stroke-width="3" /><polygon fill="#22c55e" points="798,175 798,185 806,180" /><text fill="#22c55e" font-family="Arial" font-size="9" font-weight="bold" x="740" y="170">FACILITY LOOP 75-85F</text><text fill="#6b7280" font-family="Arial" font-size="8" x="740" y="195">Treated water / glycol mix</text><g><rect fill="#1a1a2e" height="180" rx="4" ry="4" stroke="#76b900" stroke-width="1.5" width="160" x="800" y="100" /><text fill="#76b900" font-family="Arial" font-size="11" font-weight="bold" text-anchor="middle" x="880.0" y="141.0">CoolIT CHx2000</text><text fill="#76b900" font-family="Arial" font-size="10" font-weight="normal" text-anchor="middle" x="880.0" y="155.0">CDUs (2,000 kW)</text><text fill="#76b900" font-family="Arial" font-size="10" font-weight="normal" text-anchor="middle" x="880.0" y="169.0" /><text fill="#76b900" font-family="Arial" font-size="10" font-weight="normal" text-anchor="middle" x="880.0" y="183.0">Facility Loop In</text><text fill="#76b900" font-family="Arial" font-size="10" font-weight="normal" text-anchor="middle" x="880.0" y="197.0">vs</text><text fill="#76b900" font-family="Arial" font-size="10" font-weight="normal" text-anchor="middle" x="880.0" y="211.0">Rack Loop Out</text><text fill="#76b900" font-family="Arial" font-size="10" font-weight="normal" text-anchor="middle" x="880.0" y="225.0" /><text fill="#76b900" font-family="Arial" font-size="10" font-weight="normal" text-anchor="middle" x="880.0" y="239.0">Staubli UQD</text><text fill="#76b900" font-family="Arial" font-size="10" font-weight="normal" text-anchor="middle" x="880.0" y="253.0">Quick-Disconnect</text><text fill="#6b7280" font-family="Arial" font-size="8" text-anchor="middle" x="880.0" y="276">Per-row CDU pairs | N+1</text></g><polyline fill="none" points="960,160 990,160" stroke="#76b900" stroke-width="3" /><polygon fill="#76b900" points="988,155 988,165 996,160" /><text fill="#76b900" font-family="Arial" font-size="9" font-weight="bold" x="965" y="150">TO IN-RACK CDU</text><g><rect fill="#1a1a2e" height="80" rx="4" ry="4" stroke="#00bcd4" stroke-width="1.5" width="130" x="990" y="120" /><text fill="#00e5ff" font-family="Arial" font-size="11" font-weight="bold" text-anchor="middle" x="1055.0" y="132.0">DELTA 140 kW</text><text fill="#00e5ff" font-family="Arial" font-size="10" font-weight="normal" text-anchor="middle" x="1055.0" y="146.0">IN-RACK CDU</text><text fill="#00e5ff" font-family="Arial" font-size="10" font-weight="normal" text-anchor="middle" x="1055.0" y="160.0">4RU | NVL72 Cert</text><text fill="#00e5ff" font-family="Arial" font-size="10" font-weight="normal" text-anchor="middle" x="1055.0" y="174.0" /><text fill="#00e5ff" font-family="Arial" font-size="10" font-weight="normal" text-anchor="middle" x="1055.0" y="188.0">Per-Rack Precision</text><text fill="#00e5ff" font-family="Arial" font-size="10" font-weight="normal" text-anchor="middle" x="1055.0" y="202.0">Cooling Control</text><text fill="#6b7280" font-family="Arial" font-size="8" text-anchor="middle" x="1055.0" y="196">Between row CDU &amp; manifold</text></g><polyline fill="none" points="1120,160 1160,160" stroke="#76b900" stroke-width="3" /><polygon fill="#76b900" points="1158,155 1158,165 1166,160" /><text fill="#76b900" font-family="Arial" font-size="9" font-weight="bold" x="1125" y="150">TO RACKS 45C (113F)</text><g><rect fill="#1a1a2e" height="60" rx="4" ry="4" stroke="#76b900" stroke-width="1.5" width="120" x="1160" y="110" /><text fill="#76b900" font-family="Arial" font-size="10" font-weight="bold" text-anchor="middle" x="1220.0" y="133.0">SUPPLY</text><text fill="#76b900" font-family="Arial" font-size="9" font-weight="normal" text-anchor="middle" x="1220.0" y="147.0">MANIFOLD</text><text fill="#76b900" font-family="Arial" font-size="9" font-weight="normal" text-anchor="middle" x="1220.0" y="161.0">HEADER</text></g><polyline fill="none" points="1220,170 1220,200" stroke="#76b900" stroke-width="2" /><g><rect fill="#111a00" height="55" rx="4" ry="4" stroke="#76b900" stroke-width="1.5" width="120" x="1160" y="200" /><text fill="#76b900" font-family="Arial" font-size="9" font-weight="bold" text-anchor="middle" x="1220.0" y="213.5">NVL72</text><text fill="#76b900" font-family="Arial" font-size="8" font-weight="normal" text-anchor="middle" x="1220.0" y="227.5">Rack 1-7</text><text fill="#76b900" font-family="Arial" font-size="8" font-weight="normal" text-anchor="middle" x="1220.0" y="241.5">130 kW each</text><text fill="#76b900" font-family="Arial" font-size="8" font-weight="normal" text-anchor="middle" x="1220.0" y="255.5">Liquid Cooled</text><text fill="#6b7280" font-family="Arial" font-size="8" text-anchor="middle" x="1220.0" y="251">Cold plates on GPU/HBM</text></g><polyline fill="none" points="1280,228 1315,228" stroke="#ff6b6b" stroke-width="2" /><polyline fill="none" points="1220,170 1220,280" stroke="#76b900" stroke-width="2" /><g><rect fill="#111a00" height="55" rx="4" ry="4" stroke="#76b900" stroke-width="1.5" width="120" x="1160" y="280" /><text fill="#76b900" font-family="Arial" font-size="9" font-weight="bold" text-anchor="middle" x="1220.0" y="293.5">NVL72</text><text fill="#76b900" font-family="Arial" font-size="8" font-weight="normal" text-anchor="middle" x="1220.0" y="307.5">Rack 8-14</text><text fill="#76b900" font-family="Arial" font-size="8" font-weight="normal" text-anchor="middle" x="1220.0" y="321.5">130 kW each</text><text fill="#76b900" font-family="Arial" font-size="8" font-weight="normal" text-anchor="middle" x="1220.0" y="335.5">Liquid Cooled</text><text fill="#6b7280" font-family="Arial" font-size="8" text-anchor="middle" x="1220.0" y="331">Cold plates on GPU/HBM</text></g><polyline fill="none" points="1280,308 1315,308" stroke="#ff6b6b" stroke-width="2" /><polyline fill="none" points="1220,170 1220,360" stroke="#76b900" stroke-width="2" /><g><rect fill="#111a00" height="55" rx="4" ry="4" stroke="#76b900" stroke-width="1.5" width="120" x="1160" y="360" /><text fill="#76b900" font-family="Arial" font-size="9" font-weight="bold" text-anchor="middle" x="1220.0" y="373.5">NVL72</text><text fill="#76b900" font-family="Arial" font-size="8" font-weight="normal" text-anchor="middle" x="1220.0" y="387.5">Rack 15-21</text><text fill="#76b900" font-family="Arial" font-size="8" font-weight="normal" text-anchor="middle" x="1220.0" y="401.5">130 kW each</text><text fill="#76b900" font-family="Arial" font-size="8" font-weight="normal" text-anchor="middle" x="1220.0" y="415.5">Liquid Cooled</text><text fill="#6b7280" font-family="Arial" font-size="8" text-anchor="middle" x="1220.0" y="411">Cold plates on GPU/HBM</text></g><polyline fill="none" points="1280,388 1315,388" stroke="#ff6b6b" stroke-width="2" /><polyline fill="none" points="1220,170 1220,440" stroke="#76b900" stroke-width="2" /><g><rect fill="#111a00" height="55" rx="4" ry="4" stroke="#76b900" stroke-width="1.5" width="120" x="1160" y="440" /><text fill="#76b900" font-family="Arial" font-size="9" font-weight="bold" text-anchor="middle" x="1220.0" y="453.5">NVL72</text><text fill="#76b900" font-family="Arial" font-size="8" font-weight="normal" text-anchor="middle" x="1220.0" y="467.5">Rack 22-28</text><text fill="#76b900" font-family="Arial" font-size="8" font-weight="normal" text-anchor="middle" x="1220.0" y="481.5">130 kW each</text><text fill="#76b900" font-family="Arial" font-size="8" font-weight="normal" text-anchor="middle" x="1220.0" y="495.5">Liquid Cooled</text><text fill="#6b7280" font-family="Arial" font-size="8" text-anchor="middle" x="1220.0" y="491">Cold plates on GPU/HBM</text></g><polyline fill="none" points="1280,468 1315,468" stroke="#ff6b6b" stroke-width="2" /><polyline fill="none" points="1220,170 1220,520" stroke="#76b900" stroke-width="2" /><g><rect fill="#111a00" height="55" rx="4" ry="4" stroke="#76b900" stroke-width="1.5" width="120" x="1160" y="520" /><text fill="#76b900" font-family="Arial" font-size="9" font-weight="bold" text-anchor="middle" x="1220.0" y="533.5">NVL72</text><text fill="#76b900" font-family="Arial" font-size="8" font-weight="normal" text-anchor="middle" x="1220.0" y="547.5">Rack 29-36</text><text fill="#76b900" font-family="Arial" font-size="8" font-weight="normal" text-anchor="middle" x="1220.0" y="561.5">130 kW each</text><text fill="#76b900" font-family="Arial" font-size="8" font-weight="normal" text-anchor="middle" x="1220.0" y="575.5">Liquid Cooled</text><text fill="#6b7280" font-family="Arial" font-size="8" text-anchor="middle" x="1220.0" y="571">Cold plates on GPU/HBM</text></g><polyline fill="none" points="1280,548 1315,548" stroke="#ff6b6b" stroke-width="2" /><g><rect fill="#1a1a2e" height="60" rx="4" ry="4" stroke="#ff6b6b" stroke-width="1.5" width="110" x="1315" y="110" /><text fill="#ff6b6b" font-family="Arial" font-size="10" font-weight="bold" text-anchor="middle" x="1370.0" y="133.0">RETURN</text><text fill="#ff6b6b" font-family="Arial" font-size="9" font-weight="normal" text-anchor="middle" x="1370.0" y="147.0">MANIFOLD</text><text fill="#ff6b6b" font-family="Arial" font-size="9" font-weight="normal" text-anchor="middle" x="1370.0" y="161.0">HEADER</text></g><polyline fill="none" points="1370,228 1370,170" stroke="#ff6b6b" stroke-width="2" /><polyline fill="none" points="1370,308 1370,170" stroke="#ff6b6b" stroke-width="2" /><polyline fill="none" points="1370,388 1370,170" stroke="#ff6b6b" stroke-width="2" /><polyline fill="none" points="1370,468 1370,170" stroke="#ff6b6b" stroke-width="2" /><polyline fill="none" points="1370,548 1370,170" stroke="#ff6b6b" stroke-width="2" /><polyline fill="none" points="1370,170 1370,620 880,620 880,280" stroke="#ff6b6b" stroke-width="3" /><text fill="#ff6b6b" font-family="Arial" font-size="9" font-weight="bold" x="1380" y="615">RETURN FROM RACKS 55-60C (131-140F)</text><polyline fill="none" points="800,250 730,250 730,240 640,240" stroke="#ff6b6b" stroke-width="3" /><text fill="#ff6b6b" font-family="Arial" font-size="9" font-weight="bold" x="740" y="245">FACILITY RETURN 95-105F</text><g><rect fill="#1a1a2e" height="70" rx="4" ry="4" stroke="#fbbf24" stroke-width="1.5" width="200" x="550" y="650" /><text fill="#fbbf24" font-family="Arial" font-size="11" font-weight="bold" text-anchor="middle" x="650.0" y="678.0">ORC WASTE HEAT</text><text fill="#fbbf24" font-family="Arial" font-size="10" font-weight="normal" text-anchor="middle" x="650.0" y="692.0">RECOVERY (FUTURE)</text><text fill="#fbbf24" font-family="Arial" font-size="10" font-weight="normal" text-anchor="middle" x="650.0" y="706.0">8-11 MW from exhaust</text><text fill="#6b7280" font-family="Arial" font-size="8" text-anchor="middle" x="650.0" y="716">Ormat Technologies</text></g><g><rect fill="#1a1a2e" height="70" rx="4" ry="4" stroke="#fbbf24" stroke-width="1.5" width="200" x="800" y="650" /><text fill="#fbbf24" font-family="Arial" font-size="11" font-weight="bold" text-anchor="middle" x="900.0" y="678.0">ABSORPTION CHILLER</text><text fill="#fbbf24" font-family="Arial" font-size="10" font-weight="normal" text-anchor="middle" x="900.0" y="692.0">(FUTURE)</text><text fill="#fbbf24" font-family="Arial" font-size="10" font-weight="normal" text-anchor="middle" x="900.0" y="706.0">11,000+ tons cooling</text><text fill="#6b7280" font-family="Arial" font-size="8" text-anchor="middle" x="900.0" y="716">YORK/Trane | Waste heat driven</text></g><polyline fill="none" points="650,650 650,620" stroke="#fbbf24" stroke-dasharray="8,4" stroke-width="1" /><polyline fill="none" points="900,650 900,620" stroke="#fbbf24" stroke-dasharray="8,4" stroke-width="1" /><text fill="#6b7280" font-family="Arial" font-size="8" x="555" y="642">FUTURE WASTE HEAT RECOVERY — Exhaust heat from generators + hot return water</text><rect fill="#111318" height="70" rx="6" stroke="#1e2230" width="500" x="170" y="755" /><rect fill="#4fc3f7" height="6" rx="1" width="12" x="185" y="765" /><text fill="#9ca3af" font-family="Arial" font-size="8" x="203" y="771">Cold Supply (River Water 68-82F)</text><rect fill="#22c55e" height="6" rx="1" width="12" x="185" y="775" /><text fill="#9ca3af" font-family="Arial" font-size="8" x="203" y="781">Facility Loop (Treated 75-85F)</text><rect fill="#00e5ff" height="6" rx="1" width="12" x="185" y="785" /><text fill="#9ca3af" font-family="Arial" font-size="8" x="203" y="791">Delta 140 kW In-Rack CDU (4RU, NVL72 Cert)</text><rect fill="#76b900" height="6" rx="1" width="12" x="185" y="795" /><text fill="#9ca3af" font-family="Arial" font-size="8" x="203" y="801">Rack Supply (45C / 113F)</text><rect fill="#ff6b6b" height="6" rx="1" width="12" x="185" y="805" /><text fill="#9ca3af" font-family="Arial" font-size="8" x="203" y="811">Warm Return (55-60C / 131-140F)</text><rect fill="#fbbf24" height="6" rx="1" width="12" x="185" y="815" /><text fill="#9ca3af" font-family="Arial" font-size="8" x="203" y="821">Future Waste Heat Recovery</text><rect fill="#111318" height="55" rx="6" stroke="#1e2230" width="650" x="720" y="755" /><text fill="#6b7280" font-family="Arial" font-size="7" font-weight="bold" x="735" y="772">RIVER FRONTAGE</text><text fill="#4fc3f7" font-family="Arial" font-size="10" font-weight="bold" x="735" y="784">3,500 ft</text><text fill="#6b7280" font-family="Arial" font-size="7" font-weight="bold" x="865" y="772">DOCK DEPTH</text><text fill="#4fc3f7" font-family="Arial" font-size="10" font-weight="bold" x="865" y="784">43 ft</text><text fill="#6b7280" font-family="Arial" font-size="7" font-weight="bold" x="995" y="772">COOLING SOURCE</text><text fill="#4fc3f7" font-family="Arial" font-size="10" font-weight="bold" x="995" y="784">Once-Through</text><text fill="#6b7280" font-family="Arial" font-size="7" font-weight="bold" x="1125" y="772">RACK COOLING</text><text fill="#4fc3f7" font-family="Arial" font-size="10" font-weight="bold" x="1125" y="784">45C Hot Water</text><text fill="#6b7280" font-family="Arial" font-size="7" font-weight="bold" x="1255" y="772">DISCHARGE PERMIT</text><text fill="#4fc3f7" font-family="Arial" font-size="10" font-weight="bold" x="1255" y="784">LPDES LA0005851</text><text fill="#4b5563" font-family="Arial" font-size="7" x="35" y="830">1. Mississippi River provides unlimited cooling capacity — 3,500 ft of frontage, 43-ft deepwater dock on-site</text><text fill="#4b5563" font-family="Arial" font-size="7" x="35" y="842">2. Once-through cooling was the original system for the 2,200 MW Entergy plant — intake infrastructure may still exist (verify on site visit)</text><text fill="#4b5563" font-family="Arial" font-size="7" x="35" y="854">3. Plate heat exchangers isolate river water from the facility cooling loop — prevents contamination of IT systems</text><text fill="#4b5563" font-family="Arial" font-size="7" x="35" y="866">4. NVIDIA NVL72 racks use direct liquid cooling with 45C (113F) hot water supply — no chillers needed in most conditions</text><text fill="#4b5563" font-family="Arial" font-size="7" x="35" y="878">5. CoolIT CHx2000 row-level CDUs (2,000 kW) + Delta 140 kW In-Rack CDUs (4RU, NVL72 certified) for per-rack precision cooling — Staubli UQD — N+1</text><text fill="#4b5563" font-family="Arial" font-size="7" x="35" y="890">6. LPDES permit LA0005851 already transferred to Willow Glen Ventures (Aug 2019) — thermal discharge pre-permitted</text><text fill="#4b5563" font-family="Arial" font-size="7" x="35" y="902">7. ORC waste heat recovery (future) can generate 8-11 MW of electricity from generator exhaust — Ormat Technologies</text><text fill="#4b5563" font-family="Arial" font-size="7" x="35" y="914">8. Absorption chillers (future) can produce 11,000+ tons of cooling from waste heat — eliminates mechanical cooling entirely</text></svg>