<?xml version="1.0" encoding="utf-8" ?>
<svg baseProfile="full" height="1200px" version="1.1" viewBox="0 0 1400 1200" width="1400px" xmlns="http://www.w3.org/2000/svg" xmlns:ev="http://www.w3.org/2001/xml-events" xmlns:xlink="http://www.w3.org/1999/xlink"><defs /><rect fill="#0a0b0f" height="1200" width="1400" x="0" y="0" /><text fill="#f0f2f5" font-family="Arial" font-size="16" font-weight="bold" text-anchor="middle" x="700.0" y="24">TIGER COMPUTE CAMPUS — WILLOW GLEN, ST. GABRIEL, LA</text><text fill="#3b82f6" font-family="Arial" font-size="10" font-weight="bold" text-anchor="middle" x="700.0" y="40">ELECTRICAL SINGLE-LINE DIAGRAM | 800V DC NATIVE ARCHITECTURE | NVIDIA DSX REFERENCE DESIGN</text><text fill="#6b7280" font-family="Arial" font-size="9" text-anchor="middle" x="700.0" y="54">Sheet E-001 | MVP Design Intent | 2026-03-22 | NOT FOR CONSTRUCTION</text><g><rect fill="#1a1a2e" height="55" rx="4" ry="4" stroke="#ef4444" stroke-width="1.5" width="160" x="20" y="75" /><text fill="#ef4444" font-family="Arial" font-size="11" font-weight="bold" text-anchor="middle" x="100.0" y="102.5">ENTERGY 500kV</text><text fill="#ef4444" font-family="Arial" font-size="10" font-weight="normal" text-anchor="middle" x="100.0" y="116.5">SUBSTATION</text><text fill="#6b7280" font-family="Arial" font-size="8" text-anchor="middle" x="100.0" y="126">On-site | Willow Glen–Waterford Line</text></g><g><rect fill="#1a1a2e" height="55" rx="4" ry="4" stroke="#ef4444" stroke-width="1.5" width="160" x="200" y="75" /><text fill="#ef4444" font-family="Arial" font-size="11" font-weight="bold" text-anchor="middle" x="280.0" y="102.5">ENTERGY 230kV</text><text fill="#ef4444" font-family="Arial" font-size="10" font-weight="normal" text-anchor="middle" x="280.0" y="116.5">SUBSTATION</text><text fill="#6b7280" font-family="Arial" font-size="8" text-anchor="middle" x="280.0" y="126">On-site | Willow Glen–Conway Line</text></g><g><rect fill="#1a2e1a" height="55" rx="4" ry="4" stroke="#22c55e" stroke-width="1.5" width="120" x="520" y="75" /><text fill="#22c55e" font-family="Arial" font-size="11" font-weight="bold" text-anchor="middle" x="580.0" y="102.5">CAT G3616A4</text><text fill="#22c55e" font-family="Arial" font-size="10" font-weight="normal" text-anchor="middle" x="580.0" y="116.5">#1 — 8.7 MW</text><text fill="#6b7280" font-family="Arial" font-size="8" text-anchor="middle" x="580.0" y="126">Natural Gas | H2-Ready 25%</text></g><g><rect fill="#1a2e1a" height="55" rx="4" ry="4" stroke="#22c55e" stroke-width="1.5" width="120" x="660" y="75" /><text fill="#22c55e" font-family="Arial" font-size="11" font-weight="bold" text-anchor="middle" x="720.0" y="102.5">CAT G3616A4</text><text fill="#22c55e" font-family="Arial" font-size="10" font-weight="normal" text-anchor="middle" x="720.0" y="116.5">#2 — 8.7 MW</text><text fill="#6b7280" font-family="Arial" font-size="8" text-anchor="middle" x="720.0" y="126">Natural Gas | H2-Ready 25%</text></g><g><rect fill="#1a2e1a" height="55" rx="4" ry="4" stroke="#22c55e" stroke-width="1.5" width="120" x="800" y="75" /><text fill="#22c55e" font-family="Arial" font-size="11" font-weight="bold" text-anchor="middle" x="860.0" y="102.5">CAT G3616A4</text><text fill="#22c55e" font-family="Arial" font-size="10" font-weight="normal" text-anchor="middle" x="860.0" y="116.5">#3 (N+1)</text><text fill="#6b7280" font-family="Arial" font-size="8" text-anchor="middle" x="860.0" y="126">Redundant | Maintenance Spare</text></g><g><rect fill="#1a1a2e" height="55" rx="4" ry="4" stroke="#fbbf24" stroke-width="1.5" width="140" x="980" y="75" /><text fill="#fbbf24" font-family="Arial" font-size="11" font-weight="bold" text-anchor="middle" x="1050.0" y="102.5">FIRST SOLAR</text><text fill="#fbbf24" font-family="Arial" font-size="10" font-weight="normal" text-anchor="middle" x="1050.0" y="116.5">Ground Mount</text><text fill="#6b7280" font-family="Arial" font-size="8" text-anchor="middle" x="1050.0" y="126">Series 7 TR1 (550W) | 5-panel @ 952V</text></g><g><rect fill="#2e1a1a" height="55" rx="4" ry="4" stroke="#ef4444" stroke-width="1.5" width="120" x="1180" y="75" /><text fill="#ef4444" font-family="Arial" font-size="11" font-weight="bold" text-anchor="middle" x="1240.0" y="102.5">DIESEL GENSET</text><text fill="#ef4444" font-family="Arial" font-size="10" font-weight="normal" text-anchor="middle" x="1240.0" y="116.5">Emergency</text><text fill="#6b7280" font-family="Arial" font-size="8" text-anchor="middle" x="1240.0" y="126">Layer 3 | Pipeline-Independent</text></g><line stroke="#ef4444" stroke-width="1.5" x1="100" x2="100" y1="130" y2="180" /><polygon fill="#ef4444" points="96,174 104,174 100,180" /><line stroke="#ef4444" stroke-width="1.5" x1="280" x2="280" y1="130" y2="180" /><polygon fill="#ef4444" points="276,174 284,174 280,180" /><g><rect fill="#1a1a2e" height="50" rx="4" ry="4" stroke="#ef4444" stroke-width="1.5" width="240" x="80" y="180" /><text fill="#e0e0e0" font-family="Arial" font-size="11" font-weight="bold" text-anchor="middle" x="200.0" y="205.0">MAIN STEP-DOWN TRANSFORMERS</text><text fill="#e0e0e0" font-family="Arial" font-size="10" font-weight="normal" text-anchor="middle" x="200.0" y="219.0">500kV/230kV → 13.8kV AC</text><text fill="#6b7280" font-family="Arial" font-size="8" text-anchor="middle" x="200.0" y="226">Oil-filled | Entergy-owned | Bidirectional for sell-back</text></g><line stroke="#22c55e" stroke-width="1.5" x1="580" x2="580" y1="130" y2="180" /><polygon fill="#22c55e" points="576,174 584,174 580,180" /><line stroke="#22c55e" stroke-width="1.5" x1="720" x2="720" y1="130" y2="180" /><polygon fill="#22c55e" points="716,174 724,174 720,180" /><line stroke="#22c55e" stroke-width="1.5" x1="860" x2="860" y1="130" y2="180" /><polygon fill="#22c55e" points="856,174 864,174 860,180" /><g><rect fill="#1a1a2e" height="50" rx="4" ry="4" stroke="#22c55e" stroke-width="1.5" width="500" x="500" y="180" /><text fill="#e0e0e0" font-family="Arial" font-size="11" font-weight="bold" text-anchor="middle" x="750.0" y="205.0">PARALLELING SWITCHGEAR + ATS</text><text fill="#e0e0e0" font-family="Arial" font-size="10" font-weight="normal" text-anchor="middle" x="750.0" y="219.0">Louisiana Cat Switchgear &amp; Paralleling Controls</text><text fill="#6b7280" font-family="Arial" font-size="8" text-anchor="middle" x="750.0" y="226">Auto-sync generators to bus | Auto-transfer on loss | Load sharing</text></g><line stroke="#ef4444" stroke-width="1.5" x1="1240" x2="1240" y1="130" y2="180" /><polygon fill="#ef4444" points="1236,174 1244,174 1240,180" /><g><rect fill="#1a1a2e" height="50" rx="4" ry="4" stroke="#ef4444" stroke-width="1.5" width="160" x="1160" y="180" /><text fill="#e0e0e0" font-family="Arial" font-size="11" font-weight="bold" text-anchor="middle" x="1240.0" y="205.0">EMERGENCY ATS</text><text fill="#e0e0e0" font-family="Arial" font-size="10" font-weight="normal" text-anchor="middle" x="1240.0" y="219.0">Diesel Transfer</text><text fill="#6b7280" font-family="Arial" font-size="8" text-anchor="middle" x="1240.0" y="226">Auto-start on dual failure</text></g><line stroke="#ef4444" stroke-width="1.5" x1="200" x2="200" y1="230" y2="275" /><polygon fill="#ef4444" points="196,269 204,269 200,275" /><line stroke="#22c55e" stroke-width="1.5" x1="750" x2="750" y1="230" y2="275" /><polygon fill="#22c55e" points="746,269 754,269 750,275" /><line stroke="#ef4444" stroke-width="1.5" x1="1240" x2="1240" y1="230" y2="275" /><polygon fill="#ef4444" points="1236,269 1244,269 1240,275" /><rect fill="#ff6b35" height="6" rx="2" width="1290" x="30" y="272" /><text fill="#ff6b35" font-family="Arial" font-size="10" font-weight="bold" text-anchor="middle" x="675.0" y="267">13.8kV AC DISTRIBUTION BUS</text><line stroke="#ff6b35" stroke-width="1.5" x1="400" x2="400" y1="278" y2="320" /><polygon fill="#ff6b35" points="396,314 404,314 400,320" /><line stroke="#ff6b35" stroke-width="1.5" x1="700" x2="700" y1="278" y2="320" /><polygon fill="#ff6b35" points="696,314 704,314 700,320" /><line stroke="#ff6b35" stroke-width="1.5" x1="1000" x2="1000" y1="278" y2="320" /><polygon fill="#ff6b35" points="996,314 1004,314 1000,320" /><g><rect fill="#1a1a2e" height="55" rx="4" ry="4" stroke="#8b5cf6" stroke-width="1.5" width="230" x="300" y="320" /><text fill="#c4b5fd" font-family="Arial" font-size="11" font-weight="bold" text-anchor="middle" x="415.0" y="347.5">AC/DC RECTIFIER #1</text><text fill="#c4b5fd" font-family="Arial" font-size="10" font-weight="normal" text-anchor="middle" x="415.0" y="361.5">13.8kV AC → 800V DC</text><text fill="#6b7280" font-family="Arial" font-size="8" text-anchor="middle" x="415.0" y="371">Eaton Beam Rubin DSX + ORV3 Sidecar | 96%+ Eff</text></g><g><rect fill="#1a1a2e" height="55" rx="4" ry="4" stroke="#8b5cf6" stroke-width="1.5" width="230" x="600" y="320" /><text fill="#c4b5fd" font-family="Arial" font-size="11" font-weight="bold" text-anchor="middle" x="715.0" y="347.5">AC/DC RECTIFIER #2</text><text fill="#c4b5fd" font-family="Arial" font-size="10" font-weight="normal" text-anchor="middle" x="715.0" y="361.5">13.8kV AC → 800V DC</text><text fill="#6b7280" font-family="Arial" font-size="8" text-anchor="middle" x="715.0" y="371">Eaton Beam Rubin DSX + ORV3 Sidecar | 96%+ Eff</text></g><g><rect fill="#1a1a2e" height="55" rx="4" ry="4" stroke="#8b5cf6" stroke-width="1.5" width="230" x="900" y="320" /><text fill="#c4b5fd" font-family="Arial" font-size="11" font-weight="bold" text-anchor="middle" x="1015.0" y="347.5">AC/DC RECTIFIER #3</text><text fill="#c4b5fd" font-family="Arial" font-size="10" font-weight="normal" text-anchor="middle" x="1015.0" y="361.5">13.8kV AC → 800V DC</text><text fill="#6b7280" font-family="Arial" font-size="8" text-anchor="middle" x="1015.0" y="371">Eaton Beam Rubin DSX + ORV3 Sidecar | N+1</text></g><line stroke="#fbbf24" stroke-width="1.5" x1="1050" x2="1050" y1="130" y2="145" /><line stroke="#fbbf24" stroke-width="1.5" x1="1050" x2="1130" y1="145" y2="145" /><line stroke="#fbbf24" stroke-width="1.5" x1="1130" x2="1130" y1="145" y2="320" /><g><rect fill="#1a1a2e" height="55" rx="4" ry="4" stroke="#fbbf24" stroke-width="1.5" width="130" x="1075" y="320" /><text fill="#fbbf24" font-family="Arial" font-size="11" font-weight="bold" text-anchor="middle" x="1140.0" y="347.5">DC-DC CONVERTER</text><text fill="#fbbf24" font-family="Arial" font-size="10" font-weight="normal" text-anchor="middle" x="1140.0" y="361.5">952V → 800V DC</text><text fill="#6b7280" font-family="Arial" font-size="8" text-anchor="middle" x="1140.0" y="371">TI 800V-to-6V GaN | 97% Eff | Bypasses AC</text></g><line stroke="#8b5cf6" stroke-width="1.5" x1="415" x2="415" y1="375" y2="425" /><polygon fill="#8b5cf6" points="411,419 419,419 415,425" /><line stroke="#8b5cf6" stroke-width="1.5" x1="715" x2="715" y1="375" y2="425" /><polygon fill="#8b5cf6" points="711,419 719,419 715,425" /><line stroke="#8b5cf6" stroke-width="1.5" x1="1015" x2="1015" y1="375" y2="425" /><polygon fill="#8b5cf6" points="1011,419 1019,419 1015,425" /><line stroke="#8b5cf6" stroke-width="1.5" x1="1130" x2="1130" y1="375" y2="425" /><polygon fill="#8b5cf6" points="1126,419 1134,419 1130,425" /><rect fill="#8b5cf6" height="6" rx="2" width="1290" x="30" y="422" /><text fill="#8b5cf6" font-family="Arial" font-size="10" font-weight="bold" text-anchor="middle" x="675.0" y="417">800V DC DISTRIBUTION BUS — NVIDIA DSX REFERENCE ARCHITECTURE</text><line stroke="#8b5cf6" stroke-width="1.5" x1="100" x2="100" y1="428" y2="445" /><g><rect fill="#1a1a2e" height="50" rx="4" ry="4" stroke="#3b82f6" stroke-width="1.5" width="120" x="40" y="445" /><text fill="#93c5fd" font-family="Arial" font-size="11" font-weight="bold" text-anchor="middle" x="100.0" y="470.0">EATON xStorage</text><text fill="#93c5fd" font-family="Arial" font-size="10" font-weight="normal" text-anchor="middle" x="100.0" y="484.0">BESS (761-1200 VDC)</text><text fill="#6b7280" font-family="Arial" font-size="8" text-anchor="middle" x="100.0" y="491">800V DC | Grid Buffer
Ride-through | Peak Shaving</text></g><line stroke="#ef4444" stroke-width="1.5" x1="100" x2="100" y1="275" y2="260" /><text fill="#ef4444" font-family="Arial" font-size="8" x="110" y="267">↑ SELL-BACK TO ENTERGY (Layer 4)</text><line stroke="#8b5cf6" stroke-width="1.5" x1="255" x2="255" y1="428" y2="480" /><polygon fill="#8b5cf6" points="251,474 259,474 255,480" /><g><rect fill="#1a1a2e" height="40" rx="4" ry="4" stroke="#8b5cf6" stroke-width="1.5" width="110" x="200" y="480" /><text fill="#c4b5fd" font-family="Arial" font-size="9" font-weight="bold" text-anchor="middle" x="255.0" y="500.0">EATON BUSWAY</text><text fill="#c4b5fd" font-family="Arial" font-size="8" font-weight="normal" text-anchor="middle" x="255.0" y="514.0">800V DC</text></g><line stroke="#8b5cf6" stroke-width="1.5" x1="475" x2="475" y1="428" y2="480" /><polygon fill="#8b5cf6" points="471,474 479,474 475,480" /><g><rect fill="#1a1a2e" height="40" rx="4" ry="4" stroke="#8b5cf6" stroke-width="1.5" width="110" x="420" y="480" /><text fill="#c4b5fd" font-family="Arial" font-size="9" font-weight="bold" text-anchor="middle" x="475.0" y="500.0">EATON BUSWAY</text><text fill="#c4b5fd" font-family="Arial" font-size="8" font-weight="normal" text-anchor="middle" x="475.0" y="514.0">800V DC</text></g><line stroke="#8b5cf6" stroke-width="1.5" x1="695" x2="695" y1="428" y2="480" /><polygon fill="#8b5cf6" points="691,474 699,474 695,480" /><g><rect fill="#1a1a2e" height="40" rx="4" ry="4" stroke="#8b5cf6" stroke-width="1.5" width="110" x="640" y="480" /><text fill="#c4b5fd" font-family="Arial" font-size="9" font-weight="bold" text-anchor="middle" x="695.0" y="500.0">EATON BUSWAY</text><text fill="#c4b5fd" font-family="Arial" font-size="8" font-weight="normal" text-anchor="middle" x="695.0" y="514.0">800V DC</text></g><line stroke="#8b5cf6" stroke-width="1.5" x1="915" x2="915" y1="428" y2="480" /><polygon fill="#8b5cf6" points="911,474 919,474 915,480" /><g><rect fill="#1a1a2e" height="40" rx="4" ry="4" stroke="#8b5cf6" stroke-width="1.5" width="110" x="860" y="480" /><text fill="#c4b5fd" font-family="Arial" font-size="9" font-weight="bold" text-anchor="middle" x="915.0" y="500.0">EATON BUSWAY</text><text fill="#c4b5fd" font-family="Arial" font-size="8" font-weight="normal" text-anchor="middle" x="915.0" y="514.0">800V DC</text></g><line stroke="#8b5cf6" stroke-width="1.5" x1="1135" x2="1135" y1="428" y2="480" /><polygon fill="#8b5cf6" points="1131,474 1139,474 1135,480" /><g><rect fill="#1a1a2e" height="40" rx="4" ry="4" stroke="#8b5cf6" stroke-width="1.5" width="110" x="1080" y="480" /><text fill="#c4b5fd" font-family="Arial" font-size="9" font-weight="bold" text-anchor="middle" x="1135.0" y="500.0">EATON BUSWAY</text><text fill="#c4b5fd" font-family="Arial" font-size="8" font-weight="normal" text-anchor="middle" x="1135.0" y="514.0">800V DC</text></g><line stroke="#8b5cf6" stroke-width="1.5" x1="255" x2="255" y1="520" y2="545" /><polygon fill="#8b5cf6" points="251,539 259,539 255,545" /><g><rect fill="#1a1a2e" height="45" rx="4" ry="4" stroke="#00bcd4" stroke-width="1.5" width="110" x="200" y="545" /><text fill="#00e5ff" font-family="Arial" font-size="9" font-weight="bold" text-anchor="middle" x="255.0" y="560.5">DELTA 660 kW</text><text fill="#00e5ff" font-family="Arial" font-size="8" font-weight="normal" text-anchor="middle" x="255.0" y="574.5">POWER RACK</text><text fill="#00e5ff" font-family="Arial" font-size="8" font-weight="normal" text-anchor="middle" x="255.0" y="588.5">6x 110 kW Shelves</text><text fill="#6b7280" font-family="Arial" font-size="8" text-anchor="middle" x="255.0" y="586">480 kW Embedded BBU</text></g><line stroke="#8b5cf6" stroke-width="1.5" x1="475" x2="475" y1="520" y2="545" /><polygon fill="#8b5cf6" points="471,539 479,539 475,545" /><g><rect fill="#1a1a2e" height="45" rx="4" ry="4" stroke="#00bcd4" stroke-width="1.5" width="110" x="420" y="545" /><text fill="#00e5ff" font-family="Arial" font-size="9" font-weight="bold" text-anchor="middle" x="475.0" y="560.5">DELTA 660 kW</text><text fill="#00e5ff" font-family="Arial" font-size="8" font-weight="normal" text-anchor="middle" x="475.0" y="574.5">POWER RACK</text><text fill="#00e5ff" font-family="Arial" font-size="8" font-weight="normal" text-anchor="middle" x="475.0" y="588.5">6x 110 kW Shelves</text><text fill="#6b7280" font-family="Arial" font-size="8" text-anchor="middle" x="475.0" y="586">480 kW Embedded BBU</text></g><line stroke="#8b5cf6" stroke-width="1.5" x1="695" x2="695" y1="520" y2="545" /><polygon fill="#8b5cf6" points="691,539 699,539 695,545" /><g><rect fill="#1a1a2e" height="45" rx="4" ry="4" stroke="#00bcd4" stroke-width="1.5" width="110" x="640" y="545" /><text fill="#00e5ff" font-family="Arial" font-size="9" font-weight="bold" text-anchor="middle" x="695.0" y="560.5">DELTA 660 kW</text><text fill="#00e5ff" font-family="Arial" font-size="8" font-weight="normal" text-anchor="middle" x="695.0" y="574.5">POWER RACK</text><text fill="#00e5ff" font-family="Arial" font-size="8" font-weight="normal" text-anchor="middle" x="695.0" y="588.5">6x 110 kW Shelves</text><text fill="#6b7280" font-family="Arial" font-size="8" text-anchor="middle" x="695.0" y="586">480 kW Embedded BBU</text></g><line stroke="#8b5cf6" stroke-width="1.5" x1="915" x2="915" y1="520" y2="545" /><polygon fill="#8b5cf6" points="911,539 919,539 915,545" /><g><rect fill="#1a1a2e" height="45" rx="4" ry="4" stroke="#00bcd4" stroke-width="1.5" width="110" x="860" y="545" /><text fill="#00e5ff" font-family="Arial" font-size="9" font-weight="bold" text-anchor="middle" x="915.0" y="560.5">DELTA 660 kW</text><text fill="#00e5ff" font-family="Arial" font-size="8" font-weight="normal" text-anchor="middle" x="915.0" y="574.5">POWER RACK</text><text fill="#00e5ff" font-family="Arial" font-size="8" font-weight="normal" text-anchor="middle" x="915.0" y="588.5">6x 110 kW Shelves</text><text fill="#6b7280" font-family="Arial" font-size="8" text-anchor="middle" x="915.0" y="586">480 kW Embedded BBU</text></g><line stroke="#8b5cf6" stroke-width="1.5" x1="1135" x2="1135" y1="520" y2="545" /><polygon fill="#8b5cf6" points="1131,539 1139,539 1135,545" /><g><rect fill="#1a1a2e" height="45" rx="4" ry="4" stroke="#00bcd4" stroke-width="1.5" width="110" x="1080" y="545" /><text fill="#00e5ff" font-family="Arial" font-size="9" font-weight="bold" text-anchor="middle" x="1135.0" y="560.5">DELTA 660 kW</text><text fill="#00e5ff" font-family="Arial" font-size="8" font-weight="normal" text-anchor="middle" x="1135.0" y="574.5">POWER RACK</text><text fill="#00e5ff" font-family="Arial" font-size="8" font-weight="normal" text-anchor="middle" x="1135.0" y="588.5">6x 110 kW Shelves</text><text fill="#6b7280" font-family="Arial" font-size="8" text-anchor="middle" x="1135.0" y="586">480 kW Embedded BBU</text></g><line stroke="#00bcd4" stroke-width="1.5" x1="255" x2="255" y1="590" y2="615" /><polygon fill="#00bcd4" points="251,609 259,609 255,615" /><g><rect fill="#1a1a2e" height="35" rx="4" ry="4" stroke="#00bcd4" stroke-width="1.5" width="110" x="200" y="615" /><text fill="#00e5ff" font-family="Arial" font-size="9" font-weight="bold" text-anchor="middle" x="255.0" y="632.5">DELTA e-FUSE</text><text fill="#00e5ff" font-family="Arial" font-size="8" font-weight="normal" text-anchor="middle" x="255.0" y="646.5">SiC | &lt;3 us</text></g><line stroke="#00bcd4" stroke-width="1.5" x1="475" x2="475" y1="590" y2="615" /><polygon fill="#00bcd4" points="471,609 479,609 475,615" /><g><rect fill="#1a1a2e" height="35" rx="4" ry="4" stroke="#00bcd4" stroke-width="1.5" width="110" x="420" y="615" /><text fill="#00e5ff" font-family="Arial" font-size="9" font-weight="bold" text-anchor="middle" x="475.0" y="632.5">DELTA e-FUSE</text><text fill="#00e5ff" font-family="Arial" font-size="8" font-weight="normal" text-anchor="middle" x="475.0" y="646.5">SiC | &lt;3 us</text></g><line stroke="#00bcd4" stroke-width="1.5" x1="695" x2="695" y1="590" y2="615" /><polygon fill="#00bcd4" points="691,609 699,609 695,615" /><g><rect fill="#1a1a2e" height="35" rx="4" ry="4" stroke="#00bcd4" stroke-width="1.5" width="110" x="640" y="615" /><text fill="#00e5ff" font-family="Arial" font-size="9" font-weight="bold" text-anchor="middle" x="695.0" y="632.5">DELTA e-FUSE</text><text fill="#00e5ff" font-family="Arial" font-size="8" font-weight="normal" text-anchor="middle" x="695.0" y="646.5">SiC | &lt;3 us</text></g><line stroke="#00bcd4" stroke-width="1.5" x1="915" x2="915" y1="590" y2="615" /><polygon fill="#00bcd4" points="911,609 919,609 915,615" /><g><rect fill="#1a1a2e" height="35" rx="4" ry="4" stroke="#00bcd4" stroke-width="1.5" width="110" x="860" y="615" /><text fill="#00e5ff" font-family="Arial" font-size="9" font-weight="bold" text-anchor="middle" x="915.0" y="632.5">DELTA e-FUSE</text><text fill="#00e5ff" font-family="Arial" font-size="8" font-weight="normal" text-anchor="middle" x="915.0" y="646.5">SiC | &lt;3 us</text></g><line stroke="#00bcd4" stroke-width="1.5" x1="1135" x2="1135" y1="590" y2="615" /><polygon fill="#00bcd4" points="1131,609 1139,609 1135,615" /><g><rect fill="#1a1a2e" height="35" rx="4" ry="4" stroke="#00bcd4" stroke-width="1.5" width="110" x="1080" y="615" /><text fill="#00e5ff" font-family="Arial" font-size="9" font-weight="bold" text-anchor="middle" x="1135.0" y="632.5">DELTA e-FUSE</text><text fill="#00e5ff" font-family="Arial" font-size="8" font-weight="normal" text-anchor="middle" x="1135.0" y="646.5">SiC | &lt;3 us</text></g><line stroke="#00bcd4" stroke-width="1.5" x1="255" x2="255" y1="650" y2="675" /><polygon fill="#00bcd4" points="251,669 259,669 255,675" /><g><rect fill="#1a1a2e" height="40" rx="4" ry="4" stroke="#00bcd4" stroke-width="1.5" width="110" x="200" y="675" /><text fill="#00e5ff" font-family="Arial" font-size="9" font-weight="bold" text-anchor="middle" x="255.0" y="695.0">DELTA 90 kW DC/DC</text><text fill="#00e5ff" font-family="Arial" font-size="8" font-weight="normal" text-anchor="middle" x="255.0" y="709.0">800V -&gt; 50V</text><text fill="#6b7280" font-family="Arial" font-size="8" text-anchor="middle" x="255.0" y="711">NVIDIA MGX Bus</text></g><line stroke="#00bcd4" stroke-width="1.5" x1="475" x2="475" y1="650" y2="675" /><polygon fill="#00bcd4" points="471,669 479,669 475,675" /><g><rect fill="#1a1a2e" height="40" rx="4" ry="4" stroke="#00bcd4" stroke-width="1.5" width="110" x="420" y="675" /><text fill="#00e5ff" font-family="Arial" font-size="9" font-weight="bold" text-anchor="middle" x="475.0" y="695.0">DELTA 90 kW DC/DC</text><text fill="#00e5ff" font-family="Arial" font-size="8" font-weight="normal" text-anchor="middle" x="475.0" y="709.0">800V -&gt; 50V</text><text fill="#6b7280" font-family="Arial" font-size="8" text-anchor="middle" x="475.0" y="711">NVIDIA MGX Bus</text></g><line stroke="#00bcd4" stroke-width="1.5" x1="695" x2="695" y1="650" y2="675" /><polygon fill="#00bcd4" points="691,669 699,669 695,675" /><g><rect fill="#1a1a2e" height="40" rx="4" ry="4" stroke="#00bcd4" stroke-width="1.5" width="110" x="640" y="675" /><text fill="#00e5ff" font-family="Arial" font-size="9" font-weight="bold" text-anchor="middle" x="695.0" y="695.0">DELTA 90 kW DC/DC</text><text fill="#00e5ff" font-family="Arial" font-size="8" font-weight="normal" text-anchor="middle" x="695.0" y="709.0">800V -&gt; 50V</text><text fill="#6b7280" font-family="Arial" font-size="8" text-anchor="middle" x="695.0" y="711">NVIDIA MGX Bus</text></g><line stroke="#00bcd4" stroke-width="1.5" x1="915" x2="915" y1="650" y2="675" /><polygon fill="#00bcd4" points="911,669 919,669 915,675" /><g><rect fill="#1a1a2e" height="40" rx="4" ry="4" stroke="#00bcd4" stroke-width="1.5" width="110" x="860" y="675" /><text fill="#00e5ff" font-family="Arial" font-size="9" font-weight="bold" text-anchor="middle" x="915.0" y="695.0">DELTA 90 kW DC/DC</text><text fill="#00e5ff" font-family="Arial" font-size="8" font-weight="normal" text-anchor="middle" x="915.0" y="709.0">800V -&gt; 50V</text><text fill="#6b7280" font-family="Arial" font-size="8" text-anchor="middle" x="915.0" y="711">NVIDIA MGX Bus</text></g><line stroke="#00bcd4" stroke-width="1.5" x1="1135" x2="1135" y1="650" y2="675" /><polygon fill="#00bcd4" points="1131,669 1139,669 1135,675" /><g><rect fill="#1a1a2e" height="40" rx="4" ry="4" stroke="#00bcd4" stroke-width="1.5" width="110" x="1080" y="675" /><text fill="#00e5ff" font-family="Arial" font-size="9" font-weight="bold" text-anchor="middle" x="1135.0" y="695.0">DELTA 90 kW DC/DC</text><text fill="#00e5ff" font-family="Arial" font-size="8" font-weight="normal" text-anchor="middle" x="1135.0" y="709.0">800V -&gt; 50V</text><text fill="#6b7280" font-family="Arial" font-size="8" text-anchor="middle" x="1135.0" y="711">NVIDIA MGX Bus</text></g><line stroke="#8b5cf6" stroke-width="1.5" x1="255" x2="255" y1="715" y2="740" /><polygon fill="#8b5cf6" points="251,734 259,734 255,740" /><g><rect fill="#1a1a2e" height="40" rx="4" ry="4" stroke="#8b5cf6" stroke-width="1.5" width="110" x="200" y="740" /><text fill="#c4b5fd" font-family="Arial" font-size="9" font-weight="bold" text-anchor="middle" x="255.0" y="760.0">RACK PDU</text><text fill="#c4b5fd" font-family="Arial" font-size="8" font-weight="normal" text-anchor="middle" x="255.0" y="774.0">800V DC Input</text></g><line stroke="#8b5cf6" stroke-width="1.5" x1="475" x2="475" y1="715" y2="740" /><polygon fill="#8b5cf6" points="471,734 479,734 475,740" /><g><rect fill="#1a1a2e" height="40" rx="4" ry="4" stroke="#8b5cf6" stroke-width="1.5" width="110" x="420" y="740" /><text fill="#c4b5fd" font-family="Arial" font-size="9" font-weight="bold" text-anchor="middle" x="475.0" y="760.0">RACK PDU</text><text fill="#c4b5fd" font-family="Arial" font-size="8" font-weight="normal" text-anchor="middle" x="475.0" y="774.0">800V DC Input</text></g><line stroke="#8b5cf6" stroke-width="1.5" x1="695" x2="695" y1="715" y2="740" /><polygon fill="#8b5cf6" points="691,734 699,734 695,740" /><g><rect fill="#1a1a2e" height="40" rx="4" ry="4" stroke="#8b5cf6" stroke-width="1.5" width="110" x="640" y="740" /><text fill="#c4b5fd" font-family="Arial" font-size="9" font-weight="bold" text-anchor="middle" x="695.0" y="760.0">RACK PDU</text><text fill="#c4b5fd" font-family="Arial" font-size="8" font-weight="normal" text-anchor="middle" x="695.0" y="774.0">800V DC Input</text></g><line stroke="#8b5cf6" stroke-width="1.5" x1="915" x2="915" y1="715" y2="740" /><polygon fill="#8b5cf6" points="911,734 919,734 915,740" /><g><rect fill="#1a1a2e" height="40" rx="4" ry="4" stroke="#8b5cf6" stroke-width="1.5" width="110" x="860" y="740" /><text fill="#c4b5fd" font-family="Arial" font-size="9" font-weight="bold" text-anchor="middle" x="915.0" y="760.0">RACK PDU</text><text fill="#c4b5fd" font-family="Arial" font-size="8" font-weight="normal" text-anchor="middle" x="915.0" y="774.0">800V DC Input</text></g><line stroke="#8b5cf6" stroke-width="1.5" x1="1135" x2="1135" y1="715" y2="740" /><polygon fill="#8b5cf6" points="1131,734 1139,734 1135,740" /><g><rect fill="#1a1a2e" height="40" rx="4" ry="4" stroke="#8b5cf6" stroke-width="1.5" width="110" x="1080" y="740" /><text fill="#c4b5fd" font-family="Arial" font-size="9" font-weight="bold" text-anchor="middle" x="1135.0" y="760.0">RACK PDU</text><text fill="#c4b5fd" font-family="Arial" font-size="8" font-weight="normal" text-anchor="middle" x="1135.0" y="774.0">800V DC Input</text></g><line stroke="#8b5cf6" stroke-width="1.5" x1="255" x2="255" y1="780" y2="805" /><polygon fill="#8b5cf6" points="251,799 259,799 255,805" /><g><rect fill="#1a1a2e" height="40" rx="4" ry="4" stroke="#76b900" stroke-width="1.5" width="110" x="200" y="805" /><text fill="#76b900" font-family="Arial" font-size="9" font-weight="bold" text-anchor="middle" x="255.0" y="825.0">64:1 LLC DC-DC</text><text fill="#76b900" font-family="Arial" font-size="8" font-weight="normal" text-anchor="middle" x="255.0" y="839.0">800V → 12.5V</text><text fill="#6b7280" font-family="Arial" font-size="8" text-anchor="middle" x="255.0" y="841">Infineon CoolGaN IBC | 99%+</text></g><line stroke="#8b5cf6" stroke-width="1.5" x1="475" x2="475" y1="780" y2="805" /><polygon fill="#8b5cf6" points="471,799 479,799 475,805" /><g><rect fill="#1a1a2e" height="40" rx="4" ry="4" stroke="#76b900" stroke-width="1.5" width="110" x="420" y="805" /><text fill="#76b900" font-family="Arial" font-size="9" font-weight="bold" text-anchor="middle" x="475.0" y="825.0">64:1 LLC DC-DC</text><text fill="#76b900" font-family="Arial" font-size="8" font-weight="normal" text-anchor="middle" x="475.0" y="839.0">800V → 12.5V</text><text fill="#6b7280" font-family="Arial" font-size="8" text-anchor="middle" x="475.0" y="841">Infineon CoolGaN IBC | 99%+</text></g><line stroke="#8b5cf6" stroke-width="1.5" x1="695" x2="695" y1="780" y2="805" /><polygon fill="#8b5cf6" points="691,799 699,799 695,805" /><g><rect fill="#1a1a2e" height="40" rx="4" ry="4" stroke="#76b900" stroke-width="1.5" width="110" x="640" y="805" /><text fill="#76b900" font-family="Arial" font-size="9" font-weight="bold" text-anchor="middle" x="695.0" y="825.0">64:1 LLC DC-DC</text><text fill="#76b900" font-family="Arial" font-size="8" font-weight="normal" text-anchor="middle" x="695.0" y="839.0">800V → 12.5V</text><text fill="#6b7280" font-family="Arial" font-size="8" text-anchor="middle" x="695.0" y="841">Infineon CoolGaN IBC | 99%+</text></g><line stroke="#8b5cf6" stroke-width="1.5" x1="915" x2="915" y1="780" y2="805" /><polygon fill="#8b5cf6" points="911,799 919,799 915,805" /><g><rect fill="#1a1a2e" height="40" rx="4" ry="4" stroke="#76b900" stroke-width="1.5" width="110" x="860" y="805" /><text fill="#76b900" font-family="Arial" font-size="9" font-weight="bold" text-anchor="middle" x="915.0" y="825.0">64:1 LLC DC-DC</text><text fill="#76b900" font-family="Arial" font-size="8" font-weight="normal" text-anchor="middle" x="915.0" y="839.0">800V → 12.5V</text><text fill="#6b7280" font-family="Arial" font-size="8" text-anchor="middle" x="915.0" y="841">Infineon CoolGaN IBC | 99%+</text></g><line stroke="#8b5cf6" stroke-width="1.5" x1="1135" x2="1135" y1="780" y2="805" /><polygon fill="#8b5cf6" points="1131,799 1139,799 1135,805" /><g><rect fill="#1a1a2e" height="40" rx="4" ry="4" stroke="#76b900" stroke-width="1.5" width="110" x="1080" y="805" /><text fill="#76b900" font-family="Arial" font-size="9" font-weight="bold" text-anchor="middle" x="1135.0" y="825.0">64:1 LLC DC-DC</text><text fill="#76b900" font-family="Arial" font-size="8" font-weight="normal" text-anchor="middle" x="1135.0" y="839.0">800V → 12.5V</text><text fill="#6b7280" font-family="Arial" font-size="8" text-anchor="middle" x="1135.0" y="841">Infineon CoolGaN IBC | 99%+</text></g><line stroke="#76b900" stroke-width="1.5" x1="255" x2="255" y1="845" y2="870" /><polygon fill="#76b900" points="251,864 259,864 255,870" /><g><rect fill="#111a00" height="60" rx="4" ry="4" stroke="#76b900" stroke-width="1.5" width="110" x="200" y="870" /><text fill="#76b900" font-family="Arial" font-size="9" font-weight="bold" text-anchor="middle" x="255.0" y="886.0">NVIDIA NVL72</text><text fill="#76b900" font-family="Arial" font-size="8" font-weight="normal" text-anchor="middle" x="255.0" y="900.0">RACKS 1-7</text><text fill="#76b900" font-family="Arial" font-size="8" font-weight="normal" text-anchor="middle" x="255.0" y="914.0">130 kW each</text><text fill="#76b900" font-family="Arial" font-size="8" font-weight="normal" text-anchor="middle" x="255.0" y="928.0">0.91 MW</text><text fill="#6b7280" font-family="Arial" font-size="8" text-anchor="middle" x="255.0" y="926">Vera Rubin | Liquid Cooled</text></g><line stroke="#76b900" stroke-width="1.5" x1="475" x2="475" y1="845" y2="870" /><polygon fill="#76b900" points="471,864 479,864 475,870" /><g><rect fill="#111a00" height="60" rx="4" ry="4" stroke="#76b900" stroke-width="1.5" width="110" x="420" y="870" /><text fill="#76b900" font-family="Arial" font-size="9" font-weight="bold" text-anchor="middle" x="475.0" y="886.0">NVIDIA NVL72</text><text fill="#76b900" font-family="Arial" font-size="8" font-weight="normal" text-anchor="middle" x="475.0" y="900.0">RACKS 8-14</text><text fill="#76b900" font-family="Arial" font-size="8" font-weight="normal" text-anchor="middle" x="475.0" y="914.0">130 kW each</text><text fill="#76b900" font-family="Arial" font-size="8" font-weight="normal" text-anchor="middle" x="475.0" y="928.0">0.91 MW</text><text fill="#6b7280" font-family="Arial" font-size="8" text-anchor="middle" x="475.0" y="926">Vera Rubin | Liquid Cooled</text></g><line stroke="#76b900" stroke-width="1.5" x1="695" x2="695" y1="845" y2="870" /><polygon fill="#76b900" points="691,864 699,864 695,870" /><g><rect fill="#111a00" height="60" rx="4" ry="4" stroke="#76b900" stroke-width="1.5" width="110" x="640" y="870" /><text fill="#76b900" font-family="Arial" font-size="9" font-weight="bold" text-anchor="middle" x="695.0" y="886.0">NVIDIA NVL72</text><text fill="#76b900" font-family="Arial" font-size="8" font-weight="normal" text-anchor="middle" x="695.0" y="900.0">RACKS 15-21</text><text fill="#76b900" font-family="Arial" font-size="8" font-weight="normal" text-anchor="middle" x="695.0" y="914.0">130 kW each</text><text fill="#76b900" font-family="Arial" font-size="8" font-weight="normal" text-anchor="middle" x="695.0" y="928.0">0.91 MW</text><text fill="#6b7280" font-family="Arial" font-size="8" text-anchor="middle" x="695.0" y="926">Vera Rubin | Liquid Cooled</text></g><line stroke="#76b900" stroke-width="1.5" x1="915" x2="915" y1="845" y2="870" /><polygon fill="#76b900" points="911,864 919,864 915,870" /><g><rect fill="#111a00" height="60" rx="4" ry="4" stroke="#76b900" stroke-width="1.5" width="110" x="860" y="870" /><text fill="#76b900" font-family="Arial" font-size="9" font-weight="bold" text-anchor="middle" x="915.0" y="886.0">NVIDIA NVL72</text><text fill="#76b900" font-family="Arial" font-size="8" font-weight="normal" text-anchor="middle" x="915.0" y="900.0">RACKS 22-28</text><text fill="#76b900" font-family="Arial" font-size="8" font-weight="normal" text-anchor="middle" x="915.0" y="914.0">130 kW each</text><text fill="#76b900" font-family="Arial" font-size="8" font-weight="normal" text-anchor="middle" x="915.0" y="928.0">0.91 MW</text><text fill="#6b7280" font-family="Arial" font-size="8" text-anchor="middle" x="915.0" y="926">Vera Rubin | Liquid Cooled</text></g><line stroke="#76b900" stroke-width="1.5" x1="1135" x2="1135" y1="845" y2="870" /><polygon fill="#76b900" points="1131,864 1139,864 1135,870" /><g><rect fill="#111a00" height="60" rx="4" ry="4" stroke="#76b900" stroke-width="1.5" width="110" x="1080" y="870" /><text fill="#76b900" font-family="Arial" font-size="9" font-weight="bold" text-anchor="middle" x="1135.0" y="886.0">NVIDIA NVL72</text><text fill="#76b900" font-family="Arial" font-size="8" font-weight="normal" text-anchor="middle" x="1135.0" y="900.0">RACKS 29-36</text><text fill="#76b900" font-family="Arial" font-size="8" font-weight="normal" text-anchor="middle" x="1135.0" y="914.0">130 kW each</text><text fill="#76b900" font-family="Arial" font-size="8" font-weight="normal" text-anchor="middle" x="1135.0" y="928.0">1.04 MW</text><text fill="#6b7280" font-family="Arial" font-size="8" text-anchor="middle" x="1135.0" y="926">Vera Rubin | Liquid Cooled</text></g><rect fill="#111318" height="45" rx="6" stroke="#1e2230" stroke-width="1" width="1340" x="30" y="960" /><text fill="#6b7280" font-family="Arial" font-size="8" font-weight="bold" x="60" y="976">PHASE 1 IT LOAD</text><text fill="#76b900" font-family="Arial" font-size="11" font-weight="bold" x="60" y="990">4.68 MW</text><text fill="#6b7280" font-family="Arial" font-size="8" font-weight="bold" x="280" y="976">TOTAL FACILITY</text><text fill="#76b900" font-family="Arial" font-size="11" font-weight="bold" x="280" y="990">~6.5 MW</text><text fill="#6b7280" font-family="Arial" font-size="8" font-weight="bold" x="500" y="976">GENERATORS</text><text fill="#76b900" font-family="Arial" font-size="11" font-weight="bold" x="500" y="990">3x G3616A4 = 26.1 MW (N+1)</text><text fill="#6b7280" font-family="Arial" font-size="8" font-weight="bold" x="720" y="976">SOLAR</text><text fill="#76b900" font-family="Arial" font-size="11" font-weight="bold" x="720" y="990">5+ MW (DC-Direct)</text><text fill="#6b7280" font-family="Arial" font-size="8" font-weight="bold" x="940" y="976">RACKS</text><text fill="#76b900" font-family="Arial" font-size="11" font-weight="bold" x="940" y="990">36 NVL72 (2,592 GPUs)</text><text fill="#6b7280" font-family="Arial" font-size="8" font-weight="bold" x="1160" y="976">ARCHITECTURE</text><text fill="#76b900" font-family="Arial" font-size="11" font-weight="bold" x="1160" y="990">800V DC Native</text><text fill="#4b5563" font-family="Arial" font-size="8" x="35" y="1020">1. 500kV and 230kV substations are EXISTING Entergy assets on-site — LIVE and accepting new interconnections</text><text fill="#4b5563" font-family="Arial" font-size="8" x="35" y="1033">2. Cat CG260-16 generators are hydrogen-ready (25% blend) — future-proof for green fuel transition</text><text fill="#4b5563" font-family="Arial" font-size="8" x="35" y="1046">3. First Solar arrays connect DC-direct to 800V bus at 97% efficiency, bypassing AC conversion entirely</text><text fill="#4b5563" font-family="Arial" font-size="8" x="35" y="1059">4. 800V DC per NVIDIA DSX Reference Design — 85% more power through same copper vs 415V AC</text><text fill="#4b5563" font-family="Arial" font-size="8" x="35" y="1072">5. 64:1 LLC resonant converters: 800V DC to 12.5V at GPU die — 99%+ conversion efficiency</text><text fill="#4b5563" font-family="Arial" font-size="8" x="35" y="1085">6. Eaton Beam Rubin DSX + ORV3 Sidecar: facility-level rectification. Delta 660 kW Power Rack: rack-level distribution (6x 110 kW shelves, 480 kW embedded BBU)</text><text fill="#4b5563" font-family="Arial" font-size="8" x="35" y="1098">7. Delta e-Fuse (SiC): &lt;3 microsecond fault isolation — protects GPUs from DC arc flash. Delta 90 kW DC/DC: 800V to 50V for NVIDIA MGX bus</text><text fill="#4b5563" font-family="Arial" font-size="8" x="35" y="1111">8. N+1 generator redundancy — any single unit offline for maintenance without load reduction</text><text fill="#4b5563" font-family="Arial" font-size="8" x="35" y="1124">9. Grid is SELL-BACK ONLY (Layer 4) — excess power returns to Entergy, never consumed from grid</text><rect fill="#fbbf24" height="8" width="8" x="35" y="1139" /><text fill="#6b7280" font-family="Arial" font-size="8" font-weight="bold" x="49" y="1147">LAYER 1: SOLAR — Primary Offset</text><rect fill="#22c55e" height="8" width="8" x="335" y="1139" /><text fill="#6b7280" font-family="Arial" font-size="8" font-weight="bold" x="349" y="1147">LAYER 2: NATURAL GAS — Backbone — 24/7</text><rect fill="#ef4444" height="8" width="8" x="635" y="1139" /><text fill="#6b7280" font-family="Arial" font-size="8" font-weight="bold" x="649" y="1147">LAYER 3: DIESEL — Emergency Only</text><rect fill="#ef4444" height="8" width="8" x="935" y="1139" /><text fill="#6b7280" font-family="Arial" font-size="8" font-weight="bold" x="949" y="1147">LAYER 4: GRID — Sell-Back Only</text></svg>