<?xml version="1.0" encoding="utf-8" ?>
<svg baseProfile="full" height="950px" version="1.1" viewBox="0 0 1400 950" width="1400px" xmlns="http://www.w3.org/2000/svg" xmlns:ev="http://www.w3.org/2001/xml-events" xmlns:xlink="http://www.w3.org/1999/xlink"><defs /><rect fill="#0a0b0f" height="950" width="1400" x="0" y="0" /><text fill="#f0f2f5" font-family="Arial" font-size="16" font-weight="bold" text-anchor="middle" x="700.0" y="24">TIGER COMPUTE CAMPUS — WILLOW GLEN, ST. GABRIEL, LA</text><text fill="#76b900" font-family="Arial" font-size="10" font-weight="bold" text-anchor="middle" x="700.0" y="40">COMPUTE HALL FLOOR PLAN | PHASE 1: 36 NVL72 RACKS | 4.68 MW IT LOAD</text><text fill="#6b7280" font-family="Arial" font-size="9" text-anchor="middle" x="700.0" y="54">Sheet A-001 | MVP Design Intent | Scale: Conceptual 1/8"=1'-0" | 2026-03-22 | NOT FOR CONSTRUCTION</text><rect fill="#0d0d12" height="500" stroke="#3b82f6" stroke-width="2" width="1000" x="180" y="100" /><line stroke="#555" stroke-width="0.5" x1="180" x2="1180" y1="620" y2="620" /><line stroke="#555" stroke-width="0.5" x1="180" x2="180" y1="616" y2="624" /><line stroke="#555" stroke-width="0.5" x1="1180" x2="1180" y1="616" y2="624" /><text fill="#888" font-family="Arial" font-size="7" text-anchor="middle" x="680.0" y="617">200'-0"</text><line stroke="#555" stroke-width="0.5" x1="1200" x2="1200" y1="100" y2="600" /><line stroke="#555" stroke-width="0.5" x1="1196" x2="1204" y1="100" y2="100" /><line stroke="#555" stroke-width="0.5" x1="1196" x2="1204" y1="600" y2="600" /><text fill="#888" font-family="Arial" font-size="7" x="1205" y="350.0">100'-0"</text><line stroke="#1e2230" stroke-dasharray="4,4" stroke-width="0.5" x1="180" x2="180" y1="90" y2="605" /><text fill="#555" font-family="Arial" font-size="8" font-weight="bold" text-anchor="middle" x="180" y="85">A</text><line stroke="#1e2230" stroke-dasharray="4,4" stroke-width="0.5" x1="305" x2="305" y1="90" y2="605" /><text fill="#555" font-family="Arial" font-size="8" font-weight="bold" text-anchor="middle" x="305" y="85">B</text><line stroke="#1e2230" stroke-dasharray="4,4" stroke-width="0.5" x1="430" x2="430" y1="90" y2="605" /><text fill="#555" font-family="Arial" font-size="8" font-weight="bold" text-anchor="middle" x="430" y="85">C</text><line stroke="#1e2230" stroke-dasharray="4,4" stroke-width="0.5" x1="555" x2="555" y1="90" y2="605" /><text fill="#555" font-family="Arial" font-size="8" font-weight="bold" text-anchor="middle" x="555" y="85">D</text><line stroke="#1e2230" stroke-dasharray="4,4" stroke-width="0.5" x1="680" x2="680" y1="90" y2="605" /><text fill="#555" font-family="Arial" font-size="8" font-weight="bold" text-anchor="middle" x="680" y="85">E</text><line stroke="#1e2230" stroke-dasharray="4,4" stroke-width="0.5" x1="805" x2="805" y1="90" y2="605" /><text fill="#555" font-family="Arial" font-size="8" font-weight="bold" text-anchor="middle" x="805" y="85">F</text><line stroke="#1e2230" stroke-dasharray="4,4" stroke-width="0.5" x1="930" x2="930" y1="90" y2="605" /><text fill="#555" font-family="Arial" font-size="8" font-weight="bold" text-anchor="middle" x="930" y="85">G</text><line stroke="#1e2230" stroke-dasharray="4,4" stroke-width="0.5" x1="1055" x2="1055" y1="90" y2="605" /><text fill="#555" font-family="Arial" font-size="8" font-weight="bold" text-anchor="middle" x="1055" y="85">H</text><line stroke="#1e2230" stroke-dasharray="4,4" stroke-width="0.5" x1="1180" x2="1180" y1="90" y2="605" /><text fill="#555" font-family="Arial" font-size="8" font-weight="bold" text-anchor="middle" x="1180" y="85">I</text><rect fill="#111318" height="500" stroke="#4fc3f7" stroke-width="1" width="150" x="180" y="100" /><text fill="#4fc3f7" font-family="Arial" font-size="9" font-weight="bold" text-anchor="middle" x="255.0" y="296.0">MECHANICAL</text><text fill="#4fc3f7" font-family="Arial" font-size="9" font-weight="normal" text-anchor="middle" x="255.0" y="308.0">ROOM</text><text fill="#4fc3f7" font-family="Arial" font-size="9" font-weight="normal" text-anchor="middle" x="255.0" y="320.0" /><text fill="#4fc3f7" font-family="Arial" font-size="9" font-weight="normal" text-anchor="middle" x="255.0" y="332.0">CoolIT CHx2000</text><text fill="#4fc3f7" font-family="Arial" font-size="9" font-weight="normal" text-anchor="middle" x="255.0" y="344.0">CDUs (2,000 kW)</text><text fill="#4fc3f7" font-family="Arial" font-size="9" font-weight="normal" text-anchor="middle" x="255.0" y="356.0">N+1 Redundant</text><text fill="#4fc3f7" font-family="Arial" font-size="9" font-weight="normal" text-anchor="middle" x="255.0" y="368.0">Staubli UQD</text><text fill="#4fc3f7" font-family="Arial" font-size="9" font-weight="normal" text-anchor="middle" x="255.0" y="380.0">Munters HCD</text><text fill="#4fc3f7" font-family="Arial" font-size="9" font-weight="normal" text-anchor="middle" x="255.0" y="392.0" /><text fill="#4fc3f7" font-family="Arial" font-size="9" font-weight="normal" text-anchor="middle" x="255.0" y="404.0">30' x 100'</text><rect fill="#0a1628" height="25" stroke="#4fc3f7" stroke-width="1" width="50" x="190" y="125" /><text fill="#4fc3f7" font-family="Arial" font-size="6" font-weight="bold" text-anchor="middle" x="215.0" y="131.5">CoolIT</text><text fill="#4fc3f7" font-family="Arial" font-size="6" font-weight="normal" text-anchor="middle" x="215.0" y="143.5">CHx2000</text><rect fill="#0a1628" height="25" stroke="#4fc3f7" stroke-width="1" width="50" x="190" y="205" /><text fill="#4fc3f7" font-family="Arial" font-size="6" font-weight="bold" text-anchor="middle" x="215.0" y="211.5">CoolIT</text><text fill="#4fc3f7" font-family="Arial" font-size="6" font-weight="normal" text-anchor="middle" x="215.0" y="223.5">CHx2000</text><rect fill="#0a1628" height="25" stroke="#4fc3f7" stroke-width="1" width="50" x="190" y="285" /><text fill="#4fc3f7" font-family="Arial" font-size="6" font-weight="bold" text-anchor="middle" x="215.0" y="291.5">CoolIT</text><text fill="#4fc3f7" font-family="Arial" font-size="6" font-weight="normal" text-anchor="middle" x="215.0" y="303.5">CHx2000</text><rect fill="#0a1628" height="25" stroke="#4fc3f7" stroke-width="1" width="50" x="190" y="365" /><text fill="#4fc3f7" font-family="Arial" font-size="6" font-weight="bold" text-anchor="middle" x="215.0" y="371.5">CoolIT</text><text fill="#4fc3f7" font-family="Arial" font-size="6" font-weight="normal" text-anchor="middle" x="215.0" y="383.5">CHx2000</text><rect fill="#0a1628" height="25" stroke="#4fc3f7" stroke-width="1" width="50" x="190" y="445" /><text fill="#4fc3f7" font-family="Arial" font-size="6" font-weight="bold" text-anchor="middle" x="215.0" y="451.5">CoolIT</text><text fill="#4fc3f7" font-family="Arial" font-size="6" font-weight="normal" text-anchor="middle" x="215.0" y="463.5">CHx2000</text><rect fill="#111318" height="250.0" stroke="#3b82f6" stroke-width="1" width="125" x="1055" y="100" /><text fill="#93c5fd" font-family="Arial" font-size="9" font-weight="bold" text-anchor="middle" x="1117.5" y="183.0">NOC</text><text fill="#93c5fd" font-family="Arial" font-size="9" font-weight="normal" text-anchor="middle" x="1117.5" y="195.0">Network Ops</text><text fill="#93c5fd" font-family="Arial" font-size="9" font-weight="normal" text-anchor="middle" x="1117.5" y="207.0">Center</text><text fill="#93c5fd" font-family="Arial" font-size="9" font-weight="normal" text-anchor="middle" x="1117.5" y="219.0" /><text fill="#93c5fd" font-family="Arial" font-size="9" font-weight="normal" text-anchor="middle" x="1117.5" y="231.0">Monitor Wall</text><text fill="#93c5fd" font-family="Arial" font-size="9" font-weight="normal" text-anchor="middle" x="1117.5" y="243.0">Workstations</text><text fill="#93c5fd" font-family="Arial" font-size="9" font-weight="normal" text-anchor="middle" x="1117.5" y="255.0" /><text fill="#93c5fd" font-family="Arial" font-size="9" font-weight="normal" text-anchor="middle" x="1117.5" y="267.0">25' x 50'</text><rect fill="#111318" height="125.0" stroke="#6b7280" stroke-width="1" width="125" x="1055" y="350.0" /><text fill="#9ca3af" font-family="Arial" font-size="9" font-weight="bold" text-anchor="middle" x="1117.5" y="394.5">LOADING</text><text fill="#9ca3af" font-family="Arial" font-size="9" font-weight="normal" text-anchor="middle" x="1117.5" y="406.5">DOCK</text><text fill="#9ca3af" font-family="Arial" font-size="9" font-weight="normal" text-anchor="middle" x="1117.5" y="418.5" /><text fill="#9ca3af" font-family="Arial" font-size="9" font-weight="normal" text-anchor="middle" x="1117.5" y="430.5">25' x 25'</text><rect fill="#111318" height="125.0" stroke="#8b5cf6" stroke-width="1" width="125" x="1055" y="475.0" /><text fill="#c4b5fd" font-family="Arial" font-size="9" font-weight="bold" text-anchor="middle" x="1117.5" y="495.5">ELECTRICAL</text><text fill="#c4b5fd" font-family="Arial" font-size="9" font-weight="normal" text-anchor="middle" x="1117.5" y="507.5">ROOM</text><text fill="#c4b5fd" font-family="Arial" font-size="9" font-weight="normal" text-anchor="middle" x="1117.5" y="519.5" /><text fill="#c4b5fd" font-family="Arial" font-size="9" font-weight="normal" text-anchor="middle" x="1117.5" y="531.5">Eaton Beam Rubin</text><text fill="#c4b5fd" font-family="Arial" font-size="9" font-weight="normal" text-anchor="middle" x="1117.5" y="543.5">ORV3 Sidecar</text><text fill="#c4b5fd" font-family="Arial" font-size="9" font-weight="normal" text-anchor="middle" x="1117.5" y="555.5">ABB SACE Infinitus</text><text fill="#c4b5fd" font-family="Arial" font-size="9" font-weight="normal" text-anchor="middle" x="1117.5" y="567.5" /><text fill="#c4b5fd" font-family="Arial" font-size="9" font-weight="normal" text-anchor="middle" x="1117.5" y="579.5">25' x 25'</text><rect fill="#1a2e0a" height="20" stroke="#76b900" stroke-width="1" width="10" x="350" y="205.0" /><rect fill="#1a2e0a" height="20" stroke="#76b900" stroke-width="1" width="10" x="368" y="205.0" /><rect fill="#1a2e0a" height="20" stroke="#76b900" stroke-width="1" width="10" x="386" y="205.0" /><rect fill="#1a2e0a" height="20" stroke="#76b900" stroke-width="1" width="10" x="404" y="205.0" /><rect fill="#1a2e0a" height="20" stroke="#76b900" stroke-width="1" width="10" x="422" y="205.0" /><rect fill="#1a2e0a" height="20" stroke="#76b900" stroke-width="1" width="10" x="440" y="205.0" /><text fill="#76b900" font-family="Arial" font-size="7" text-anchor="end" x="1030" y="218.0">Row 1 — Racks 1-6</text><rect fill="#1a0a0a" height="30" rx="3" width="705" x="340" y="225.0" /><text fill="#ef4444" font-family="Arial" font-size="7" font-weight="bold" text-anchor="middle" x="692.5" y="243.0">HOT AISLE (CONTAINED)</text><rect fill="#1a2e0a" height="20" stroke="#76b900" stroke-width="1" width="10" x="350" y="255.0" /><rect fill="#1a2e0a" height="20" stroke="#76b900" stroke-width="1" width="10" x="368" y="255.0" /><rect fill="#1a2e0a" height="20" stroke="#76b900" stroke-width="1" width="10" x="386" y="255.0" /><rect fill="#1a2e0a" height="20" stroke="#76b900" stroke-width="1" width="10" x="404" y="255.0" /><rect fill="#1a2e0a" height="20" stroke="#76b900" stroke-width="1" width="10" x="422" y="255.0" /><rect fill="#1a2e0a" height="20" stroke="#76b900" stroke-width="1" width="10" x="440" y="255.0" /><text fill="#76b900" font-family="Arial" font-size="7" text-anchor="end" x="1030" y="268.0">Row 2 — Racks 7-12</text><rect fill="#0a0a1e" height="30" rx="3" width="715" x="335" y="280.0" /><text fill="#3b82f6" font-family="Arial" font-size="8" font-weight="bold" text-anchor="middle" x="692.5" y="299.0">COLD AISLE</text><rect fill="#1a2e0a" height="20" stroke="#76b900" stroke-width="1" width="10" x="350" y="315.0" /><rect fill="#1a2e0a" height="20" stroke="#76b900" stroke-width="1" width="10" x="368" y="315.0" /><rect fill="#1a2e0a" height="20" stroke="#76b900" stroke-width="1" width="10" x="386" y="315.0" /><rect fill="#1a2e0a" height="20" stroke="#76b900" stroke-width="1" width="10" x="404" y="315.0" /><rect fill="#1a2e0a" height="20" stroke="#76b900" stroke-width="1" width="10" x="422" y="315.0" /><rect fill="#1a2e0a" height="20" stroke="#76b900" stroke-width="1" width="10" x="440" y="315.0" /><text fill="#76b900" font-family="Arial" font-size="7" text-anchor="end" x="1030" y="328.0">Row 3 — Racks 13-18</text><rect fill="#1a0a0a" height="30" rx="3" width="705" x="340" y="335.0" /><text fill="#ef4444" font-family="Arial" font-size="7" font-weight="bold" text-anchor="middle" x="692.5" y="353.0">HOT AISLE (CONTAINED)</text><rect fill="#1a2e0a" height="20" stroke="#76b900" stroke-width="1" width="10" x="350" y="365.0" /><rect fill="#1a2e0a" height="20" stroke="#76b900" stroke-width="1" width="10" x="368" y="365.0" /><rect fill="#1a2e0a" height="20" stroke="#76b900" stroke-width="1" width="10" x="386" y="365.0" /><rect fill="#1a2e0a" height="20" stroke="#76b900" stroke-width="1" width="10" x="404" y="365.0" /><rect fill="#1a2e0a" height="20" stroke="#76b900" stroke-width="1" width="10" x="422" y="365.0" /><rect fill="#1a2e0a" height="20" stroke="#76b900" stroke-width="1" width="10" x="440" y="365.0" /><text fill="#76b900" font-family="Arial" font-size="7" text-anchor="end" x="1030" y="378.0">Row 4 — Racks 19-24</text><rect fill="#0a0a1e" height="30" rx="3" width="715" x="335" y="390.0" /><text fill="#3b82f6" font-family="Arial" font-size="8" font-weight="bold" text-anchor="middle" x="692.5" y="409.0">COLD AISLE</text><rect fill="#1a2e0a" height="20" stroke="#76b900" stroke-width="1" width="10" x="350" y="425.0" /><rect fill="#1a2e0a" height="20" stroke="#76b900" stroke-width="1" width="10" x="368" y="425.0" /><rect fill="#1a2e0a" height="20" stroke="#76b900" stroke-width="1" width="10" x="386" y="425.0" /><rect fill="#1a2e0a" height="20" stroke="#76b900" stroke-width="1" width="10" x="404" y="425.0" /><rect fill="#1a2e0a" height="20" stroke="#76b900" stroke-width="1" width="10" x="422" y="425.0" /><rect fill="#1a2e0a" height="20" stroke="#76b900" stroke-width="1" width="10" x="440" y="425.0" /><text fill="#76b900" font-family="Arial" font-size="7" text-anchor="end" x="1030" y="438.0">Row 5 — Racks 25-30</text><rect fill="#1a0a0a" height="30" rx="3" width="705" x="340" y="445.0" /><text fill="#ef4444" font-family="Arial" font-size="7" font-weight="bold" text-anchor="middle" x="692.5" y="463.0">HOT AISLE (CONTAINED)</text><rect fill="#1a2e0a" height="20" stroke="#76b900" stroke-width="1" width="10" x="350" y="475.0" /><rect fill="#1a2e0a" height="20" stroke="#76b900" stroke-width="1" width="10" x="368" y="475.0" /><rect fill="#1a2e0a" height="20" stroke="#76b900" stroke-width="1" width="10" x="386" y="475.0" /><rect fill="#1a2e0a" height="20" stroke="#76b900" stroke-width="1" width="10" x="404" y="475.0" /><rect fill="#1a2e0a" height="20" stroke="#76b900" stroke-width="1" width="10" x="422" y="475.0" /><rect fill="#1a2e0a" height="20" stroke="#76b900" stroke-width="1" width="10" x="440" y="475.0" /><text fill="#76b900" font-family="Arial" font-size="7" text-anchor="end" x="1030" y="488.0">Row 6 — Racks 31-36</text><rect fill="#0a0a1e" height="30" rx="3" width="715" x="335" y="500.0" /><text fill="#3b82f6" font-family="Arial" font-size="8" font-weight="bold" text-anchor="middle" x="692.5" y="519.0">COLD AISLE</text><line stroke="#4fc3f7" stroke-width="2" x1="332" x2="332" y1="110" y2="590" /><line stroke="#ff6b6b" stroke-width="2" x1="327" x2="327" y1="110" y2="590" /><text fill="#4fc3f7" font-family="Arial" font-size="6" x="334" y="120">S</text><text fill="#ff6b6b" font-family="Arial" font-size="6" x="324" y="120">R</text><rect fill="#3b82f6" height="6" rx="2" width="30" x="665.0" y="598" /><text fill="#6b7280" font-family="Arial" font-size="7" text-anchor="middle" x="680.0" y="612">MAIN ENTRY</text><rect fill="#6b7280" height="30" rx="2" width="6" x="1178" y="375.0" /><text fill="#6b7280" font-family="Arial" font-size="7" x="1190" y="385.0">DOCK</text><polygon fill="#fff" points="80,105 72,130 88,130" /><text fill="#fff" font-family="Arial" font-size="12" font-weight="bold" text-anchor="middle" x="80" y="100">N</text><rect fill="#111318" height="120" rx="6" stroke="#1e2230" width="1000" x="180" y="660" /><rect fill="#1a2e0a" height="10" rx="2" stroke="#76b900" stroke-width="1" width="14" x="200" y="669" /><text fill="#9ca3af" font-family="Arial" font-size="8" x="220" y="678">NVL72 Rack (2' x 4')</text><rect fill="#1a0a0a" height="10" rx="2" stroke="#ef4444" stroke-width="1" width="14" x="200" y="685" /><text fill="#9ca3af" font-family="Arial" font-size="8" x="220" y="694">Hot Aisle (Contained)</text><rect fill="#0a0a1e" height="10" rx="2" stroke="#3b82f6" stroke-width="1" width="14" x="200" y="701" /><text fill="#9ca3af" font-family="Arial" font-size="8" x="220" y="710">Cold Aisle</text><line stroke="#4fc3f7" stroke-width="2" x1="200" x2="214" y1="723" y2="723" /><text fill="#9ca3af" font-family="Arial" font-size="8" x="220" y="726">Supply Pipe (Cold)</text><line stroke="#ff6b6b" stroke-width="2" x1="200" x2="214" y1="739" y2="739" /><text fill="#9ca3af" font-family="Arial" font-size="8" x="220" y="742">Return Pipe (Hot)</text><text fill="#6b7280" font-family="Arial" font-size="8" font-weight="bold" x="430" y="672">BUILDING</text><text fill="#76b900" font-family="Arial" font-size="10" font-weight="bold" x="430" y="684">200' x 100'</text><text fill="#76b900" font-family="Arial" font-size="10" font-weight="bold" x="430" y="695">20,000 sq ft</text><text fill="#6b7280" font-family="Arial" font-size="8" font-weight="bold" x="620" y="672">COMPUTE FLOOR</text><text fill="#76b900" font-family="Arial" font-size="10" font-weight="bold" x="620" y="684">145' x 100'</text><text fill="#76b900" font-family="Arial" font-size="10" font-weight="bold" x="620" y="695">14,500 sq ft</text><text fill="#6b7280" font-family="Arial" font-size="8" font-weight="bold" x="810" y="672">RACKS</text><text fill="#76b900" font-family="Arial" font-size="10" font-weight="bold" x="810" y="684">36 NVL72</text><text fill="#76b900" font-family="Arial" font-size="10" font-weight="bold" x="810" y="695">6 rows x 6 racks</text><text fill="#6b7280" font-family="Arial" font-size="8" font-weight="bold" x="1000" y="672">IT LOAD</text><text fill="#76b900" font-family="Arial" font-size="10" font-weight="bold" x="1000" y="684">4.68 MW</text><text fill="#76b900" font-family="Arial" font-size="10" font-weight="bold" x="1000" y="695">130 kW/rack</text><text fill="#6b7280" font-family="Arial" font-size="8" font-weight="bold" x="430" y="722">GPUs</text><text fill="#76b900" font-family="Arial" font-size="10" font-weight="bold" x="430" y="734">2,592 total</text><text fill="#76b900" font-family="Arial" font-size="10" font-weight="bold" x="430" y="745">72 per rack</text><text fill="#6b7280" font-family="Arial" font-size="8" font-weight="bold" x="620" y="722">COOLING</text><text fill="#76b900" font-family="Arial" font-size="10" font-weight="bold" x="620" y="734">Hot/Cold Aisle</text><text fill="#76b900" font-family="Arial" font-size="10" font-weight="bold" x="620" y="745">Contained Hot</text><text fill="#6b7280" font-family="Arial" font-size="8" font-weight="bold" x="810" y="722">AISLE WIDTH</text><text fill="#76b900" font-family="Arial" font-size="10" font-weight="bold" x="810" y="734">4' hot</text><text fill="#76b900" font-family="Arial" font-size="10" font-weight="bold" x="810" y="745">8' cold</text><text fill="#6b7280" font-family="Arial" font-size="8" font-weight="bold" x="1000" y="722">FLOOR LOAD</text><text fill="#76b900" font-family="Arial" font-size="10" font-weight="bold" x="1000" y="734">~250 lb/sq ft</text><text fill="#76b900" font-family="Arial" font-size="10" font-weight="bold" x="1000" y="745">Reinforced slab</text><text fill="#4b5563" font-family="Arial" font-size="7.5" x="35" y="800">1. NVL72 rack: 72 Vera Rubin GPUs, 130 kW, liquid cooled (CoolIT CHx2000 CDU, 2,000 kW), Staubli UQD quick-disconnect, ~2,500 lbs loaded</text><text fill="#4b5563" font-family="Arial" font-size="7.5" x="35" y="813">2. Hot aisle containment prevents mixing of exhaust and supply air — critical for 130 kW/rack density</text><text fill="#4b5563" font-family="Arial" font-size="7.5" x="35" y="826">3. CoolIT CHx2000 CDUs in mechanical room: N+1 redundancy, one pair per row, facility loop to rack manifolds</text><text fill="#4b5563" font-family="Arial" font-size="7.5" x="35" y="839">4. 800V DC busway runs overhead from electrical room to each rack position (not shown for clarity)</text><text fill="#4b5563" font-family="Arial" font-size="7.5" x="35" y="852">5. Reinforced concrete slab required: ~250 lb/sq ft concentrated load at rack positions</text><text fill="#4b5563" font-family="Arial" font-size="7.5" x="35" y="865">6. 18" raised floor optional — NVIDIA DSX allows overhead cable tray + underfloor cooling manifold</text><text fill="#4b5563" font-family="Arial" font-size="7.5" x="35" y="878">7. Phase 1 = 36 racks. Building designed for expansion to 72 racks (double rows, add 3 pods)</text><text fill="#4b5563" font-family="Arial" font-size="7.5" x="35" y="891">8. Fire suppression: Ansul Novec 1230 + VESDA-E VEU early detection in compute area. Greenheck SBE-300 exhaust. Munters HCD humidity control.</text></svg>