<?xml version="1.0" encoding="utf-8" ?>
<svg baseProfile="full" height="1200px" version="1.1" viewBox="0 0 1400 1200" width="1400px" xmlns="http://www.w3.org/2000/svg" xmlns:ev="http://www.w3.org/2001/xml-events" xmlns:xlink="http://www.w3.org/1999/xlink"><defs /><rect fill="#0a0b0f" height="1200" width="1400" x="0" y="0" /><text fill="#f0f2f5" font-family="Arial" font-size="16" font-weight="bold" text-anchor="middle" x="700.0" y="24">TIGER COMPUTE CAMPUS — WILLOW GLEN, ST. GABRIEL, LA</text><text fill="#22c55e" font-family="Arial" font-size="10" font-weight="bold" text-anchor="middle" x="700.0" y="40">POWER DISTRIBUTION SCHEMATIC | FUEL TO CHIP | 4-LAYER POWER HIERARCHY</text><text fill="#6b7280" font-family="Arial" font-size="9" text-anchor="middle" x="700.0" y="54">Sheet P-001 | MVP Design Intent | 2026-03-22 | NOT FOR CONSTRUCTION</text><g><rect fill="#0a1a0a" height="55" rx="4" ry="4" stroke="#22c55e" stroke-width="1.5" width="140" x="30" y="75" /><text fill="#22c55e" font-family="Arial" font-size="10" font-weight="bold" text-anchor="middle" x="100.0" y="95.0">ATMOS ENERGY</text><text fill="#22c55e" font-family="Arial" font-size="9" font-weight="normal" text-anchor="middle" x="100.0" y="108.0">Natural Gas</text><text fill="#22c55e" font-family="Arial" font-size="9" font-weight="normal" text-anchor="middle" x="100.0" y="121.0">Pipeline Feed</text><text fill="#6b7280" font-family="Arial" font-size="7" text-anchor="middle" x="100.0" y="126">Henry Hub Pricing | On-site</text></g><g><rect fill="#1a1a2e" height="55" rx="4" ry="4" stroke="#22c55e" stroke-width="1.5" width="110" x="200" y="75" /><text fill="#86efac" font-family="Arial" font-size="10" font-weight="bold" text-anchor="middle" x="255.0" y="95.0">GAS METER</text><text fill="#86efac" font-family="Arial" font-size="9" font-weight="normal" text-anchor="middle" x="255.0" y="108.0">+ REGULATOR</text><text fill="#86efac" font-family="Arial" font-size="9" font-weight="normal" text-anchor="middle" x="255.0" y="121.0">Station</text><text fill="#6b7280" font-family="Arial" font-size="7" text-anchor="middle" x="255.0" y="126">Custody transfer</text></g><g><rect fill="#2e1a1a" height="55" rx="4" ry="4" stroke="#ef4444" stroke-width="1.5" width="120" x="340" y="75" /><text fill="#ef4444" font-family="Arial" font-size="10" font-weight="bold" text-anchor="middle" x="400.0" y="95.0">DIESEL FUEL</text><text fill="#ef4444" font-family="Arial" font-size="9" font-weight="normal" text-anchor="middle" x="400.0" y="108.0">STORAGE</text><text fill="#ef4444" font-family="Arial" font-size="9" font-weight="normal" text-anchor="middle" x="400.0" y="121.0">10,000 gal</text><text fill="#6b7280" font-family="Arial" font-size="7" text-anchor="middle" x="400.0" y="126">Layer 3 backup</text></g><g><rect fill="#1a1a00" height="55" rx="4" ry="4" stroke="#fbbf24" stroke-width="1.5" width="140" x="490" y="75" /><text fill="#fbbf24" font-family="Arial" font-size="10" font-weight="bold" text-anchor="middle" x="560.0" y="95.0">SOLAR</text><text fill="#fbbf24" font-family="Arial" font-size="9" font-weight="normal" text-anchor="middle" x="560.0" y="108.0">IRRADIANCE</text><text fill="#fbbf24" font-family="Arial" font-size="9" font-weight="normal" text-anchor="middle" x="560.0" y="121.0">4.5-5.2 kWh/m2/day</text><text fill="#6b7280" font-family="Arial" font-size="7" text-anchor="middle" x="560.0" y="126">Louisiana avg | 250+ sun days</text></g><g><rect fill="#1a0a0a" height="55" rx="4" ry="4" stroke="#ef4444" stroke-width="1.5" width="140" x="660" y="75" /><text fill="#ef4444" font-family="Arial" font-size="10" font-weight="bold" text-anchor="middle" x="730.0" y="95.0">ENTERGY GRID</text><text fill="#ef4444" font-family="Arial" font-size="9" font-weight="normal" text-anchor="middle" x="730.0" y="108.0">500kV + 230kV</text><text fill="#ef4444" font-family="Arial" font-size="9" font-weight="normal" text-anchor="middle" x="730.0" y="121.0">Substations</text><text fill="#6b7280" font-family="Arial" font-size="7" text-anchor="middle" x="730.0" y="126">SELL-BACK ONLY
NOT a source</text></g><line stroke="#22c55e" stroke-width="1.5" x1="100" x2="100" y1="130" y2="160" /><polygon fill="#22c55e" points="96,154 104,154 100,160" /><line stroke="#22c55e" stroke-width="1.5" x1="255" x2="255" y1="130" y2="160" /><polygon fill="#22c55e" points="251,154 259,154 255,160" /><line stroke="#ef4444" stroke-width="1.5" x1="400" x2="400" y1="130" y2="160" /><polygon fill="#ef4444" points="396,154 404,154 400,160" /><line stroke="#fbbf24" stroke-width="1.5" x1="560" x2="560" y1="130" y2="160" /><polygon fill="#fbbf24" points="556,154 564,154 560,160" /><g><rect fill="#0a1a0a" height="70" rx="4" ry="4" stroke="#22c55e" stroke-width="1.5" width="155" x="30" y="165" /><text fill="#22c55e" font-family="Arial" font-size="10" font-weight="bold" text-anchor="middle" x="107.5" y="186.0">CAT G3616A4 #1</text><text fill="#22c55e" font-family="Arial" font-size="9" font-weight="normal" text-anchor="middle" x="107.5" y="199.0">8.7 MW | 13.8kV</text><text fill="#22c55e" font-family="Arial" font-size="9" font-weight="normal" text-anchor="middle" x="107.5" y="212.0">Natural Gas Prime</text><text fill="#22c55e" font-family="Arial" font-size="9" font-weight="normal" text-anchor="middle" x="107.5" y="225.0">H2-Ready 25% Blend</text><text fill="#6b7280" font-family="Arial" font-size="7" text-anchor="middle" x="107.5" y="231">Louisiana Cat | American Made</text></g><g><rect fill="#0a1a0a" height="70" rx="4" ry="4" stroke="#22c55e" stroke-width="1.5" width="155" x="200" y="165" /><text fill="#22c55e" font-family="Arial" font-size="10" font-weight="bold" text-anchor="middle" x="277.5" y="186.0">CAT G3616A4 #2</text><text fill="#22c55e" font-family="Arial" font-size="9" font-weight="normal" text-anchor="middle" x="277.5" y="199.0">8.7 MW | 13.8kV</text><text fill="#22c55e" font-family="Arial" font-size="9" font-weight="normal" text-anchor="middle" x="277.5" y="212.0">Natural Gas Prime</text><text fill="#22c55e" font-family="Arial" font-size="9" font-weight="normal" text-anchor="middle" x="277.5" y="225.0">H2-Ready 25% Blend</text><text fill="#6b7280" font-family="Arial" font-size="7" text-anchor="middle" x="277.5" y="231">Louisiana Cat | American Made</text></g><g><rect fill="#2e1a1a" height="70" rx="4" ry="4" stroke="#ef4444" stroke-width="1.5" width="120" x="370" y="165" /><text fill="#ef4444" font-family="Arial" font-size="10" font-weight="bold" text-anchor="middle" x="430.0" y="186.0">DIESEL GENSET</text><text fill="#ef4444" font-family="Arial" font-size="9" font-weight="normal" text-anchor="middle" x="430.0" y="199.0">500 kW</text><text fill="#ef4444" font-family="Arial" font-size="9" font-weight="normal" text-anchor="middle" x="430.0" y="212.0">480V | Emergency</text><text fill="#ef4444" font-family="Arial" font-size="9" font-weight="normal" text-anchor="middle" x="430.0" y="225.0">Auto-Start</text><text fill="#6b7280" font-family="Arial" font-size="7" text-anchor="middle" x="430.0" y="231">Layer 3 only</text></g><g><rect fill="#1a1a00" height="70" rx="4" ry="4" stroke="#fbbf24" stroke-width="1.5" width="150" x="510" y="165" /><text fill="#fbbf24" font-family="Arial" font-size="10" font-weight="bold" text-anchor="middle" x="585.0" y="186.0">FIRST SOLAR ARRAY</text><text fill="#fbbf24" font-family="Arial" font-size="9" font-weight="normal" text-anchor="middle" x="585.0" y="199.0">5+ MW Ground Mount</text><text fill="#fbbf24" font-family="Arial" font-size="9" font-weight="normal" text-anchor="middle" x="585.0" y="212.0">Series 7 TR1 (550W)</text><text fill="#fbbf24" font-family="Arial" font-size="9" font-weight="normal" text-anchor="middle" x="585.0" y="225.0">5-panel strings @ 952V</text><text fill="#6b7280" font-family="Arial" font-size="7" text-anchor="middle" x="585.0" y="231">30 mi from New Iberia factory</text></g><g><rect fill="#0a1a0a" height="70" rx="4" ry="4" stroke="#22c55e" stroke-width="1.5" width="155" x="680" y="165" /><text fill="#4ade80" font-family="Arial" font-size="10" font-weight="bold" text-anchor="middle" x="757.5" y="186.0">CAT G3616A4 #3</text><text fill="#4ade80" font-family="Arial" font-size="9" font-weight="normal" text-anchor="middle" x="757.5" y="199.0">8.7 MW | 13.8kV</text><text fill="#4ade80" font-family="Arial" font-size="9" font-weight="normal" text-anchor="middle" x="757.5" y="212.0">N+1 REDUNDANT</text><text fill="#4ade80" font-family="Arial" font-size="9" font-weight="normal" text-anchor="middle" x="757.5" y="225.0">Maintenance Spare</text><text fill="#6b7280" font-family="Arial" font-size="7" text-anchor="middle" x="757.5" y="231">Any unit offline = no impact</text></g><line stroke="#22c55e" stroke-width="1.5" x1="107" x2="107" y1="235" y2="285" /><polygon fill="#22c55e" points="103,279 111,279 107,285" /><line stroke="#22c55e" stroke-width="1.5" x1="277" x2="277" y1="235" y2="285" /><polygon fill="#22c55e" points="273,279 281,279 277,285" /><line stroke="#ef4444" stroke-width="1.5" x1="430" x2="430" y1="235" y2="285" /><polygon fill="#ef4444" points="426,279 434,279 430,285" /><line stroke="#22c55e" stroke-width="1.5" x1="757" x2="757" y1="235" y2="285" /><polygon fill="#22c55e" points="753,279 761,279 757,285" /><g><rect fill="#1a1a2e" height="55" rx="4" ry="4" stroke="#22c55e" stroke-width="1.5" width="360" x="30" y="285" /><text fill="#86efac" font-family="Arial" font-size="10" font-weight="bold" text-anchor="middle" x="210.0" y="305.0">PARALLELING SWITCHGEAR</text><text fill="#86efac" font-family="Arial" font-size="9" font-weight="normal" text-anchor="middle" x="210.0" y="318.0">Louisiana Cat Controls | Auto-Sync | Load Sharing</text><text fill="#86efac" font-family="Arial" font-size="9" font-weight="normal" text-anchor="middle" x="210.0" y="331.0">All generators parallel to common 13.8kV bus</text><text fill="#6b7280" font-family="Arial" font-size="7" text-anchor="middle" x="210.0" y="336">Automatic load balancing | Generator protection relays</text></g><g><rect fill="#1a1a2e" height="55" rx="4" ry="4" stroke="#ef4444" stroke-width="1.5" width="120" x="410" y="285" /><text fill="#fca5a5" font-family="Arial" font-size="10" font-weight="bold" text-anchor="middle" x="470.0" y="298.5">EMERGENCY</text><text fill="#fca5a5" font-family="Arial" font-size="9" font-weight="normal" text-anchor="middle" x="470.0" y="311.5">ATS</text><text fill="#fca5a5" font-family="Arial" font-size="9" font-weight="normal" text-anchor="middle" x="470.0" y="324.5">Diesel Auto</text><text fill="#fca5a5" font-family="Arial" font-size="9" font-weight="normal" text-anchor="middle" x="470.0" y="337.5">Transfer</text></g><line stroke="#fbbf24" stroke-width="1.5" x1="585" x2="585" y1="235" y2="285" /><polygon fill="#fbbf24" points="581,279 589,279 585,285" /><g><rect fill="#1a1a2e" height="55" rx="4" ry="4" stroke="#fbbf24" stroke-width="1.5" width="120" x="550" y="285" /><text fill="#fbbf24" font-family="Arial" font-size="10" font-weight="bold" text-anchor="middle" x="610.0" y="298.5">SOLAR</text><text fill="#fbbf24" font-family="Arial" font-size="9" font-weight="normal" text-anchor="middle" x="610.0" y="311.5">COMBINER</text><text fill="#fbbf24" font-family="Arial" font-size="9" font-weight="normal" text-anchor="middle" x="610.0" y="324.5">BOX</text><text fill="#fbbf24" font-family="Arial" font-size="9" font-weight="normal" text-anchor="middle" x="610.0" y="337.5">String Fusing</text></g><g><rect fill="#1a1a2e" height="55" rx="4" ry="4" stroke="#22c55e" stroke-width="1.5" width="145" x="690" y="285" /><text fill="#4ade80" font-family="Arial" font-size="10" font-weight="bold" text-anchor="middle" x="762.5" y="298.5">AUTO-SYNC</text><text fill="#4ade80" font-family="Arial" font-size="9" font-weight="normal" text-anchor="middle" x="762.5" y="311.5">CONTROLLER</text><text fill="#4ade80" font-family="Arial" font-size="9" font-weight="normal" text-anchor="middle" x="762.5" y="324.5">Brings N+1 online</text><text fill="#4ade80" font-family="Arial" font-size="9" font-weight="normal" text-anchor="middle" x="762.5" y="337.5">on failure detect</text><text fill="#6b7280" font-family="Arial" font-size="7" text-anchor="middle" x="762.5" y="336">&lt; 10 sec transfer</text></g><line stroke="#ff6b35" stroke-width="1.5" x1="210" x2="210" y1="340" y2="385" /><polygon fill="#ff6b35" points="206,379 214,379 210,385" /><line stroke="#ff6b35" stroke-width="1.5" x1="470" x2="470" y1="340" y2="385" /><polygon fill="#ff6b35" points="466,379 474,379 470,385" /><line stroke="#ff6b35" stroke-width="1.5" x1="610" x2="610" y1="340" y2="385" /><polygon fill="#ff6b35" points="606,379 614,379 610,385" /><rect fill="#ff6b35" height="6" rx="2" width="810" x="30" y="382" /><text fill="#ff6b35" font-family="Arial" font-size="10" font-weight="bold" text-anchor="middle" x="435" y="375">13.8kV AC DISTRIBUTION BUS</text><line stroke="#ef4444" stroke-width="1.5" x1="730" x2="730" y1="385" y2="360" /><text fill="#ef4444" font-family="Arial" font-size="7" x="740" y="370">SELL-BACK</text><text fill="#ef4444" font-family="Arial" font-size="7" x="740" y="379">to Entergy</text><line stroke="#ff6b35" stroke-width="1.5" x1="200" x2="200" y1="388" y2="420" /><polygon fill="#ff6b35" points="196,414 204,414 200,420" /><line stroke="#ff6b35" stroke-width="1.5" x1="450" x2="450" y1="388" y2="420" /><polygon fill="#ff6b35" points="446,414 454,414 450,420" /><g><rect fill="#1a1a2e" height="45" rx="4" ry="4" stroke="#ff6b35" stroke-width="1.5" width="150" x="130" y="420" /><text fill="#ff6b35" font-family="Arial" font-size="9" font-weight="bold" text-anchor="middle" x="205.0" y="435.0">REVENUE METER</text><text fill="#ff6b35" font-family="Arial" font-size="8" font-weight="normal" text-anchor="middle" x="205.0" y="448.0">+ PROTECTION</text><text fill="#ff6b35" font-family="Arial" font-size="8" font-weight="normal" text-anchor="middle" x="205.0" y="461.0">Relays | CT/PT</text></g><g><rect fill="#1a1a2e" height="45" rx="4" ry="4" stroke="#ff6b35" stroke-width="1.5" width="150" x="380" y="420" /><text fill="#ff6b35" font-family="Arial" font-size="9" font-weight="bold" text-anchor="middle" x="455.0" y="435.0">MAIN BREAKER</text><text fill="#ff6b35" font-family="Arial" font-size="8" font-weight="normal" text-anchor="middle" x="455.0" y="448.0">+ DISCONNECT</text><text fill="#ff6b35" font-family="Arial" font-size="8" font-weight="normal" text-anchor="middle" x="455.0" y="461.0">13.8kV Rated</text></g><line stroke="#ff6b35" stroke-width="1.5" x1="200" x2="200" y1="465" y2="510" /><polygon fill="#ff6b35" points="196,504 204,504 200,510" /><line stroke="#ff6b35" stroke-width="1.5" x1="450" x2="450" y1="465" y2="510" /><polygon fill="#ff6b35" points="446,504 454,504 450,510" /><g><rect fill="#1a1a2e" height="65" rx="4" ry="4" stroke="#8b5cf6" stroke-width="1.5" width="250" x="80" y="510" /><text fill="#c4b5fd" font-family="Arial" font-size="10" font-weight="bold" text-anchor="middle" x="205.0" y="528.5">EATON BEAM RUBIN DSX</text><text fill="#c4b5fd" font-family="Arial" font-size="9" font-weight="normal" text-anchor="middle" x="205.0" y="541.5">+ ORV3 SIDECAR #1</text><text fill="#c4b5fd" font-family="Arial" font-size="9" font-weight="normal" text-anchor="middle" x="205.0" y="554.5">13.8kV AC --&gt; 800V DC</text><text fill="#c4b5fd" font-family="Arial" font-size="9" font-weight="normal" text-anchor="middle" x="205.0" y="567.5">96%+ Conversion Efficiency</text><text fill="#6b7280" font-family="Arial" font-size="7" text-anchor="middle" x="205.0" y="571">ABB SACE Infinitus DC Protection | Hot-swappable</text></g><g><rect fill="#1a1a2e" height="65" rx="4" ry="4" stroke="#8b5cf6" stroke-width="1.5" width="250" x="370" y="510" /><text fill="#c4b5fd" font-family="Arial" font-size="10" font-weight="bold" text-anchor="middle" x="495.0" y="528.5">EATON BEAM RUBIN DSX</text><text fill="#c4b5fd" font-family="Arial" font-size="9" font-weight="normal" text-anchor="middle" x="495.0" y="541.5">+ ORV3 SIDECAR #2</text><text fill="#c4b5fd" font-family="Arial" font-size="9" font-weight="normal" text-anchor="middle" x="495.0" y="554.5">13.8kV AC --&gt; 800V DC</text><text fill="#c4b5fd" font-family="Arial" font-size="9" font-weight="normal" text-anchor="middle" x="495.0" y="567.5">N+1 Redundant Module</text><text fill="#6b7280" font-family="Arial" font-size="7" text-anchor="middle" x="495.0" y="571">ABB SACE Infinitus DC Protection | Auto failover</text></g><polyline fill="none" points="610,340 610,355 710,355 710,510" stroke="#fbbf24" stroke-width="2" /><g><rect fill="#1a1a2e" height="65" rx="4" ry="4" stroke="#fbbf24" stroke-width="1.5" width="180" x="660" y="510" /><text fill="#fbbf24" font-family="Arial" font-size="10" font-weight="bold" text-anchor="middle" x="750.0" y="528.5">DC-DC BUCK</text><text fill="#fbbf24" font-family="Arial" font-size="9" font-weight="normal" text-anchor="middle" x="750.0" y="541.5">TI 800V-to-6V GaN</text><text fill="#fbbf24" font-family="Arial" font-size="9" font-weight="normal" text-anchor="middle" x="750.0" y="554.5">952V String --&gt; 800V Bus</text><text fill="#fbbf24" font-family="Arial" font-size="9" font-weight="normal" text-anchor="middle" x="750.0" y="567.5">97% Efficiency</text><text fill="#6b7280" font-family="Arial" font-size="7" text-anchor="middle" x="750.0" y="571">Infineon CoolGaN IBC | Direct solar to GPU</text></g><line stroke="#8b5cf6" stroke-width="1.5" x1="205" x2="205" y1="575" y2="620" /><polygon fill="#8b5cf6" points="201,614 209,614 205,620" /><line stroke="#8b5cf6" stroke-width="1.5" x1="495" x2="495" y1="575" y2="620" /><polygon fill="#8b5cf6" points="491,614 499,614 495,620" /><line stroke="#8b5cf6" stroke-width="1.5" x1="750" x2="750" y1="575" y2="620" /><polygon fill="#8b5cf6" points="746,614 754,614 750,620" /><rect fill="#8b5cf6" height="6" rx="2" width="810" x="30" y="617" /><text fill="#8b5cf6" font-family="Arial" font-size="10" font-weight="bold" text-anchor="middle" x="435" y="610">800V DC MAIN DISTRIBUTION BUS — NVIDIA DSX REFERENCE</text><line stroke="#8b5cf6" stroke-width="1.5" x1="90" x2="90" y1="623" y2="635" /><g><rect fill="#1a1a2e" height="55" rx="4" ry="4" stroke="#3b82f6" stroke-width="1.5" width="120" x="30" y="635" /><text fill="#93c5fd" font-family="Arial" font-size="10" font-weight="bold" text-anchor="middle" x="90.0" y="648.5">EATON xStorage</text><text fill="#93c5fd" font-family="Arial" font-size="9" font-weight="normal" text-anchor="middle" x="90.0" y="661.5">BESS (761-1200 VDC)</text><text fill="#93c5fd" font-family="Arial" font-size="9" font-weight="normal" text-anchor="middle" x="90.0" y="674.5">800V DC Native</text><text fill="#93c5fd" font-family="Arial" font-size="9" font-weight="normal" text-anchor="middle" x="90.0" y="687.5">Ride-Through</text><text fill="#6b7280" font-family="Arial" font-size="7" text-anchor="middle" x="90.0" y="686">Peak shaving | 15-min reserve</text></g><line stroke="#8b5cf6" stroke-width="1.5" x1="250" x2="250" y1="623" y2="680" /><polygon fill="#8b5cf6" points="246,674 254,674 250,680" /><g><rect fill="#1a1a2e" height="35" rx="4" ry="4" stroke="#8b5cf6" stroke-width="1.5" width="100" x="200" y="680" /><text fill="#c4b5fd" font-family="Arial" font-size="8" font-weight="bold" text-anchor="middle" x="250.0" y="696.5">EATON BUSWAY</text><text fill="#c4b5fd" font-family="Arial" font-size="7" font-weight="normal" text-anchor="middle" x="250.0" y="709.5">Row 1-2</text></g><line stroke="#8b5cf6" stroke-width="1.5" x1="400" x2="400" y1="623" y2="680" /><polygon fill="#8b5cf6" points="396,674 404,674 400,680" /><g><rect fill="#1a1a2e" height="35" rx="4" ry="4" stroke="#8b5cf6" stroke-width="1.5" width="100" x="350" y="680" /><text fill="#c4b5fd" font-family="Arial" font-size="8" font-weight="bold" text-anchor="middle" x="400.0" y="696.5">EATON BUSWAY</text><text fill="#c4b5fd" font-family="Arial" font-size="7" font-weight="normal" text-anchor="middle" x="400.0" y="709.5">Row 3-4</text></g><line stroke="#8b5cf6" stroke-width="1.5" x1="550" x2="550" y1="623" y2="680" /><polygon fill="#8b5cf6" points="546,674 554,674 550,680" /><g><rect fill="#1a1a2e" height="35" rx="4" ry="4" stroke="#8b5cf6" stroke-width="1.5" width="100" x="500" y="680" /><text fill="#c4b5fd" font-family="Arial" font-size="8" font-weight="bold" text-anchor="middle" x="550.0" y="696.5">EATON BUSWAY</text><text fill="#c4b5fd" font-family="Arial" font-size="7" font-weight="normal" text-anchor="middle" x="550.0" y="709.5">Row 5-6</text></g><line stroke="#8b5cf6" stroke-width="1.5" x1="700" x2="700" y1="623" y2="680" /><polygon fill="#8b5cf6" points="696,674 704,674 700,680" /><g><rect fill="#1a1a2e" height="35" rx="4" ry="4" stroke="#8b5cf6" stroke-width="1.5" width="100" x="650" y="680" /><text fill="#c4b5fd" font-family="Arial" font-size="8" font-weight="bold" text-anchor="middle" x="700.0" y="696.5">EATON BUSWAY</text><text fill="#c4b5fd" font-family="Arial" font-size="7" font-weight="normal" text-anchor="middle" x="700.0" y="709.5">Expansion</text></g><line stroke="#8b5cf6" stroke-width="1.5" x1="250" x2="250" y1="715" y2="735" /><polygon fill="#8b5cf6" points="246,729 254,729 250,735" /><g><rect fill="#1a1a2e" height="38" rx="4" ry="4" stroke="#00bcd4" stroke-width="1.5" width="110" x="195" y="735" /><text fill="#00e5ff" font-family="Arial" font-size="7" font-weight="bold" text-anchor="middle" x="250.0" y="753.0">DELTA 660 kW RACK</text><text fill="#00e5ff" font-family="Arial" font-size="6" font-weight="normal" text-anchor="middle" x="250.0" y="766.0">6x 110 kW Shelves</text><text fill="#6b7280" font-family="Arial" font-size="7" text-anchor="middle" x="250.0" y="769">480 kW BBU</text></g><line stroke="#8b5cf6" stroke-width="1.5" x1="400" x2="400" y1="715" y2="735" /><polygon fill="#8b5cf6" points="396,729 404,729 400,735" /><g><rect fill="#1a1a2e" height="38" rx="4" ry="4" stroke="#00bcd4" stroke-width="1.5" width="110" x="345" y="735" /><text fill="#00e5ff" font-family="Arial" font-size="7" font-weight="bold" text-anchor="middle" x="400.0" y="753.0">DELTA 660 kW RACK</text><text fill="#00e5ff" font-family="Arial" font-size="6" font-weight="normal" text-anchor="middle" x="400.0" y="766.0">6x 110 kW Shelves</text><text fill="#6b7280" font-family="Arial" font-size="7" text-anchor="middle" x="400.0" y="769">480 kW BBU</text></g><line stroke="#8b5cf6" stroke-width="1.5" x1="550" x2="550" y1="715" y2="735" /><polygon fill="#8b5cf6" points="546,729 554,729 550,735" /><g><rect fill="#1a1a2e" height="38" rx="4" ry="4" stroke="#00bcd4" stroke-width="1.5" width="110" x="495" y="735" /><text fill="#00e5ff" font-family="Arial" font-size="7" font-weight="bold" text-anchor="middle" x="550.0" y="753.0">DELTA 660 kW RACK</text><text fill="#00e5ff" font-family="Arial" font-size="6" font-weight="normal" text-anchor="middle" x="550.0" y="766.0">6x 110 kW Shelves</text><text fill="#6b7280" font-family="Arial" font-size="7" text-anchor="middle" x="550.0" y="769">480 kW BBU</text></g><line stroke="#00bcd4" stroke-width="1.5" x1="250" x2="250" y1="773" y2="790" /><polygon fill="#00bcd4" points="246,784 254,784 250,790" /><g><rect fill="#1a1a2e" height="35" rx="4" ry="4" stroke="#00bcd4" stroke-width="1.5" width="110" x="195" y="790" /><text fill="#00e5ff" font-family="Arial" font-size="7" font-weight="bold" text-anchor="middle" x="250.0" y="806.5">DELTA e-FUSE (SiC &lt;3us)</text><text fill="#00e5ff" font-family="Arial" font-size="6" font-weight="normal" text-anchor="middle" x="250.0" y="819.5">90 kW DC/DC 800V-&gt;50V</text><text fill="#6b7280" font-family="Arial" font-size="7" text-anchor="middle" x="250.0" y="821">NVIDIA MGX</text></g><line stroke="#00bcd4" stroke-width="1.5" x1="400" x2="400" y1="773" y2="790" /><polygon fill="#00bcd4" points="396,784 404,784 400,790" /><g><rect fill="#1a1a2e" height="35" rx="4" ry="4" stroke="#00bcd4" stroke-width="1.5" width="110" x="345" y="790" /><text fill="#00e5ff" font-family="Arial" font-size="7" font-weight="bold" text-anchor="middle" x="400.0" y="806.5">DELTA e-FUSE (SiC &lt;3us)</text><text fill="#00e5ff" font-family="Arial" font-size="6" font-weight="normal" text-anchor="middle" x="400.0" y="819.5">90 kW DC/DC 800V-&gt;50V</text><text fill="#6b7280" font-family="Arial" font-size="7" text-anchor="middle" x="400.0" y="821">NVIDIA MGX</text></g><line stroke="#00bcd4" stroke-width="1.5" x1="550" x2="550" y1="773" y2="790" /><polygon fill="#00bcd4" points="546,784 554,784 550,790" /><g><rect fill="#1a1a2e" height="35" rx="4" ry="4" stroke="#00bcd4" stroke-width="1.5" width="110" x="495" y="790" /><text fill="#00e5ff" font-family="Arial" font-size="7" font-weight="bold" text-anchor="middle" x="550.0" y="806.5">DELTA e-FUSE (SiC &lt;3us)</text><text fill="#00e5ff" font-family="Arial" font-size="6" font-weight="normal" text-anchor="middle" x="550.0" y="819.5">90 kW DC/DC 800V-&gt;50V</text><text fill="#6b7280" font-family="Arial" font-size="7" text-anchor="middle" x="550.0" y="821">NVIDIA MGX</text></g><line stroke="#00bcd4" stroke-width="1.5" x1="250" x2="250" y1="825" y2="850" /><polygon fill="#00bcd4" points="246,844 254,844 250,850" /><g><rect fill="#1a1a2e" height="30" rx="4" ry="4" stroke="#8b5cf6" stroke-width="1.5" width="80" x="210" y="850" /><text fill="#c4b5fd" font-family="Arial" font-size="7" font-weight="bold" text-anchor="middle" x="250.0" y="864.0">RACK PDU</text><text fill="#c4b5fd" font-family="Arial" font-size="6" font-weight="normal" text-anchor="middle" x="250.0" y="877.0">800V DC</text></g><line stroke="#76b900" stroke-width="1.5" x1="250" x2="250" y1="880" y2="895" /><polygon fill="#76b900" points="246,889 254,889 250,895" /><g><rect fill="#1a1a2e" height="30" rx="4" ry="4" stroke="#76b900" stroke-width="1.5" width="90" x="205" y="895" /><text fill="#76b900" font-family="Arial" font-size="7" font-weight="bold" text-anchor="middle" x="250.0" y="909.0">64:1 LLC DC-DC</text><text fill="#76b900" font-family="Arial" font-size="6" font-weight="normal" text-anchor="middle" x="250.0" y="922.0">800V --&gt; 12.5V</text><text fill="#6b7280" font-family="Arial" font-size="7" text-anchor="middle" x="250.0" y="921">99%+ eff</text></g><line stroke="#76b900" stroke-width="1.5" x1="250" x2="250" y1="925" y2="940" /><polygon fill="#76b900" points="246,934 254,934 250,940" /><line stroke="#00bcd4" stroke-width="1.5" x1="400" x2="400" y1="825" y2="850" /><polygon fill="#00bcd4" points="396,844 404,844 400,850" /><g><rect fill="#1a1a2e" height="30" rx="4" ry="4" stroke="#8b5cf6" stroke-width="1.5" width="80" x="360" y="850" /><text fill="#c4b5fd" font-family="Arial" font-size="7" font-weight="bold" text-anchor="middle" x="400.0" y="864.0">RACK PDU</text><text fill="#c4b5fd" font-family="Arial" font-size="6" font-weight="normal" text-anchor="middle" x="400.0" y="877.0">800V DC</text></g><line stroke="#76b900" stroke-width="1.5" x1="400" x2="400" y1="880" y2="895" /><polygon fill="#76b900" points="396,889 404,889 400,895" /><g><rect fill="#1a1a2e" height="30" rx="4" ry="4" stroke="#76b900" stroke-width="1.5" width="90" x="355" y="895" /><text fill="#76b900" font-family="Arial" font-size="7" font-weight="bold" text-anchor="middle" x="400.0" y="909.0">64:1 LLC DC-DC</text><text fill="#76b900" font-family="Arial" font-size="6" font-weight="normal" text-anchor="middle" x="400.0" y="922.0">800V --&gt; 12.5V</text><text fill="#6b7280" font-family="Arial" font-size="7" text-anchor="middle" x="400.0" y="921">99%+ eff</text></g><line stroke="#76b900" stroke-width="1.5" x1="400" x2="400" y1="925" y2="940" /><polygon fill="#76b900" points="396,934 404,934 400,940" /><line stroke="#00bcd4" stroke-width="1.5" x1="550" x2="550" y1="825" y2="850" /><polygon fill="#00bcd4" points="546,844 554,844 550,850" /><g><rect fill="#1a1a2e" height="30" rx="4" ry="4" stroke="#8b5cf6" stroke-width="1.5" width="80" x="510" y="850" /><text fill="#c4b5fd" font-family="Arial" font-size="7" font-weight="bold" text-anchor="middle" x="550.0" y="864.0">RACK PDU</text><text fill="#c4b5fd" font-family="Arial" font-size="6" font-weight="normal" text-anchor="middle" x="550.0" y="877.0">800V DC</text></g><line stroke="#76b900" stroke-width="1.5" x1="550" x2="550" y1="880" y2="895" /><polygon fill="#76b900" points="546,889 554,889 550,895" /><g><rect fill="#1a1a2e" height="30" rx="4" ry="4" stroke="#76b900" stroke-width="1.5" width="90" x="505" y="895" /><text fill="#76b900" font-family="Arial" font-size="7" font-weight="bold" text-anchor="middle" x="550.0" y="909.0">64:1 LLC DC-DC</text><text fill="#76b900" font-family="Arial" font-size="6" font-weight="normal" text-anchor="middle" x="550.0" y="922.0">800V --&gt; 12.5V</text><text fill="#6b7280" font-family="Arial" font-size="7" text-anchor="middle" x="550.0" y="921">99%+ eff</text></g><line stroke="#76b900" stroke-width="1.5" x1="550" x2="550" y1="925" y2="940" /><polygon fill="#76b900" points="546,934 554,934 550,940" /><g><rect fill="#111a00" height="50" rx="4" ry="4" stroke="#76b900" stroke-width="1.5" width="110" x="195" y="940" /><text fill="#76b900" font-family="Arial" font-size="8" font-weight="bold" text-anchor="middle" x="250.0" y="957.5">NVL72 x12</text><text fill="#76b900" font-family="Arial" font-size="7" font-weight="normal" text-anchor="middle" x="250.0" y="970.5">RACKS 1-12</text><text fill="#76b900" font-family="Arial" font-size="7" font-weight="normal" text-anchor="middle" x="250.0" y="983.5">1.56 MW</text><text fill="#6b7280" font-family="Arial" font-size="7" text-anchor="middle" x="250.0" y="986">Vera Rubin | 130 kW | CoolIT CHx2000</text></g><g><rect fill="#111a00" height="50" rx="4" ry="4" stroke="#76b900" stroke-width="1.5" width="110" x="345" y="940" /><text fill="#76b900" font-family="Arial" font-size="8" font-weight="bold" text-anchor="middle" x="400.0" y="957.5">NVL72 x12</text><text fill="#76b900" font-family="Arial" font-size="7" font-weight="normal" text-anchor="middle" x="400.0" y="970.5">RACKS 13-24</text><text fill="#76b900" font-family="Arial" font-size="7" font-weight="normal" text-anchor="middle" x="400.0" y="983.5">1.56 MW</text><text fill="#6b7280" font-family="Arial" font-size="7" text-anchor="middle" x="400.0" y="986">Vera Rubin | 130 kW | CoolIT CHx2000</text></g><g><rect fill="#111a00" height="50" rx="4" ry="4" stroke="#76b900" stroke-width="1.5" width="110" x="495" y="940" /><text fill="#76b900" font-family="Arial" font-size="8" font-weight="bold" text-anchor="middle" x="550.0" y="957.5">NVL72 x12</text><text fill="#76b900" font-family="Arial" font-size="7" font-weight="normal" text-anchor="middle" x="550.0" y="970.5">RACKS 25-36</text><text fill="#76b900" font-family="Arial" font-size="7" font-weight="normal" text-anchor="middle" x="550.0" y="983.5">1.56 MW</text><text fill="#6b7280" font-family="Arial" font-size="7" text-anchor="middle" x="550.0" y="986">Vera Rubin | 130 kW | CoolIT CHx2000</text></g><g><rect fill="#1a1a2e" height="255" rx="4" ry="4" stroke="#333" stroke-width="1.5" width="110" x="645" y="735" /><text fill="#555" font-family="Arial" font-size="8" font-weight="bold" text-anchor="middle" x="700.0" y="822.5">EXPANSION</text><text fill="#555" font-family="Arial" font-size="7" font-weight="normal" text-anchor="middle" x="700.0" y="835.5">PHASE 2</text><text fill="#555" font-family="Arial" font-size="7" font-weight="normal" text-anchor="middle" x="700.0" y="848.5" /><text fill="#555" font-family="Arial" font-size="7" font-weight="normal" text-anchor="middle" x="700.0" y="861.5">Racks 37-72</text><text fill="#555" font-family="Arial" font-size="7" font-weight="normal" text-anchor="middle" x="700.0" y="874.5">4.68 MW</text><text fill="#555" font-family="Arial" font-size="7" font-weight="normal" text-anchor="middle" x="700.0" y="887.5" /><text fill="#555" font-family="Arial" font-size="7" font-weight="normal" text-anchor="middle" x="700.0" y="900.5">Infrastructure</text><text fill="#555" font-family="Arial" font-size="7" font-weight="normal" text-anchor="middle" x="700.0" y="913.5">pre-wired</text></g><rect fill="#111318" height="960" rx="8" stroke="#1e2230" stroke-width="1" width="490" x="880" y="75" /><text fill="#f0f2f5" font-family="Arial" font-size="12" font-weight="bold" text-anchor="middle" x="1125" y="95">4-LAYER POWER HIERARCHY</text><rect fill="#111318" height="25" rx="4" stroke="#fbbf24" stroke-width="1" width="460" x="895" y="115" /><text fill="#fbbf24" font-family="Arial" font-size="11" font-weight="bold" x="905" y="131">LAYER 1: SOLAR</text><text fill="#fbbf24" font-family="Arial" font-size="8" font-weight="bold" text-anchor="end" x="1350" y="131">PRIMARY OFFSET</text><text fill="#9ca3af" font-family="Arial" font-size="8" x="910" y="153">  First Solar Series 7 TR1 (550W) panels</text><text fill="#9ca3af" font-family="Arial" font-size="8" x="910" y="166">  Ground-mounted on 400+ acres</text><text fill="#9ca3af" font-family="Arial" font-size="8" x="910" y="179">  5+ MW Phase 1, expandable to 50+ MW</text><text fill="#9ca3af" font-family="Arial" font-size="8" x="910" y="192">  DC-Direct to 800V bus (97% eff)</text><text fill="#9ca3af" font-family="Arial" font-size="8" x="910" y="205">  Made 30 miles away in New Iberia, LA</text><text fill="#9ca3af" font-family="Arial" font-size="8" x="910" y="218">  0.3%/yr degradation (industry best)</text><text fill="#9ca3af" font-family="Arial" font-size="8" x="910" y="231">  30-year manufacturer warranty</text><rect fill="#111318" height="25" rx="4" stroke="#22c55e" stroke-width="1" width="460" x="895" y="251" /><text fill="#22c55e" font-family="Arial" font-size="11" font-weight="bold" x="905" y="267">LAYER 2: NATURAL GAS</text><text fill="#22c55e" font-family="Arial" font-size="8" font-weight="bold" text-anchor="end" x="1350" y="267">BACKBONE — ALWAYS RUNNING</text><text fill="#9ca3af" font-family="Arial" font-size="8" x="910" y="289">  Caterpillar G3616A4 generators (8.7 MW each)</text><text fill="#9ca3af" font-family="Arial" font-size="8" x="910" y="302">  3 units: 26.1 MW total (N+1 redundant)</text><text fill="#9ca3af" font-family="Arial" font-size="8" x="910" y="315">  ATMOS Energy pipeline on-site</text><text fill="#9ca3af" font-family="Arial" font-size="8" x="910" y="328">  Henry Hub pricing = cheapest in USA</text><text fill="#9ca3af" font-family="Arial" font-size="8" x="910" y="341">  H2-ready (25% hydrogen blend)</text><text fill="#9ca3af" font-family="Arial" font-size="8" x="910" y="354">  Louisiana Cat service contract</text><text fill="#9ca3af" font-family="Arial" font-size="8" x="910" y="367">  Carries FULL load 24/7/365</text><rect fill="#111318" height="25" rx="4" stroke="#ef4444" stroke-width="1" width="460" x="895" y="387" /><text fill="#ef4444" font-family="Arial" font-size="11" font-weight="bold" x="905" y="403">LAYER 3: DIESEL</text><text fill="#ef4444" font-family="Arial" font-size="8" font-weight="bold" text-anchor="end" x="1350" y="403">EMERGENCY ONLY</text><text fill="#9ca3af" font-family="Arial" font-size="8" x="910" y="425">  500 kW diesel generator</text><text fill="#9ca3af" font-family="Arial" font-size="8" x="910" y="438">  10,000 gal on-site fuel storage</text><text fill="#9ca3af" font-family="Arial" font-size="8" x="910" y="451">  Auto-start on dual gas failure</text><text fill="#9ca3af" font-family="Arial" font-size="8" x="910" y="464">  Pipeline-independent fuel source</text><text fill="#9ca3af" font-family="Arial" font-size="8" x="910" y="477">  Bridges until gas restored</text><text fill="#9ca3af" font-family="Arial" font-size="8" x="910" y="490">  Required for NVIDIA certification</text><rect fill="#111318" height="25" rx="4" stroke="#ef4444" stroke-width="1" width="460" x="895" y="510" /><text fill="#ef4444" font-family="Arial" font-size="11" font-weight="bold" x="905" y="526">LAYER 4: GRID (SELL-BACK)</text><text fill="#ef4444" font-family="Arial" font-size="8" font-weight="bold" text-anchor="end" x="1350" y="526">SELL-BACK ONLY — NOT A SOURCE</text><text fill="#9ca3af" font-family="Arial" font-size="8" x="910" y="548">  500kV + 230kV substations on-site</text><text fill="#9ca3af" font-family="Arial" font-size="8" x="910" y="561">  Entergy bidirectional interconnect</text><text fill="#9ca3af" font-family="Arial" font-size="8" x="910" y="574">  Excess power sold BACK to grid</text><text fill="#9ca3af" font-family="Arial" font-size="8" x="910" y="587">  Revenue generation, not consumption</text><text fill="#9ca3af" font-family="Arial" font-size="8" x="910" y="600">  Grid is NEVER used to power GPUs</text><text fill="#9ca3af" font-family="Arial" font-size="8" x="910" y="613">  Former 2,200 MW plant infrastructure</text><rect fill="#111318" height="40" rx="6" stroke="#1e2230" width="1340" x="30" y="1060" /><text fill="#6b7280" font-family="Arial" font-size="7" font-weight="bold" x="55" y="1074">GAS GENERATION</text><text fill="#22c55e" font-family="Arial" font-size="10" font-weight="bold" x="55" y="1088">26.1 MW (N+1)</text><text fill="#6b7280" font-family="Arial" font-size="7" font-weight="bold" x="245" y="1074">SOLAR</text><text fill="#22c55e" font-family="Arial" font-size="10" font-weight="bold" x="245" y="1088">5+ MW DC-Direct</text><text fill="#6b7280" font-family="Arial" font-size="7" font-weight="bold" x="435" y="1074">IT LOAD</text><text fill="#22c55e" font-family="Arial" font-size="10" font-weight="bold" x="435" y="1088">4.68 MW</text><text fill="#6b7280" font-family="Arial" font-size="7" font-weight="bold" x="625" y="1074">TOTAL FACILITY</text><text fill="#22c55e" font-family="Arial" font-size="10" font-weight="bold" x="625" y="1088">~6.5 MW</text><text fill="#6b7280" font-family="Arial" font-size="7" font-weight="bold" x="815" y="1074">PUE TARGET</text><text fill="#22c55e" font-family="Arial" font-size="10" font-weight="bold" x="815" y="1088">&lt; 1.15</text><text fill="#6b7280" font-family="Arial" font-size="7" font-weight="bold" x="1005" y="1074">RACKS</text><text fill="#22c55e" font-family="Arial" font-size="10" font-weight="bold" x="1005" y="1088">36 NVL72</text><text fill="#6b7280" font-family="Arial" font-size="7" font-weight="bold" x="1195" y="1074">GPUs</text><text fill="#22c55e" font-family="Arial" font-size="10" font-weight="bold" x="1195" y="1088">2,592</text><text fill="#4b5563" font-family="Arial" font-size="7" x="35" y="1115">1. Gas is the BACKBONE (Layer 2) — always running, carries full facility load 24/7. Solar offsets but does not replace gas.</text><text fill="#4b5563" font-family="Arial" font-size="7" x="35" y="1127">2. Grid is SELL-BACK ONLY (Layer 4) — excess generation returns to Entergy. GPUs NEVER run on grid power.</text><text fill="#4b5563" font-family="Arial" font-size="7" x="35" y="1139">3. N+1 generator redundancy: 3x Caterpillar G3616A4 (8.7 MW each). Any single unit offline = zero impact to operations.</text><text fill="#4b5563" font-family="Arial" font-size="7" x="35" y="1151">4. DUAL POWER STACK: Eaton (facility) + Delta (rack). Delta 660 kW Rack (6x 110 kW shelves, 480 kW embedded BBU) per row.</text><text fill="#4b5563" font-family="Arial" font-size="7" x="35" y="1163">5. Delta e-Fuse (SiC, &lt;3 us fault isolation) + Delta 90 kW DC/DC (800V to 50V NVIDIA MGX bus) per rack.</text><text fill="#4b5563" font-family="Arial" font-size="7" x="35" y="1175">6. All equipment American-made: Cat G3616A4, Eaton Beam Rubin DSX + ORV3, Delta Power Rack, ABB SACE Infinitus, First Solar Series 7 TR1.</text></svg>