<?xml version="1.0" encoding="utf-8" ?>
<svg baseProfile="full" height="950px" version="1.1" viewBox="0 0 1400 950" width="1400px" xmlns="http://www.w3.org/2000/svg" xmlns:ev="http://www.w3.org/2001/xml-events" xmlns:xlink="http://www.w3.org/1999/xlink"><defs /><rect fill="#0a0b0f" height="950" width="1400" x="0" y="0" /><text fill="#f0f2f5" font-family="Arial" font-size="16" font-weight="bold" text-anchor="middle" x="700.0" y="24">TIGER COMPUTE CAMPUS — WILLOW GLEN, ST. GABRIEL, LA</text><text fill="#fbbf24" font-family="Arial" font-size="10" font-weight="bold" text-anchor="middle" x="700.0" y="40">SOLAR ARRAY LAYOUT | FIRST SOLAR SERIES 7 TR1 | DC-DIRECT TO 800V BUS</text><text fill="#6b7280" font-family="Arial" font-size="9" text-anchor="middle" x="700.0" y="54">Sheet L-001 | MVP Design Intent | 2026-03-22 | NOT FOR CONSTRUCTION</text><rect fill="#0d0d00" height="480" rx="6" stroke="#fbbf24" stroke-width="1.5" width="850" x="50" y="80" /><text fill="#fbbf24" font-family="Arial" font-size="10" font-weight="bold" text-anchor="middle" x="475.0" y="72">SOLAR ARRAY ZONE A — 600' x 2,400' (~33 ACRES)</text><rect fill="#1a1a3a" height="12.222222222222221" rx="1" stroke="#2a2a5a" stroke-width="0.5" width="770" x="90" y="100.0" /><rect fill="#1a1a4a" height="11.222222222222221" stroke="#2a2a6a" stroke-width="0.3" width="24.666666666666668" x="90.5" y="100.5" /><rect fill="#1a1a4a" height="11.222222222222221" stroke="#2a2a6a" stroke-width="0.3" width="24.666666666666668" x="116.16666666666667" y="100.5" /><rect fill="#1a1a4a" height="11.222222222222221" stroke="#2a2a6a" stroke-width="0.3" width="24.666666666666668" x="141.83333333333334" y="100.5" /><rect fill="#1a1a4a" height="11.222222222222221" stroke="#2a2a6a" stroke-width="0.3" width="24.666666666666668" x="167.5" y="100.5" /><rect fill="#1a1a4a" height="11.222222222222221" stroke="#2a2a6a" stroke-width="0.3" width="24.666666666666668" x="193.16666666666669" y="100.5" /><rect fill="#1a1a4a" height="11.222222222222221" stroke="#2a2a6a" stroke-width="0.3" width="24.666666666666668" x="218.83333333333334" y="100.5" /><rect fill="#1a1a4a" height="11.222222222222221" stroke="#2a2a6a" stroke-width="0.3" width="24.666666666666668" x="244.5" y="100.5" /><rect fill="#1a1a4a" height="11.222222222222221" stroke="#2a2a6a" stroke-width="0.3" width="24.666666666666668" x="270.1666666666667" y="100.5" /><rect fill="#1a1a4a" height="11.222222222222221" stroke="#2a2a6a" stroke-width="0.3" width="24.666666666666668" x="295.83333333333337" y="100.5" /><rect fill="#1a1a4a" height="11.222222222222221" stroke="#2a2a6a" stroke-width="0.3" width="24.666666666666668" x="321.5" y="100.5" /><rect fill="#1a1a4a" height="11.222222222222221" stroke="#2a2a6a" stroke-width="0.3" width="24.666666666666668" x="347.1666666666667" y="100.5" /><rect fill="#1a1a4a" height="11.222222222222221" stroke="#2a2a6a" stroke-width="0.3" width="24.666666666666668" x="372.83333333333337" y="100.5" /><rect fill="#1a1a4a" height="11.222222222222221" stroke="#2a2a6a" stroke-width="0.3" width="24.666666666666668" x="398.5" y="100.5" /><rect fill="#1a1a4a" height="11.222222222222221" stroke="#2a2a6a" stroke-width="0.3" width="24.666666666666668" x="424.1666666666667" y="100.5" /><rect fill="#1a1a4a" height="11.222222222222221" stroke="#2a2a6a" stroke-width="0.3" width="24.666666666666668" x="449.83333333333337" y="100.5" /><rect fill="#1a1a4a" height="11.222222222222221" stroke="#2a2a6a" stroke-width="0.3" width="24.666666666666668" x="475.5" y="100.5" /><rect fill="#1a1a4a" height="11.222222222222221" stroke="#2a2a6a" stroke-width="0.3" width="24.666666666666668" x="501.1666666666667" y="100.5" /><rect fill="#1a1a4a" height="11.222222222222221" stroke="#2a2a6a" stroke-width="0.3" width="24.666666666666668" x="526.8333333333334" y="100.5" /><rect fill="#1a1a4a" height="11.222222222222221" stroke="#2a2a6a" stroke-width="0.3" width="24.666666666666668" x="552.5" y="100.5" /><rect fill="#1a1a4a" height="11.222222222222221" stroke="#2a2a6a" stroke-width="0.3" width="24.666666666666668" x="578.1666666666667" y="100.5" /><rect fill="#1a1a4a" height="11.222222222222221" stroke="#2a2a6a" stroke-width="0.3" width="24.666666666666668" x="603.8333333333334" y="100.5" /><rect fill="#1a1a4a" height="11.222222222222221" stroke="#2a2a6a" stroke-width="0.3" width="24.666666666666668" x="629.5" y="100.5" /><rect fill="#1a1a4a" height="11.222222222222221" stroke="#2a2a6a" stroke-width="0.3" width="24.666666666666668" x="655.1666666666667" y="100.5" /><rect fill="#1a1a4a" height="11.222222222222221" stroke="#2a2a6a" stroke-width="0.3" width="24.666666666666668" x="680.8333333333334" y="100.5" /><rect fill="#1a1a4a" height="11.222222222222221" stroke="#2a2a6a" stroke-width="0.3" width="24.666666666666668" x="706.5" y="100.5" /><rect fill="#1a1a4a" height="11.222222222222221" stroke="#2a2a6a" stroke-width="0.3" width="24.666666666666668" x="732.1666666666667" y="100.5" /><rect fill="#1a1a4a" height="11.222222222222221" stroke="#2a2a6a" stroke-width="0.3" width="24.666666666666668" x="757.8333333333334" y="100.5" /><rect fill="#1a1a4a" height="11.222222222222221" stroke="#2a2a6a" stroke-width="0.3" width="24.666666666666668" x="783.5" y="100.5" /><rect fill="#1a1a4a" height="11.222222222222221" stroke="#2a2a6a" stroke-width="0.3" width="24.666666666666668" x="809.1666666666667" y="100.5" /><rect fill="#1a1a4a" height="11.222222222222221" stroke="#2a2a6a" stroke-width="0.3" width="24.666666666666668" x="834.8333333333334" y="100.5" /><text fill="#555" font-family="Arial" font-size="6" x="65" y="108.55555555555556">Row 1</text><rect fill="#1a1a3a" height="12.222222222222221" rx="1" stroke="#2a2a5a" stroke-width="0.5" width="770" x="90" y="124.44444444444444" /><rect fill="#1a1a4a" height="11.222222222222221" stroke="#2a2a6a" stroke-width="0.3" width="24.666666666666668" x="90.5" y="124.94444444444444" /><rect fill="#1a1a4a" height="11.222222222222221" stroke="#2a2a6a" stroke-width="0.3" width="24.666666666666668" x="116.16666666666667" y="124.94444444444444" /><rect fill="#1a1a4a" height="11.222222222222221" stroke="#2a2a6a" stroke-width="0.3" width="24.666666666666668" x="141.83333333333334" y="124.94444444444444" /><rect fill="#1a1a4a" height="11.222222222222221" stroke="#2a2a6a" stroke-width="0.3" width="24.666666666666668" x="167.5" y="124.94444444444444" /><rect fill="#1a1a4a" height="11.222222222222221" stroke="#2a2a6a" stroke-width="0.3" width="24.666666666666668" x="193.16666666666669" y="124.94444444444444" /><rect fill="#1a1a4a" height="11.222222222222221" stroke="#2a2a6a" stroke-width="0.3" width="24.666666666666668" x="218.83333333333334" y="124.94444444444444" /><rect fill="#1a1a4a" height="11.222222222222221" stroke="#2a2a6a" stroke-width="0.3" width="24.666666666666668" x="244.5" y="124.94444444444444" /><rect fill="#1a1a4a" height="11.222222222222221" stroke="#2a2a6a" stroke-width="0.3" width="24.666666666666668" x="270.1666666666667" y="124.94444444444444" /><rect fill="#1a1a4a" height="11.222222222222221" stroke="#2a2a6a" stroke-width="0.3" width="24.666666666666668" x="295.83333333333337" y="124.94444444444444" /><rect fill="#1a1a4a" height="11.222222222222221" stroke="#2a2a6a" stroke-width="0.3" width="24.666666666666668" x="321.5" y="124.94444444444444" /><rect fill="#1a1a4a" height="11.222222222222221" stroke="#2a2a6a" stroke-width="0.3" width="24.666666666666668" x="347.1666666666667" y="124.94444444444444" /><rect fill="#1a1a4a" height="11.222222222222221" stroke="#2a2a6a" stroke-width="0.3" width="24.666666666666668" x="372.83333333333337" y="124.94444444444444" /><rect fill="#1a1a4a" height="11.222222222222221" stroke="#2a2a6a" stroke-width="0.3" width="24.666666666666668" x="398.5" y="124.94444444444444" /><rect fill="#1a1a4a" height="11.222222222222221" stroke="#2a2a6a" stroke-width="0.3" width="24.666666666666668" x="424.1666666666667" y="124.94444444444444" /><rect fill="#1a1a4a" height="11.222222222222221" stroke="#2a2a6a" stroke-width="0.3" width="24.666666666666668" x="449.83333333333337" y="124.94444444444444" /><rect fill="#1a1a4a" height="11.222222222222221" stroke="#2a2a6a" stroke-width="0.3" width="24.666666666666668" x="475.5" y="124.94444444444444" /><rect fill="#1a1a4a" height="11.222222222222221" stroke="#2a2a6a" stroke-width="0.3" width="24.666666666666668" x="501.1666666666667" y="124.94444444444444" /><rect fill="#1a1a4a" height="11.222222222222221" stroke="#2a2a6a" stroke-width="0.3" width="24.666666666666668" x="526.8333333333334" y="124.94444444444444" /><rect fill="#1a1a4a" height="11.222222222222221" stroke="#2a2a6a" stroke-width="0.3" width="24.666666666666668" x="552.5" y="124.94444444444444" /><rect fill="#1a1a4a" height="11.222222222222221" stroke="#2a2a6a" stroke-width="0.3" width="24.666666666666668" x="578.1666666666667" y="124.94444444444444" /><rect fill="#1a1a4a" height="11.222222222222221" stroke="#2a2a6a" stroke-width="0.3" width="24.666666666666668" x="603.8333333333334" y="124.94444444444444" /><rect fill="#1a1a4a" height="11.222222222222221" stroke="#2a2a6a" stroke-width="0.3" width="24.666666666666668" x="629.5" y="124.94444444444444" /><rect fill="#1a1a4a" height="11.222222222222221" stroke="#2a2a6a" stroke-width="0.3" width="24.666666666666668" x="655.1666666666667" y="124.94444444444444" /><rect fill="#1a1a4a" height="11.222222222222221" stroke="#2a2a6a" stroke-width="0.3" width="24.666666666666668" x="680.8333333333334" y="124.94444444444444" /><rect fill="#1a1a4a" height="11.222222222222221" stroke="#2a2a6a" stroke-width="0.3" width="24.666666666666668" x="706.5" y="124.94444444444444" /><rect fill="#1a1a4a" height="11.222222222222221" stroke="#2a2a6a" stroke-width="0.3" width="24.666666666666668" x="732.1666666666667" y="124.94444444444444" /><rect fill="#1a1a4a" height="11.222222222222221" stroke="#2a2a6a" stroke-width="0.3" width="24.666666666666668" x="757.8333333333334" y="124.94444444444444" /><rect fill="#1a1a4a" height="11.222222222222221" stroke="#2a2a6a" stroke-width="0.3" width="24.666666666666668" x="783.5" y="124.94444444444444" /><rect fill="#1a1a4a" height="11.222222222222221" stroke="#2a2a6a" stroke-width="0.3" width="24.666666666666668" x="809.1666666666667" y="124.94444444444444" /><rect fill="#1a1a4a" height="11.222222222222221" stroke="#2a2a6a" stroke-width="0.3" width="24.666666666666668" x="834.8333333333334" y="124.94444444444444" /><rect fill="#1a1a3a" height="12.222222222222221" rx="1" stroke="#2a2a5a" stroke-width="0.5" width="770" x="90" y="148.88888888888889" /><rect fill="#1a1a4a" height="11.222222222222221" stroke="#2a2a6a" stroke-width="0.3" width="24.666666666666668" x="90.5" y="149.38888888888889" /><rect fill="#1a1a4a" height="11.222222222222221" stroke="#2a2a6a" stroke-width="0.3" width="24.666666666666668" x="116.16666666666667" y="149.38888888888889" /><rect fill="#1a1a4a" height="11.222222222222221" stroke="#2a2a6a" stroke-width="0.3" width="24.666666666666668" x="141.83333333333334" y="149.38888888888889" /><rect fill="#1a1a4a" height="11.222222222222221" stroke="#2a2a6a" stroke-width="0.3" width="24.666666666666668" x="167.5" y="149.38888888888889" /><rect fill="#1a1a4a" height="11.222222222222221" stroke="#2a2a6a" stroke-width="0.3" width="24.666666666666668" x="193.16666666666669" y="149.38888888888889" /><rect fill="#1a1a4a" height="11.222222222222221" stroke="#2a2a6a" stroke-width="0.3" width="24.666666666666668" x="218.83333333333334" y="149.38888888888889" /><rect fill="#1a1a4a" height="11.222222222222221" stroke="#2a2a6a" stroke-width="0.3" width="24.666666666666668" x="244.5" y="149.38888888888889" /><rect fill="#1a1a4a" height="11.222222222222221" stroke="#2a2a6a" stroke-width="0.3" width="24.666666666666668" x="270.1666666666667" y="149.38888888888889" /><rect fill="#1a1a4a" height="11.222222222222221" stroke="#2a2a6a" stroke-width="0.3" width="24.666666666666668" x="295.83333333333337" y="149.38888888888889" /><rect fill="#1a1a4a" height="11.222222222222221" stroke="#2a2a6a" stroke-width="0.3" width="24.666666666666668" x="321.5" y="149.38888888888889" /><rect fill="#1a1a4a" height="11.222222222222221" stroke="#2a2a6a" stroke-width="0.3" width="24.666666666666668" x="347.1666666666667" y="149.38888888888889" /><rect fill="#1a1a4a" height="11.222222222222221" stroke="#2a2a6a" stroke-width="0.3" width="24.666666666666668" x="372.83333333333337" y="149.38888888888889" /><rect fill="#1a1a4a" height="11.222222222222221" stroke="#2a2a6a" stroke-width="0.3" width="24.666666666666668" x="398.5" y="149.38888888888889" /><rect fill="#1a1a4a" height="11.222222222222221" stroke="#2a2a6a" stroke-width="0.3" width="24.666666666666668" x="424.1666666666667" y="149.38888888888889" /><rect fill="#1a1a4a" height="11.222222222222221" stroke="#2a2a6a" stroke-width="0.3" width="24.666666666666668" x="449.83333333333337" y="149.38888888888889" /><rect fill="#1a1a4a" height="11.222222222222221" stroke="#2a2a6a" stroke-width="0.3" width="24.666666666666668" x="475.5" y="149.38888888888889" /><rect fill="#1a1a4a" height="11.222222222222221" stroke="#2a2a6a" stroke-width="0.3" width="24.666666666666668" x="501.1666666666667" y="149.38888888888889" /><rect fill="#1a1a4a" height="11.222222222222221" stroke="#2a2a6a" stroke-width="0.3" width="24.666666666666668" x="526.8333333333334" y="149.38888888888889" /><rect fill="#1a1a4a" height="11.222222222222221" stroke="#2a2a6a" stroke-width="0.3" width="24.666666666666668" x="552.5" y="149.38888888888889" /><rect fill="#1a1a4a" height="11.222222222222221" stroke="#2a2a6a" stroke-width="0.3" width="24.666666666666668" x="578.1666666666667" y="149.38888888888889" /><rect fill="#1a1a4a" height="11.222222222222221" stroke="#2a2a6a" stroke-width="0.3" width="24.666666666666668" x="603.8333333333334" y="149.38888888888889" /><rect fill="#1a1a4a" height="11.222222222222221" stroke="#2a2a6a" stroke-width="0.3" width="24.666666666666668" x="629.5" y="149.38888888888889" /><rect fill="#1a1a4a" height="11.222222222222221" stroke="#2a2a6a" stroke-width="0.3" width="24.666666666666668" x="655.1666666666667" y="149.38888888888889" /><rect fill="#1a1a4a" height="11.222222222222221" stroke="#2a2a6a" stroke-width="0.3" width="24.666666666666668" x="680.8333333333334" y="149.38888888888889" /><rect fill="#1a1a4a" height="11.222222222222221" stroke="#2a2a6a" stroke-width="0.3" width="24.666666666666668" x="706.5" y="149.38888888888889" /><rect fill="#1a1a4a" height="11.222222222222221" stroke="#2a2a6a" stroke-width="0.3" width="24.666666666666668" x="732.1666666666667" y="149.38888888888889" /><rect fill="#1a1a4a" height="11.222222222222221" stroke="#2a2a6a" stroke-width="0.3" width="24.666666666666668" x="757.8333333333334" y="149.38888888888889" /><rect fill="#1a1a4a" height="11.222222222222221" stroke="#2a2a6a" stroke-width="0.3" width="24.666666666666668" x="783.5" y="149.38888888888889" /><rect fill="#1a1a4a" height="11.222222222222221" stroke="#2a2a6a" stroke-width="0.3" width="24.666666666666668" x="809.1666666666667" y="149.38888888888889" /><rect fill="#1a1a4a" height="11.222222222222221" stroke="#2a2a6a" stroke-width="0.3" width="24.666666666666668" x="834.8333333333334" y="149.38888888888889" /><rect fill="#1a1a3a" height="12.222222222222221" rx="1" stroke="#2a2a5a" stroke-width="0.5" width="770" x="90" y="173.33333333333331" /><rect fill="#1a1a4a" height="11.222222222222221" stroke="#2a2a6a" stroke-width="0.3" width="24.666666666666668" x="90.5" y="173.83333333333331" /><rect fill="#1a1a4a" height="11.222222222222221" stroke="#2a2a6a" stroke-width="0.3" width="24.666666666666668" x="116.16666666666667" y="173.83333333333331" /><rect fill="#1a1a4a" height="11.222222222222221" stroke="#2a2a6a" stroke-width="0.3" width="24.666666666666668" x="141.83333333333334" y="173.83333333333331" /><rect fill="#1a1a4a" height="11.222222222222221" stroke="#2a2a6a" stroke-width="0.3" width="24.666666666666668" x="167.5" y="173.83333333333331" /><rect fill="#1a1a4a" height="11.222222222222221" stroke="#2a2a6a" stroke-width="0.3" width="24.666666666666668" x="193.16666666666669" y="173.83333333333331" /><rect fill="#1a1a4a" height="11.222222222222221" stroke="#2a2a6a" stroke-width="0.3" width="24.666666666666668" x="218.83333333333334" y="173.83333333333331" /><rect fill="#1a1a4a" height="11.222222222222221" stroke="#2a2a6a" stroke-width="0.3" width="24.666666666666668" x="244.5" y="173.83333333333331" /><rect fill="#1a1a4a" height="11.222222222222221" stroke="#2a2a6a" stroke-width="0.3" width="24.666666666666668" x="270.1666666666667" y="173.83333333333331" /><rect fill="#1a1a4a" height="11.222222222222221" stroke="#2a2a6a" stroke-width="0.3" width="24.666666666666668" x="295.83333333333337" y="173.83333333333331" /><rect fill="#1a1a4a" height="11.222222222222221" stroke="#2a2a6a" stroke-width="0.3" width="24.666666666666668" x="321.5" y="173.83333333333331" /><rect fill="#1a1a4a" height="11.222222222222221" stroke="#2a2a6a" stroke-width="0.3" width="24.666666666666668" x="347.1666666666667" y="173.83333333333331" /><rect fill="#1a1a4a" height="11.222222222222221" stroke="#2a2a6a" stroke-width="0.3" width="24.666666666666668" x="372.83333333333337" y="173.83333333333331" /><rect fill="#1a1a4a" height="11.222222222222221" stroke="#2a2a6a" stroke-width="0.3" width="24.666666666666668" x="398.5" y="173.83333333333331" /><rect fill="#1a1a4a" height="11.222222222222221" stroke="#2a2a6a" stroke-width="0.3" width="24.666666666666668" x="424.1666666666667" y="173.83333333333331" /><rect fill="#1a1a4a" height="11.222222222222221" stroke="#2a2a6a" stroke-width="0.3" width="24.666666666666668" x="449.83333333333337" y="173.83333333333331" /><rect fill="#1a1a4a" height="11.222222222222221" stroke="#2a2a6a" stroke-width="0.3" width="24.666666666666668" x="475.5" y="173.83333333333331" /><rect fill="#1a1a4a" height="11.222222222222221" stroke="#2a2a6a" stroke-width="0.3" width="24.666666666666668" x="501.1666666666667" y="173.83333333333331" /><rect fill="#1a1a4a" height="11.222222222222221" stroke="#2a2a6a" stroke-width="0.3" width="24.666666666666668" x="526.8333333333334" y="173.83333333333331" /><rect fill="#1a1a4a" height="11.222222222222221" stroke="#2a2a6a" stroke-width="0.3" width="24.666666666666668" x="552.5" y="173.83333333333331" /><rect fill="#1a1a4a" height="11.222222222222221" stroke="#2a2a6a" stroke-width="0.3" width="24.666666666666668" x="578.1666666666667" y="173.83333333333331" /><rect fill="#1a1a4a" height="11.222222222222221" stroke="#2a2a6a" stroke-width="0.3" width="24.666666666666668" x="603.8333333333334" y="173.83333333333331" /><rect fill="#1a1a4a" height="11.222222222222221" stroke="#2a2a6a" stroke-width="0.3" width="24.666666666666668" x="629.5" y="173.83333333333331" /><rect fill="#1a1a4a" height="11.222222222222221" stroke="#2a2a6a" stroke-width="0.3" width="24.666666666666668" x="655.1666666666667" y="173.83333333333331" /><rect fill="#1a1a4a" height="11.222222222222221" stroke="#2a2a6a" stroke-width="0.3" width="24.666666666666668" x="680.8333333333334" y="173.83333333333331" /><rect fill="#1a1a4a" height="11.222222222222221" stroke="#2a2a6a" stroke-width="0.3" width="24.666666666666668" x="706.5" y="173.83333333333331" /><rect fill="#1a1a4a" height="11.222222222222221" stroke="#2a2a6a" stroke-width="0.3" width="24.666666666666668" x="732.1666666666667" y="173.83333333333331" /><rect fill="#1a1a4a" height="11.222222222222221" stroke="#2a2a6a" stroke-width="0.3" width="24.666666666666668" x="757.8333333333334" y="173.83333333333331" /><rect fill="#1a1a4a" height="11.222222222222221" stroke="#2a2a6a" stroke-width="0.3" width="24.666666666666668" x="783.5" y="173.83333333333331" /><rect fill="#1a1a4a" height="11.222222222222221" stroke="#2a2a6a" stroke-width="0.3" width="24.666666666666668" x="809.1666666666667" y="173.83333333333331" /><rect fill="#1a1a4a" height="11.222222222222221" stroke="#2a2a6a" stroke-width="0.3" width="24.666666666666668" x="834.8333333333334" y="173.83333333333331" /><text fill="#555" font-family="Arial" font-size="6" x="65" y="181.88888888888886">Row 4</text><rect fill="#1a1a3a" height="12.222222222222221" rx="1" stroke="#2a2a5a" stroke-width="0.5" width="770" x="90" y="197.77777777777777" /><rect fill="#1a1a4a" height="11.222222222222221" stroke="#2a2a6a" stroke-width="0.3" width="24.666666666666668" x="90.5" y="198.27777777777777" /><rect fill="#1a1a4a" height="11.222222222222221" stroke="#2a2a6a" stroke-width="0.3" width="24.666666666666668" x="116.16666666666667" y="198.27777777777777" /><rect fill="#1a1a4a" height="11.222222222222221" stroke="#2a2a6a" stroke-width="0.3" width="24.666666666666668" x="141.83333333333334" y="198.27777777777777" /><rect fill="#1a1a4a" height="11.222222222222221" stroke="#2a2a6a" stroke-width="0.3" width="24.666666666666668" x="167.5" y="198.27777777777777" /><rect fill="#1a1a4a" height="11.222222222222221" stroke="#2a2a6a" stroke-width="0.3" width="24.666666666666668" x="193.16666666666669" y="198.27777777777777" /><rect fill="#1a1a4a" height="11.222222222222221" stroke="#2a2a6a" stroke-width="0.3" width="24.666666666666668" x="218.83333333333334" y="198.27777777777777" /><rect fill="#1a1a4a" height="11.222222222222221" stroke="#2a2a6a" stroke-width="0.3" width="24.666666666666668" x="244.5" y="198.27777777777777" /><rect fill="#1a1a4a" height="11.222222222222221" stroke="#2a2a6a" stroke-width="0.3" width="24.666666666666668" x="270.1666666666667" y="198.27777777777777" /><rect fill="#1a1a4a" height="11.222222222222221" stroke="#2a2a6a" stroke-width="0.3" width="24.666666666666668" x="295.83333333333337" y="198.27777777777777" /><rect fill="#1a1a4a" height="11.222222222222221" stroke="#2a2a6a" stroke-width="0.3" width="24.666666666666668" x="321.5" y="198.27777777777777" /><rect fill="#1a1a4a" height="11.222222222222221" stroke="#2a2a6a" stroke-width="0.3" width="24.666666666666668" x="347.1666666666667" y="198.27777777777777" /><rect fill="#1a1a4a" height="11.222222222222221" stroke="#2a2a6a" stroke-width="0.3" width="24.666666666666668" x="372.83333333333337" y="198.27777777777777" /><rect fill="#1a1a4a" height="11.222222222222221" stroke="#2a2a6a" stroke-width="0.3" width="24.666666666666668" x="398.5" y="198.27777777777777" /><rect fill="#1a1a4a" height="11.222222222222221" stroke="#2a2a6a" stroke-width="0.3" width="24.666666666666668" x="424.1666666666667" y="198.27777777777777" /><rect fill="#1a1a4a" height="11.222222222222221" stroke="#2a2a6a" stroke-width="0.3" width="24.666666666666668" x="449.83333333333337" y="198.27777777777777" /><rect fill="#1a1a4a" height="11.222222222222221" stroke="#2a2a6a" stroke-width="0.3" width="24.666666666666668" x="475.5" y="198.27777777777777" /><rect fill="#1a1a4a" height="11.222222222222221" stroke="#2a2a6a" stroke-width="0.3" width="24.666666666666668" x="501.1666666666667" y="198.27777777777777" /><rect fill="#1a1a4a" height="11.222222222222221" stroke="#2a2a6a" stroke-width="0.3" width="24.666666666666668" x="526.8333333333334" y="198.27777777777777" /><rect fill="#1a1a4a" height="11.222222222222221" stroke="#2a2a6a" stroke-width="0.3" width="24.666666666666668" x="552.5" y="198.27777777777777" /><rect fill="#1a1a4a" height="11.222222222222221" stroke="#2a2a6a" stroke-width="0.3" width="24.666666666666668" x="578.1666666666667" y="198.27777777777777" /><rect fill="#1a1a4a" height="11.222222222222221" stroke="#2a2a6a" stroke-width="0.3" width="24.666666666666668" x="603.8333333333334" y="198.27777777777777" /><rect fill="#1a1a4a" height="11.222222222222221" stroke="#2a2a6a" stroke-width="0.3" width="24.666666666666668" x="629.5" y="198.27777777777777" /><rect fill="#1a1a4a" height="11.222222222222221" stroke="#2a2a6a" stroke-width="0.3" width="24.666666666666668" x="655.1666666666667" y="198.27777777777777" /><rect fill="#1a1a4a" height="11.222222222222221" stroke="#2a2a6a" stroke-width="0.3" width="24.666666666666668" x="680.8333333333334" y="198.27777777777777" /><rect fill="#1a1a4a" height="11.222222222222221" stroke="#2a2a6a" stroke-width="0.3" width="24.666666666666668" x="706.5" y="198.27777777777777" /><rect fill="#1a1a4a" height="11.222222222222221" stroke="#2a2a6a" stroke-width="0.3" width="24.666666666666668" x="732.1666666666667" y="198.27777777777777" /><rect fill="#1a1a4a" height="11.222222222222221" stroke="#2a2a6a" stroke-width="0.3" width="24.666666666666668" x="757.8333333333334" y="198.27777777777777" /><rect fill="#1a1a4a" height="11.222222222222221" stroke="#2a2a6a" stroke-width="0.3" width="24.666666666666668" x="783.5" y="198.27777777777777" /><rect fill="#1a1a4a" height="11.222222222222221" stroke="#2a2a6a" stroke-width="0.3" width="24.666666666666668" x="809.1666666666667" y="198.27777777777777" /><rect fill="#1a1a4a" height="11.222222222222221" stroke="#2a2a6a" stroke-width="0.3" width="24.666666666666668" x="834.8333333333334" y="198.27777777777777" /><rect fill="#1a1a3a" height="12.222222222222221" rx="1" stroke="#2a2a5a" stroke-width="0.5" width="770" x="90" y="222.22222222222223" /><rect fill="#1a1a4a" height="11.222222222222221" stroke="#2a2a6a" stroke-width="0.3" width="24.666666666666668" x="90.5" y="222.72222222222223" /><rect fill="#1a1a4a" height="11.222222222222221" stroke="#2a2a6a" stroke-width="0.3" width="24.666666666666668" x="116.16666666666667" y="222.72222222222223" /><rect fill="#1a1a4a" height="11.222222222222221" stroke="#2a2a6a" stroke-width="0.3" width="24.666666666666668" x="141.83333333333334" y="222.72222222222223" /><rect fill="#1a1a4a" height="11.222222222222221" stroke="#2a2a6a" stroke-width="0.3" width="24.666666666666668" x="167.5" y="222.72222222222223" /><rect fill="#1a1a4a" height="11.222222222222221" stroke="#2a2a6a" stroke-width="0.3" width="24.666666666666668" x="193.16666666666669" y="222.72222222222223" /><rect fill="#1a1a4a" height="11.222222222222221" stroke="#2a2a6a" stroke-width="0.3" width="24.666666666666668" x="218.83333333333334" y="222.72222222222223" /><rect fill="#1a1a4a" height="11.222222222222221" stroke="#2a2a6a" stroke-width="0.3" width="24.666666666666668" x="244.5" y="222.72222222222223" /><rect fill="#1a1a4a" height="11.222222222222221" stroke="#2a2a6a" stroke-width="0.3" width="24.666666666666668" x="270.1666666666667" y="222.72222222222223" /><rect fill="#1a1a4a" height="11.222222222222221" stroke="#2a2a6a" stroke-width="0.3" width="24.666666666666668" x="295.83333333333337" y="222.72222222222223" /><rect fill="#1a1a4a" height="11.222222222222221" stroke="#2a2a6a" stroke-width="0.3" width="24.666666666666668" x="321.5" y="222.72222222222223" /><rect fill="#1a1a4a" height="11.222222222222221" stroke="#2a2a6a" stroke-width="0.3" width="24.666666666666668" x="347.1666666666667" y="222.72222222222223" /><rect fill="#1a1a4a" height="11.222222222222221" stroke="#2a2a6a" stroke-width="0.3" width="24.666666666666668" x="372.83333333333337" y="222.72222222222223" /><rect fill="#1a1a4a" height="11.222222222222221" stroke="#2a2a6a" stroke-width="0.3" width="24.666666666666668" x="398.5" y="222.72222222222223" /><rect fill="#1a1a4a" height="11.222222222222221" stroke="#2a2a6a" stroke-width="0.3" width="24.666666666666668" x="424.1666666666667" y="222.72222222222223" /><rect fill="#1a1a4a" height="11.222222222222221" stroke="#2a2a6a" stroke-width="0.3" width="24.666666666666668" x="449.83333333333337" y="222.72222222222223" /><rect fill="#1a1a4a" height="11.222222222222221" stroke="#2a2a6a" stroke-width="0.3" width="24.666666666666668" x="475.5" y="222.72222222222223" /><rect fill="#1a1a4a" height="11.222222222222221" stroke="#2a2a6a" stroke-width="0.3" width="24.666666666666668" x="501.1666666666667" y="222.72222222222223" /><rect fill="#1a1a4a" height="11.222222222222221" stroke="#2a2a6a" stroke-width="0.3" width="24.666666666666668" x="526.8333333333334" y="222.72222222222223" /><rect fill="#1a1a4a" height="11.222222222222221" stroke="#2a2a6a" stroke-width="0.3" width="24.666666666666668" x="552.5" y="222.72222222222223" /><rect fill="#1a1a4a" height="11.222222222222221" stroke="#2a2a6a" stroke-width="0.3" width="24.666666666666668" x="578.1666666666667" y="222.72222222222223" /><rect fill="#1a1a4a" height="11.222222222222221" stroke="#2a2a6a" stroke-width="0.3" width="24.666666666666668" x="603.8333333333334" y="222.72222222222223" /><rect fill="#1a1a4a" height="11.222222222222221" stroke="#2a2a6a" stroke-width="0.3" width="24.666666666666668" x="629.5" y="222.72222222222223" /><rect fill="#1a1a4a" height="11.222222222222221" stroke="#2a2a6a" stroke-width="0.3" width="24.666666666666668" x="655.1666666666667" y="222.72222222222223" /><rect fill="#1a1a4a" height="11.222222222222221" stroke="#2a2a6a" stroke-width="0.3" width="24.666666666666668" x="680.8333333333334" y="222.72222222222223" /><rect fill="#1a1a4a" height="11.222222222222221" stroke="#2a2a6a" stroke-width="0.3" width="24.666666666666668" x="706.5" y="222.72222222222223" /><rect fill="#1a1a4a" height="11.222222222222221" stroke="#2a2a6a" stroke-width="0.3" width="24.666666666666668" x="732.1666666666667" y="222.72222222222223" /><rect fill="#1a1a4a" height="11.222222222222221" stroke="#2a2a6a" stroke-width="0.3" width="24.666666666666668" x="757.8333333333334" y="222.72222222222223" /><rect fill="#1a1a4a" height="11.222222222222221" stroke="#2a2a6a" stroke-width="0.3" width="24.666666666666668" x="783.5" y="222.72222222222223" /><rect fill="#1a1a4a" height="11.222222222222221" stroke="#2a2a6a" stroke-width="0.3" width="24.666666666666668" x="809.1666666666667" y="222.72222222222223" /><rect fill="#1a1a4a" height="11.222222222222221" stroke="#2a2a6a" stroke-width="0.3" width="24.666666666666668" x="834.8333333333334" y="222.72222222222223" /><rect fill="#1a1a3a" height="12.222222222222221" rx="1" stroke="#2a2a5a" stroke-width="0.5" width="770" x="90" y="246.66666666666666" /><rect fill="#1a1a4a" height="11.222222222222221" stroke="#2a2a6a" stroke-width="0.3" width="24.666666666666668" x="90.5" y="247.16666666666666" /><rect fill="#1a1a4a" height="11.222222222222221" stroke="#2a2a6a" stroke-width="0.3" width="24.666666666666668" x="116.16666666666667" y="247.16666666666666" /><rect fill="#1a1a4a" height="11.222222222222221" stroke="#2a2a6a" stroke-width="0.3" width="24.666666666666668" x="141.83333333333334" y="247.16666666666666" /><rect fill="#1a1a4a" height="11.222222222222221" stroke="#2a2a6a" stroke-width="0.3" width="24.666666666666668" x="167.5" y="247.16666666666666" /><rect fill="#1a1a4a" height="11.222222222222221" stroke="#2a2a6a" stroke-width="0.3" width="24.666666666666668" x="193.16666666666669" y="247.16666666666666" /><rect fill="#1a1a4a" height="11.222222222222221" stroke="#2a2a6a" stroke-width="0.3" width="24.666666666666668" x="218.83333333333334" y="247.16666666666666" /><rect fill="#1a1a4a" height="11.222222222222221" stroke="#2a2a6a" stroke-width="0.3" width="24.666666666666668" x="244.5" y="247.16666666666666" /><rect fill="#1a1a4a" height="11.222222222222221" stroke="#2a2a6a" stroke-width="0.3" width="24.666666666666668" x="270.1666666666667" y="247.16666666666666" /><rect fill="#1a1a4a" height="11.222222222222221" stroke="#2a2a6a" stroke-width="0.3" width="24.666666666666668" x="295.83333333333337" y="247.16666666666666" /><rect fill="#1a1a4a" height="11.222222222222221" stroke="#2a2a6a" stroke-width="0.3" width="24.666666666666668" x="321.5" y="247.16666666666666" /><rect fill="#1a1a4a" height="11.222222222222221" stroke="#2a2a6a" stroke-width="0.3" width="24.666666666666668" x="347.1666666666667" y="247.16666666666666" /><rect fill="#1a1a4a" height="11.222222222222221" stroke="#2a2a6a" stroke-width="0.3" width="24.666666666666668" x="372.83333333333337" y="247.16666666666666" /><rect fill="#1a1a4a" height="11.222222222222221" stroke="#2a2a6a" stroke-width="0.3" width="24.666666666666668" x="398.5" y="247.16666666666666" /><rect fill="#1a1a4a" height="11.222222222222221" stroke="#2a2a6a" stroke-width="0.3" width="24.666666666666668" x="424.1666666666667" y="247.16666666666666" /><rect fill="#1a1a4a" height="11.222222222222221" stroke="#2a2a6a" stroke-width="0.3" width="24.666666666666668" x="449.83333333333337" y="247.16666666666666" /><rect fill="#1a1a4a" height="11.222222222222221" stroke="#2a2a6a" stroke-width="0.3" width="24.666666666666668" x="475.5" y="247.16666666666666" /><rect fill="#1a1a4a" height="11.222222222222221" stroke="#2a2a6a" stroke-width="0.3" width="24.666666666666668" x="501.1666666666667" y="247.16666666666666" /><rect fill="#1a1a4a" height="11.222222222222221" stroke="#2a2a6a" stroke-width="0.3" width="24.666666666666668" x="526.8333333333334" y="247.16666666666666" /><rect fill="#1a1a4a" height="11.222222222222221" stroke="#2a2a6a" stroke-width="0.3" width="24.666666666666668" x="552.5" y="247.16666666666666" /><rect fill="#1a1a4a" height="11.222222222222221" stroke="#2a2a6a" stroke-width="0.3" width="24.666666666666668" x="578.1666666666667" y="247.16666666666666" /><rect fill="#1a1a4a" height="11.222222222222221" stroke="#2a2a6a" stroke-width="0.3" width="24.666666666666668" x="603.8333333333334" y="247.16666666666666" /><rect fill="#1a1a4a" height="11.222222222222221" stroke="#2a2a6a" stroke-width="0.3" width="24.666666666666668" x="629.5" y="247.16666666666666" /><rect fill="#1a1a4a" height="11.222222222222221" stroke="#2a2a6a" stroke-width="0.3" width="24.666666666666668" x="655.1666666666667" y="247.16666666666666" /><rect fill="#1a1a4a" height="11.222222222222221" stroke="#2a2a6a" stroke-width="0.3" width="24.666666666666668" x="680.8333333333334" y="247.16666666666666" /><rect fill="#1a1a4a" height="11.222222222222221" stroke="#2a2a6a" stroke-width="0.3" width="24.666666666666668" x="706.5" y="247.16666666666666" /><rect fill="#1a1a4a" height="11.222222222222221" stroke="#2a2a6a" stroke-width="0.3" width="24.666666666666668" x="732.1666666666667" y="247.16666666666666" /><rect fill="#1a1a4a" height="11.222222222222221" stroke="#2a2a6a" stroke-width="0.3" width="24.666666666666668" x="757.8333333333334" y="247.16666666666666" /><rect fill="#1a1a4a" height="11.222222222222221" stroke="#2a2a6a" stroke-width="0.3" width="24.666666666666668" x="783.5" y="247.16666666666666" /><rect fill="#1a1a4a" height="11.222222222222221" stroke="#2a2a6a" stroke-width="0.3" width="24.666666666666668" x="809.1666666666667" y="247.16666666666666" /><rect fill="#1a1a4a" height="11.222222222222221" stroke="#2a2a6a" stroke-width="0.3" width="24.666666666666668" x="834.8333333333334" y="247.16666666666666" /><text fill="#555" font-family="Arial" font-size="6" x="65" y="255.2222222222222">Row 7</text><rect fill="#1a1a3a" height="12.222222222222221" rx="1" stroke="#2a2a5a" stroke-width="0.5" width="770" x="90" y="271.1111111111111" /><rect fill="#1a1a4a" height="11.222222222222221" stroke="#2a2a6a" stroke-width="0.3" width="24.666666666666668" x="90.5" y="271.6111111111111" /><rect fill="#1a1a4a" height="11.222222222222221" stroke="#2a2a6a" stroke-width="0.3" width="24.666666666666668" x="116.16666666666667" y="271.6111111111111" /><rect fill="#1a1a4a" height="11.222222222222221" stroke="#2a2a6a" stroke-width="0.3" width="24.666666666666668" x="141.83333333333334" y="271.6111111111111" /><rect fill="#1a1a4a" height="11.222222222222221" stroke="#2a2a6a" stroke-width="0.3" width="24.666666666666668" x="167.5" y="271.6111111111111" /><rect fill="#1a1a4a" height="11.222222222222221" stroke="#2a2a6a" stroke-width="0.3" width="24.666666666666668" x="193.16666666666669" y="271.6111111111111" /><rect fill="#1a1a4a" height="11.222222222222221" stroke="#2a2a6a" stroke-width="0.3" width="24.666666666666668" x="218.83333333333334" y="271.6111111111111" /><rect fill="#1a1a4a" height="11.222222222222221" stroke="#2a2a6a" stroke-width="0.3" width="24.666666666666668" x="244.5" y="271.6111111111111" /><rect fill="#1a1a4a" height="11.222222222222221" stroke="#2a2a6a" stroke-width="0.3" width="24.666666666666668" x="270.1666666666667" y="271.6111111111111" /><rect fill="#1a1a4a" height="11.222222222222221" stroke="#2a2a6a" stroke-width="0.3" width="24.666666666666668" x="295.83333333333337" y="271.6111111111111" /><rect fill="#1a1a4a" height="11.222222222222221" stroke="#2a2a6a" stroke-width="0.3" width="24.666666666666668" x="321.5" y="271.6111111111111" /><rect fill="#1a1a4a" height="11.222222222222221" stroke="#2a2a6a" stroke-width="0.3" width="24.666666666666668" x="347.1666666666667" y="271.6111111111111" /><rect fill="#1a1a4a" height="11.222222222222221" stroke="#2a2a6a" stroke-width="0.3" width="24.666666666666668" x="372.83333333333337" y="271.6111111111111" /><rect fill="#1a1a4a" height="11.222222222222221" stroke="#2a2a6a" stroke-width="0.3" width="24.666666666666668" x="398.5" y="271.6111111111111" /><rect fill="#1a1a4a" height="11.222222222222221" stroke="#2a2a6a" stroke-width="0.3" width="24.666666666666668" x="424.1666666666667" y="271.6111111111111" /><rect fill="#1a1a4a" height="11.222222222222221" stroke="#2a2a6a" stroke-width="0.3" width="24.666666666666668" x="449.83333333333337" y="271.6111111111111" /><rect fill="#1a1a4a" height="11.222222222222221" stroke="#2a2a6a" stroke-width="0.3" width="24.666666666666668" x="475.5" y="271.6111111111111" /><rect fill="#1a1a4a" height="11.222222222222221" stroke="#2a2a6a" stroke-width="0.3" width="24.666666666666668" x="501.1666666666667" y="271.6111111111111" /><rect fill="#1a1a4a" height="11.222222222222221" stroke="#2a2a6a" stroke-width="0.3" width="24.666666666666668" x="526.8333333333334" y="271.6111111111111" /><rect fill="#1a1a4a" height="11.222222222222221" stroke="#2a2a6a" stroke-width="0.3" width="24.666666666666668" x="552.5" y="271.6111111111111" /><rect fill="#1a1a4a" height="11.222222222222221" stroke="#2a2a6a" stroke-width="0.3" width="24.666666666666668" x="578.1666666666667" y="271.6111111111111" /><rect fill="#1a1a4a" height="11.222222222222221" stroke="#2a2a6a" stroke-width="0.3" width="24.666666666666668" x="603.8333333333334" y="271.6111111111111" /><rect fill="#1a1a4a" height="11.222222222222221" stroke="#2a2a6a" stroke-width="0.3" width="24.666666666666668" x="629.5" y="271.6111111111111" /><rect fill="#1a1a4a" height="11.222222222222221" stroke="#2a2a6a" stroke-width="0.3" width="24.666666666666668" x="655.1666666666667" y="271.6111111111111" /><rect fill="#1a1a4a" height="11.222222222222221" stroke="#2a2a6a" stroke-width="0.3" width="24.666666666666668" x="680.8333333333334" y="271.6111111111111" /><rect fill="#1a1a4a" height="11.222222222222221" stroke="#2a2a6a" stroke-width="0.3" width="24.666666666666668" x="706.5" y="271.6111111111111" /><rect fill="#1a1a4a" height="11.222222222222221" stroke="#2a2a6a" stroke-width="0.3" width="24.666666666666668" x="732.1666666666667" y="271.6111111111111" /><rect fill="#1a1a4a" height="11.222222222222221" stroke="#2a2a6a" stroke-width="0.3" width="24.666666666666668" x="757.8333333333334" y="271.6111111111111" /><rect fill="#1a1a4a" height="11.222222222222221" stroke="#2a2a6a" stroke-width="0.3" width="24.666666666666668" x="783.5" y="271.6111111111111" /><rect fill="#1a1a4a" height="11.222222222222221" stroke="#2a2a6a" stroke-width="0.3" width="24.666666666666668" x="809.1666666666667" y="271.6111111111111" /><rect fill="#1a1a4a" height="11.222222222222221" stroke="#2a2a6a" stroke-width="0.3" width="24.666666666666668" x="834.8333333333334" y="271.6111111111111" /><rect fill="#1a1a3a" height="12.222222222222221" rx="1" stroke="#2a2a5a" stroke-width="0.5" width="770" x="90" y="295.55555555555554" /><rect fill="#1a1a4a" height="11.222222222222221" stroke="#2a2a6a" stroke-width="0.3" width="24.666666666666668" x="90.5" y="296.05555555555554" /><rect fill="#1a1a4a" height="11.222222222222221" stroke="#2a2a6a" stroke-width="0.3" width="24.666666666666668" x="116.16666666666667" y="296.05555555555554" /><rect fill="#1a1a4a" height="11.222222222222221" stroke="#2a2a6a" stroke-width="0.3" width="24.666666666666668" x="141.83333333333334" y="296.05555555555554" /><rect fill="#1a1a4a" height="11.222222222222221" stroke="#2a2a6a" stroke-width="0.3" width="24.666666666666668" x="167.5" y="296.05555555555554" /><rect fill="#1a1a4a" height="11.222222222222221" stroke="#2a2a6a" stroke-width="0.3" width="24.666666666666668" x="193.16666666666669" y="296.05555555555554" /><rect fill="#1a1a4a" height="11.222222222222221" stroke="#2a2a6a" stroke-width="0.3" width="24.666666666666668" x="218.83333333333334" y="296.05555555555554" /><rect fill="#1a1a4a" height="11.222222222222221" stroke="#2a2a6a" stroke-width="0.3" width="24.666666666666668" x="244.5" y="296.05555555555554" /><rect fill="#1a1a4a" height="11.222222222222221" stroke="#2a2a6a" stroke-width="0.3" width="24.666666666666668" x="270.1666666666667" y="296.05555555555554" /><rect fill="#1a1a4a" height="11.222222222222221" stroke="#2a2a6a" stroke-width="0.3" width="24.666666666666668" x="295.83333333333337" y="296.05555555555554" /><rect fill="#1a1a4a" height="11.222222222222221" stroke="#2a2a6a" stroke-width="0.3" width="24.666666666666668" x="321.5" y="296.05555555555554" /><rect fill="#1a1a4a" height="11.222222222222221" stroke="#2a2a6a" stroke-width="0.3" width="24.666666666666668" x="347.1666666666667" y="296.05555555555554" /><rect fill="#1a1a4a" height="11.222222222222221" stroke="#2a2a6a" stroke-width="0.3" width="24.666666666666668" x="372.83333333333337" y="296.05555555555554" /><rect fill="#1a1a4a" height="11.222222222222221" stroke="#2a2a6a" stroke-width="0.3" width="24.666666666666668" x="398.5" y="296.05555555555554" /><rect fill="#1a1a4a" height="11.222222222222221" stroke="#2a2a6a" stroke-width="0.3" width="24.666666666666668" x="424.1666666666667" y="296.05555555555554" /><rect fill="#1a1a4a" height="11.222222222222221" stroke="#2a2a6a" stroke-width="0.3" width="24.666666666666668" x="449.83333333333337" y="296.05555555555554" /><rect fill="#1a1a4a" height="11.222222222222221" stroke="#2a2a6a" stroke-width="0.3" width="24.666666666666668" x="475.5" y="296.05555555555554" /><rect fill="#1a1a4a" height="11.222222222222221" stroke="#2a2a6a" stroke-width="0.3" width="24.666666666666668" x="501.1666666666667" y="296.05555555555554" /><rect fill="#1a1a4a" height="11.222222222222221" stroke="#2a2a6a" stroke-width="0.3" width="24.666666666666668" x="526.8333333333334" y="296.05555555555554" /><rect fill="#1a1a4a" height="11.222222222222221" stroke="#2a2a6a" stroke-width="0.3" width="24.666666666666668" x="552.5" y="296.05555555555554" /><rect fill="#1a1a4a" height="11.222222222222221" stroke="#2a2a6a" stroke-width="0.3" width="24.666666666666668" x="578.1666666666667" y="296.05555555555554" /><rect fill="#1a1a4a" height="11.222222222222221" stroke="#2a2a6a" stroke-width="0.3" width="24.666666666666668" x="603.8333333333334" y="296.05555555555554" /><rect fill="#1a1a4a" height="11.222222222222221" stroke="#2a2a6a" stroke-width="0.3" width="24.666666666666668" x="629.5" y="296.05555555555554" /><rect fill="#1a1a4a" height="11.222222222222221" stroke="#2a2a6a" stroke-width="0.3" width="24.666666666666668" x="655.1666666666667" y="296.05555555555554" /><rect fill="#1a1a4a" height="11.222222222222221" stroke="#2a2a6a" stroke-width="0.3" width="24.666666666666668" x="680.8333333333334" y="296.05555555555554" /><rect fill="#1a1a4a" height="11.222222222222221" stroke="#2a2a6a" stroke-width="0.3" width="24.666666666666668" x="706.5" y="296.05555555555554" /><rect fill="#1a1a4a" height="11.222222222222221" stroke="#2a2a6a" stroke-width="0.3" width="24.666666666666668" x="732.1666666666667" y="296.05555555555554" /><rect fill="#1a1a4a" height="11.222222222222221" stroke="#2a2a6a" stroke-width="0.3" width="24.666666666666668" x="757.8333333333334" y="296.05555555555554" /><rect fill="#1a1a4a" height="11.222222222222221" stroke="#2a2a6a" stroke-width="0.3" width="24.666666666666668" x="783.5" y="296.05555555555554" /><rect fill="#1a1a4a" height="11.222222222222221" stroke="#2a2a6a" stroke-width="0.3" width="24.666666666666668" x="809.1666666666667" y="296.05555555555554" /><rect fill="#1a1a4a" height="11.222222222222221" stroke="#2a2a6a" stroke-width="0.3" width="24.666666666666668" x="834.8333333333334" y="296.05555555555554" /><rect fill="#1a1a3a" height="12.222222222222221" rx="1" stroke="#2a2a5a" stroke-width="0.5" width="770" x="90" y="320.0" /><rect fill="#1a1a4a" height="11.222222222222221" stroke="#2a2a6a" stroke-width="0.3" width="24.666666666666668" x="90.5" y="320.5" /><rect fill="#1a1a4a" height="11.222222222222221" stroke="#2a2a6a" stroke-width="0.3" width="24.666666666666668" x="116.16666666666667" y="320.5" /><rect fill="#1a1a4a" height="11.222222222222221" stroke="#2a2a6a" stroke-width="0.3" width="24.666666666666668" x="141.83333333333334" y="320.5" /><rect fill="#1a1a4a" height="11.222222222222221" stroke="#2a2a6a" stroke-width="0.3" width="24.666666666666668" x="167.5" y="320.5" /><rect fill="#1a1a4a" height="11.222222222222221" stroke="#2a2a6a" stroke-width="0.3" width="24.666666666666668" x="193.16666666666669" y="320.5" /><rect fill="#1a1a4a" height="11.222222222222221" stroke="#2a2a6a" stroke-width="0.3" width="24.666666666666668" x="218.83333333333334" y="320.5" /><rect fill="#1a1a4a" height="11.222222222222221" stroke="#2a2a6a" stroke-width="0.3" width="24.666666666666668" x="244.5" y="320.5" /><rect fill="#1a1a4a" height="11.222222222222221" stroke="#2a2a6a" stroke-width="0.3" width="24.666666666666668" x="270.1666666666667" y="320.5" /><rect fill="#1a1a4a" height="11.222222222222221" stroke="#2a2a6a" stroke-width="0.3" width="24.666666666666668" x="295.83333333333337" y="320.5" /><rect fill="#1a1a4a" height="11.222222222222221" stroke="#2a2a6a" stroke-width="0.3" width="24.666666666666668" x="321.5" y="320.5" /><rect fill="#1a1a4a" height="11.222222222222221" stroke="#2a2a6a" stroke-width="0.3" width="24.666666666666668" x="347.1666666666667" y="320.5" /><rect fill="#1a1a4a" height="11.222222222222221" stroke="#2a2a6a" stroke-width="0.3" width="24.666666666666668" x="372.83333333333337" y="320.5" /><rect fill="#1a1a4a" height="11.222222222222221" stroke="#2a2a6a" stroke-width="0.3" width="24.666666666666668" x="398.5" y="320.5" /><rect fill="#1a1a4a" height="11.222222222222221" stroke="#2a2a6a" stroke-width="0.3" width="24.666666666666668" x="424.1666666666667" y="320.5" /><rect fill="#1a1a4a" height="11.222222222222221" stroke="#2a2a6a" stroke-width="0.3" width="24.666666666666668" x="449.83333333333337" y="320.5" /><rect fill="#1a1a4a" height="11.222222222222221" stroke="#2a2a6a" stroke-width="0.3" width="24.666666666666668" x="475.5" y="320.5" /><rect fill="#1a1a4a" height="11.222222222222221" stroke="#2a2a6a" stroke-width="0.3" width="24.666666666666668" x="501.1666666666667" y="320.5" /><rect fill="#1a1a4a" height="11.222222222222221" stroke="#2a2a6a" stroke-width="0.3" width="24.666666666666668" x="526.8333333333334" y="320.5" /><rect fill="#1a1a4a" height="11.222222222222221" stroke="#2a2a6a" stroke-width="0.3" width="24.666666666666668" x="552.5" y="320.5" /><rect fill="#1a1a4a" height="11.222222222222221" stroke="#2a2a6a" stroke-width="0.3" width="24.666666666666668" x="578.1666666666667" y="320.5" /><rect fill="#1a1a4a" height="11.222222222222221" stroke="#2a2a6a" stroke-width="0.3" width="24.666666666666668" x="603.8333333333334" y="320.5" /><rect fill="#1a1a4a" height="11.222222222222221" stroke="#2a2a6a" stroke-width="0.3" width="24.666666666666668" x="629.5" y="320.5" /><rect fill="#1a1a4a" height="11.222222222222221" stroke="#2a2a6a" stroke-width="0.3" width="24.666666666666668" x="655.1666666666667" y="320.5" /><rect fill="#1a1a4a" height="11.222222222222221" stroke="#2a2a6a" stroke-width="0.3" width="24.666666666666668" x="680.8333333333334" y="320.5" /><rect fill="#1a1a4a" height="11.222222222222221" stroke="#2a2a6a" stroke-width="0.3" width="24.666666666666668" x="706.5" y="320.5" /><rect fill="#1a1a4a" height="11.222222222222221" stroke="#2a2a6a" stroke-width="0.3" width="24.666666666666668" x="732.1666666666667" y="320.5" /><rect fill="#1a1a4a" height="11.222222222222221" stroke="#2a2a6a" stroke-width="0.3" width="24.666666666666668" x="757.8333333333334" y="320.5" /><rect fill="#1a1a4a" height="11.222222222222221" stroke="#2a2a6a" stroke-width="0.3" width="24.666666666666668" x="783.5" y="320.5" /><rect fill="#1a1a4a" height="11.222222222222221" stroke="#2a2a6a" stroke-width="0.3" width="24.666666666666668" x="809.1666666666667" y="320.5" /><rect fill="#1a1a4a" height="11.222222222222221" stroke="#2a2a6a" stroke-width="0.3" width="24.666666666666668" x="834.8333333333334" y="320.5" /><text fill="#555" font-family="Arial" font-size="6" x="65" y="328.55555555555554">Row 10</text><rect fill="#1a1a3a" height="12.222222222222221" rx="1" stroke="#2a2a5a" stroke-width="0.5" width="770" x="90" y="344.44444444444446" /><rect fill="#1a1a4a" height="11.222222222222221" stroke="#2a2a6a" stroke-width="0.3" width="24.666666666666668" x="90.5" y="344.94444444444446" /><rect fill="#1a1a4a" height="11.222222222222221" stroke="#2a2a6a" stroke-width="0.3" width="24.666666666666668" x="116.16666666666667" y="344.94444444444446" /><rect fill="#1a1a4a" height="11.222222222222221" stroke="#2a2a6a" stroke-width="0.3" width="24.666666666666668" x="141.83333333333334" y="344.94444444444446" /><rect fill="#1a1a4a" height="11.222222222222221" stroke="#2a2a6a" stroke-width="0.3" width="24.666666666666668" x="167.5" y="344.94444444444446" /><rect fill="#1a1a4a" height="11.222222222222221" stroke="#2a2a6a" stroke-width="0.3" width="24.666666666666668" x="193.16666666666669" y="344.94444444444446" /><rect fill="#1a1a4a" height="11.222222222222221" stroke="#2a2a6a" stroke-width="0.3" width="24.666666666666668" x="218.83333333333334" y="344.94444444444446" /><rect fill="#1a1a4a" height="11.222222222222221" stroke="#2a2a6a" stroke-width="0.3" width="24.666666666666668" x="244.5" y="344.94444444444446" /><rect fill="#1a1a4a" height="11.222222222222221" stroke="#2a2a6a" stroke-width="0.3" width="24.666666666666668" x="270.1666666666667" y="344.94444444444446" /><rect fill="#1a1a4a" height="11.222222222222221" stroke="#2a2a6a" stroke-width="0.3" width="24.666666666666668" x="295.83333333333337" y="344.94444444444446" /><rect fill="#1a1a4a" height="11.222222222222221" stroke="#2a2a6a" stroke-width="0.3" width="24.666666666666668" x="321.5" y="344.94444444444446" /><rect fill="#1a1a4a" height="11.222222222222221" stroke="#2a2a6a" stroke-width="0.3" width="24.666666666666668" x="347.1666666666667" y="344.94444444444446" /><rect fill="#1a1a4a" height="11.222222222222221" stroke="#2a2a6a" stroke-width="0.3" width="24.666666666666668" x="372.83333333333337" y="344.94444444444446" /><rect fill="#1a1a4a" height="11.222222222222221" stroke="#2a2a6a" stroke-width="0.3" width="24.666666666666668" x="398.5" y="344.94444444444446" /><rect fill="#1a1a4a" height="11.222222222222221" stroke="#2a2a6a" stroke-width="0.3" width="24.666666666666668" x="424.1666666666667" y="344.94444444444446" /><rect fill="#1a1a4a" height="11.222222222222221" stroke="#2a2a6a" stroke-width="0.3" width="24.666666666666668" x="449.83333333333337" y="344.94444444444446" /><rect fill="#1a1a4a" height="11.222222222222221" stroke="#2a2a6a" stroke-width="0.3" width="24.666666666666668" x="475.5" y="344.94444444444446" /><rect fill="#1a1a4a" height="11.222222222222221" stroke="#2a2a6a" stroke-width="0.3" width="24.666666666666668" x="501.1666666666667" y="344.94444444444446" /><rect fill="#1a1a4a" height="11.222222222222221" stroke="#2a2a6a" stroke-width="0.3" width="24.666666666666668" x="526.8333333333334" y="344.94444444444446" /><rect fill="#1a1a4a" height="11.222222222222221" stroke="#2a2a6a" stroke-width="0.3" width="24.666666666666668" x="552.5" y="344.94444444444446" /><rect fill="#1a1a4a" height="11.222222222222221" stroke="#2a2a6a" stroke-width="0.3" width="24.666666666666668" x="578.1666666666667" y="344.94444444444446" /><rect fill="#1a1a4a" height="11.222222222222221" stroke="#2a2a6a" stroke-width="0.3" width="24.666666666666668" x="603.8333333333334" y="344.94444444444446" /><rect fill="#1a1a4a" height="11.222222222222221" stroke="#2a2a6a" stroke-width="0.3" width="24.666666666666668" x="629.5" y="344.94444444444446" /><rect fill="#1a1a4a" height="11.222222222222221" stroke="#2a2a6a" stroke-width="0.3" width="24.666666666666668" x="655.1666666666667" y="344.94444444444446" /><rect fill="#1a1a4a" height="11.222222222222221" stroke="#2a2a6a" stroke-width="0.3" width="24.666666666666668" x="680.8333333333334" y="344.94444444444446" /><rect fill="#1a1a4a" height="11.222222222222221" stroke="#2a2a6a" stroke-width="0.3" width="24.666666666666668" x="706.5" y="344.94444444444446" /><rect fill="#1a1a4a" height="11.222222222222221" stroke="#2a2a6a" stroke-width="0.3" width="24.666666666666668" x="732.1666666666667" y="344.94444444444446" /><rect fill="#1a1a4a" height="11.222222222222221" stroke="#2a2a6a" stroke-width="0.3" width="24.666666666666668" x="757.8333333333334" y="344.94444444444446" /><rect fill="#1a1a4a" height="11.222222222222221" stroke="#2a2a6a" stroke-width="0.3" width="24.666666666666668" x="783.5" y="344.94444444444446" /><rect fill="#1a1a4a" height="11.222222222222221" stroke="#2a2a6a" stroke-width="0.3" width="24.666666666666668" x="809.1666666666667" y="344.94444444444446" /><rect fill="#1a1a4a" height="11.222222222222221" stroke="#2a2a6a" stroke-width="0.3" width="24.666666666666668" x="834.8333333333334" y="344.94444444444446" /><rect fill="#1a1a3a" height="12.222222222222221" rx="1" stroke="#2a2a5a" stroke-width="0.5" width="770" x="90" y="368.88888888888886" /><rect fill="#1a1a4a" height="11.222222222222221" stroke="#2a2a6a" stroke-width="0.3" width="24.666666666666668" x="90.5" y="369.38888888888886" /><rect fill="#1a1a4a" height="11.222222222222221" stroke="#2a2a6a" stroke-width="0.3" width="24.666666666666668" x="116.16666666666667" y="369.38888888888886" /><rect fill="#1a1a4a" height="11.222222222222221" stroke="#2a2a6a" stroke-width="0.3" width="24.666666666666668" x="141.83333333333334" y="369.38888888888886" /><rect fill="#1a1a4a" height="11.222222222222221" stroke="#2a2a6a" stroke-width="0.3" width="24.666666666666668" x="167.5" y="369.38888888888886" /><rect fill="#1a1a4a" height="11.222222222222221" stroke="#2a2a6a" stroke-width="0.3" width="24.666666666666668" x="193.16666666666669" y="369.38888888888886" /><rect fill="#1a1a4a" height="11.222222222222221" stroke="#2a2a6a" stroke-width="0.3" width="24.666666666666668" x="218.83333333333334" y="369.38888888888886" /><rect fill="#1a1a4a" height="11.222222222222221" stroke="#2a2a6a" stroke-width="0.3" width="24.666666666666668" x="244.5" y="369.38888888888886" /><rect fill="#1a1a4a" height="11.222222222222221" stroke="#2a2a6a" stroke-width="0.3" width="24.666666666666668" x="270.1666666666667" y="369.38888888888886" /><rect fill="#1a1a4a" height="11.222222222222221" stroke="#2a2a6a" stroke-width="0.3" width="24.666666666666668" x="295.83333333333337" y="369.38888888888886" /><rect fill="#1a1a4a" height="11.222222222222221" stroke="#2a2a6a" stroke-width="0.3" width="24.666666666666668" x="321.5" y="369.38888888888886" /><rect fill="#1a1a4a" height="11.222222222222221" stroke="#2a2a6a" stroke-width="0.3" width="24.666666666666668" x="347.1666666666667" y="369.38888888888886" /><rect fill="#1a1a4a" height="11.222222222222221" stroke="#2a2a6a" stroke-width="0.3" width="24.666666666666668" x="372.83333333333337" y="369.38888888888886" /><rect fill="#1a1a4a" height="11.222222222222221" stroke="#2a2a6a" stroke-width="0.3" width="24.666666666666668" x="398.5" y="369.38888888888886" /><rect fill="#1a1a4a" height="11.222222222222221" stroke="#2a2a6a" stroke-width="0.3" width="24.666666666666668" x="424.1666666666667" y="369.38888888888886" /><rect fill="#1a1a4a" height="11.222222222222221" stroke="#2a2a6a" stroke-width="0.3" width="24.666666666666668" x="449.83333333333337" y="369.38888888888886" /><rect fill="#1a1a4a" height="11.222222222222221" stroke="#2a2a6a" stroke-width="0.3" width="24.666666666666668" x="475.5" y="369.38888888888886" /><rect fill="#1a1a4a" height="11.222222222222221" stroke="#2a2a6a" stroke-width="0.3" width="24.666666666666668" x="501.1666666666667" y="369.38888888888886" /><rect fill="#1a1a4a" height="11.222222222222221" stroke="#2a2a6a" stroke-width="0.3" width="24.666666666666668" x="526.8333333333334" y="369.38888888888886" /><rect fill="#1a1a4a" height="11.222222222222221" stroke="#2a2a6a" stroke-width="0.3" width="24.666666666666668" x="552.5" y="369.38888888888886" /><rect fill="#1a1a4a" height="11.222222222222221" stroke="#2a2a6a" stroke-width="0.3" width="24.666666666666668" x="578.1666666666667" y="369.38888888888886" /><rect fill="#1a1a4a" height="11.222222222222221" stroke="#2a2a6a" stroke-width="0.3" width="24.666666666666668" x="603.8333333333334" y="369.38888888888886" /><rect fill="#1a1a4a" height="11.222222222222221" stroke="#2a2a6a" stroke-width="0.3" width="24.666666666666668" x="629.5" y="369.38888888888886" /><rect fill="#1a1a4a" height="11.222222222222221" stroke="#2a2a6a" stroke-width="0.3" width="24.666666666666668" x="655.1666666666667" y="369.38888888888886" /><rect fill="#1a1a4a" height="11.222222222222221" stroke="#2a2a6a" stroke-width="0.3" width="24.666666666666668" x="680.8333333333334" y="369.38888888888886" /><rect fill="#1a1a4a" height="11.222222222222221" stroke="#2a2a6a" stroke-width="0.3" width="24.666666666666668" x="706.5" y="369.38888888888886" /><rect fill="#1a1a4a" height="11.222222222222221" stroke="#2a2a6a" stroke-width="0.3" width="24.666666666666668" x="732.1666666666667" y="369.38888888888886" /><rect fill="#1a1a4a" height="11.222222222222221" stroke="#2a2a6a" stroke-width="0.3" width="24.666666666666668" x="757.8333333333334" y="369.38888888888886" /><rect fill="#1a1a4a" height="11.222222222222221" stroke="#2a2a6a" stroke-width="0.3" width="24.666666666666668" x="783.5" y="369.38888888888886" /><rect fill="#1a1a4a" height="11.222222222222221" stroke="#2a2a6a" stroke-width="0.3" width="24.666666666666668" x="809.1666666666667" y="369.38888888888886" /><rect fill="#1a1a4a" height="11.222222222222221" stroke="#2a2a6a" stroke-width="0.3" width="24.666666666666668" x="834.8333333333334" y="369.38888888888886" /><rect fill="#1a1a3a" height="12.222222222222221" rx="1" stroke="#2a2a5a" stroke-width="0.5" width="770" x="90" y="393.3333333333333" /><rect fill="#1a1a4a" height="11.222222222222221" stroke="#2a2a6a" stroke-width="0.3" width="24.666666666666668" x="90.5" y="393.8333333333333" /><rect fill="#1a1a4a" height="11.222222222222221" stroke="#2a2a6a" stroke-width="0.3" width="24.666666666666668" x="116.16666666666667" y="393.8333333333333" /><rect fill="#1a1a4a" height="11.222222222222221" stroke="#2a2a6a" stroke-width="0.3" width="24.666666666666668" x="141.83333333333334" y="393.8333333333333" /><rect fill="#1a1a4a" height="11.222222222222221" stroke="#2a2a6a" stroke-width="0.3" width="24.666666666666668" x="167.5" y="393.8333333333333" /><rect fill="#1a1a4a" height="11.222222222222221" stroke="#2a2a6a" stroke-width="0.3" width="24.666666666666668" x="193.16666666666669" y="393.8333333333333" /><rect fill="#1a1a4a" height="11.222222222222221" stroke="#2a2a6a" stroke-width="0.3" width="24.666666666666668" x="218.83333333333334" y="393.8333333333333" /><rect fill="#1a1a4a" height="11.222222222222221" stroke="#2a2a6a" stroke-width="0.3" width="24.666666666666668" x="244.5" y="393.8333333333333" /><rect fill="#1a1a4a" height="11.222222222222221" stroke="#2a2a6a" stroke-width="0.3" width="24.666666666666668" x="270.1666666666667" y="393.8333333333333" /><rect fill="#1a1a4a" height="11.222222222222221" stroke="#2a2a6a" stroke-width="0.3" width="24.666666666666668" x="295.83333333333337" y="393.8333333333333" /><rect fill="#1a1a4a" height="11.222222222222221" stroke="#2a2a6a" stroke-width="0.3" width="24.666666666666668" x="321.5" y="393.8333333333333" /><rect fill="#1a1a4a" height="11.222222222222221" stroke="#2a2a6a" stroke-width="0.3" width="24.666666666666668" x="347.1666666666667" y="393.8333333333333" /><rect fill="#1a1a4a" height="11.222222222222221" stroke="#2a2a6a" stroke-width="0.3" width="24.666666666666668" x="372.83333333333337" y="393.8333333333333" /><rect fill="#1a1a4a" height="11.222222222222221" stroke="#2a2a6a" stroke-width="0.3" width="24.666666666666668" x="398.5" y="393.8333333333333" /><rect fill="#1a1a4a" height="11.222222222222221" stroke="#2a2a6a" stroke-width="0.3" width="24.666666666666668" x="424.1666666666667" y="393.8333333333333" /><rect fill="#1a1a4a" height="11.222222222222221" stroke="#2a2a6a" stroke-width="0.3" width="24.666666666666668" x="449.83333333333337" y="393.8333333333333" /><rect fill="#1a1a4a" height="11.222222222222221" stroke="#2a2a6a" stroke-width="0.3" width="24.666666666666668" x="475.5" y="393.8333333333333" /><rect fill="#1a1a4a" height="11.222222222222221" stroke="#2a2a6a" stroke-width="0.3" width="24.666666666666668" x="501.1666666666667" y="393.8333333333333" /><rect fill="#1a1a4a" height="11.222222222222221" stroke="#2a2a6a" stroke-width="0.3" width="24.666666666666668" x="526.8333333333334" y="393.8333333333333" /><rect fill="#1a1a4a" height="11.222222222222221" stroke="#2a2a6a" stroke-width="0.3" width="24.666666666666668" x="552.5" y="393.8333333333333" /><rect fill="#1a1a4a" height="11.222222222222221" stroke="#2a2a6a" stroke-width="0.3" width="24.666666666666668" x="578.1666666666667" y="393.8333333333333" /><rect fill="#1a1a4a" height="11.222222222222221" stroke="#2a2a6a" stroke-width="0.3" width="24.666666666666668" x="603.8333333333334" y="393.8333333333333" /><rect fill="#1a1a4a" height="11.222222222222221" stroke="#2a2a6a" stroke-width="0.3" width="24.666666666666668" x="629.5" y="393.8333333333333" /><rect fill="#1a1a4a" height="11.222222222222221" stroke="#2a2a6a" stroke-width="0.3" width="24.666666666666668" x="655.1666666666667" y="393.8333333333333" /><rect fill="#1a1a4a" height="11.222222222222221" stroke="#2a2a6a" stroke-width="0.3" width="24.666666666666668" x="680.8333333333334" y="393.8333333333333" /><rect fill="#1a1a4a" height="11.222222222222221" stroke="#2a2a6a" stroke-width="0.3" width="24.666666666666668" x="706.5" y="393.8333333333333" /><rect fill="#1a1a4a" height="11.222222222222221" stroke="#2a2a6a" stroke-width="0.3" width="24.666666666666668" x="732.1666666666667" y="393.8333333333333" /><rect fill="#1a1a4a" height="11.222222222222221" stroke="#2a2a6a" stroke-width="0.3" width="24.666666666666668" x="757.8333333333334" y="393.8333333333333" /><rect fill="#1a1a4a" height="11.222222222222221" stroke="#2a2a6a" stroke-width="0.3" width="24.666666666666668" x="783.5" y="393.8333333333333" /><rect fill="#1a1a4a" height="11.222222222222221" stroke="#2a2a6a" stroke-width="0.3" width="24.666666666666668" x="809.1666666666667" y="393.8333333333333" /><rect fill="#1a1a4a" height="11.222222222222221" stroke="#2a2a6a" stroke-width="0.3" width="24.666666666666668" x="834.8333333333334" y="393.8333333333333" /><text fill="#555" font-family="Arial" font-size="6" x="65" y="401.88888888888886">Row 13</text><rect fill="#1a1a3a" height="12.222222222222221" rx="1" stroke="#2a2a5a" stroke-width="0.5" width="770" x="90" y="417.77777777777777" /><rect fill="#1a1a4a" height="11.222222222222221" stroke="#2a2a6a" stroke-width="0.3" width="24.666666666666668" x="90.5" y="418.27777777777777" /><rect fill="#1a1a4a" height="11.222222222222221" stroke="#2a2a6a" stroke-width="0.3" width="24.666666666666668" x="116.16666666666667" y="418.27777777777777" /><rect fill="#1a1a4a" height="11.222222222222221" stroke="#2a2a6a" stroke-width="0.3" width="24.666666666666668" x="141.83333333333334" y="418.27777777777777" /><rect fill="#1a1a4a" height="11.222222222222221" stroke="#2a2a6a" stroke-width="0.3" width="24.666666666666668" x="167.5" y="418.27777777777777" /><rect fill="#1a1a4a" height="11.222222222222221" stroke="#2a2a6a" stroke-width="0.3" width="24.666666666666668" x="193.16666666666669" y="418.27777777777777" /><rect fill="#1a1a4a" height="11.222222222222221" stroke="#2a2a6a" stroke-width="0.3" width="24.666666666666668" x="218.83333333333334" y="418.27777777777777" /><rect fill="#1a1a4a" height="11.222222222222221" stroke="#2a2a6a" stroke-width="0.3" width="24.666666666666668" x="244.5" y="418.27777777777777" /><rect fill="#1a1a4a" height="11.222222222222221" stroke="#2a2a6a" stroke-width="0.3" width="24.666666666666668" x="270.1666666666667" y="418.27777777777777" /><rect fill="#1a1a4a" height="11.222222222222221" stroke="#2a2a6a" stroke-width="0.3" width="24.666666666666668" x="295.83333333333337" y="418.27777777777777" /><rect fill="#1a1a4a" height="11.222222222222221" stroke="#2a2a6a" stroke-width="0.3" width="24.666666666666668" x="321.5" y="418.27777777777777" /><rect fill="#1a1a4a" height="11.222222222222221" stroke="#2a2a6a" stroke-width="0.3" width="24.666666666666668" x="347.1666666666667" y="418.27777777777777" /><rect fill="#1a1a4a" height="11.222222222222221" stroke="#2a2a6a" stroke-width="0.3" width="24.666666666666668" x="372.83333333333337" y="418.27777777777777" /><rect fill="#1a1a4a" height="11.222222222222221" stroke="#2a2a6a" stroke-width="0.3" width="24.666666666666668" x="398.5" y="418.27777777777777" /><rect fill="#1a1a4a" height="11.222222222222221" stroke="#2a2a6a" stroke-width="0.3" width="24.666666666666668" x="424.1666666666667" y="418.27777777777777" /><rect fill="#1a1a4a" height="11.222222222222221" stroke="#2a2a6a" stroke-width="0.3" width="24.666666666666668" x="449.83333333333337" y="418.27777777777777" /><rect fill="#1a1a4a" height="11.222222222222221" stroke="#2a2a6a" stroke-width="0.3" width="24.666666666666668" x="475.5" y="418.27777777777777" /><rect fill="#1a1a4a" height="11.222222222222221" stroke="#2a2a6a" stroke-width="0.3" width="24.666666666666668" x="501.1666666666667" y="418.27777777777777" /><rect fill="#1a1a4a" height="11.222222222222221" stroke="#2a2a6a" stroke-width="0.3" width="24.666666666666668" x="526.8333333333334" y="418.27777777777777" /><rect fill="#1a1a4a" height="11.222222222222221" stroke="#2a2a6a" stroke-width="0.3" width="24.666666666666668" x="552.5" y="418.27777777777777" /><rect fill="#1a1a4a" height="11.222222222222221" stroke="#2a2a6a" stroke-width="0.3" width="24.666666666666668" x="578.1666666666667" y="418.27777777777777" /><rect fill="#1a1a4a" height="11.222222222222221" stroke="#2a2a6a" stroke-width="0.3" width="24.666666666666668" x="603.8333333333334" y="418.27777777777777" /><rect fill="#1a1a4a" height="11.222222222222221" stroke="#2a2a6a" stroke-width="0.3" width="24.666666666666668" x="629.5" y="418.27777777777777" /><rect fill="#1a1a4a" height="11.222222222222221" stroke="#2a2a6a" stroke-width="0.3" width="24.666666666666668" x="655.1666666666667" y="418.27777777777777" /><rect fill="#1a1a4a" height="11.222222222222221" stroke="#2a2a6a" stroke-width="0.3" width="24.666666666666668" x="680.8333333333334" y="418.27777777777777" /><rect fill="#1a1a4a" height="11.222222222222221" stroke="#2a2a6a" stroke-width="0.3" width="24.666666666666668" x="706.5" y="418.27777777777777" /><rect fill="#1a1a4a" height="11.222222222222221" stroke="#2a2a6a" stroke-width="0.3" width="24.666666666666668" x="732.1666666666667" y="418.27777777777777" /><rect fill="#1a1a4a" height="11.222222222222221" stroke="#2a2a6a" stroke-width="0.3" width="24.666666666666668" x="757.8333333333334" y="418.27777777777777" /><rect fill="#1a1a4a" height="11.222222222222221" stroke="#2a2a6a" stroke-width="0.3" width="24.666666666666668" x="783.5" y="418.27777777777777" /><rect fill="#1a1a4a" height="11.222222222222221" stroke="#2a2a6a" stroke-width="0.3" width="24.666666666666668" x="809.1666666666667" y="418.27777777777777" /><rect fill="#1a1a4a" height="11.222222222222221" stroke="#2a2a6a" stroke-width="0.3" width="24.666666666666668" x="834.8333333333334" y="418.27777777777777" /><rect fill="#1a1a3a" height="12.222222222222221" rx="1" stroke="#2a2a5a" stroke-width="0.5" width="770" x="90" y="442.2222222222222" /><rect fill="#1a1a4a" height="11.222222222222221" stroke="#2a2a6a" stroke-width="0.3" width="24.666666666666668" x="90.5" y="442.7222222222222" /><rect fill="#1a1a4a" height="11.222222222222221" stroke="#2a2a6a" stroke-width="0.3" width="24.666666666666668" x="116.16666666666667" y="442.7222222222222" /><rect fill="#1a1a4a" height="11.222222222222221" stroke="#2a2a6a" stroke-width="0.3" width="24.666666666666668" x="141.83333333333334" y="442.7222222222222" /><rect fill="#1a1a4a" height="11.222222222222221" stroke="#2a2a6a" stroke-width="0.3" width="24.666666666666668" x="167.5" y="442.7222222222222" /><rect fill="#1a1a4a" height="11.222222222222221" stroke="#2a2a6a" stroke-width="0.3" width="24.666666666666668" x="193.16666666666669" y="442.7222222222222" /><rect fill="#1a1a4a" height="11.222222222222221" stroke="#2a2a6a" stroke-width="0.3" width="24.666666666666668" x="218.83333333333334" y="442.7222222222222" /><rect fill="#1a1a4a" height="11.222222222222221" stroke="#2a2a6a" stroke-width="0.3" width="24.666666666666668" x="244.5" y="442.7222222222222" /><rect fill="#1a1a4a" height="11.222222222222221" stroke="#2a2a6a" stroke-width="0.3" width="24.666666666666668" x="270.1666666666667" y="442.7222222222222" /><rect fill="#1a1a4a" height="11.222222222222221" stroke="#2a2a6a" stroke-width="0.3" width="24.666666666666668" x="295.83333333333337" y="442.7222222222222" /><rect fill="#1a1a4a" height="11.222222222222221" stroke="#2a2a6a" stroke-width="0.3" width="24.666666666666668" x="321.5" y="442.7222222222222" /><rect fill="#1a1a4a" height="11.222222222222221" stroke="#2a2a6a" stroke-width="0.3" width="24.666666666666668" x="347.1666666666667" y="442.7222222222222" /><rect fill="#1a1a4a" height="11.222222222222221" stroke="#2a2a6a" stroke-width="0.3" width="24.666666666666668" x="372.83333333333337" y="442.7222222222222" /><rect fill="#1a1a4a" height="11.222222222222221" stroke="#2a2a6a" stroke-width="0.3" width="24.666666666666668" x="398.5" y="442.7222222222222" /><rect fill="#1a1a4a" height="11.222222222222221" stroke="#2a2a6a" stroke-width="0.3" width="24.666666666666668" x="424.1666666666667" y="442.7222222222222" /><rect fill="#1a1a4a" height="11.222222222222221" stroke="#2a2a6a" stroke-width="0.3" width="24.666666666666668" x="449.83333333333337" y="442.7222222222222" /><rect fill="#1a1a4a" height="11.222222222222221" stroke="#2a2a6a" stroke-width="0.3" width="24.666666666666668" x="475.5" y="442.7222222222222" /><rect fill="#1a1a4a" height="11.222222222222221" stroke="#2a2a6a" stroke-width="0.3" width="24.666666666666668" x="501.1666666666667" y="442.7222222222222" /><rect fill="#1a1a4a" height="11.222222222222221" stroke="#2a2a6a" stroke-width="0.3" width="24.666666666666668" x="526.8333333333334" y="442.7222222222222" /><rect fill="#1a1a4a" height="11.222222222222221" stroke="#2a2a6a" stroke-width="0.3" width="24.666666666666668" x="552.5" y="442.7222222222222" /><rect fill="#1a1a4a" height="11.222222222222221" stroke="#2a2a6a" stroke-width="0.3" width="24.666666666666668" x="578.1666666666667" y="442.7222222222222" /><rect fill="#1a1a4a" height="11.222222222222221" stroke="#2a2a6a" stroke-width="0.3" width="24.666666666666668" x="603.8333333333334" y="442.7222222222222" /><rect fill="#1a1a4a" height="11.222222222222221" stroke="#2a2a6a" stroke-width="0.3" width="24.666666666666668" x="629.5" y="442.7222222222222" /><rect fill="#1a1a4a" height="11.222222222222221" stroke="#2a2a6a" stroke-width="0.3" width="24.666666666666668" x="655.1666666666667" y="442.7222222222222" /><rect fill="#1a1a4a" height="11.222222222222221" stroke="#2a2a6a" stroke-width="0.3" width="24.666666666666668" x="680.8333333333334" y="442.7222222222222" /><rect fill="#1a1a4a" height="11.222222222222221" stroke="#2a2a6a" stroke-width="0.3" width="24.666666666666668" x="706.5" y="442.7222222222222" /><rect fill="#1a1a4a" height="11.222222222222221" stroke="#2a2a6a" stroke-width="0.3" width="24.666666666666668" x="732.1666666666667" y="442.7222222222222" /><rect fill="#1a1a4a" height="11.222222222222221" stroke="#2a2a6a" stroke-width="0.3" width="24.666666666666668" x="757.8333333333334" y="442.7222222222222" /><rect fill="#1a1a4a" height="11.222222222222221" stroke="#2a2a6a" stroke-width="0.3" width="24.666666666666668" x="783.5" y="442.7222222222222" /><rect fill="#1a1a4a" height="11.222222222222221" stroke="#2a2a6a" stroke-width="0.3" width="24.666666666666668" x="809.1666666666667" y="442.7222222222222" /><rect fill="#1a1a4a" height="11.222222222222221" stroke="#2a2a6a" stroke-width="0.3" width="24.666666666666668" x="834.8333333333334" y="442.7222222222222" /><rect fill="#1a1a3a" height="12.222222222222221" rx="1" stroke="#2a2a5a" stroke-width="0.5" width="770" x="90" y="466.66666666666663" /><rect fill="#1a1a4a" height="11.222222222222221" stroke="#2a2a6a" stroke-width="0.3" width="24.666666666666668" x="90.5" y="467.16666666666663" /><rect fill="#1a1a4a" height="11.222222222222221" stroke="#2a2a6a" stroke-width="0.3" width="24.666666666666668" x="116.16666666666667" y="467.16666666666663" /><rect fill="#1a1a4a" height="11.222222222222221" stroke="#2a2a6a" stroke-width="0.3" width="24.666666666666668" x="141.83333333333334" y="467.16666666666663" /><rect fill="#1a1a4a" height="11.222222222222221" stroke="#2a2a6a" stroke-width="0.3" width="24.666666666666668" x="167.5" y="467.16666666666663" /><rect fill="#1a1a4a" height="11.222222222222221" stroke="#2a2a6a" stroke-width="0.3" width="24.666666666666668" x="193.16666666666669" y="467.16666666666663" /><rect fill="#1a1a4a" height="11.222222222222221" stroke="#2a2a6a" stroke-width="0.3" width="24.666666666666668" x="218.83333333333334" y="467.16666666666663" /><rect fill="#1a1a4a" height="11.222222222222221" stroke="#2a2a6a" stroke-width="0.3" width="24.666666666666668" x="244.5" y="467.16666666666663" /><rect fill="#1a1a4a" height="11.222222222222221" stroke="#2a2a6a" stroke-width="0.3" width="24.666666666666668" x="270.1666666666667" y="467.16666666666663" /><rect fill="#1a1a4a" height="11.222222222222221" stroke="#2a2a6a" stroke-width="0.3" width="24.666666666666668" x="295.83333333333337" y="467.16666666666663" /><rect fill="#1a1a4a" height="11.222222222222221" stroke="#2a2a6a" stroke-width="0.3" width="24.666666666666668" x="321.5" y="467.16666666666663" /><rect fill="#1a1a4a" height="11.222222222222221" stroke="#2a2a6a" stroke-width="0.3" width="24.666666666666668" x="347.1666666666667" y="467.16666666666663" /><rect fill="#1a1a4a" height="11.222222222222221" stroke="#2a2a6a" stroke-width="0.3" width="24.666666666666668" x="372.83333333333337" y="467.16666666666663" /><rect fill="#1a1a4a" height="11.222222222222221" stroke="#2a2a6a" stroke-width="0.3" width="24.666666666666668" x="398.5" y="467.16666666666663" /><rect fill="#1a1a4a" height="11.222222222222221" stroke="#2a2a6a" stroke-width="0.3" width="24.666666666666668" x="424.1666666666667" y="467.16666666666663" /><rect fill="#1a1a4a" height="11.222222222222221" stroke="#2a2a6a" stroke-width="0.3" width="24.666666666666668" x="449.83333333333337" y="467.16666666666663" /><rect fill="#1a1a4a" height="11.222222222222221" stroke="#2a2a6a" stroke-width="0.3" width="24.666666666666668" x="475.5" y="467.16666666666663" /><rect fill="#1a1a4a" height="11.222222222222221" stroke="#2a2a6a" stroke-width="0.3" width="24.666666666666668" x="501.1666666666667" y="467.16666666666663" /><rect fill="#1a1a4a" height="11.222222222222221" stroke="#2a2a6a" stroke-width="0.3" width="24.666666666666668" x="526.8333333333334" y="467.16666666666663" /><rect fill="#1a1a4a" height="11.222222222222221" stroke="#2a2a6a" stroke-width="0.3" width="24.666666666666668" x="552.5" y="467.16666666666663" /><rect fill="#1a1a4a" height="11.222222222222221" stroke="#2a2a6a" stroke-width="0.3" width="24.666666666666668" x="578.1666666666667" y="467.16666666666663" /><rect fill="#1a1a4a" height="11.222222222222221" stroke="#2a2a6a" stroke-width="0.3" width="24.666666666666668" x="603.8333333333334" y="467.16666666666663" /><rect fill="#1a1a4a" height="11.222222222222221" stroke="#2a2a6a" stroke-width="0.3" width="24.666666666666668" x="629.5" y="467.16666666666663" /><rect fill="#1a1a4a" height="11.222222222222221" stroke="#2a2a6a" stroke-width="0.3" width="24.666666666666668" x="655.1666666666667" y="467.16666666666663" /><rect fill="#1a1a4a" height="11.222222222222221" stroke="#2a2a6a" stroke-width="0.3" width="24.666666666666668" x="680.8333333333334" y="467.16666666666663" /><rect fill="#1a1a4a" height="11.222222222222221" stroke="#2a2a6a" stroke-width="0.3" width="24.666666666666668" x="706.5" y="467.16666666666663" /><rect fill="#1a1a4a" height="11.222222222222221" stroke="#2a2a6a" stroke-width="0.3" width="24.666666666666668" x="732.1666666666667" y="467.16666666666663" /><rect fill="#1a1a4a" height="11.222222222222221" stroke="#2a2a6a" stroke-width="0.3" width="24.666666666666668" x="757.8333333333334" y="467.16666666666663" /><rect fill="#1a1a4a" height="11.222222222222221" stroke="#2a2a6a" stroke-width="0.3" width="24.666666666666668" x="783.5" y="467.16666666666663" /><rect fill="#1a1a4a" height="11.222222222222221" stroke="#2a2a6a" stroke-width="0.3" width="24.666666666666668" x="809.1666666666667" y="467.16666666666663" /><rect fill="#1a1a4a" height="11.222222222222221" stroke="#2a2a6a" stroke-width="0.3" width="24.666666666666668" x="834.8333333333334" y="467.16666666666663" /><text fill="#555" font-family="Arial" font-size="6" x="65" y="475.2222222222222">Row 16</text><rect fill="#1a1a3a" height="12.222222222222221" rx="1" stroke="#2a2a5a" stroke-width="0.5" width="770" x="90" y="491.1111111111111" /><rect fill="#1a1a4a" height="11.222222222222221" stroke="#2a2a6a" stroke-width="0.3" width="24.666666666666668" x="90.5" y="491.6111111111111" /><rect fill="#1a1a4a" height="11.222222222222221" stroke="#2a2a6a" stroke-width="0.3" width="24.666666666666668" x="116.16666666666667" y="491.6111111111111" /><rect fill="#1a1a4a" height="11.222222222222221" stroke="#2a2a6a" stroke-width="0.3" width="24.666666666666668" x="141.83333333333334" y="491.6111111111111" /><rect fill="#1a1a4a" height="11.222222222222221" stroke="#2a2a6a" stroke-width="0.3" width="24.666666666666668" x="167.5" y="491.6111111111111" /><rect fill="#1a1a4a" height="11.222222222222221" stroke="#2a2a6a" stroke-width="0.3" width="24.666666666666668" x="193.16666666666669" y="491.6111111111111" /><rect fill="#1a1a4a" height="11.222222222222221" stroke="#2a2a6a" stroke-width="0.3" width="24.666666666666668" x="218.83333333333334" y="491.6111111111111" /><rect fill="#1a1a4a" height="11.222222222222221" stroke="#2a2a6a" stroke-width="0.3" width="24.666666666666668" x="244.5" y="491.6111111111111" /><rect fill="#1a1a4a" height="11.222222222222221" stroke="#2a2a6a" stroke-width="0.3" width="24.666666666666668" x="270.1666666666667" y="491.6111111111111" /><rect fill="#1a1a4a" height="11.222222222222221" stroke="#2a2a6a" stroke-width="0.3" width="24.666666666666668" x="295.83333333333337" y="491.6111111111111" /><rect fill="#1a1a4a" height="11.222222222222221" stroke="#2a2a6a" stroke-width="0.3" width="24.666666666666668" x="321.5" y="491.6111111111111" /><rect fill="#1a1a4a" height="11.222222222222221" stroke="#2a2a6a" stroke-width="0.3" width="24.666666666666668" x="347.1666666666667" y="491.6111111111111" /><rect fill="#1a1a4a" height="11.222222222222221" stroke="#2a2a6a" stroke-width="0.3" width="24.666666666666668" x="372.83333333333337" y="491.6111111111111" /><rect fill="#1a1a4a" height="11.222222222222221" stroke="#2a2a6a" stroke-width="0.3" width="24.666666666666668" x="398.5" y="491.6111111111111" /><rect fill="#1a1a4a" height="11.222222222222221" stroke="#2a2a6a" stroke-width="0.3" width="24.666666666666668" x="424.1666666666667" y="491.6111111111111" /><rect fill="#1a1a4a" height="11.222222222222221" stroke="#2a2a6a" stroke-width="0.3" width="24.666666666666668" x="449.83333333333337" y="491.6111111111111" /><rect fill="#1a1a4a" height="11.222222222222221" stroke="#2a2a6a" stroke-width="0.3" width="24.666666666666668" x="475.5" y="491.6111111111111" /><rect fill="#1a1a4a" height="11.222222222222221" stroke="#2a2a6a" stroke-width="0.3" width="24.666666666666668" x="501.1666666666667" y="491.6111111111111" /><rect fill="#1a1a4a" height="11.222222222222221" stroke="#2a2a6a" stroke-width="0.3" width="24.666666666666668" x="526.8333333333334" y="491.6111111111111" /><rect fill="#1a1a4a" height="11.222222222222221" stroke="#2a2a6a" stroke-width="0.3" width="24.666666666666668" x="552.5" y="491.6111111111111" /><rect fill="#1a1a4a" height="11.222222222222221" stroke="#2a2a6a" stroke-width="0.3" width="24.666666666666668" x="578.1666666666667" y="491.6111111111111" /><rect fill="#1a1a4a" height="11.222222222222221" stroke="#2a2a6a" stroke-width="0.3" width="24.666666666666668" x="603.8333333333334" y="491.6111111111111" /><rect fill="#1a1a4a" height="11.222222222222221" stroke="#2a2a6a" stroke-width="0.3" width="24.666666666666668" x="629.5" y="491.6111111111111" /><rect fill="#1a1a4a" height="11.222222222222221" stroke="#2a2a6a" stroke-width="0.3" width="24.666666666666668" x="655.1666666666667" y="491.6111111111111" /><rect fill="#1a1a4a" height="11.222222222222221" stroke="#2a2a6a" stroke-width="0.3" width="24.666666666666668" x="680.8333333333334" y="491.6111111111111" /><rect fill="#1a1a4a" height="11.222222222222221" stroke="#2a2a6a" stroke-width="0.3" width="24.666666666666668" x="706.5" y="491.6111111111111" /><rect fill="#1a1a4a" height="11.222222222222221" stroke="#2a2a6a" stroke-width="0.3" width="24.666666666666668" x="732.1666666666667" y="491.6111111111111" /><rect fill="#1a1a4a" height="11.222222222222221" stroke="#2a2a6a" stroke-width="0.3" width="24.666666666666668" x="757.8333333333334" y="491.6111111111111" /><rect fill="#1a1a4a" height="11.222222222222221" stroke="#2a2a6a" stroke-width="0.3" width="24.666666666666668" x="783.5" y="491.6111111111111" /><rect fill="#1a1a4a" height="11.222222222222221" stroke="#2a2a6a" stroke-width="0.3" width="24.666666666666668" x="809.1666666666667" y="491.6111111111111" /><rect fill="#1a1a4a" height="11.222222222222221" stroke="#2a2a6a" stroke-width="0.3" width="24.666666666666668" x="834.8333333333334" y="491.6111111111111" /><rect fill="#1a1a3a" height="12.222222222222221" rx="1" stroke="#2a2a5a" stroke-width="0.5" width="770" x="90" y="515.5555555555555" /><rect fill="#1a1a4a" height="11.222222222222221" stroke="#2a2a6a" stroke-width="0.3" width="24.666666666666668" x="90.5" y="516.0555555555555" /><rect fill="#1a1a4a" height="11.222222222222221" stroke="#2a2a6a" stroke-width="0.3" width="24.666666666666668" x="116.16666666666667" y="516.0555555555555" /><rect fill="#1a1a4a" height="11.222222222222221" stroke="#2a2a6a" stroke-width="0.3" width="24.666666666666668" x="141.83333333333334" y="516.0555555555555" /><rect fill="#1a1a4a" height="11.222222222222221" stroke="#2a2a6a" stroke-width="0.3" width="24.666666666666668" x="167.5" y="516.0555555555555" /><rect fill="#1a1a4a" height="11.222222222222221" stroke="#2a2a6a" stroke-width="0.3" width="24.666666666666668" x="193.16666666666669" y="516.0555555555555" /><rect fill="#1a1a4a" height="11.222222222222221" stroke="#2a2a6a" stroke-width="0.3" width="24.666666666666668" x="218.83333333333334" y="516.0555555555555" /><rect fill="#1a1a4a" height="11.222222222222221" stroke="#2a2a6a" stroke-width="0.3" width="24.666666666666668" x="244.5" y="516.0555555555555" /><rect fill="#1a1a4a" height="11.222222222222221" stroke="#2a2a6a" stroke-width="0.3" width="24.666666666666668" x="270.1666666666667" y="516.0555555555555" /><rect fill="#1a1a4a" height="11.222222222222221" stroke="#2a2a6a" stroke-width="0.3" width="24.666666666666668" x="295.83333333333337" y="516.0555555555555" /><rect fill="#1a1a4a" height="11.222222222222221" stroke="#2a2a6a" stroke-width="0.3" width="24.666666666666668" x="321.5" y="516.0555555555555" /><rect fill="#1a1a4a" height="11.222222222222221" stroke="#2a2a6a" stroke-width="0.3" width="24.666666666666668" x="347.1666666666667" y="516.0555555555555" /><rect fill="#1a1a4a" height="11.222222222222221" stroke="#2a2a6a" stroke-width="0.3" width="24.666666666666668" x="372.83333333333337" y="516.0555555555555" /><rect fill="#1a1a4a" height="11.222222222222221" stroke="#2a2a6a" stroke-width="0.3" width="24.666666666666668" x="398.5" y="516.0555555555555" /><rect fill="#1a1a4a" height="11.222222222222221" stroke="#2a2a6a" stroke-width="0.3" width="24.666666666666668" x="424.1666666666667" y="516.0555555555555" /><rect fill="#1a1a4a" height="11.222222222222221" stroke="#2a2a6a" stroke-width="0.3" width="24.666666666666668" x="449.83333333333337" y="516.0555555555555" /><rect fill="#1a1a4a" height="11.222222222222221" stroke="#2a2a6a" stroke-width="0.3" width="24.666666666666668" x="475.5" y="516.0555555555555" /><rect fill="#1a1a4a" height="11.222222222222221" stroke="#2a2a6a" stroke-width="0.3" width="24.666666666666668" x="501.1666666666667" y="516.0555555555555" /><rect fill="#1a1a4a" height="11.222222222222221" stroke="#2a2a6a" stroke-width="0.3" width="24.666666666666668" x="526.8333333333334" y="516.0555555555555" /><rect fill="#1a1a4a" height="11.222222222222221" stroke="#2a2a6a" stroke-width="0.3" width="24.666666666666668" x="552.5" y="516.0555555555555" /><rect fill="#1a1a4a" height="11.222222222222221" stroke="#2a2a6a" stroke-width="0.3" width="24.666666666666668" x="578.1666666666667" y="516.0555555555555" /><rect fill="#1a1a4a" height="11.222222222222221" stroke="#2a2a6a" stroke-width="0.3" width="24.666666666666668" x="603.8333333333334" y="516.0555555555555" /><rect fill="#1a1a4a" height="11.222222222222221" stroke="#2a2a6a" stroke-width="0.3" width="24.666666666666668" x="629.5" y="516.0555555555555" /><rect fill="#1a1a4a" height="11.222222222222221" stroke="#2a2a6a" stroke-width="0.3" width="24.666666666666668" x="655.1666666666667" y="516.0555555555555" /><rect fill="#1a1a4a" height="11.222222222222221" stroke="#2a2a6a" stroke-width="0.3" width="24.666666666666668" x="680.8333333333334" y="516.0555555555555" /><rect fill="#1a1a4a" height="11.222222222222221" stroke="#2a2a6a" stroke-width="0.3" width="24.666666666666668" x="706.5" y="516.0555555555555" /><rect fill="#1a1a4a" height="11.222222222222221" stroke="#2a2a6a" stroke-width="0.3" width="24.666666666666668" x="732.1666666666667" y="516.0555555555555" /><rect fill="#1a1a4a" height="11.222222222222221" stroke="#2a2a6a" stroke-width="0.3" width="24.666666666666668" x="757.8333333333334" y="516.0555555555555" /><rect fill="#1a1a4a" height="11.222222222222221" stroke="#2a2a6a" stroke-width="0.3" width="24.666666666666668" x="783.5" y="516.0555555555555" /><rect fill="#1a1a4a" height="11.222222222222221" stroke="#2a2a6a" stroke-width="0.3" width="24.666666666666668" x="809.1666666666667" y="516.0555555555555" /><rect fill="#1a1a4a" height="11.222222222222221" stroke="#2a2a6a" stroke-width="0.3" width="24.666666666666668" x="834.8333333333334" y="516.0555555555555" /><rect fill="#333" height="4" rx="1" width="790" x="80" y="244.66666666666666" /><text fill="#555" font-family="Arial" font-size="5" text-anchor="middle" x="475.0" y="247.66666666666666">SERVICE ROAD</text><rect fill="#333" height="4" rx="1" width="790" x="80" y="391.3333333333333" /><text fill="#555" font-family="Arial" font-size="5" text-anchor="middle" x="475.0" y="394.3333333333333">SERVICE ROAD</text><rect fill="none" height="470" rx="4" stroke="#333" stroke-dasharray="4,4" stroke-width="1" width="840" x="55" y="85" /><rect fill="#1a1a00" height="30" rx="2" stroke="#fbbf24" stroke-width="1" width="25" x="865" y="160" /><text fill="#fbbf24" font-family="Arial" font-size="7" font-weight="bold" text-anchor="middle" x="877" y="178">CB1</text><rect fill="#1a1a00" height="30" rx="2" stroke="#fbbf24" stroke-width="1" width="25" x="865" y="300" /><text fill="#fbbf24" font-family="Arial" font-size="7" font-weight="bold" text-anchor="middle" x="877" y="318">CB2</text><rect fill="#1a1a00" height="30" rx="2" stroke="#fbbf24" stroke-width="1" width="25" x="865" y="440" /><text fill="#fbbf24" font-family="Arial" font-size="7" font-weight="bold" text-anchor="middle" x="877" y="458">CB3</text><line stroke="#fbbf24" stroke-width="1" x1="890" x2="930" y1="175" y2="175" /><line stroke="#fbbf24" stroke-width="1" x1="890" x2="930" y1="315" y2="315" /><line stroke="#fbbf24" stroke-width="1" x1="890" x2="930" y1="455" y2="455" /><g><rect fill="#1a1a2e" height="60" rx="4" ry="4" stroke="#fbbf24" stroke-width="1.5" width="160" x="950" y="100" /><text fill="#fbbf24" font-family="Arial" font-size="10" font-weight="bold" text-anchor="middle" x="1030.0" y="122.5">STRING COMBINER</text><text fill="#fbbf24" font-family="Arial" font-size="9" font-weight="normal" text-anchor="middle" x="1030.0" y="135.5">PANEL</text><text fill="#fbbf24" font-family="Arial" font-size="9" font-weight="normal" text-anchor="middle" x="1030.0" y="148.5">5-panel strings @ 952V</text><text fill="#6b7280" font-family="Arial" font-size="7" text-anchor="middle" x="1030.0" y="156">Fused inputs | Monitoring</text></g><line stroke="#fbbf24" stroke-width="1.5" x1="1030" x2="1030" y1="160" y2="200" /><g><rect fill="#1a1a2e" height="60" rx="4" ry="4" stroke="#fbbf24" stroke-width="1.5" width="160" x="950" y="200" /><text fill="#fbbf24" font-family="Arial" font-size="10" font-weight="bold" text-anchor="middle" x="1030.0" y="222.5">DC-DC BUCK</text><text fill="#fbbf24" font-family="Arial" font-size="9" font-weight="normal" text-anchor="middle" x="1030.0" y="235.5">TI 800V-to-6V GaN</text><text fill="#fbbf24" font-family="Arial" font-size="9" font-weight="normal" text-anchor="middle" x="1030.0" y="248.5">952V --&gt; 800V DC</text><text fill="#6b7280" font-family="Arial" font-size="7" text-anchor="middle" x="1030.0" y="256">Infineon CoolGaN IBC | MPPT | 97%</text></g><line stroke="#8b5cf6" stroke-width="2" x1="1030" x2="1030" y1="260" y2="310" /><g><rect fill="#1a1a2e" height="50" rx="4" ry="4" stroke="#8b5cf6" stroke-width="1.5" width="160" x="950" y="310" /><text fill="#c4b5fd" font-family="Arial" font-size="10" font-weight="bold" text-anchor="middle" x="1030.0" y="334.0">800V DC BUS</text><text fill="#c4b5fd" font-family="Arial" font-size="9" font-weight="normal" text-anchor="middle" x="1030.0" y="347.0">(DSX Reference)</text><text fill="#6b7280" font-family="Arial" font-size="7" text-anchor="middle" x="1030.0" y="356">Feeds directly to GPU racks</text></g><line stroke="#fbbf24" stroke-dasharray="4,3" stroke-width="1" x1="1110" x2="1150" y1="230" y2="230" /><g><rect fill="#1a1a2e" height="60" rx="4" ry="4" stroke="#555" stroke-width="1.5" width="140" x="1150" y="200" /><text fill="#555" font-family="Arial" font-size="10" font-weight="bold" text-anchor="middle" x="1220.0" y="216.0">INVERTER</text><text fill="#555" font-family="Arial" font-size="9" font-weight="normal" text-anchor="middle" x="1220.0" y="229.0">(FUTURE/ALT)</text><text fill="#555" font-family="Arial" font-size="9" font-weight="normal" text-anchor="middle" x="1220.0" y="242.0">DC --&gt; AC --&gt; Grid</text><text fill="#555" font-family="Arial" font-size="9" font-weight="normal" text-anchor="middle" x="1220.0" y="255.0">Sell-back path</text></g><rect fill="#111318" height="180" rx="6" stroke="#1e2230" width="600" x="50" y="580" /><text fill="#fbbf24" font-family="Arial" font-size="10" font-weight="bold" text-anchor="middle" x="350" y="598">FIRST SOLAR SERIES 7 TR1 — PANEL SPECIFICATIONS</text><text fill="#6b7280" font-family="Arial" font-size="8" x="70" y="615">Panel Model</text><text fill="#fbbf24" font-family="Arial" font-size="8" font-weight="bold" x="220" y="615">First Solar Series 7 TR1 (550W)</text><text fill="#6b7280" font-family="Arial" font-size="8" x="370" y="615">Rated Power</text><text fill="#fbbf24" font-family="Arial" font-size="8" font-weight="bold" x="520" y="615">550W per panel</text><text fill="#6b7280" font-family="Arial" font-size="8" x="70" y="637">Efficiency</text><text fill="#fbbf24" font-family="Arial" font-size="8" font-weight="bold" x="220" y="637">19.7% (CdTe thin-film)</text><text fill="#6b7280" font-family="Arial" font-size="8" x="370" y="637">Dimensions</text><text fill="#fbbf24" font-family="Arial" font-size="8" font-weight="bold" x="520" y="637">~2.5m x 1.2m (8.2' x 3.9')</text><text fill="#6b7280" font-family="Arial" font-size="8" x="70" y="659">Vmp (max power voltage)</text><text fill="#fbbf24" font-family="Arial" font-size="8" font-weight="bold" x="220" y="659">190.4V</text><text fill="#6b7280" font-family="Arial" font-size="8" x="370" y="659">String Configuration</text><text fill="#fbbf24" font-family="Arial" font-size="8" font-weight="bold" x="520" y="659">5 panels in series = 952V</text><text fill="#6b7280" font-family="Arial" font-size="8" x="70" y="681">Degradation Rate</text><text fill="#fbbf24" font-family="Arial" font-size="8" font-weight="bold" x="220" y="681">0.3%/year (industry best)</text><text fill="#6b7280" font-family="Arial" font-size="8" x="370" y="681">Warranty</text><text fill="#fbbf24" font-family="Arial" font-size="8" font-weight="bold" x="520" y="681">30-year manufacturer warranty</text><text fill="#6b7280" font-family="Arial" font-size="8" x="70" y="703">Manufacturing</text><text fill="#fbbf24" font-family="Arial" font-size="8" font-weight="bold" x="220" y="703">New Iberia, LA ($1.1B factory)</text><text fill="#6b7280" font-family="Arial" font-size="8" x="370" y="703">Distance to Site</text><text fill="#fbbf24" font-family="Arial" font-size="8" font-weight="bold" x="520" y="703">~90 miles (1.5 hr drive)</text><text fill="#6b7280" font-family="Arial" font-size="8" x="70" y="725">Temperature Coefficient</text><text fill="#fbbf24" font-family="Arial" font-size="8" font-weight="bold" x="220" y="725">-0.28%/C (superior in heat)</text><text fill="#6b7280" font-family="Arial" font-size="8" x="370" y="725">Humidity Performance</text><text fill="#fbbf24" font-family="Arial" font-size="8" font-weight="bold" x="520" y="725">CdTe outperforms Si in humidity</text><rect fill="#111318" height="180" rx="6" stroke="#1e2230" width="670" x="680" y="580" /><text fill="#fbbf24" font-family="Arial" font-size="10" font-weight="bold" text-anchor="middle" x="1015" y="598">DC-DIRECT ARRAY MATH</text><text fill="#6b7280" font-family="Arial" font-size="8" x="700" y="615">Panels per String</text><text fill="#fbbf24" font-family="Arial" font-size="8" font-weight="bold" x="860" y="615">5 (series) = 952V Vmp</text><text fill="#6b7280" font-family="Arial" font-size="8" x="1040" y="615">Strings per Row</text><text fill="#fbbf24" font-family="Arial" font-size="8" font-weight="bold" x="1200" y="615">~50 strings</text><text fill="#6b7280" font-family="Arial" font-size="8" x="700" y="637">Rows</text><text fill="#fbbf24" font-family="Arial" font-size="8" font-weight="bold" x="860" y="637">18</text><text fill="#6b7280" font-family="Arial" font-size="8" x="1040" y="637">Total Strings</text><text fill="#fbbf24" font-family="Arial" font-size="8" font-weight="bold" x="1200" y="637">~900</text><text fill="#6b7280" font-family="Arial" font-size="8" x="700" y="659">Total Panels</text><text fill="#fbbf24" font-family="Arial" font-size="8" font-weight="bold" x="860" y="659">~4,500</text><text fill="#6b7280" font-family="Arial" font-size="8" x="1040" y="659">Total Capacity</text><text fill="#fbbf24" font-family="Arial" font-size="8" font-weight="bold" x="1200" y="659">~2.475 MW (Zone A)</text><text fill="#6b7280" font-family="Arial" font-size="8" x="700" y="681">Zone B (future)</text><text fill="#fbbf24" font-family="Arial" font-size="8" font-weight="bold" x="860" y="681">~2.5 MW additional</text><text fill="#6b7280" font-family="Arial" font-size="8" x="1040" y="681">Combined</text><text fill="#fbbf24" font-family="Arial" font-size="8" font-weight="bold" x="1200" y="681">~5 MW Phase 1</text><text fill="#6b7280" font-family="Arial" font-size="8" x="700" y="703">Annual Production</text><text fill="#fbbf24" font-family="Arial" font-size="8" font-weight="bold" x="860" y="703">~7,500 MWh (est)</text><text fill="#6b7280" font-family="Arial" font-size="8" x="1040" y="703">String Voltage</text><text fill="#fbbf24" font-family="Arial" font-size="8" font-weight="bold" x="1200" y="703">952V (5 x 190.4V Vmp)</text><text fill="#6b7280" font-family="Arial" font-size="8" x="700" y="725">Buck to Bus</text><text fill="#fbbf24" font-family="Arial" font-size="8" font-weight="bold" x="860" y="725">952V --&gt; 800V DC</text><text fill="#6b7280" font-family="Arial" font-size="8" x="1040" y="725">Path Efficiency</text><text fill="#fbbf24" font-family="Arial" font-size="8" font-weight="bold" x="1200" y="725">97% (vs 92% AC path)</text><rect fill="#111318" height="55" rx="6" stroke="#1e2230" width="1300" x="50" y="780" /><text fill="#fbbf24" font-family="Arial" font-size="9" font-weight="bold" x="70" y="798">DC-DIRECT PATH (OUR DESIGN):</text><text fill="#fbbf24" font-family="Arial" font-size="8" x="70" y="812">Panel (190V) --&gt; String (952V) --&gt; Buck DC-DC (800V) --&gt; DSX Bus --&gt; Rack PDU --&gt; 64:1 LLC --&gt; GPU</text><text fill="#76b900" font-family="Arial" font-size="9" font-weight="bold" x="70" y="825">Total Path Efficiency: 97%</text><text fill="#555" font-family="Arial" font-size="9" font-weight="bold" x="720" y="798">TRADITIONAL AC PATH:</text><text fill="#555" font-family="Arial" font-size="8" x="720" y="812">Panel --&gt; Inverter (DC-AC) --&gt; Transformer --&gt; UPS --&gt; PDU --&gt; PSU (AC-DC) --&gt; GPU</text><text fill="#ef4444" font-family="Arial" font-size="9" font-weight="bold" x="720" y="825">Total Path Efficiency: 88-92%</text><text fill="#4b5563" font-family="Arial" font-size="7" x="35" y="855">1. First Solar Series 7 TR1 panels manufactured in New Iberia, LA — $1.1B factory, 30 miles from Trappeys, 90 miles from Willow Glen</text><text fill="#4b5563" font-family="Arial" font-size="7" x="35" y="867">2. CdTe thin-film technology outperforms silicon in Louisiana's heat and humidity — superior temperature coefficient (-0.28%/C)</text><text fill="#4b5563" font-family="Arial" font-size="7" x="35" y="879">3. 5-panel strings at 952V Vmp, buck-converted to 800V for direct feed into NVIDIA DSX bus — no AC conversion needed</text><text fill="#4b5563" font-family="Arial" font-size="7" x="35" y="891">4. DC-Direct path saves 5-9% efficiency vs traditional AC path — at 5 MW, that's 250-450 kW saved continuously</text><text fill="#4b5563" font-family="Arial" font-size="7" x="35" y="903">5. 0.3%/year degradation is industry best — after 30 years, panels still produce 91% of original capacity</text><text fill="#4b5563" font-family="Arial" font-size="7" x="35" y="915">6. Array sized for Phase 1 (~5 MW). 400+ developable acres allow expansion to 50+ MW at full build-out</text><text fill="#4b5563" font-family="Arial" font-size="7" x="35" y="927">7. Perimeter fencing, service roads between every 6 rows, gravel access paths for maintenance vehicles</text><text fill="#4b5563" font-family="Arial" font-size="7" x="35" y="939">8. Made in America: First Solar is the only major US-headquartered solar manufacturer. Louisiana supply chain.</text></svg>