<?xml version="1.0" encoding="utf-8" ?>
<svg baseProfile="full" height="1150px" version="1.1" viewBox="0 0 1400 1150" width="1400px" xmlns="http://www.w3.org/2000/svg" xmlns:ev="http://www.w3.org/2001/xml-events" xmlns:xlink="http://www.w3.org/1999/xlink"><defs /><rect fill="#0a0b0f" height="1150" width="1400" x="0" y="0" /><text fill="#f0f2f5" font-family="Arial" font-size="16" font-weight="bold" text-anchor="middle" x="700.0" y="24">MARLIE 1 — LAFAYETTE AI FACTORY &amp; COMMAND CENTER</text><text fill="#3b82f6" font-family="Arial" font-size="10" font-weight="bold" text-anchor="middle" x="700.0" y="40">ELECTRICAL SINGLE-LINE DIAGRAM | 800V DC NATIVE | EATON BEAM RUBIN DSX | 1,300 kW IT LOAD</text><text fill="#6b7280" font-family="Arial" font-size="9" text-anchor="middle" x="700.0" y="54">Sheet E-001 | Design Intent | 2026-04-02 | NOT FOR CONSTRUCTION</text><g><rect fill="#0a1a0a" height="50" rx="4" ry="4" stroke="#22c55e" stroke-width="1.5" width="140" x="30" y="75" /><text fill="#22c55e" font-family="Arial" font-size="11" font-weight="bold" text-anchor="middle" x="100.0" y="100.0">ATMOS ENERGY</text><text fill="#22c55e" font-family="Arial" font-size="10" font-weight="normal" text-anchor="middle" x="100.0" y="114.0">Natural Gas</text><text fill="#6b7280" font-family="Arial" font-size="8" text-anchor="middle" x="100.0" y="121">On-property | Henry Hub 40 mi</text></g><g><rect fill="#0a1a0a" height="50" rx="4" ry="4" stroke="#22c55e" stroke-width="1.5" width="130" x="200" y="75" /><text fill="#22c55e" font-family="Arial" font-size="11" font-weight="bold" text-anchor="middle" x="265.0" y="100.0">BLOOM SOFC #1</text><text fill="#22c55e" font-family="Arial" font-size="10" font-weight="normal" text-anchor="middle" x="265.0" y="114.0">1.03 MW | 800V DC Direct</text><text fill="#6b7280" font-family="Arial" font-size="8" text-anchor="middle" x="265.0" y="121">Natural Gas | Layer 2</text></g><g><rect fill="#0a1a0a" height="50" rx="4" ry="4" stroke="#22c55e" stroke-width="1.5" width="130" x="350" y="75" /><text fill="#22c55e" font-family="Arial" font-size="11" font-weight="bold" text-anchor="middle" x="415.0" y="100.0">BLOOM SOFC #2</text><text fill="#22c55e" font-family="Arial" font-size="10" font-weight="normal" text-anchor="middle" x="415.0" y="114.0">1.03 MW | 800V DC Direct</text><text fill="#6b7280" font-family="Arial" font-size="8" text-anchor="middle" x="415.0" y="121">N+1 Redundant</text></g><g><rect fill="#1a1a00" height="50" rx="4" ry="4" stroke="#fbbf24" stroke-width="1.5" width="140" x="510" y="75" /><text fill="#fbbf24" font-family="Arial" font-size="11" font-weight="bold" text-anchor="middle" x="580.0" y="100.0">SOLAR ROOFTOP</text><text fill="#fbbf24" font-family="Arial" font-size="10" font-weight="normal" text-anchor="middle" x="580.0" y="114.0">300 kW</text><text fill="#6b7280" font-family="Arial" font-size="8" text-anchor="middle" x="580.0" y="121">24x40 roof | DC-Direct</text></g><g><rect fill="#2e1a1a" height="50" rx="4" ry="4" stroke="#ef4444" stroke-width="1.5" width="120" x="680" y="75" /><text fill="#ef4444" font-family="Arial" font-size="11" font-weight="bold" text-anchor="middle" x="740.0" y="100.0">DIESEL GENSET</text><text fill="#ef4444" font-family="Arial" font-size="10" font-weight="normal" text-anchor="middle" x="740.0" y="114.0">Emergency</text><text fill="#6b7280" font-family="Arial" font-size="8" text-anchor="middle" x="740.0" y="121">Layer 3 | Pipeline-Independent</text></g><g><rect fill="#1a0a0a" height="50" rx="4" ry="4" stroke="#ef4444" stroke-width="1.5" width="120" x="830" y="75" /><text fill="#ef4444" font-family="Arial" font-size="11" font-weight="bold" text-anchor="middle" x="890.0" y="100.0">LUS BACKUP</text><text fill="#ef4444" font-family="Arial" font-size="10" font-weight="normal" text-anchor="middle" x="890.0" y="114.0">GRID</text><text fill="#6b7280" font-family="Arial" font-size="8" text-anchor="middle" x="890.0" y="121">Layer 4 | Dual Feed Available</text></g><g><rect fill="#1a1a2e" height="50" rx="4" ry="4" stroke="#3b82f6" stroke-width="1.5" width="120" x="980" y="75" /><text fill="#93c5fd" font-family="Arial" font-size="11" font-weight="bold" text-anchor="middle" x="1040.0" y="100.0">LFP BATTERY</text><text fill="#93c5fd" font-family="Arial" font-size="10" font-weight="normal" text-anchor="middle" x="1040.0" y="114.0">BESS 600 kWh</text><text fill="#6b7280" font-family="Arial" font-size="8" text-anchor="middle" x="1040.0" y="121">800V DC | Ride-through</text></g><line stroke="#22c55e" stroke-width="1.5" x1="100" x2="100" y1="125" y2="170" /><polygon fill="#22c55e" points="96,164 104,164 100,170" /><line stroke="#22c55e" stroke-width="1.5" x1="265" x2="265" y1="125" y2="170" /><polygon fill="#22c55e" points="261,164 269,164 265,170" /><line stroke="#22c55e" stroke-width="1.5" x1="415" x2="415" y1="125" y2="170" /><polygon fill="#22c55e" points="411,164 419,164 415,170" /><line stroke="#ef4444" stroke-width="1.5" x1="740" x2="740" y1="125" y2="170" /><polygon fill="#ef4444" points="736,164 744,164 740,170" /><g><rect fill="#1a1a2e" height="45" rx="4" ry="4" stroke="#22c55e" stroke-width="1.5" width="240" x="30" y="170" /><text fill="#e0e0e0" font-family="Arial" font-size="11" font-weight="bold" text-anchor="middle" x="150.0" y="192.5">PARALLELING SWITCHGEAR + ATS</text><text fill="#e0e0e0" font-family="Arial" font-size="10" font-weight="normal" text-anchor="middle" x="150.0" y="206.5">Cat Genset | Auto-Sync | Load Sharing</text><text fill="#6b7280" font-family="Arial" font-size="8" text-anchor="middle" x="150.0" y="211">Louisiana Cat controls</text></g><g><rect fill="#1a1a2e" height="45" rx="4" ry="4" stroke="#ff6b35" stroke-width="1.5" width="170" x="290" y="170" /><text fill="#ff6b35" font-family="Arial" font-size="11" font-weight="bold" text-anchor="middle" x="375.0" y="192.5">MAIN BREAKER + METERING</text><text fill="#ff6b35" font-family="Arial" font-size="10" font-weight="normal" text-anchor="middle" x="375.0" y="206.5">Cat Genset 480V AC | Protection Relays</text></g><g><rect fill="#1a1a2e" height="45" rx="4" ry="4" stroke="#ef4444" stroke-width="1.5" width="150" x="660" y="170" /><text fill="#e0e0e0" font-family="Arial" font-size="11" font-weight="bold" text-anchor="middle" x="735.0" y="192.5">EMERGENCY ATS</text><text fill="#e0e0e0" font-family="Arial" font-size="10" font-weight="normal" text-anchor="middle" x="735.0" y="206.5">Diesel Auto-Transfer</text><text fill="#6b7280" font-family="Arial" font-size="8" text-anchor="middle" x="735.0" y="211">Auto-start on gas failure</text></g><line stroke="#ef4444" stroke-width="1.5" x1="890" x2="890" y1="125" y2="192" /><line stroke="#ef4444" stroke-width="1.5" x1="810" x2="890" y1="192" y2="192" /><text fill="#ef4444" font-family="Arial" font-size="7" x="820" y="188">BACKUP FEED</text><line stroke="#22c55e" stroke-width="1.5" x1="150" x2="150" y1="215" y2="255" /><polygon fill="#22c55e" points="146,249 154,249 150,255" /><line stroke="#ff6b35" stroke-width="1.5" x1="375" x2="375" y1="215" y2="255" /><polygon fill="#ff6b35" points="371,249 379,249 375,255" /><line stroke="#ef4444" stroke-width="1.5" x1="735" x2="735" y1="215" y2="255" /><polygon fill="#ef4444" points="731,249 739,249 735,255" /><rect fill="#ff6b35" height="6" rx="2" width="840" x="30" y="252" /><text fill="#ff6b35" font-family="Arial" font-size="10" font-weight="bold" text-anchor="middle" x="450.0" y="247">480V AC EMERGENCY BUS (Cat Genset Only)</text><line stroke="#ff6b35" stroke-width="1.5" x1="150" x2="150" y1="258" y2="300" /><polygon fill="#ff6b35" points="146,294 154,294 150,300" /><line stroke="#ff6b35" stroke-width="1.5" x1="400" x2="400" y1="258" y2="300" /><polygon fill="#ff6b35" points="396,294 404,294 400,300" /><line stroke="#ff6b35" stroke-width="1.5" x1="650" x2="650" y1="258" y2="300" /><polygon fill="#ff6b35" points="646,294 654,294 650,300" /><g><rect fill="#1a1a2e" height="50" rx="4" ry="4" stroke="#8b5cf6" stroke-width="1.5" width="190" x="60" y="300" /><text fill="#c4b5fd" font-family="Arial" font-size="11" font-weight="bold" text-anchor="middle" x="155.0" y="318.0">EATON BEAM RUBIN DSX</text><text fill="#c4b5fd" font-family="Arial" font-size="10" font-weight="normal" text-anchor="middle" x="155.0" y="332.0">ORV3 Sidecar</text><text fill="#c4b5fd" font-family="Arial" font-size="10" font-weight="normal" text-anchor="middle" x="155.0" y="346.0">480V AC -&gt; 800V DC #1</text><text fill="#6b7280" font-family="Arial" font-size="8" text-anchor="middle" x="155.0" y="346">96%+ Efficiency</text></g><g><rect fill="#1a1a2e" height="50" rx="4" ry="4" stroke="#8b5cf6" stroke-width="1.5" width="190" x="310" y="300" /><text fill="#c4b5fd" font-family="Arial" font-size="11" font-weight="bold" text-anchor="middle" x="405.0" y="318.0">EATON BEAM RUBIN DSX</text><text fill="#c4b5fd" font-family="Arial" font-size="10" font-weight="normal" text-anchor="middle" x="405.0" y="332.0">ORV3 Sidecar</text><text fill="#c4b5fd" font-family="Arial" font-size="10" font-weight="normal" text-anchor="middle" x="405.0" y="346.0">480V AC -&gt; 800V DC #2</text><text fill="#6b7280" font-family="Arial" font-size="8" text-anchor="middle" x="405.0" y="346">N+1 Redundant</text></g><line stroke="#fbbf24" stroke-width="1.5" x1="580" x2="580" y1="125" y2="140" /><line stroke="#fbbf24" stroke-width="1.5" x1="580" x2="630" y1="140" y2="140" /><line stroke="#fbbf24" stroke-width="1.5" x1="630" x2="630" y1="140" y2="300" /><g><rect fill="#1a1a2e" height="50" rx="4" ry="4" stroke="#fbbf24" stroke-width="1.5" width="190" x="560" y="300" /><text fill="#fbbf24" font-family="Arial" font-size="11" font-weight="bold" text-anchor="middle" x="655.0" y="325.0">DC-DC BUCK CONVERTER</text><text fill="#fbbf24" font-family="Arial" font-size="10" font-weight="normal" text-anchor="middle" x="655.0" y="339.0">952V String -&gt; 800V DC</text><text fill="#6b7280" font-family="Arial" font-size="8" text-anchor="middle" x="655.0" y="346">Solar DC-Direct | 97% Eff</text></g><g><rect fill="#1a1a2e" height="50" rx="4" ry="4" stroke="#ef4444" stroke-width="1.5" width="100" x="770" y="300" /><text fill="#fca5a5" font-family="Arial" font-size="9" font-weight="bold" text-anchor="middle" x="820.0" y="318.0">DIESEL</text><text fill="#fca5a5" font-family="Arial" font-size="8" font-weight="normal" text-anchor="middle" x="820.0" y="332.0">FEED</text><text fill="#fca5a5" font-family="Arial" font-size="8" font-weight="normal" text-anchor="middle" x="820.0" y="346.0">To 480V Bus</text></g><line stroke="#ef4444" stroke-width="1.5" x1="820" x2="820" y1="258" y2="300" /><polygon fill="#ef4444" points="816,294 824,294 820,300" /><line stroke="#8b5cf6" stroke-width="1.5" x1="155" x2="155" y1="350" y2="400" /><polygon fill="#8b5cf6" points="151,394 159,394 155,400" /><line stroke="#8b5cf6" stroke-width="1.5" x1="405" x2="405" y1="350" y2="400" /><polygon fill="#8b5cf6" points="401,394 409,394 405,400" /><line stroke="#8b5cf6" stroke-width="1.5" x1="655" x2="655" y1="350" y2="400" /><polygon fill="#8b5cf6" points="651,394 659,394 655,400" /><rect fill="#8b5cf6" height="6" rx="2" width="840" x="30" y="397" /><text fill="#8b5cf6" font-family="Arial" font-size="10" font-weight="bold" text-anchor="middle" x="450.0" y="392">800V DC DISTRIBUTION BUS — NVIDIA DSX REFERENCE ARCHITECTURE</text><line stroke="#3b82f6" stroke-width="1.5" x1="1040" x2="1040" y1="125" y2="400" /><text fill="#93c5fd" font-family="Arial" font-size="7" x="1050" y="380">BESS on</text><text fill="#93c5fd" font-family="Arial" font-size="7" x="1050" y="390">800V DC</text><text fill="#3b82f6" font-family="Arial" font-size="9" font-weight="bold" text-anchor="middle" x="130" y="420">FLOOR 1 (DOWNSTAIRS) — SYSTEM 1</text><text fill="#93c5fd" font-family="Arial" font-size="8" text-anchor="middle" x="130" y="432">4 NVL72 RACKS | 288 GPUs | 520 kW</text><line stroke="#8b5cf6" stroke-width="1.5" x1="90" x2="90" y1="403" y2="450" /><polygon fill="#8b5cf6" points="86,444 94,444 90,450" /><g><rect fill="#1a1a2e" height="28" rx="4" ry="4" stroke="#8b5cf6" stroke-width="1.5" width="80" x="50" y="450" /><text fill="#c4b5fd" font-family="Arial" font-size="7" font-weight="bold" text-anchor="middle" x="90.0" y="464.0">BUSWAY</text><text fill="#c4b5fd" font-family="Arial" font-size="6" font-weight="normal" text-anchor="middle" x="90.0" y="478.0">800V DC</text></g><line stroke="#8b5cf6" stroke-width="1.5" x1="90" x2="90" y1="478" y2="485" /><polygon fill="#8b5cf6" points="86,479 94,479 90,485" /><g><rect fill="#1a1a2e" height="28" rx="4" ry="4" stroke="#00bcd4" stroke-width="1.5" width="80" x="50" y="485" /><text fill="#00e5ff" font-family="Arial" font-size="7" font-weight="bold" text-anchor="middle" x="90.0" y="499.0">DELTA 660 kW</text><text fill="#00e5ff" font-family="Arial" font-size="6" font-weight="normal" text-anchor="middle" x="90.0" y="513.0">480 kW BBU</text></g><line stroke="#00bcd4" stroke-width="1.5" x1="90" x2="90" y1="513" y2="520" /><polygon fill="#00bcd4" points="86,514 94,514 90,520" /><g><rect fill="#1a1a2e" height="28" rx="4" ry="4" stroke="#00bcd4" stroke-width="1.5" width="80" x="50" y="520" /><text fill="#00e5ff" font-family="Arial" font-size="7" font-weight="bold" text-anchor="middle" x="90.0" y="534.0">e-FUSE &lt;3us</text><text fill="#00e5ff" font-family="Arial" font-size="6" font-weight="normal" text-anchor="middle" x="90.0" y="548.0">90kW 800V-&gt;50V</text></g><line stroke="#00bcd4" stroke-width="1.5" x1="90" x2="90" y1="548" y2="555" /><polygon fill="#00bcd4" points="86,549 94,549 90,555" /><g><rect fill="#1a1a2e" height="28" rx="4" ry="4" stroke="#8b5cf6" stroke-width="1.5" width="80" x="50" y="555" /><text fill="#c4b5fd" font-family="Arial" font-size="7" font-weight="bold" text-anchor="middle" x="90.0" y="569.0">RACK PDU</text><text fill="#c4b5fd" font-family="Arial" font-size="6" font-weight="normal" text-anchor="middle" x="90.0" y="583.0">800V In</text></g><line stroke="#8b5cf6" stroke-width="1.5" x1="90" x2="90" y1="583" y2="590" /><polygon fill="#8b5cf6" points="86,584 94,584 90,590" /><g><rect fill="#1a1a2e" height="28" rx="4" ry="4" stroke="#76b900" stroke-width="1.5" width="80" x="50" y="590" /><text fill="#76b900" font-family="Arial" font-size="7" font-weight="bold" text-anchor="middle" x="90.0" y="604.0">TI GaN / Infineon</text><text fill="#76b900" font-family="Arial" font-size="6" font-weight="normal" text-anchor="middle" x="90.0" y="618.0">CoolGaN 800V-&gt;6V</text></g><line stroke="#76b900" stroke-width="1.5" x1="90" x2="90" y1="618" y2="625" /><polygon fill="#76b900" points="86,619 94,619 90,625" /><line stroke="#8b5cf6" stroke-width="1.5" x1="195" x2="195" y1="403" y2="450" /><polygon fill="#8b5cf6" points="191,444 199,444 195,450" /><g><rect fill="#1a1a2e" height="28" rx="4" ry="4" stroke="#8b5cf6" stroke-width="1.5" width="80" x="155" y="450" /><text fill="#c4b5fd" font-family="Arial" font-size="7" font-weight="bold" text-anchor="middle" x="195.0" y="464.0">BUSWAY</text><text fill="#c4b5fd" font-family="Arial" font-size="6" font-weight="normal" text-anchor="middle" x="195.0" y="478.0">800V DC</text></g><line stroke="#8b5cf6" stroke-width="1.5" x1="195" x2="195" y1="478" y2="485" /><polygon fill="#8b5cf6" points="191,479 199,479 195,485" /><g><rect fill="#1a1a2e" height="28" rx="4" ry="4" stroke="#00bcd4" stroke-width="1.5" width="80" x="155" y="485" /><text fill="#00e5ff" font-family="Arial" font-size="7" font-weight="bold" text-anchor="middle" x="195.0" y="499.0">DELTA 660 kW</text><text fill="#00e5ff" font-family="Arial" font-size="6" font-weight="normal" text-anchor="middle" x="195.0" y="513.0">480 kW BBU</text></g><line stroke="#00bcd4" stroke-width="1.5" x1="195" x2="195" y1="513" y2="520" /><polygon fill="#00bcd4" points="191,514 199,514 195,520" /><g><rect fill="#1a1a2e" height="28" rx="4" ry="4" stroke="#00bcd4" stroke-width="1.5" width="80" x="155" y="520" /><text fill="#00e5ff" font-family="Arial" font-size="7" font-weight="bold" text-anchor="middle" x="195.0" y="534.0">e-FUSE &lt;3us</text><text fill="#00e5ff" font-family="Arial" font-size="6" font-weight="normal" text-anchor="middle" x="195.0" y="548.0">90kW 800V-&gt;50V</text></g><line stroke="#00bcd4" stroke-width="1.5" x1="195" x2="195" y1="548" y2="555" /><polygon fill="#00bcd4" points="191,549 199,549 195,555" /><g><rect fill="#1a1a2e" height="28" rx="4" ry="4" stroke="#8b5cf6" stroke-width="1.5" width="80" x="155" y="555" /><text fill="#c4b5fd" font-family="Arial" font-size="7" font-weight="bold" text-anchor="middle" x="195.0" y="569.0">RACK PDU</text><text fill="#c4b5fd" font-family="Arial" font-size="6" font-weight="normal" text-anchor="middle" x="195.0" y="583.0">800V In</text></g><line stroke="#8b5cf6" stroke-width="1.5" x1="195" x2="195" y1="583" y2="590" /><polygon fill="#8b5cf6" points="191,584 199,584 195,590" /><g><rect fill="#1a1a2e" height="28" rx="4" ry="4" stroke="#76b900" stroke-width="1.5" width="80" x="155" y="590" /><text fill="#76b900" font-family="Arial" font-size="7" font-weight="bold" text-anchor="middle" x="195.0" y="604.0">TI GaN / Infineon</text><text fill="#76b900" font-family="Arial" font-size="6" font-weight="normal" text-anchor="middle" x="195.0" y="618.0">CoolGaN 800V-&gt;6V</text></g><line stroke="#76b900" stroke-width="1.5" x1="195" x2="195" y1="618" y2="625" /><polygon fill="#76b900" points="191,619 199,619 195,625" /><line stroke="#8b5cf6" stroke-width="1.5" x1="300" x2="300" y1="403" y2="450" /><polygon fill="#8b5cf6" points="296,444 304,444 300,450" /><g><rect fill="#1a1a2e" height="28" rx="4" ry="4" stroke="#8b5cf6" stroke-width="1.5" width="80" x="260" y="450" /><text fill="#c4b5fd" font-family="Arial" font-size="7" font-weight="bold" text-anchor="middle" x="300.0" y="464.0">BUSWAY</text><text fill="#c4b5fd" font-family="Arial" font-size="6" font-weight="normal" text-anchor="middle" x="300.0" y="478.0">800V DC</text></g><line stroke="#8b5cf6" stroke-width="1.5" x1="300" x2="300" y1="478" y2="485" /><polygon fill="#8b5cf6" points="296,479 304,479 300,485" /><g><rect fill="#1a1a2e" height="28" rx="4" ry="4" stroke="#00bcd4" stroke-width="1.5" width="80" x="260" y="485" /><text fill="#00e5ff" font-family="Arial" font-size="7" font-weight="bold" text-anchor="middle" x="300.0" y="499.0">DELTA 660 kW</text><text fill="#00e5ff" font-family="Arial" font-size="6" font-weight="normal" text-anchor="middle" x="300.0" y="513.0">480 kW BBU</text></g><line stroke="#00bcd4" stroke-width="1.5" x1="300" x2="300" y1="513" y2="520" /><polygon fill="#00bcd4" points="296,514 304,514 300,520" /><g><rect fill="#1a1a2e" height="28" rx="4" ry="4" stroke="#00bcd4" stroke-width="1.5" width="80" x="260" y="520" /><text fill="#00e5ff" font-family="Arial" font-size="7" font-weight="bold" text-anchor="middle" x="300.0" y="534.0">e-FUSE &lt;3us</text><text fill="#00e5ff" font-family="Arial" font-size="6" font-weight="normal" text-anchor="middle" x="300.0" y="548.0">90kW 800V-&gt;50V</text></g><line stroke="#00bcd4" stroke-width="1.5" x1="300" x2="300" y1="548" y2="555" /><polygon fill="#00bcd4" points="296,549 304,549 300,555" /><g><rect fill="#1a1a2e" height="28" rx="4" ry="4" stroke="#8b5cf6" stroke-width="1.5" width="80" x="260" y="555" /><text fill="#c4b5fd" font-family="Arial" font-size="7" font-weight="bold" text-anchor="middle" x="300.0" y="569.0">RACK PDU</text><text fill="#c4b5fd" font-family="Arial" font-size="6" font-weight="normal" text-anchor="middle" x="300.0" y="583.0">800V In</text></g><line stroke="#8b5cf6" stroke-width="1.5" x1="300" x2="300" y1="583" y2="590" /><polygon fill="#8b5cf6" points="296,584 304,584 300,590" /><g><rect fill="#1a1a2e" height="28" rx="4" ry="4" stroke="#76b900" stroke-width="1.5" width="80" x="260" y="590" /><text fill="#76b900" font-family="Arial" font-size="7" font-weight="bold" text-anchor="middle" x="300.0" y="604.0">TI GaN / Infineon</text><text fill="#76b900" font-family="Arial" font-size="6" font-weight="normal" text-anchor="middle" x="300.0" y="618.0">CoolGaN 800V-&gt;6V</text></g><line stroke="#76b900" stroke-width="1.5" x1="300" x2="300" y1="618" y2="625" /><polygon fill="#76b900" points="296,619 304,619 300,625" /><line stroke="#8b5cf6" stroke-width="1.5" x1="405" x2="405" y1="403" y2="450" /><polygon fill="#8b5cf6" points="401,444 409,444 405,450" /><g><rect fill="#1a1a2e" height="28" rx="4" ry="4" stroke="#8b5cf6" stroke-width="1.5" width="80" x="365" y="450" /><text fill="#c4b5fd" font-family="Arial" font-size="7" font-weight="bold" text-anchor="middle" x="405.0" y="464.0">BUSWAY</text><text fill="#c4b5fd" font-family="Arial" font-size="6" font-weight="normal" text-anchor="middle" x="405.0" y="478.0">800V DC</text></g><line stroke="#8b5cf6" stroke-width="1.5" x1="405" x2="405" y1="478" y2="485" /><polygon fill="#8b5cf6" points="401,479 409,479 405,485" /><g><rect fill="#1a1a2e" height="28" rx="4" ry="4" stroke="#00bcd4" stroke-width="1.5" width="80" x="365" y="485" /><text fill="#00e5ff" font-family="Arial" font-size="7" font-weight="bold" text-anchor="middle" x="405.0" y="499.0">DELTA 660 kW</text><text fill="#00e5ff" font-family="Arial" font-size="6" font-weight="normal" text-anchor="middle" x="405.0" y="513.0">480 kW BBU</text></g><line stroke="#00bcd4" stroke-width="1.5" x1="405" x2="405" y1="513" y2="520" /><polygon fill="#00bcd4" points="401,514 409,514 405,520" /><g><rect fill="#1a1a2e" height="28" rx="4" ry="4" stroke="#00bcd4" stroke-width="1.5" width="80" x="365" y="520" /><text fill="#00e5ff" font-family="Arial" font-size="7" font-weight="bold" text-anchor="middle" x="405.0" y="534.0">e-FUSE &lt;3us</text><text fill="#00e5ff" font-family="Arial" font-size="6" font-weight="normal" text-anchor="middle" x="405.0" y="548.0">90kW 800V-&gt;50V</text></g><line stroke="#00bcd4" stroke-width="1.5" x1="405" x2="405" y1="548" y2="555" /><polygon fill="#00bcd4" points="401,549 409,549 405,555" /><g><rect fill="#1a1a2e" height="28" rx="4" ry="4" stroke="#8b5cf6" stroke-width="1.5" width="80" x="365" y="555" /><text fill="#c4b5fd" font-family="Arial" font-size="7" font-weight="bold" text-anchor="middle" x="405.0" y="569.0">RACK PDU</text><text fill="#c4b5fd" font-family="Arial" font-size="6" font-weight="normal" text-anchor="middle" x="405.0" y="583.0">800V In</text></g><line stroke="#8b5cf6" stroke-width="1.5" x1="405" x2="405" y1="583" y2="590" /><polygon fill="#8b5cf6" points="401,584 409,584 405,590" /><g><rect fill="#1a1a2e" height="28" rx="4" ry="4" stroke="#76b900" stroke-width="1.5" width="80" x="365" y="590" /><text fill="#76b900" font-family="Arial" font-size="7" font-weight="bold" text-anchor="middle" x="405.0" y="604.0">TI GaN / Infineon</text><text fill="#76b900" font-family="Arial" font-size="6" font-weight="normal" text-anchor="middle" x="405.0" y="618.0">CoolGaN 800V-&gt;6V</text></g><line stroke="#76b900" stroke-width="1.5" x1="405" x2="405" y1="618" y2="625" /><polygon fill="#76b900" points="401,619 409,619 405,625" /><g><rect fill="#111a00" height="45" rx="4" ry="4" stroke="#76b900" stroke-width="1.5" width="80" x="50" y="625" /><text fill="#76b900" font-family="Arial" font-size="9" font-weight="bold" text-anchor="middle" x="90.0" y="647.5">NVL72 R1</text><text fill="#76b900" font-family="Arial" font-size="8" font-weight="normal" text-anchor="middle" x="90.0" y="661.5">230 kW</text><text fill="#6b7280" font-family="Arial" font-size="8" text-anchor="middle" x="90.0" y="666">Liquid Cooled</text></g><g><rect fill="#111a00" height="45" rx="4" ry="4" stroke="#76b900" stroke-width="1.5" width="80" x="155" y="625" /><text fill="#76b900" font-family="Arial" font-size="9" font-weight="bold" text-anchor="middle" x="195.0" y="647.5">NVL72 R2</text><text fill="#76b900" font-family="Arial" font-size="8" font-weight="normal" text-anchor="middle" x="195.0" y="661.5">230 kW</text><text fill="#6b7280" font-family="Arial" font-size="8" text-anchor="middle" x="195.0" y="666">Liquid Cooled</text></g><g><rect fill="#111a00" height="45" rx="4" ry="4" stroke="#76b900" stroke-width="1.5" width="80" x="260" y="625" /><text fill="#76b900" font-family="Arial" font-size="9" font-weight="bold" text-anchor="middle" x="300.0" y="647.5">NVL72 R3</text><text fill="#76b900" font-family="Arial" font-size="8" font-weight="normal" text-anchor="middle" x="300.0" y="661.5">230 kW</text><text fill="#6b7280" font-family="Arial" font-size="8" text-anchor="middle" x="300.0" y="666">Liquid Cooled</text></g><g><rect fill="#111a00" height="45" rx="4" ry="4" stroke="#76b900" stroke-width="1.5" width="80" x="365" y="625" /><text fill="#76b900" font-family="Arial" font-size="9" font-weight="bold" text-anchor="middle" x="405.0" y="647.5">NVL72 R4</text><text fill="#76b900" font-family="Arial" font-size="8" font-weight="normal" text-anchor="middle" x="405.0" y="661.5">230 kW</text><text fill="#6b7280" font-family="Arial" font-size="8" text-anchor="middle" x="405.0" y="666">Liquid Cooled</text></g><text fill="#3b82f6" font-family="Arial" font-size="9" font-weight="bold" text-anchor="middle" x="730" y="420">FLOOR 2 (UPSTAIRS) — SYSTEM 2</text><text fill="#93c5fd" font-family="Arial" font-size="8" text-anchor="middle" x="730" y="432">4 NVL72 RACKS | 288 GPUs | 520 kW</text><line stroke="#8b5cf6" stroke-width="1.5" x1="590" x2="590" y1="403" y2="450" /><polygon fill="#8b5cf6" points="586,444 594,444 590,450" /><g><rect fill="#1a1a2e" height="28" rx="4" ry="4" stroke="#8b5cf6" stroke-width="1.5" width="80" x="550" y="450" /><text fill="#c4b5fd" font-family="Arial" font-size="7" font-weight="bold" text-anchor="middle" x="590.0" y="464.0">BUSWAY</text><text fill="#c4b5fd" font-family="Arial" font-size="6" font-weight="normal" text-anchor="middle" x="590.0" y="478.0">800V DC</text></g><line stroke="#8b5cf6" stroke-width="1.5" x1="590" x2="590" y1="478" y2="485" /><polygon fill="#8b5cf6" points="586,479 594,479 590,485" /><g><rect fill="#1a1a2e" height="28" rx="4" ry="4" stroke="#00bcd4" stroke-width="1.5" width="80" x="550" y="485" /><text fill="#00e5ff" font-family="Arial" font-size="7" font-weight="bold" text-anchor="middle" x="590.0" y="499.0">DELTA 660 kW</text><text fill="#00e5ff" font-family="Arial" font-size="6" font-weight="normal" text-anchor="middle" x="590.0" y="513.0">480 kW BBU</text></g><line stroke="#00bcd4" stroke-width="1.5" x1="590" x2="590" y1="513" y2="520" /><polygon fill="#00bcd4" points="586,514 594,514 590,520" /><g><rect fill="#1a1a2e" height="28" rx="4" ry="4" stroke="#00bcd4" stroke-width="1.5" width="80" x="550" y="520" /><text fill="#00e5ff" font-family="Arial" font-size="7" font-weight="bold" text-anchor="middle" x="590.0" y="534.0">e-FUSE &lt;3us</text><text fill="#00e5ff" font-family="Arial" font-size="6" font-weight="normal" text-anchor="middle" x="590.0" y="548.0">90kW 800V-&gt;50V</text></g><line stroke="#00bcd4" stroke-width="1.5" x1="590" x2="590" y1="548" y2="555" /><polygon fill="#00bcd4" points="586,549 594,549 590,555" /><g><rect fill="#1a1a2e" height="28" rx="4" ry="4" stroke="#8b5cf6" stroke-width="1.5" width="80" x="550" y="555" /><text fill="#c4b5fd" font-family="Arial" font-size="7" font-weight="bold" text-anchor="middle" x="590.0" y="569.0">RACK PDU</text><text fill="#c4b5fd" font-family="Arial" font-size="6" font-weight="normal" text-anchor="middle" x="590.0" y="583.0">800V In</text></g><line stroke="#8b5cf6" stroke-width="1.5" x1="590" x2="590" y1="583" y2="590" /><polygon fill="#8b5cf6" points="586,584 594,584 590,590" /><g><rect fill="#1a1a2e" height="28" rx="4" ry="4" stroke="#76b900" stroke-width="1.5" width="80" x="550" y="590" /><text fill="#76b900" font-family="Arial" font-size="7" font-weight="bold" text-anchor="middle" x="590.0" y="604.0">TI GaN / Infineon</text><text fill="#76b900" font-family="Arial" font-size="6" font-weight="normal" text-anchor="middle" x="590.0" y="618.0">CoolGaN 800V-&gt;6V</text></g><line stroke="#76b900" stroke-width="1.5" x1="590" x2="590" y1="618" y2="625" /><polygon fill="#76b900" points="586,619 594,619 590,625" /><line stroke="#8b5cf6" stroke-width="1.5" x1="695" x2="695" y1="403" y2="450" /><polygon fill="#8b5cf6" points="691,444 699,444 695,450" /><g><rect fill="#1a1a2e" height="28" rx="4" ry="4" stroke="#8b5cf6" stroke-width="1.5" width="80" x="655" y="450" /><text fill="#c4b5fd" font-family="Arial" font-size="7" font-weight="bold" text-anchor="middle" x="695.0" y="464.0">BUSWAY</text><text fill="#c4b5fd" font-family="Arial" font-size="6" font-weight="normal" text-anchor="middle" x="695.0" y="478.0">800V DC</text></g><line stroke="#8b5cf6" stroke-width="1.5" x1="695" x2="695" y1="478" y2="485" /><polygon fill="#8b5cf6" points="691,479 699,479 695,485" /><g><rect fill="#1a1a2e" height="28" rx="4" ry="4" stroke="#00bcd4" stroke-width="1.5" width="80" x="655" y="485" /><text fill="#00e5ff" font-family="Arial" font-size="7" font-weight="bold" text-anchor="middle" x="695.0" y="499.0">DELTA 660 kW</text><text fill="#00e5ff" font-family="Arial" font-size="6" font-weight="normal" text-anchor="middle" x="695.0" y="513.0">480 kW BBU</text></g><line stroke="#00bcd4" stroke-width="1.5" x1="695" x2="695" y1="513" y2="520" /><polygon fill="#00bcd4" points="691,514 699,514 695,520" /><g><rect fill="#1a1a2e" height="28" rx="4" ry="4" stroke="#00bcd4" stroke-width="1.5" width="80" x="655" y="520" /><text fill="#00e5ff" font-family="Arial" font-size="7" font-weight="bold" text-anchor="middle" x="695.0" y="534.0">e-FUSE &lt;3us</text><text fill="#00e5ff" font-family="Arial" font-size="6" font-weight="normal" text-anchor="middle" x="695.0" y="548.0">90kW 800V-&gt;50V</text></g><line stroke="#00bcd4" stroke-width="1.5" x1="695" x2="695" y1="548" y2="555" /><polygon fill="#00bcd4" points="691,549 699,549 695,555" /><g><rect fill="#1a1a2e" height="28" rx="4" ry="4" stroke="#8b5cf6" stroke-width="1.5" width="80" x="655" y="555" /><text fill="#c4b5fd" font-family="Arial" font-size="7" font-weight="bold" text-anchor="middle" x="695.0" y="569.0">RACK PDU</text><text fill="#c4b5fd" font-family="Arial" font-size="6" font-weight="normal" text-anchor="middle" x="695.0" y="583.0">800V In</text></g><line stroke="#8b5cf6" stroke-width="1.5" x1="695" x2="695" y1="583" y2="590" /><polygon fill="#8b5cf6" points="691,584 699,584 695,590" /><g><rect fill="#1a1a2e" height="28" rx="4" ry="4" stroke="#76b900" stroke-width="1.5" width="80" x="655" y="590" /><text fill="#76b900" font-family="Arial" font-size="7" font-weight="bold" text-anchor="middle" x="695.0" y="604.0">TI GaN / Infineon</text><text fill="#76b900" font-family="Arial" font-size="6" font-weight="normal" text-anchor="middle" x="695.0" y="618.0">CoolGaN 800V-&gt;6V</text></g><line stroke="#76b900" stroke-width="1.5" x1="695" x2="695" y1="618" y2="625" /><polygon fill="#76b900" points="691,619 699,619 695,625" /><line stroke="#8b5cf6" stroke-width="1.5" x1="800" x2="800" y1="403" y2="450" /><polygon fill="#8b5cf6" points="796,444 804,444 800,450" /><g><rect fill="#1a1a2e" height="28" rx="4" ry="4" stroke="#8b5cf6" stroke-width="1.5" width="80" x="760" y="450" /><text fill="#c4b5fd" font-family="Arial" font-size="7" font-weight="bold" text-anchor="middle" x="800.0" y="464.0">BUSWAY</text><text fill="#c4b5fd" font-family="Arial" font-size="6" font-weight="normal" text-anchor="middle" x="800.0" y="478.0">800V DC</text></g><line stroke="#8b5cf6" stroke-width="1.5" x1="800" x2="800" y1="478" y2="485" /><polygon fill="#8b5cf6" points="796,479 804,479 800,485" /><g><rect fill="#1a1a2e" height="28" rx="4" ry="4" stroke="#00bcd4" stroke-width="1.5" width="80" x="760" y="485" /><text fill="#00e5ff" font-family="Arial" font-size="7" font-weight="bold" text-anchor="middle" x="800.0" y="499.0">DELTA 660 kW</text><text fill="#00e5ff" font-family="Arial" font-size="6" font-weight="normal" text-anchor="middle" x="800.0" y="513.0">480 kW BBU</text></g><line stroke="#00bcd4" stroke-width="1.5" x1="800" x2="800" y1="513" y2="520" /><polygon fill="#00bcd4" points="796,514 804,514 800,520" /><g><rect fill="#1a1a2e" height="28" rx="4" ry="4" stroke="#00bcd4" stroke-width="1.5" width="80" x="760" y="520" /><text fill="#00e5ff" font-family="Arial" font-size="7" font-weight="bold" text-anchor="middle" x="800.0" y="534.0">e-FUSE &lt;3us</text><text fill="#00e5ff" font-family="Arial" font-size="6" font-weight="normal" text-anchor="middle" x="800.0" y="548.0">90kW 800V-&gt;50V</text></g><line stroke="#00bcd4" stroke-width="1.5" x1="800" x2="800" y1="548" y2="555" /><polygon fill="#00bcd4" points="796,549 804,549 800,555" /><g><rect fill="#1a1a2e" height="28" rx="4" ry="4" stroke="#8b5cf6" stroke-width="1.5" width="80" x="760" y="555" /><text fill="#c4b5fd" font-family="Arial" font-size="7" font-weight="bold" text-anchor="middle" x="800.0" y="569.0">RACK PDU</text><text fill="#c4b5fd" font-family="Arial" font-size="6" font-weight="normal" text-anchor="middle" x="800.0" y="583.0">800V In</text></g><line stroke="#8b5cf6" stroke-width="1.5" x1="800" x2="800" y1="583" y2="590" /><polygon fill="#8b5cf6" points="796,584 804,584 800,590" /><g><rect fill="#1a1a2e" height="28" rx="4" ry="4" stroke="#76b900" stroke-width="1.5" width="80" x="760" y="590" /><text fill="#76b900" font-family="Arial" font-size="7" font-weight="bold" text-anchor="middle" x="800.0" y="604.0">TI GaN / Infineon</text><text fill="#76b900" font-family="Arial" font-size="6" font-weight="normal" text-anchor="middle" x="800.0" y="618.0">CoolGaN 800V-&gt;6V</text></g><line stroke="#76b900" stroke-width="1.5" x1="800" x2="800" y1="618" y2="625" /><polygon fill="#76b900" points="796,619 804,619 800,625" /><line stroke="#8b5cf6" stroke-width="1.5" x1="905" x2="905" y1="403" y2="450" /><polygon fill="#8b5cf6" points="901,444 909,444 905,450" /><g><rect fill="#1a1a2e" height="28" rx="4" ry="4" stroke="#8b5cf6" stroke-width="1.5" width="80" x="865" y="450" /><text fill="#c4b5fd" font-family="Arial" font-size="7" font-weight="bold" text-anchor="middle" x="905.0" y="464.0">BUSWAY</text><text fill="#c4b5fd" font-family="Arial" font-size="6" font-weight="normal" text-anchor="middle" x="905.0" y="478.0">800V DC</text></g><line stroke="#8b5cf6" stroke-width="1.5" x1="905" x2="905" y1="478" y2="485" /><polygon fill="#8b5cf6" points="901,479 909,479 905,485" /><g><rect fill="#1a1a2e" height="28" rx="4" ry="4" stroke="#00bcd4" stroke-width="1.5" width="80" x="865" y="485" /><text fill="#00e5ff" font-family="Arial" font-size="7" font-weight="bold" text-anchor="middle" x="905.0" y="499.0">DELTA 660 kW</text><text fill="#00e5ff" font-family="Arial" font-size="6" font-weight="normal" text-anchor="middle" x="905.0" y="513.0">480 kW BBU</text></g><line stroke="#00bcd4" stroke-width="1.5" x1="905" x2="905" y1="513" y2="520" /><polygon fill="#00bcd4" points="901,514 909,514 905,520" /><g><rect fill="#1a1a2e" height="28" rx="4" ry="4" stroke="#00bcd4" stroke-width="1.5" width="80" x="865" y="520" /><text fill="#00e5ff" font-family="Arial" font-size="7" font-weight="bold" text-anchor="middle" x="905.0" y="534.0">e-FUSE &lt;3us</text><text fill="#00e5ff" font-family="Arial" font-size="6" font-weight="normal" text-anchor="middle" x="905.0" y="548.0">90kW 800V-&gt;50V</text></g><line stroke="#00bcd4" stroke-width="1.5" x1="905" x2="905" y1="548" y2="555" /><polygon fill="#00bcd4" points="901,549 909,549 905,555" /><g><rect fill="#1a1a2e" height="28" rx="4" ry="4" stroke="#8b5cf6" stroke-width="1.5" width="80" x="865" y="555" /><text fill="#c4b5fd" font-family="Arial" font-size="7" font-weight="bold" text-anchor="middle" x="905.0" y="569.0">RACK PDU</text><text fill="#c4b5fd" font-family="Arial" font-size="6" font-weight="normal" text-anchor="middle" x="905.0" y="583.0">800V In</text></g><line stroke="#8b5cf6" stroke-width="1.5" x1="905" x2="905" y1="583" y2="590" /><polygon fill="#8b5cf6" points="901,584 909,584 905,590" /><g><rect fill="#1a1a2e" height="28" rx="4" ry="4" stroke="#76b900" stroke-width="1.5" width="80" x="865" y="590" /><text fill="#76b900" font-family="Arial" font-size="7" font-weight="bold" text-anchor="middle" x="905.0" y="604.0">TI GaN / Infineon</text><text fill="#76b900" font-family="Arial" font-size="6" font-weight="normal" text-anchor="middle" x="905.0" y="618.0">CoolGaN 800V-&gt;6V</text></g><line stroke="#76b900" stroke-width="1.5" x1="905" x2="905" y1="618" y2="625" /><polygon fill="#76b900" points="901,619 909,619 905,625" /><g><rect fill="#111a00" height="45" rx="4" ry="4" stroke="#76b900" stroke-width="1.5" width="80" x="550" y="625" /><text fill="#76b900" font-family="Arial" font-size="9" font-weight="bold" text-anchor="middle" x="590.0" y="647.5">NVL72 R5</text><text fill="#76b900" font-family="Arial" font-size="8" font-weight="normal" text-anchor="middle" x="590.0" y="661.5">230 kW</text><text fill="#6b7280" font-family="Arial" font-size="8" text-anchor="middle" x="590.0" y="666">Liquid Cooled</text></g><g><rect fill="#111a00" height="45" rx="4" ry="4" stroke="#76b900" stroke-width="1.5" width="80" x="655" y="625" /><text fill="#76b900" font-family="Arial" font-size="9" font-weight="bold" text-anchor="middle" x="695.0" y="647.5">NVL72 R6</text><text fill="#76b900" font-family="Arial" font-size="8" font-weight="normal" text-anchor="middle" x="695.0" y="661.5">230 kW</text><text fill="#6b7280" font-family="Arial" font-size="8" text-anchor="middle" x="695.0" y="666">Liquid Cooled</text></g><g><rect fill="#111a00" height="45" rx="4" ry="4" stroke="#76b900" stroke-width="1.5" width="80" x="760" y="625" /><text fill="#76b900" font-family="Arial" font-size="9" font-weight="bold" text-anchor="middle" x="800.0" y="647.5">NVL72 R7</text><text fill="#76b900" font-family="Arial" font-size="8" font-weight="normal" text-anchor="middle" x="800.0" y="661.5">230 kW</text><text fill="#6b7280" font-family="Arial" font-size="8" text-anchor="middle" x="800.0" y="666">Liquid Cooled</text></g><g><rect fill="#111a00" height="45" rx="4" ry="4" stroke="#76b900" stroke-width="1.5" width="80" x="865" y="625" /><text fill="#76b900" font-family="Arial" font-size="9" font-weight="bold" text-anchor="middle" x="905.0" y="647.5">NVL72 R8</text><text fill="#76b900" font-family="Arial" font-size="8" font-weight="normal" text-anchor="middle" x="905.0" y="661.5">230 kW</text><text fill="#6b7280" font-family="Arial" font-size="8" text-anchor="middle" x="905.0" y="666">Liquid Cooled</text></g><line stroke="#333" stroke-dasharray="8,4" stroke-width="1" x1="530" x2="530" y1="415" y2="675" /><rect fill="#111318" height="45" rx="6" stroke="#1e2230" width="1340" x="30" y="850" /><text fill="#6b7280" font-family="Arial" font-size="8" font-weight="bold" x="55" y="866">FLOOR 1 IT</text><text fill="#3b82f6" font-family="Arial" font-size="11" font-weight="bold" x="55" y="880">520 kW (4 racks)</text><text fill="#6b7280" font-family="Arial" font-size="8" font-weight="bold" x="275" y="866">FLOOR 2 IT</text><text fill="#3b82f6" font-family="Arial" font-size="11" font-weight="bold" x="275" y="880">520 kW (4 racks)</text><text fill="#6b7280" font-family="Arial" font-size="8" font-weight="bold" x="495" y="866">TOTAL IT</text><text fill="#3b82f6" font-family="Arial" font-size="11" font-weight="bold" x="495" y="880">1,300 kW (10 racks)</text><text fill="#6b7280" font-family="Arial" font-size="8" font-weight="bold" x="715" y="866">OVERHEAD</text><text fill="#3b82f6" font-family="Arial" font-size="11" font-weight="bold" x="715" y="880">~200 kW</text><text fill="#6b7280" font-family="Arial" font-size="8" font-weight="bold" x="935" y="866">TOTAL DRAW</text><text fill="#3b82f6" font-family="Arial" font-size="11" font-weight="bold" x="935" y="880">~1,240 kW</text><text fill="#6b7280" font-family="Arial" font-size="8" font-weight="bold" x="1155" y="866">GEN CAPACITY</text><text fill="#3b82f6" font-family="Arial" font-size="11" font-weight="bold" x="1155" y="880">2,060 kW (N+1)</text><text fill="#4b5563" font-family="Arial" font-size="8" x="35" y="910">1. 2x Bloom Energy SOFC natural gas fuel cells: 1.03 MW each, 800V DC Direct output ► ATMOS gas on property, Henry Hub 40 mi</text><text fill="#4b5563" font-family="Arial" font-size="8" x="35" y="923">2. N+1 redundancy: each genset carries full IT load (1,240 kW on 2,060 kW capacity)</text><text fill="#4b5563" font-family="Arial" font-size="8" x="35" y="936">3. DUAL POWER STACK: Eaton Beam Rubin DSX (facility) + Delta (rack). Eaton ORV3 Sidecar rectifiers: 480V AC to 800V DC (genset emergency path only)</text><text fill="#4b5563" font-family="Arial" font-size="8" x="35" y="949">4. Delta 660 kW Power Rack (6x 110 kW shelves, 480 kW embedded BBU). Delta e-Fuse (SiC, &lt;3 us). Delta 90 kW DC/DC (800V to 50V MGX)</text><text fill="#4b5563" font-family="Arial" font-size="8" x="35" y="962">5. 300 kW rooftop solar DC-Direct at 97% eff. TI GaN + Infineon CoolGaN IBC at die — 99%+ eff</text><text fill="#4b5563" font-family="Arial" font-size="8" x="35" y="975">6. LUS grid is BACKUP ONLY (Layer 4). BESS 600 kWh ride-through. Diesel genset (Layer 3) auto-start</text><text fill="#4b5563" font-family="Arial" font-size="8" x="35" y="988">7. 10 NVL72 racks across 2 floors: 720 GPUs total, 1,300 kW IT load, 1 CoolIT CHx200 CDU pair per floor</text><rect fill="#fbbf24" height="8" width="8" x="35" y="1003" /><text fill="#6b7280" font-family="Arial" font-size="8" font-weight="bold" x="49" y="1011">LAYER 1: SOLAR — Primary Offset — 300 kW rooftop</text><rect fill="#22c55e" height="8" width="8" x="365" y="1003" /><text fill="#6b7280" font-family="Arial" font-size="8" font-weight="bold" x="379" y="1011">LAYER 2: NATURAL GAS — Backbone — 2x BLOOM SOFC 24/7</text><rect fill="#ef4444" height="8" width="8" x="695" y="1003" /><text fill="#6b7280" font-family="Arial" font-size="8" font-weight="bold" x="709" y="1011">LAYER 3: DIESEL — Emergency Only</text><rect fill="#ef4444" height="8" width="8" x="1025" y="1003" /><text fill="#6b7280" font-family="Arial" font-size="8" font-weight="bold" x="1039" y="1011">LAYER 4: GRID (LUS) — Backup Only — dual feed</text></svg>