<?xml version="1.0" encoding="UTF-8"?>
<svg xmlns="http://www.w3.org/2000/svg" viewBox="0 0 1200 900" width="1200" height="900">
<defs>
  <style>
    text { font-family: 'IBM Plex Mono', 'Consolas', monospace; }
    .title { font-size: 18px; fill: #ffffff; font-weight: 700; }
    .subtitle { font-size: 12px; fill: #888888; }
    .label { font-size: 10px; fill: #ffffff; font-weight: 500; }
    .label-sm { font-size: 8px; fill: #888888; }
    .stat { font-size: 11px; fill: #ffffff; }
    .stat-val { font-size: 14px; fill: #00e87a; font-weight: 700; }
  </style>
</defs>
<rect width="1200" height="900" fill="#0a0a0f"/>

<!-- Title Block -->
<text x="40" y="40" class="title">OPTION D — Double Row, 2-High Stacked</text>
<text x="40" y="58" class="subtitle">2x2 ground + 2x2 stacked = 8 containers | Maximum density — "AI campus in a parking lot"</text>
<text x="40" y="74" class="subtitle">MARLIE I — 1201 SE Evangeline Thruway, Lafayette LA  |  0.60 acres (3 parcels)</text>
<!-- Property Boundary -->
<rect x="60" y="100" width="630.0" height="507.5" rx="4"
      fill="none" stroke="rgba(255,255,255,0.25)" stroke-width="1" stroke-dasharray="8,4"/>
<text x="66" y="601.5" class="label-sm" fill="#888888">Property Boundary (~0.60 acres)</text>
<!-- Building -->
<rect x="95.0" y="135.0" width="84.0" height="140.0" rx="4"
      fill="#3b9eff" fill-opacity="0.18" stroke="#3b9eff" stroke-width="1.5"/>
<text x="137.0" y="199.0" text-anchor="middle" class="label">BUILDING</text>
<text x="137.0" y="213.0" text-anchor="middle" class="label">10 RACKS INSIDE</text>

<text x="137.0" y="129.0" text-anchor="middle" class="label-sm">24 ft x 40 ft (2 floors)</text>
<rect x="95.0" y="303.0" width="140.0" height="28.0" rx="3"
      fill="#00e87a" fill-opacity="0.15" stroke="#00e87a" stroke-width="1.2"/>
<text x="165.0" y="320.0" text-anchor="middle" class="label-sm" fill="#00e87a">POD 1 (GND)</text>
<rect x="241.0" y="303.0" width="140.0" height="28.0" rx="3"
      fill="#00e87a" fill-opacity="0.15" stroke="#00e87a" stroke-width="1.2"/>
<text x="311.0" y="320.0" text-anchor="middle" class="label-sm" fill="#00e87a">POD 2 (GND)</text>
<!-- Stacked shadow -->
<rect x="100.0" y="287.5" width="140.0" height="28.0" rx="3"
      fill="#00d4ff" fill-opacity="0.08" stroke="#00d4ff" stroke-width="0.6" stroke-dasharray="3,2"/>
<!-- Stacked container -->
<rect x="95.0" y="292.5" width="140.0" height="28.0" rx="3"
      fill="#00d4ff" fill-opacity="0.2" stroke="#00d4ff" stroke-width="1.2"/>
<text x="165.0" y="309.5" text-anchor="middle" class="label-sm" fill="#00d4ff">POD 5 (2H)</text>
<!-- Stacked shadow -->
<rect x="246.0" y="287.5" width="140.0" height="28.0" rx="3"
      fill="#00d4ff" fill-opacity="0.08" stroke="#00d4ff" stroke-width="0.6" stroke-dasharray="3,2"/>
<!-- Stacked container -->
<rect x="241.0" y="292.5" width="140.0" height="28.0" rx="3"
      fill="#00d4ff" fill-opacity="0.2" stroke="#00d4ff" stroke-width="1.2"/>
<text x="311.0" y="309.5" text-anchor="middle" class="label-sm" fill="#00d4ff">POD 6 (2H)</text>
<rect x="95.0" y="341.5" width="286.0" height="21.0" rx="2"
      fill="rgba(79,195,247,0.06)" stroke="#4fc3f7" stroke-width="0.5" stroke-dasharray="4,2"/>
<text x="238.0" y="355.0" text-anchor="middle" class="label-sm" fill="#4fc3f7">SHARED COOLING AISLE</text>
<rect x="95.0" y="373.0" width="140.0" height="28.0" rx="3"
      fill="#00e87a" fill-opacity="0.15" stroke="#00e87a" stroke-width="1.2"/>
<text x="165.0" y="390.0" text-anchor="middle" class="label-sm" fill="#00e87a">POD 3 (GND)</text>
<rect x="241.0" y="373.0" width="140.0" height="28.0" rx="3"
      fill="#00e87a" fill-opacity="0.15" stroke="#00e87a" stroke-width="1.2"/>
<text x="311.0" y="390.0" text-anchor="middle" class="label-sm" fill="#00e87a">POD 4 (GND)</text>
<!-- Stacked shadow -->
<rect x="100.0" y="357.5" width="140.0" height="28.0" rx="3"
      fill="#00d4ff" fill-opacity="0.08" stroke="#00d4ff" stroke-width="0.6" stroke-dasharray="3,2"/>
<!-- Stacked container -->
<rect x="95.0" y="362.5" width="140.0" height="28.0" rx="3"
      fill="#00d4ff" fill-opacity="0.2" stroke="#00d4ff" stroke-width="1.2"/>
<text x="165.0" y="379.5" text-anchor="middle" class="label-sm" fill="#00d4ff">POD 7 (2H)</text>
<!-- Stacked shadow -->
<rect x="246.0" y="357.5" width="140.0" height="28.0" rx="3"
      fill="#00d4ff" fill-opacity="0.08" stroke="#00d4ff" stroke-width="0.6" stroke-dasharray="3,2"/>
<!-- Stacked container -->
<rect x="241.0" y="362.5" width="140.0" height="28.0" rx="3"
      fill="#00d4ff" fill-opacity="0.2" stroke="#00d4ff" stroke-width="1.2"/>
<text x="311.0" y="379.5" text-anchor="middle" class="label-sm" fill="#00d4ff">POD 8 (2H)</text>
<text x="238.0" y="417.0" text-anchor="middle" class="label-sm" fill="#888888">~80 ft x 25 ft container zone</text><rect x="592.0" y="152.5" width="70.0" height="35.0" rx="3"
      fill="#f5a623" fill-opacity="0.15" stroke="#f5a623" stroke-width="1"/>
<text x="627.0" y="173.0" text-anchor="middle" class="label-sm" fill="#f5a623">BLOOM SOFC #1</text>
<rect x="592.0" y="191.5" width="70.0" height="35.0" rx="3"
      fill="#f5a623" fill-opacity="0.15" stroke="#f5a623" stroke-width="1"/>
<text x="627.0" y="212.0" text-anchor="middle" class="label-sm" fill="#f5a623">BLOOM SOFC #2</text>
<rect x="592.0" y="230.5" width="70.0" height="35.0" rx="3"
      fill="#f5a623" fill-opacity="0.15" stroke="#f5a623" stroke-width="1"/>
<text x="627.0" y="251.0" text-anchor="middle" class="label-sm" fill="#f5a623">BLOOM SOFC #3</text>
<rect x="592.0" y="269.5" width="70.0" height="35.0" rx="3"
      fill="#f5a623" fill-opacity="0.15" stroke="#f5a623" stroke-width="1"/>
<text x="627.0" y="290.0" text-anchor="middle" class="label-sm" fill="#f5a623">BLOOM SOFC #4</text>
<rect x="592.0" y="308.5" width="70.0" height="35.0" rx="3"
      fill="#f5a623" fill-opacity="0.15" stroke="#f5a623" stroke-width="1"/>
<text x="627.0" y="329.0" text-anchor="middle" class="label-sm" fill="#f5a623">BLOOM SOFC #5</text>
<rect x="592.0" y="347.5" width="70.0" height="35.0" rx="3"
      fill="#f5a623" fill-opacity="0.15" stroke="#f5a623" stroke-width="1"/>
<text x="627.0" y="368.0" text-anchor="middle" class="label-sm" fill="#f5a623">BLOOM SOFC #6</text>
<rect x="536.0" y="152.5" width="42.0" height="21.0" rx="2"
      fill="#4fc3f7" fill-opacity="0.15" stroke="#4fc3f7" stroke-width="1"/>
<text x="557.0" y="166.0" text-anchor="middle" class="label-sm" fill="#4fc3f7">BAC</text>
<rect x="536.0" y="177.5" width="42.0" height="21.0" rx="2"
      fill="#4fc3f7" fill-opacity="0.15" stroke="#4fc3f7" stroke-width="1"/>
<text x="557.0" y="191.0" text-anchor="middle" class="label-sm" fill="#4fc3f7">BAC</text>
<rect x="536.0" y="202.5" width="42.0" height="21.0" rx="2"
      fill="#4fc3f7" fill-opacity="0.15" stroke="#4fc3f7" stroke-width="1"/>
<text x="557.0" y="216.0" text-anchor="middle" class="label-sm" fill="#4fc3f7">BAC</text>
<rect x="536.0" y="227.5" width="42.0" height="21.0" rx="2"
      fill="#4fc3f7" fill-opacity="0.15" stroke="#4fc3f7" stroke-width="1"/>
<text x="557.0" y="241.0" text-anchor="middle" class="label-sm" fill="#4fc3f7">BAC</text>
<!-- Stats Box -->
<g transform="translate(940,100)">
  <rect x="0" y="0" width="220" height="140" rx="6" fill="rgba(255,255,255,0.05)" stroke="rgba(255,255,255,0.15)" stroke-width="1"/>
  <text x="14" y="22" class="label" fill="#888888">DEPLOYMENT STATS</text>
  <line x1="14" y1="28" x2="206" y2="28" stroke="rgba(255,255,255,0.1)" stroke-width="0.5"/>
  <text x="14" y="46" class="stat">Total Racks:</text><text x="140" y="46" class="stat-val">88</text>
  <text x="14" y="64" class="stat">Total GPUs:</text><text x="140" y="64" class="stat-val">6,336</text>
  <text x="14" y="82" class="stat">Containers:</text><text x="140" y="82" class="stat-val">8</text>
  <text x="14" y="100" class="stat">IT Load:</text><text x="140" y="100" class="stat-val">~11.4 MW</text>
  <text x="14" y="118" class="stat">Footprint:</text><text x="140" y="118" class="stat-val" style="font-size:10px">80x25 ft</text>
</g>
<g transform="translate(940,260)">
<text x="0" y="0" class="label" fill="#888888">LEGEND</text>
<rect x="0" y="16" width="12" height="10" rx="2" fill="#3b9eff" opacity="0.85"/>
<text x="18" y="25" class="label-sm">MARLIE I Building (8 racks)</text>
<rect x="0" y="34" width="12" height="10" rx="2" fill="#00e87a" opacity="0.85"/>
<text x="18" y="43" class="label-sm">Ground Container (10 racks)</text>
<rect x="0" y="52" width="12" height="10" rx="2" fill="#00d4ff" opacity="0.85"/>
<text x="18" y="61" class="label-sm">Stacked Container (10 racks)</text>
<rect x="0" y="70" width="12" height="10" rx="2" fill="#f5a623" opacity="0.85"/>
<text x="18" y="79" class="label-sm">Generator (BLOOM SOFC)</text>
<rect x="0" y="88" width="12" height="10" rx="2" fill="#4fc3f7" opacity="0.85"/>
<text x="18" y="97" class="label-sm">BAC Adiabatic Cooler</text>
</g><!-- North Arrow -->
<g transform="translate(1140,130)">
  <line x1="0" y1="20" x2="0" y2="-15" stroke="#ffffff" stroke-width="1.5" marker-end="url(#arrowN)"/>
  <defs><marker id="arrowN" markerWidth="8" markerHeight="8" refX="4" refY="4" orient="auto">
    <path d="M0,8 L4,0 L8,8 Z" fill="#ffffff"/></marker></defs>
  <text x="0" y="-22" text-anchor="middle" class="label">N</text>
</g>
<!-- Scale Bar -->
<g transform="translate(60,860)">
  <line x1="0" y1="0" x2="140.0" y2="0" stroke="#ffffff" stroke-width="2"/>
  <line x1="0" y1="-4" x2="0" y2="4" stroke="#ffffff" stroke-width="1.5"/>
  <line x1="140.0" y1="-4" x2="140.0" y2="4" stroke="#ffffff" stroke-width="1.5"/>
  <text x="70.0" y="14" text-anchor="middle" class="label-sm">40 ft</text>
</g>
<g transform="translate(940,420)">
  <rect x="0" y="0" width="220" height="36" rx="4" fill="rgba(0,232,122,0.1)" stroke="#00e87a" stroke-width="0.8"/>
  <text x="110" y="22" text-anchor="middle" class="label" fill="#00e87a">AI CAMPUS IN A PARKING LOT</text>
</g>
</svg>
