<?xml version="1.0" encoding="utf-8" ?>
<svg baseProfile="full" height="1100px" version="1.1" viewBox="0 0 1600 1100" width="1600px" xmlns="http://www.w3.org/2000/svg" xmlns:ev="http://www.w3.org/2001/xml-events" xmlns:xlink="http://www.w3.org/1999/xlink"><defs /><rect fill="#0a0b0f" height="1100" width="1600" x="0" y="0" /><text fill="#f0f2f5" font-family="Arial" font-size="16" font-weight="bold" text-anchor="middle" x="800.0" y="26">MARLIE 1 — LAFAYETTE AI FACTORY &amp; COMMAND CENTER</text><text fill="#3b82f6" font-family="Arial" font-size="10" font-weight="bold" text-anchor="middle" x="800.0" y="44">FLOOR PLANS | 24' x 40' | 2 FLOORS | 24 NVL72 RACKS | 1152 GPUs | 2.2 MW IT LOAD</text><text fill="#6b7280" font-family="Arial" font-size="9" text-anchor="middle" x="800.0" y="58">Sheet A-001 | Design Intent | Scale: Conceptual | 2026-04-02 | NOT FOR CONSTRUCTION</text><rect fill="#0d0d12" height="400" stroke="#3b82f6" stroke-width="2" width="240" x="120" y="110" /><text fill="#3b82f6" font-family="Arial" font-size="12" font-weight="bold" text-anchor="middle" x="240.0" y="82">FLOOR 1 — SYSTEM 1</text><text fill="#93c5fd" font-family="Arial" font-size="8" text-anchor="middle" x="240.0" y="96">12 NVL72 RACKS | 8 COMPUTE + 2 NETWORK + 2 STORAGE | 1120 kW</text><text fill="#6b7280" font-family="Arial" font-size="9" font-weight="bold" text-anchor="middle" x="390" y="118">N</text><line stroke="#6b7280" stroke-width="1.5" x1="390" x2="390" y1="122" y2="138" /><text fill="#6b7280" font-family="Arial" font-size="9" font-weight="bold" text-anchor="middle" x="390" y="506">S</text><line stroke="#555" stroke-width="0.5" x1="120" x2="360" y1="530" y2="530" /><line stroke="#555" stroke-width="0.5" x1="120" x2="120" y1="526" y2="534" /><line stroke="#555" stroke-width="0.5" x1="360" x2="360" y1="526" y2="534" /><text fill="#888" font-family="Arial" font-size="7" text-anchor="middle" x="240.0" y="527">24'-0"</text><line stroke="#555" stroke-width="0.5" x1="400" x2="400" y1="110" y2="510" /><line stroke="#555" stroke-width="0.5" x1="396" x2="404" y1="110" y2="110" /><line stroke="#555" stroke-width="0.5" x1="396" x2="404" y1="510" y2="510" /><text fill="#888" font-family="Arial" font-size="7" x="405" y="313.0">40'-0"</text><rect fill="#111318" height="30" stroke="#8b5cf6" stroke-width="1" width="240" x="120" y="480" /><text fill="#8b5cf6" font-family="Arial" font-size="8" font-weight="bold" text-anchor="middle" x="240.0" y="495.0">STAIRCASE  24' x 3'</text><line stroke="#8b5cf6" stroke-width="0.3" x1="120" x2="120" y1="482" y2="508" /><line stroke="#8b5cf6" stroke-width="0.3" x1="140" x2="140" y1="482" y2="508" /><line stroke="#8b5cf6" stroke-width="0.3" x1="160" x2="160" y1="482" y2="508" /><line stroke="#8b5cf6" stroke-width="0.3" x1="180" x2="180" y1="482" y2="508" /><line stroke="#8b5cf6" stroke-width="0.3" x1="200" x2="200" y1="482" y2="508" /><line stroke="#8b5cf6" stroke-width="0.3" x1="220" x2="220" y1="482" y2="508" /><line stroke="#8b5cf6" stroke-width="0.3" x1="240" x2="240" y1="482" y2="508" /><line stroke="#8b5cf6" stroke-width="0.3" x1="260" x2="260" y1="482" y2="508" /><line stroke="#8b5cf6" stroke-width="0.3" x1="280" x2="280" y1="482" y2="508" /><line stroke="#8b5cf6" stroke-width="0.3" x1="300" x2="300" y1="482" y2="508" /><line stroke="#8b5cf6" stroke-width="0.3" x1="320" x2="320" y1="482" y2="508" /><line stroke="#8b5cf6" stroke-width="0.3" x1="340" x2="340" y1="482" y2="508" /><line stroke="#555" stroke-width="0.5" x1="420" x2="420" y1="110" y2="480" /><line stroke="#555" stroke-width="0.5" x1="416" x2="424" y1="110" y2="110" /><line stroke="#555" stroke-width="0.5" x1="416" x2="424" y1="480" y2="480" /><text fill="#888" font-family="Arial" font-size="7" x="425" y="298.0">37'-0" usable</text><rect fill="#0a1628" height="28" stroke="#4fc3f7" stroke-width="1" width="238" x="121" y="111" /><text fill="#4fc3f7" font-family="Arial" font-size="7" font-weight="bold" text-anchor="middle" x="240.0" y="119.0">CoolIT CHx200 CDU (200 kW)</text><text fill="#4fc3f7" font-family="Arial" font-size="7" font-weight="normal" text-anchor="middle" x="240.0" y="131.0">24' x 3'</text><line stroke="#4fc3f7" stroke-width="2" x1="128" x2="128" y1="110" y2="98" /><text fill="#4fc3f7" font-family="Arial" font-size="5" x="134" y="106">SUPPLY</text><line stroke="#ff6b6b" stroke-width="2" x1="352" x2="352" y1="110" y2="98" /><text fill="#ff6b6b" font-family="Arial" font-size="5" x="325" y="106">RETURN</text><rect fill="#111318" height="28" stroke="#8b5cf6" stroke-width="1" width="238" x="121" y="451" /><text fill="#c4b5fd" font-family="Arial" font-size="7" font-weight="bold" text-anchor="middle" x="240.0" y="459.0">EATON BEAM RUBIN DSX + ABB SACE Infinitus</text><text fill="#c4b5fd" font-family="Arial" font-size="7" font-weight="normal" text-anchor="middle" x="240.0" y="471.0">24' x 3'</text><text fill="#4b5563" font-family="Arial" font-size="7" text-anchor="middle" transform="rotate(-90,175,295.0)" x="175" y="295.0">11' AISLE</text><text fill="#4b5563" font-family="Arial" font-size="7" text-anchor="middle" transform="rotate(-90,305,295.0)" x="305" y="295.0">11' AISLE</text><line stroke="#333" stroke-dasharray="4,4" stroke-width="0.5" x1="240.0" x2="240.0" y1="140" y2="450" /><rect fill="#1a0a2e" height="20" rx="2" stroke="#a78bfa" stroke-width="1.2" width="40" x="220.0" y="142" /><text fill="#a78bfa" font-family="Arial" font-size="7" font-weight="bold" text-anchor="middle" x="240.0" y="155.0">S1</text><rect fill="#0a1628" height="20" rx="2" stroke="#4fc3f7" stroke-width="1.2" width="40" x="220.0" y="167" /><text fill="#4fc3f7" font-family="Arial" font-size="7" font-weight="bold" text-anchor="middle" x="240.0" y="180.0">N2</text><rect fill="#1a2e0a" height="20" rx="2" stroke="#76b900" stroke-width="1.2" width="40" x="220.0" y="192" /><text fill="#76b900" font-family="Arial" font-size="7" font-weight="bold" text-anchor="middle" x="240.0" y="205.0">C3</text><rect fill="#1a2e0a" height="20" rx="2" stroke="#76b900" stroke-width="1.2" width="40" x="220.0" y="217" /><text fill="#76b900" font-family="Arial" font-size="7" font-weight="bold" text-anchor="middle" x="240.0" y="230.0">C4</text><rect fill="#1a2e0a" height="20" rx="2" stroke="#76b900" stroke-width="1.2" width="40" x="220.0" y="242" /><text fill="#76b900" font-family="Arial" font-size="7" font-weight="bold" text-anchor="middle" x="240.0" y="255.0">C5</text><rect fill="#1a2e0a" height="20" rx="2" stroke="#76b900" stroke-width="1.2" width="40" x="220.0" y="267" /><text fill="#76b900" font-family="Arial" font-size="7" font-weight="bold" text-anchor="middle" x="240.0" y="280.0">C6</text><rect fill="#1a2e0a" height="20" rx="2" stroke="#76b900" stroke-width="1.2" width="40" x="220.0" y="292" /><text fill="#76b900" font-family="Arial" font-size="7" font-weight="bold" text-anchor="middle" x="240.0" y="305.0">C7</text><rect fill="#1a2e0a" height="20" rx="2" stroke="#76b900" stroke-width="1.2" width="40" x="220.0" y="317" /><text fill="#76b900" font-family="Arial" font-size="7" font-weight="bold" text-anchor="middle" x="240.0" y="330.0">C8</text><rect fill="#1a2e0a" height="20" rx="2" stroke="#76b900" stroke-width="1.2" width="40" x="220.0" y="342" /><text fill="#76b900" font-family="Arial" font-size="7" font-weight="bold" text-anchor="middle" x="240.0" y="355.0">C9</text><rect fill="#1a2e0a" height="20" rx="2" stroke="#76b900" stroke-width="1.2" width="40" x="220.0" y="367" /><text fill="#76b900" font-family="Arial" font-size="7" font-weight="bold" text-anchor="middle" x="240.0" y="380.0">C10</text><rect fill="#0a1628" height="20" rx="2" stroke="#4fc3f7" stroke-width="1.2" width="40" x="220.0" y="392" /><text fill="#4fc3f7" font-family="Arial" font-size="7" font-weight="bold" text-anchor="middle" x="240.0" y="405.0">N11</text><rect fill="#1a0a2e" height="20" rx="2" stroke="#a78bfa" stroke-width="1.2" width="40" x="220.0" y="417" /><text fill="#a78bfa" font-family="Arial" font-size="7" font-weight="bold" text-anchor="middle" x="240.0" y="430.0">S12</text><line stroke="#555" stroke-width="0.5" x1="120" x2="220.0" y1="456" y2="456" /><line stroke="#555" stroke-width="0.5" x1="120" x2="120" y1="452" y2="460" /><line stroke="#555" stroke-width="0.5" x1="220.0" x2="220.0" y1="452" y2="460" /><text fill="#888" font-family="Arial" font-size="7" text-anchor="middle" x="170.0" y="453">10' aisle</text><line stroke="#555" stroke-width="0.5" x1="260.0" x2="360" y1="456" y2="456" /><line stroke="#555" stroke-width="0.5" x1="260.0" x2="260.0" y1="452" y2="460" /><line stroke="#555" stroke-width="0.5" x1="360" x2="360" y1="452" y2="460" /><text fill="#888" font-family="Arial" font-size="7" text-anchor="middle" x="310.0" y="453">10' aisle</text><line stroke="#555" stroke-width="0.5" x1="220.0" x2="260.0" y1="468" y2="468" /><line stroke="#555" stroke-width="0.5" x1="220.0" x2="220.0" y1="464" y2="472" /><line stroke="#555" stroke-width="0.5" x1="260.0" x2="260.0" y1="464" y2="472" /><text fill="#888" font-family="Arial" font-size="7" text-anchor="middle" x="240.0" y="465">4' racks</text><rect fill="#3b82f6" height="16" rx="2" width="5" x="358" y="287.0" /><text fill="#6b7280" font-family="Arial" font-size="6" x="366" y="298.0">DOOR</text><line stroke="#8b5cf6" stroke-dasharray="6,3" stroke-width="1" x1="270.0" x2="270.0" y1="450" y2="142" /><text fill="#8b5cf6" font-family="Arial" font-size="5" x="274.0" y="295.0">800V DC
BUSWAY</text><rect fill="#0d0d12" height="400" stroke="#3b82f6" stroke-width="2" width="240" x="500" y="110" /><text fill="#3b82f6" font-family="Arial" font-size="12" font-weight="bold" text-anchor="middle" x="620.0" y="82">FLOOR 2 — SYSTEM 2</text><text fill="#93c5fd" font-family="Arial" font-size="8" text-anchor="middle" x="620.0" y="96">12 NVL72 RACKS | 8 COMPUTE + 2 NETWORK + 2 STORAGE | 1120 kW</text><text fill="#6b7280" font-family="Arial" font-size="9" font-weight="bold" text-anchor="middle" x="770" y="118">N</text><line stroke="#6b7280" stroke-width="1.5" x1="770" x2="770" y1="122" y2="138" /><text fill="#6b7280" font-family="Arial" font-size="9" font-weight="bold" text-anchor="middle" x="770" y="506">S</text><line stroke="#555" stroke-width="0.5" x1="500" x2="740" y1="530" y2="530" /><line stroke="#555" stroke-width="0.5" x1="500" x2="500" y1="526" y2="534" /><line stroke="#555" stroke-width="0.5" x1="740" x2="740" y1="526" y2="534" /><text fill="#888" font-family="Arial" font-size="7" text-anchor="middle" x="620.0" y="527">24'-0"</text><line stroke="#555" stroke-width="0.5" x1="780" x2="780" y1="110" y2="510" /><line stroke="#555" stroke-width="0.5" x1="776" x2="784" y1="110" y2="110" /><line stroke="#555" stroke-width="0.5" x1="776" x2="784" y1="510" y2="510" /><text fill="#888" font-family="Arial" font-size="7" x="785" y="313.0">40'-0"</text><rect fill="#111318" height="30" stroke="#8b5cf6" stroke-width="1" width="240" x="500" y="480" /><text fill="#8b5cf6" font-family="Arial" font-size="8" font-weight="bold" text-anchor="middle" x="620.0" y="495.0">STAIRCASE  24' x 3'</text><line stroke="#8b5cf6" stroke-width="0.3" x1="500" x2="500" y1="482" y2="508" /><line stroke="#8b5cf6" stroke-width="0.3" x1="520" x2="520" y1="482" y2="508" /><line stroke="#8b5cf6" stroke-width="0.3" x1="540" x2="540" y1="482" y2="508" /><line stroke="#8b5cf6" stroke-width="0.3" x1="560" x2="560" y1="482" y2="508" /><line stroke="#8b5cf6" stroke-width="0.3" x1="580" x2="580" y1="482" y2="508" /><line stroke="#8b5cf6" stroke-width="0.3" x1="600" x2="600" y1="482" y2="508" /><line stroke="#8b5cf6" stroke-width="0.3" x1="620" x2="620" y1="482" y2="508" /><line stroke="#8b5cf6" stroke-width="0.3" x1="640" x2="640" y1="482" y2="508" /><line stroke="#8b5cf6" stroke-width="0.3" x1="660" x2="660" y1="482" y2="508" /><line stroke="#8b5cf6" stroke-width="0.3" x1="680" x2="680" y1="482" y2="508" /><line stroke="#8b5cf6" stroke-width="0.3" x1="700" x2="700" y1="482" y2="508" /><line stroke="#8b5cf6" stroke-width="0.3" x1="720" x2="720" y1="482" y2="508" /><line stroke="#555" stroke-width="0.5" x1="800" x2="800" y1="110" y2="480" /><line stroke="#555" stroke-width="0.5" x1="796" x2="804" y1="110" y2="110" /><line stroke="#555" stroke-width="0.5" x1="796" x2="804" y1="480" y2="480" /><text fill="#888" font-family="Arial" font-size="7" x="805" y="298.0">37'-0" usable</text><rect fill="#0a1628" height="28" stroke="#4fc3f7" stroke-width="1" width="238" x="501" y="111" /><text fill="#4fc3f7" font-family="Arial" font-size="7" font-weight="bold" text-anchor="middle" x="620.0" y="119.0">CoolIT CHx200 CDU (200 kW)</text><text fill="#4fc3f7" font-family="Arial" font-size="7" font-weight="normal" text-anchor="middle" x="620.0" y="131.0">24' x 3'</text><line stroke="#4fc3f7" stroke-width="2" x1="508" x2="508" y1="110" y2="98" /><text fill="#4fc3f7" font-family="Arial" font-size="5" x="514" y="106">SUPPLY</text><line stroke="#ff6b6b" stroke-width="2" x1="732" x2="732" y1="110" y2="98" /><text fill="#ff6b6b" font-family="Arial" font-size="5" x="705" y="106">RETURN</text><rect fill="#111318" height="28" stroke="#8b5cf6" stroke-width="1" width="238" x="501" y="451" /><text fill="#c4b5fd" font-family="Arial" font-size="7" font-weight="bold" text-anchor="middle" x="620.0" y="459.0">EATON BEAM RUBIN DSX + ABB SACE Infinitus</text><text fill="#c4b5fd" font-family="Arial" font-size="7" font-weight="normal" text-anchor="middle" x="620.0" y="471.0">24' x 3'</text><text fill="#4b5563" font-family="Arial" font-size="7" text-anchor="middle" transform="rotate(-90,555,295.0)" x="555" y="295.0">11' AISLE</text><text fill="#4b5563" font-family="Arial" font-size="7" text-anchor="middle" transform="rotate(-90,685,295.0)" x="685" y="295.0">11' AISLE</text><line stroke="#333" stroke-dasharray="4,4" stroke-width="0.5" x1="620.0" x2="620.0" y1="140" y2="450" /><rect fill="#1a0a2e" height="20" rx="2" stroke="#a78bfa" stroke-width="1.2" width="40" x="600.0" y="142" /><text fill="#a78bfa" font-family="Arial" font-size="7" font-weight="bold" text-anchor="middle" x="620.0" y="155.0">S13</text><rect fill="#0a1628" height="20" rx="2" stroke="#4fc3f7" stroke-width="1.2" width="40" x="600.0" y="167" /><text fill="#4fc3f7" font-family="Arial" font-size="7" font-weight="bold" text-anchor="middle" x="620.0" y="180.0">N14</text><rect fill="#1a2e0a" height="20" rx="2" stroke="#76b900" stroke-width="1.2" width="40" x="600.0" y="192" /><text fill="#76b900" font-family="Arial" font-size="7" font-weight="bold" text-anchor="middle" x="620.0" y="205.0">C15</text><rect fill="#1a2e0a" height="20" rx="2" stroke="#76b900" stroke-width="1.2" width="40" x="600.0" y="217" /><text fill="#76b900" font-family="Arial" font-size="7" font-weight="bold" text-anchor="middle" x="620.0" y="230.0">C16</text><rect fill="#1a2e0a" height="20" rx="2" stroke="#76b900" stroke-width="1.2" width="40" x="600.0" y="242" /><text fill="#76b900" font-family="Arial" font-size="7" font-weight="bold" text-anchor="middle" x="620.0" y="255.0">C17</text><rect fill="#1a2e0a" height="20" rx="2" stroke="#76b900" stroke-width="1.2" width="40" x="600.0" y="267" /><text fill="#76b900" font-family="Arial" font-size="7" font-weight="bold" text-anchor="middle" x="620.0" y="280.0">C18</text><rect fill="#1a2e0a" height="20" rx="2" stroke="#76b900" stroke-width="1.2" width="40" x="600.0" y="292" /><text fill="#76b900" font-family="Arial" font-size="7" font-weight="bold" text-anchor="middle" x="620.0" y="305.0">C19</text><rect fill="#1a2e0a" height="20" rx="2" stroke="#76b900" stroke-width="1.2" width="40" x="600.0" y="317" /><text fill="#76b900" font-family="Arial" font-size="7" font-weight="bold" text-anchor="middle" x="620.0" y="330.0">C20</text><rect fill="#1a2e0a" height="20" rx="2" stroke="#76b900" stroke-width="1.2" width="40" x="600.0" y="342" /><text fill="#76b900" font-family="Arial" font-size="7" font-weight="bold" text-anchor="middle" x="620.0" y="355.0">C21</text><rect fill="#1a2e0a" height="20" rx="2" stroke="#76b900" stroke-width="1.2" width="40" x="600.0" y="367" /><text fill="#76b900" font-family="Arial" font-size="7" font-weight="bold" text-anchor="middle" x="620.0" y="380.0">C22</text><rect fill="#0a1628" height="20" rx="2" stroke="#4fc3f7" stroke-width="1.2" width="40" x="600.0" y="392" /><text fill="#4fc3f7" font-family="Arial" font-size="7" font-weight="bold" text-anchor="middle" x="620.0" y="405.0">N23</text><rect fill="#1a0a2e" height="20" rx="2" stroke="#a78bfa" stroke-width="1.2" width="40" x="600.0" y="417" /><text fill="#a78bfa" font-family="Arial" font-size="7" font-weight="bold" text-anchor="middle" x="620.0" y="430.0">S24</text><line stroke="#555" stroke-width="0.5" x1="500" x2="600.0" y1="456" y2="456" /><line stroke="#555" stroke-width="0.5" x1="500" x2="500" y1="452" y2="460" /><line stroke="#555" stroke-width="0.5" x1="600.0" x2="600.0" y1="452" y2="460" /><text fill="#888" font-family="Arial" font-size="7" text-anchor="middle" x="550.0" y="453">10' aisle</text><line stroke="#555" stroke-width="0.5" x1="640.0" x2="740" y1="456" y2="456" /><line stroke="#555" stroke-width="0.5" x1="640.0" x2="640.0" y1="452" y2="460" /><line stroke="#555" stroke-width="0.5" x1="740" x2="740" y1="452" y2="460" /><text fill="#888" font-family="Arial" font-size="7" text-anchor="middle" x="690.0" y="453">10' aisle</text><line stroke="#555" stroke-width="0.5" x1="600.0" x2="640.0" y1="468" y2="468" /><line stroke="#555" stroke-width="0.5" x1="600.0" x2="600.0" y1="464" y2="472" /><line stroke="#555" stroke-width="0.5" x1="640.0" x2="640.0" y1="464" y2="472" /><text fill="#888" font-family="Arial" font-size="7" text-anchor="middle" x="620.0" y="465">4' racks</text><rect fill="#3b82f6" height="16" rx="2" width="5" x="738" y="287.0" /><text fill="#6b7280" font-family="Arial" font-size="6" x="746" y="298.0">DOOR</text><line stroke="#8b5cf6" stroke-dasharray="6,3" stroke-width="1" x1="650.0" x2="650.0" y1="450" y2="142" /><text fill="#8b5cf6" font-family="Arial" font-size="5" x="654.0" y="295.0">800V DC
BUSWAY</text><rect fill="#111318" height="215" rx="6" stroke="#1e2230" width="420" x="890" y="185" /><text fill="#3b82f6" font-family="Arial" font-size="10" font-weight="bold" text-anchor="middle" x="1100.0" y="200">BUILDING CROSS-SECTION (EAST ELEVATION)</text><line stroke="#4b5563" stroke-width="2" x1="890" x2="1310" y1="390" y2="390" /><text fill="#4b5563" font-family="Arial" font-size="6" x="1314" y="393">GRADE</text><rect fill="#0d0d12" height="85" stroke="#3b82f6" stroke-width="1.5" width="400" x="900" y="305" /><text fill="#76b900" font-family="Arial" font-size="8" text-anchor="middle" x="1100.0" y="351.5">FLOOR 1 (SYSTEM 1) — 12 NVL72 RACKS | 1,120 kW</text><rect fill="#333" height="4" stroke="#555" stroke-width="0.5" width="400" x="900" y="301" /><rect fill="#0d0d12" height="85" stroke="#3b82f6" stroke-width="1.5" width="400" x="900" y="216" /><text fill="#76b900" font-family="Arial" font-size="8" text-anchor="middle" x="1100.0" y="262.5">FLOOR 2 (SYSTEM 2) — 12 NVL72 RACKS | 1,120 kW</text><rect fill="#111318" height="174" stroke="#8b5cf6" stroke-width="1" width="30" x="1270" y="216" /><text fill="#8b5cf6" font-family="Arial" font-size="7" text-anchor="middle" x="1285.0" y="342.5">STAIR</text><line stroke="#fbbf24" stroke-width="2" x1="900" x2="1300" y1="212" y2="212" /><text fill="#fbbf24" font-family="Arial" font-size="7" font-weight="bold" text-anchor="middle" x="1100.0" y="207">300 kW SOLAR — First Solar Series 7 TR1 (550W)</text><line stroke="#555" stroke-width="0.5" x1="1312" x2="1312" y1="305" y2="390" /><line stroke="#555" stroke-width="0.5" x1="1308" x2="1316" y1="305" y2="305" /><line stroke="#555" stroke-width="0.5" x1="1308" x2="1316" y1="390" y2="390" /><text fill="#888" font-family="Arial" font-size="7" x="1317" y="350.5">~10' CLR</text><line stroke="#555" stroke-width="0.5" x1="1312" x2="1312" y1="216" y2="301" /><line stroke="#555" stroke-width="0.5" x1="1308" x2="1316" y1="216" y2="216" /><line stroke="#555" stroke-width="0.5" x1="1308" x2="1316" y1="301" y2="301" /><text fill="#888" font-family="Arial" font-size="7" x="1317" y="261.5">~10' CLR</text><line stroke="#555" stroke-width="0.5" x1="1330" x2="1330" y1="212" y2="390" /><line stroke="#555" stroke-width="0.5" x1="1326" x2="1334" y1="212" y2="212" /><line stroke="#555" stroke-width="0.5" x1="1326" x2="1334" y1="390" y2="390" /><text fill="#888" font-family="Arial" font-size="7" x="1335" y="304.0">~21' TOTAL</text><line stroke="#555" stroke-width="0.5" x1="900" x2="1300" y1="402" y2="402" /><line stroke="#555" stroke-width="0.5" x1="900" x2="900" y1="398" y2="406" /><line stroke="#555" stroke-width="0.5" x1="1300" x2="1300" y1="398" y2="406" /><text fill="#888" font-family="Arial" font-size="7" text-anchor="middle" x="1100.0" y="399">40'-0" (BUILDING LENGTH)</text><rect fill="#111318" height="80" rx="6" stroke="#1e2230" width="420" x="890" y="100" /><text fill="#3b82f6" font-family="Arial" font-size="9" font-weight="bold" x="900" y="114">LEGEND</text><rect fill="#1a2e0a" height="8" rx="2" stroke="#76b900" stroke-width="1" width="14" x="905" y="122" /><text fill="#9ca3af" font-family="Arial" font-size="7" x="925" y="129">Compute Rack (NVL72) — 230 kW, liquid cooled</text><rect fill="#0a1628" height="8" rx="2" stroke="#4fc3f7" stroke-width="1" width="14" x="905" y="133" /><text fill="#9ca3af" font-family="Arial" font-size="7" x="925" y="140">Networking Rack (QX800 IB / SX Ethernet) — 20 kW</text><rect fill="#1a0a2e" height="8" rx="2" stroke="#a78bfa" stroke-width="1" width="14" x="905" y="144" /><text fill="#9ca3af" font-family="Arial" font-size="7" x="925" y="151">Storage Rack (NVMe nodes) — 20 kW</text><line stroke="#8b5cf6" stroke-width="2" x1="905" x2="919" y1="159" y2="159" /><text fill="#9ca3af" font-family="Arial" font-size="7" x="925" y="162">800V DC Busway (cable tray)</text><line stroke="#4fc3f7" stroke-width="2" x1="905" x2="919" y1="170" y2="170" /><text fill="#9ca3af" font-family="Arial" font-size="7" x="925" y="173">Cold supply pipe</text><line stroke="#ff6b6b" stroke-width="2" x1="905" x2="919" y1="181" y2="181" /><text fill="#9ca3af" font-family="Arial" font-size="7" x="925" y="184">Hot return pipe</text><rect fill="#111318" height="100" rx="6" stroke="#1e2230" width="420" x="890" y="420" /><text fill="#3b82f6" font-family="Arial" font-size="9" font-weight="bold" x="900" y="436">BUILDING SUMMARY</text><text fill="#9ca3af" font-family="Arial" font-size="7" x="900" y="450">Footprint: 24' x 40' = 960 sq ft/floor, 1,920 sq ft total</text><text fill="#9ca3af" font-family="Arial" font-size="7" x="900" y="461">Usable per floor: 24' x 37' = 888 sq ft (3' staircase at south end)</text><text fill="#9ca3af" font-family="Arial" font-size="7" x="900" y="472">Racks per floor: 12 (8 compute + 2 networking + 2 storage)</text><text fill="#9ca3af" font-family="Arial" font-size="7" x="900" y="483">Total racks: 24 across 2 floors (2 full SuperPODs)</text><text fill="#9ca3af" font-family="Arial" font-size="7" x="900" y="494">Total GPUs: 1152 (B200 via NVL72)</text><text fill="#9ca3af" font-family="Arial" font-size="7" x="900" y="505">IT Load: 2,240 kW (2.2 MW) — est. 2.7 MW with cooling overhead</text><text fill="#9ca3af" font-family="Arial" font-size="7" x="900" y="516">Rack layout: center-mounted single row, 11' aisles each side (shipping container concept)</text><text fill="#9ca3af" font-family="Arial" font-size="7" x="900" y="527">CDU zone: 3' at north end | Elec panel: 3' at south end</text><text fill="#4b5563" font-family="Arial" font-size="7.5" x="35" y="570">1. Building footprint: 24' x 40' = 960 sq ft per floor, 1,920 sq ft total.</text><text fill="#4b5563" font-family="Arial" font-size="7.5" x="35" y="583">2. Staircase: 24' wide x 3' deep at south end. Usable space: 24' x 37' per floor.</text><text fill="#4b5563" font-family="Arial" font-size="7.5" x="35" y="596">3. Center-mounted single rack row (shipping container concept): 4' deep racks centered, 10' access aisles each side.</text><text fill="#4b5563" font-family="Arial" font-size="7.5" x="35" y="609">4. 12 rack positions per floor: 3' CDU zone (N) + 31' rack zone + 3' elec panel (S) = 37' usable.</text><text fill="#4b5563" font-family="Arial" font-size="7.5" x="35" y="622">5. Each floor: 8 compute NVL72 (230 kW ea, liquid cooled) + 2 networking (Quantum-X800 IB + Spectrum-X) + 2 storage (NVMe).</text><text fill="#4b5563" font-family="Arial" font-size="7.5" x="35" y="635">6. 2 complete SuperPODs: System 1 (Floor 1) + System 2 (Floor 2). Each independently cooled and powered.</text><text fill="#4b5563" font-family="Arial" font-size="7.5" x="35" y="648">7. NVL72 rack: ~2' wide x 4' deep x 6.5' tall, 230 kW, 45C hot water, ~2,500 lbs loaded.</text><text fill="#4b5563" font-family="Arial" font-size="7.5" x="35" y="661">8. Floor loading: NVL72 ~250 lb/sq ft concentrated — structural reinforcement at all rack positions required.</text><text fill="#4b5563" font-family="Arial" font-size="7.5" x="35" y="674">9. 800V DC power via Eaton Beam Rubin DSX + ORV3 Sidecar, ABB SACE Infinitus DC protection, overhead busway to each rack.</text><text fill="#4b5563" font-family="Arial" font-size="7.5" x="35" y="687">10. CoolIT CHx200 (200 kW) CDU connections at north wall, Staubli UQD quick-disconnects, BAC TrilliumSeries outside.</text><text fill="#4b5563" font-family="Arial" font-size="7.5" x="35" y="700">11. Total: 24 racks, 1152 GPUs, 2.2 MW IT, est. 2.7 MW total with cooling.</text><rect fill="#111318" height="40" rx="6" stroke="#1e2230" width="800" x="35" y="728" /><text fill="#3b82f6" font-family="Arial" font-size="9" font-weight="bold" x="50" y="743">MARLIE 1 vs TRAPPEYS:</text><text fill="#9ca3af" font-family="Arial" font-size="8" x="50" y="756">MARLIE 1 = 1,920 sq ft / 24 racks / 1152 GPUs  |  Trappeys = 112,500 sq ft / 36-84 racks / scalable SuperPOD deployment</text></svg>