<?xml version="1.0" encoding="utf-8" ?>
<svg baseProfile="full" height="1200px" version="1.1" viewBox="0 0 1400 1200" width="1400px" xmlns="http://www.w3.org/2000/svg" xmlns:ev="http://www.w3.org/2001/xml-events" xmlns:xlink="http://www.w3.org/1999/xlink"><defs /><rect fill="#0a0b0f" height="1200" width="1400" x="0" y="0" /><text fill="#f0f2f5" font-family="Arial" font-size="16" font-weight="bold" text-anchor="middle" x="700.0" y="24">MARLIE 1 — LAFAYETTE AI FACTORY &amp; COMMAND CENTER</text><text fill="#3b82f6" font-family="Arial" font-size="10" font-weight="bold" text-anchor="middle" x="700.0" y="40">POWER DISTRIBUTION SCHEMATIC | FUEL TO CHIP | 4-LAYER POWER HIERARCHY | 1,300 kW IT</text><text fill="#6b7280" font-family="Arial" font-size="9" text-anchor="middle" x="700.0" y="54">Sheet P-001 | Design Intent | 2026-04-02 | NOT FOR CONSTRUCTION</text><g><rect fill="#0a1a0a" height="55" rx="4" ry="4" stroke="#22c55e" stroke-width="1.5" width="130" x="30" y="75" /><text fill="#22c55e" font-family="Arial" font-size="10" font-weight="bold" text-anchor="middle" x="95.0" y="95.0">ATMOS ENERGY</text><text fill="#22c55e" font-family="Arial" font-size="9" font-weight="normal" text-anchor="middle" x="95.0" y="108.0">Natural Gas</text><text fill="#22c55e" font-family="Arial" font-size="9" font-weight="normal" text-anchor="middle" x="95.0" y="121.0">On Property</text><text fill="#6b7280" font-family="Arial" font-size="7" text-anchor="middle" x="95.0" y="126">Henry Hub 40 mi</text></g><g><rect fill="#1a1a2e" height="55" rx="4" ry="4" stroke="#22c55e" stroke-width="1.5" width="100" x="180" y="75" /><text fill="#86efac" font-family="Arial" font-size="10" font-weight="bold" text-anchor="middle" x="230.0" y="95.0">GAS METER</text><text fill="#86efac" font-family="Arial" font-size="9" font-weight="normal" text-anchor="middle" x="230.0" y="108.0">+ REGULATOR</text><text fill="#86efac" font-family="Arial" font-size="9" font-weight="normal" text-anchor="middle" x="230.0" y="121.0">Station</text><text fill="#6b7280" font-family="Arial" font-size="7" text-anchor="middle" x="230.0" y="126">Custody transfer</text></g><g><rect fill="#2e1a1a" height="55" rx="4" ry="4" stroke="#ef4444" stroke-width="1.5" width="120" x="310" y="75" /><text fill="#ef4444" font-family="Arial" font-size="10" font-weight="bold" text-anchor="middle" x="370.0" y="95.0">DIESEL FUEL</text><text fill="#ef4444" font-family="Arial" font-size="9" font-weight="normal" text-anchor="middle" x="370.0" y="108.0">STORAGE</text><text fill="#ef4444" font-family="Arial" font-size="9" font-weight="normal" text-anchor="middle" x="370.0" y="121.0">2,000 gal</text><text fill="#6b7280" font-family="Arial" font-size="7" text-anchor="middle" x="370.0" y="126">Layer 3 backup</text></g><g><rect fill="#1a1a00" height="55" rx="4" ry="4" stroke="#fbbf24" stroke-width="1.5" width="130" x="460" y="75" /><text fill="#fbbf24" font-family="Arial" font-size="10" font-weight="bold" text-anchor="middle" x="525.0" y="95.0">SOLAR</text><text fill="#fbbf24" font-family="Arial" font-size="9" font-weight="normal" text-anchor="middle" x="525.0" y="108.0">IRRADIANCE</text><text fill="#fbbf24" font-family="Arial" font-size="9" font-weight="normal" text-anchor="middle" x="525.0" y="121.0">4.5-5.2 kWh/m2/day</text><text fill="#6b7280" font-family="Arial" font-size="7" text-anchor="middle" x="525.0" y="126">30 kW Pod Roofs</text></g><g><rect fill="#1a0a0a" height="55" rx="4" ry="4" stroke="#ef4444" stroke-width="1.5" width="130" x="620" y="75" /><text fill="#ef4444" font-family="Arial" font-size="10" font-weight="bold" text-anchor="middle" x="685.0" y="95.0">LUS BACKUP</text><text fill="#ef4444" font-family="Arial" font-size="9" font-weight="normal" text-anchor="middle" x="685.0" y="108.0">GRID</text><text fill="#ef4444" font-family="Arial" font-size="9" font-weight="normal" text-anchor="middle" x="685.0" y="121.0">BACKUP ONLY</text><text fill="#6b7280" font-family="Arial" font-size="7" text-anchor="middle" x="685.0" y="126">Layer 4 — dual feed</text></g><line stroke="#22c55e" stroke-width="1.5" x1="95" x2="95" y1="130" y2="160" /><polygon fill="#22c55e" points="91,154 99,154 95,160" /><line stroke="#22c55e" stroke-width="1.5" x1="230" x2="230" y1="130" y2="160" /><polygon fill="#22c55e" points="226,154 234,154 230,160" /><line stroke="#ef4444" stroke-width="1.5" x1="370" x2="370" y1="130" y2="160" /><polygon fill="#ef4444" points="366,154 374,154 370,160" /><line stroke="#fbbf24" stroke-width="1.5" x1="525" x2="525" y1="130" y2="160" /><polygon fill="#fbbf24" points="521,154 529,154 525,160" /><g><rect fill="#0a1a0a" height="65" rx="4" ry="4" stroke="#22c55e" stroke-width="1.5" width="140" x="30" y="165" /><text fill="#22c55e" font-family="Arial" font-size="10" font-weight="bold" text-anchor="middle" x="100.0" y="183.5">BLOOM SOFC #1</text><text fill="#22c55e" font-family="Arial" font-size="9" font-weight="normal" text-anchor="middle" x="100.0" y="196.5">1.03 MW | 800V DC Direct</text><text fill="#22c55e" font-family="Arial" font-size="9" font-weight="normal" text-anchor="middle" x="100.0" y="209.5">Natural Gas Prime</text><text fill="#22c55e" font-family="Arial" font-size="9" font-weight="normal" text-anchor="middle" x="100.0" y="222.5">Layer 2 Backbone</text><text fill="#6b7280" font-family="Arial" font-size="7" text-anchor="middle" x="100.0" y="226">Caterpillar | American Made</text></g><g><rect fill="#0a1a0a" height="65" rx="4" ry="4" stroke="#22c55e" stroke-width="1.5" width="140" x="185" y="165" /><text fill="#4ade80" font-family="Arial" font-size="10" font-weight="bold" text-anchor="middle" x="255.0" y="183.5">BLOOM SOFC #2</text><text fill="#4ade80" font-family="Arial" font-size="9" font-weight="normal" text-anchor="middle" x="255.0" y="196.5">1.03 MW | 800V DC Direct</text><text fill="#4ade80" font-family="Arial" font-size="9" font-weight="normal" text-anchor="middle" x="255.0" y="209.5">N+1 REDUNDANT</text><text fill="#4ade80" font-family="Arial" font-size="9" font-weight="normal" text-anchor="middle" x="255.0" y="222.5">Maintenance Spare</text><text fill="#6b7280" font-family="Arial" font-size="7" text-anchor="middle" x="255.0" y="226">Either offline = no impact</text></g><g><rect fill="#2e1a1a" height="65" rx="4" ry="4" stroke="#ef4444" stroke-width="1.5" width="110" x="340" y="165" /><text fill="#ef4444" font-family="Arial" font-size="10" font-weight="bold" text-anchor="middle" x="395.0" y="183.5">DIESEL GENSET</text><text fill="#ef4444" font-family="Arial" font-size="9" font-weight="normal" text-anchor="middle" x="395.0" y="196.5">250 kW</text><text fill="#ef4444" font-family="Arial" font-size="9" font-weight="normal" text-anchor="middle" x="395.0" y="209.5">480V | Emergency</text><text fill="#ef4444" font-family="Arial" font-size="9" font-weight="normal" text-anchor="middle" x="395.0" y="222.5">Auto-Start</text><text fill="#6b7280" font-family="Arial" font-size="7" text-anchor="middle" x="395.0" y="226">Layer 3 only</text></g><g><rect fill="#1a1a00" height="65" rx="4" ry="4" stroke="#fbbf24" stroke-width="1.5" width="140" x="470" y="165" /><text fill="#fbbf24" font-family="Arial" font-size="10" font-weight="bold" text-anchor="middle" x="540.0" y="183.5">SOLAR ARRAY</text><text fill="#fbbf24" font-family="Arial" font-size="9" font-weight="normal" text-anchor="middle" x="540.0" y="196.5">30 kW Pod Roofs</text><text fill="#fbbf24" font-family="Arial" font-size="9" font-weight="normal" text-anchor="middle" x="540.0" y="209.5">First Solar Series 7 TR1</text><text fill="#fbbf24" font-family="Arial" font-size="9" font-weight="normal" text-anchor="middle" x="540.0" y="222.5">5-panel strings @ 952V</text><text fill="#6b7280" font-family="Arial" font-size="7" text-anchor="middle" x="540.0" y="226">550W panels | DC-Direct</text></g><line stroke="#22c55e" stroke-width="1.5" x1="100" x2="100" y1="230" y2="280" /><polygon fill="#22c55e" points="96,274 104,274 100,280" /><line stroke="#22c55e" stroke-width="1.5" x1="255" x2="255" y1="230" y2="280" /><polygon fill="#22c55e" points="251,274 259,274 255,280" /><line stroke="#ef4444" stroke-width="1.5" x1="395" x2="395" y1="230" y2="280" /><polygon fill="#ef4444" points="391,274 399,274 395,280" /><g><rect fill="#1a1a2e" height="50" rx="4" ry="4" stroke="#22c55e" stroke-width="1.5" width="300" x="30" y="280" /><text fill="#86efac" font-family="Arial" font-size="10" font-weight="bold" text-anchor="middle" x="180.0" y="297.5">PARALLELING SWITCHGEAR + ATS</text><text fill="#86efac" font-family="Arial" font-size="9" font-weight="normal" text-anchor="middle" x="180.0" y="310.5">Cat Genset Controls | Auto-Sync | Emergency Only</text><text fill="#86efac" font-family="Arial" font-size="9" font-weight="normal" text-anchor="middle" x="180.0" y="323.5">Cat Genset emergency path only | 480V AC bus</text><text fill="#6b7280" font-family="Arial" font-size="7" text-anchor="middle" x="180.0" y="326">Automatic load balancing</text></g><g><rect fill="#1a1a2e" height="50" rx="4" ry="4" stroke="#ef4444" stroke-width="1.5" width="110" x="345" y="280" /><text fill="#fca5a5" font-family="Arial" font-size="10" font-weight="bold" text-anchor="middle" x="400.0" y="291.0">EMERGENCY</text><text fill="#fca5a5" font-family="Arial" font-size="9" font-weight="normal" text-anchor="middle" x="400.0" y="304.0">ATS</text><text fill="#fca5a5" font-family="Arial" font-size="9" font-weight="normal" text-anchor="middle" x="400.0" y="317.0">Diesel Auto</text><text fill="#fca5a5" font-family="Arial" font-size="9" font-weight="normal" text-anchor="middle" x="400.0" y="330.0">Transfer</text></g><line stroke="#fbbf24" stroke-width="1.5" x1="540" x2="540" y1="230" y2="280" /><polygon fill="#fbbf24" points="536,274 544,274 540,280" /><g><rect fill="#1a1a2e" height="50" rx="4" ry="4" stroke="#fbbf24" stroke-width="1.5" width="110" x="480" y="280" /><text fill="#fbbf24" font-family="Arial" font-size="10" font-weight="bold" text-anchor="middle" x="535.0" y="291.0">SOLAR</text><text fill="#fbbf24" font-family="Arial" font-size="9" font-weight="normal" text-anchor="middle" x="535.0" y="304.0">COMBINER</text><text fill="#fbbf24" font-family="Arial" font-size="9" font-weight="normal" text-anchor="middle" x="535.0" y="317.0">BOX</text><text fill="#fbbf24" font-family="Arial" font-size="9" font-weight="normal" text-anchor="middle" x="535.0" y="330.0">String Fusing</text></g><line stroke="#ef4444" stroke-width="1.5" x1="685" x2="685" y1="130" y2="305" /><line stroke="#ef4444" stroke-width="1.5" x1="620" x2="685" y1="305" y2="305" /><text fill="#ef4444" font-family="Arial" font-size="7" x="625" y="300">BACKUP ONLY</text><text fill="#ef4444" font-family="Arial" font-size="6" x="625" y="310">NOT PRIMARY</text><line stroke="#ff6b35" stroke-width="1.5" x1="180" x2="180" y1="330" y2="375" /><polygon fill="#ff6b35" points="176,369 184,369 180,375" /><line stroke="#ff6b35" stroke-width="1.5" x1="400" x2="400" y1="330" y2="375" /><polygon fill="#ff6b35" points="396,369 404,369 400,375" /><line stroke="#ff6b35" stroke-width="1.5" x1="535" x2="535" y1="330" y2="375" /><polygon fill="#ff6b35" points="531,369 539,369 535,375" /><rect fill="#ff6b35" height="6" rx="2" width="680" x="30" y="372" /><text fill="#ff6b35" font-family="Arial" font-size="10" font-weight="bold" text-anchor="middle" x="370" y="365">480V AC EMERGENCY BUS (Cat Genset Only)</text><line stroke="#ff6b35" stroke-width="1.5" x1="150" x2="150" y1="378" y2="415" /><polygon fill="#ff6b35" points="146,409 154,409 150,415" /><line stroke="#ff6b35" stroke-width="1.5" x1="370" x2="370" y1="378" y2="415" /><polygon fill="#ff6b35" points="366,409 374,409 370,415" /><g><rect fill="#1a1a2e" height="55" rx="4" ry="4" stroke="#8b5cf6" stroke-width="1.5" width="200" x="60" y="415" /><text fill="#c4b5fd" font-family="Arial" font-size="10" font-weight="bold" text-anchor="middle" x="160.0" y="435.0">EATON BEAM RUBIN DSX</text><text fill="#c4b5fd" font-family="Arial" font-size="9" font-weight="normal" text-anchor="middle" x="160.0" y="448.0">ORV3 Sidecar | ABB SACE Infinitus</text><text fill="#c4b5fd" font-family="Arial" font-size="9" font-weight="normal" text-anchor="middle" x="160.0" y="461.0">480V AC -&gt; 800V DC #1</text><text fill="#6b7280" font-family="Arial" font-size="7" text-anchor="middle" x="160.0" y="466">96%+ Efficiency</text></g><g><rect fill="#1a1a2e" height="55" rx="4" ry="4" stroke="#8b5cf6" stroke-width="1.5" width="200" x="290" y="415" /><text fill="#c4b5fd" font-family="Arial" font-size="10" font-weight="bold" text-anchor="middle" x="390.0" y="435.0">EATON BEAM RUBIN DSX</text><text fill="#c4b5fd" font-family="Arial" font-size="9" font-weight="normal" text-anchor="middle" x="390.0" y="448.0">ORV3 Sidecar | ABB SACE Infinitus</text><text fill="#c4b5fd" font-family="Arial" font-size="9" font-weight="normal" text-anchor="middle" x="390.0" y="461.0">480V AC -&gt; 800V DC #2</text><text fill="#6b7280" font-family="Arial" font-size="7" text-anchor="middle" x="390.0" y="466">N+1 Redundant</text></g><polyline fill="none" points="535,330 535,340 570,340 570,415" stroke="#fbbf24" stroke-width="2" /><g><rect fill="#1a1a2e" height="55" rx="4" ry="4" stroke="#fbbf24" stroke-width="1.5" width="170" x="520" y="415" /><text fill="#fbbf24" font-family="Arial" font-size="10" font-weight="bold" text-anchor="middle" x="605.0" y="428.5">DC-DC BUCK</text><text fill="#fbbf24" font-family="Arial" font-size="9" font-weight="normal" text-anchor="middle" x="605.0" y="441.5">CONVERTER</text><text fill="#fbbf24" font-family="Arial" font-size="9" font-weight="normal" text-anchor="middle" x="605.0" y="454.5">952V -&gt; 800V Bus</text><text fill="#fbbf24" font-family="Arial" font-size="9" font-weight="normal" text-anchor="middle" x="605.0" y="467.5">97% Efficiency</text><text fill="#6b7280" font-family="Arial" font-size="7" text-anchor="middle" x="605.0" y="466">Solar DC-Direct</text></g><line stroke="#8b5cf6" stroke-width="1.5" x1="160" x2="160" y1="470" y2="515" /><polygon fill="#8b5cf6" points="156,509 164,509 160,515" /><line stroke="#8b5cf6" stroke-width="1.5" x1="390" x2="390" y1="470" y2="515" /><polygon fill="#8b5cf6" points="386,509 394,509 390,515" /><line stroke="#8b5cf6" stroke-width="1.5" x1="605" x2="605" y1="470" y2="515" /><polygon fill="#8b5cf6" points="601,509 609,509 605,515" /><rect fill="#8b5cf6" height="6" rx="2" width="680" x="30" y="512" /><text fill="#8b5cf6" font-family="Arial" font-size="10" font-weight="bold" text-anchor="middle" x="370" y="505">800V DC MAIN DISTRIBUTION BUS — NVIDIA DSX REFERENCE</text><line stroke="#8b5cf6" stroke-width="1.5" x1="80" x2="80" y1="518" y2="530" /><g><rect fill="#1a1a2e" height="50" rx="4" ry="4" stroke="#3b82f6" stroke-width="1.5" width="100" x="30" y="530" /><text fill="#93c5fd" font-family="Arial" font-size="10" font-weight="bold" text-anchor="middle" x="80.0" y="541.0">LFP BATTERY</text><text fill="#93c5fd" font-family="Arial" font-size="9" font-weight="normal" text-anchor="middle" x="80.0" y="554.0">BESS 600 kWh</text><text fill="#93c5fd" font-family="Arial" font-size="9" font-weight="normal" text-anchor="middle" x="80.0" y="567.0">800V DC Native</text><text fill="#93c5fd" font-family="Arial" font-size="9" font-weight="normal" text-anchor="middle" x="80.0" y="580.0">Ride-through</text><text fill="#6b7280" font-family="Arial" font-size="7" text-anchor="middle" x="80.0" y="720">Ride-through + bridge</text></g><line stroke="#8b5cf6" stroke-width="1.5" x1="200" x2="200" y1="518" y2="540" /><polygon fill="#8b5cf6" points="196,534 204,534 200,540" /><g><rect fill="#1a1a2e" height="28" rx="4" ry="4" stroke="#8b5cf6" stroke-width="1.5" width="80" x="160" y="540" /><text fill="#c4b5fd" font-family="Arial" font-size="7" font-weight="bold" text-anchor="middle" x="200.0" y="553.0">BUSWAY</text><text fill="#c4b5fd" font-family="Arial" font-size="6" font-weight="normal" text-anchor="middle" x="200.0" y="566.0">F1 R1-2</text></g><line stroke="#8b5cf6" stroke-width="1.5" x1="200" x2="200" y1="568" y2="575" /><polygon fill="#8b5cf6" points="196,569 204,569 200,575" /><g><rect fill="#1a1a2e" height="28" rx="4" ry="4" stroke="#00bcd4" stroke-width="1.5" width="80" x="160" y="575" /><text fill="#00e5ff" font-family="Arial" font-size="7" font-weight="bold" text-anchor="middle" x="200.0" y="588.0">DELTA 660 kW</text><text fill="#00e5ff" font-family="Arial" font-size="6" font-weight="normal" text-anchor="middle" x="200.0" y="601.0">480 kW BBU</text></g><line stroke="#00bcd4" stroke-width="1.5" x1="200" x2="200" y1="603" y2="610" /><polygon fill="#00bcd4" points="196,604 204,604 200,610" /><g><rect fill="#1a1a2e" height="28" rx="4" ry="4" stroke="#00bcd4" stroke-width="1.5" width="80" x="160" y="610" /><text fill="#00e5ff" font-family="Arial" font-size="7" font-weight="bold" text-anchor="middle" x="200.0" y="623.0">e-FUSE &lt;3us</text><text fill="#00e5ff" font-family="Arial" font-size="6" font-weight="normal" text-anchor="middle" x="200.0" y="636.0">90kW 800V-&gt;50V</text></g><line stroke="#00bcd4" stroke-width="1.5" x1="200" x2="200" y1="638" y2="645" /><polygon fill="#00bcd4" points="196,639 204,639 200,645" /><g><rect fill="#1a1a2e" height="24" rx="4" ry="4" stroke="#76b900" stroke-width="1.5" width="70" x="165" y="645" /><text fill="#76b900" font-family="Arial" font-size="7" font-weight="bold" text-anchor="middle" x="200.0" y="656.0">TI GaN + Infineon</text><text fill="#76b900" font-family="Arial" font-size="6" font-weight="normal" text-anchor="middle" x="200.0" y="669.0">CoolGaN 800V-&gt;6V</text></g><line stroke="#76b900" stroke-width="1.5" x1="200" x2="200" y1="669" y2="675" /><polygon fill="#76b900" points="196,669 204,669 200,675" /><line stroke="#8b5cf6" stroke-width="1.5" x1="350" x2="350" y1="518" y2="540" /><polygon fill="#8b5cf6" points="346,534 354,534 350,540" /><g><rect fill="#1a1a2e" height="28" rx="4" ry="4" stroke="#8b5cf6" stroke-width="1.5" width="80" x="310" y="540" /><text fill="#c4b5fd" font-family="Arial" font-size="7" font-weight="bold" text-anchor="middle" x="350.0" y="553.0">BUSWAY</text><text fill="#c4b5fd" font-family="Arial" font-size="6" font-weight="normal" text-anchor="middle" x="350.0" y="566.0">F1 R3-4</text></g><line stroke="#8b5cf6" stroke-width="1.5" x1="350" x2="350" y1="568" y2="575" /><polygon fill="#8b5cf6" points="346,569 354,569 350,575" /><g><rect fill="#1a1a2e" height="28" rx="4" ry="4" stroke="#00bcd4" stroke-width="1.5" width="80" x="310" y="575" /><text fill="#00e5ff" font-family="Arial" font-size="7" font-weight="bold" text-anchor="middle" x="350.0" y="588.0">DELTA 660 kW</text><text fill="#00e5ff" font-family="Arial" font-size="6" font-weight="normal" text-anchor="middle" x="350.0" y="601.0">480 kW BBU</text></g><line stroke="#00bcd4" stroke-width="1.5" x1="350" x2="350" y1="603" y2="610" /><polygon fill="#00bcd4" points="346,604 354,604 350,610" /><g><rect fill="#1a1a2e" height="28" rx="4" ry="4" stroke="#00bcd4" stroke-width="1.5" width="80" x="310" y="610" /><text fill="#00e5ff" font-family="Arial" font-size="7" font-weight="bold" text-anchor="middle" x="350.0" y="623.0">e-FUSE &lt;3us</text><text fill="#00e5ff" font-family="Arial" font-size="6" font-weight="normal" text-anchor="middle" x="350.0" y="636.0">90kW 800V-&gt;50V</text></g><line stroke="#00bcd4" stroke-width="1.5" x1="350" x2="350" y1="638" y2="645" /><polygon fill="#00bcd4" points="346,639 354,639 350,645" /><g><rect fill="#1a1a2e" height="24" rx="4" ry="4" stroke="#76b900" stroke-width="1.5" width="70" x="315" y="645" /><text fill="#76b900" font-family="Arial" font-size="7" font-weight="bold" text-anchor="middle" x="350.0" y="656.0">TI GaN + Infineon</text><text fill="#76b900" font-family="Arial" font-size="6" font-weight="normal" text-anchor="middle" x="350.0" y="669.0">CoolGaN 800V-&gt;6V</text></g><line stroke="#76b900" stroke-width="1.5" x1="350" x2="350" y1="669" y2="675" /><polygon fill="#76b900" points="346,669 354,669 350,675" /><g><rect fill="#111a00" height="45" rx="4" ry="4" stroke="#76b900" stroke-width="1.5" width="100" x="150" y="675" /><text fill="#76b900" font-family="Arial" font-size="9" font-weight="bold" text-anchor="middle" x="200.0" y="690.0">FLOOR 1</text><text fill="#76b900" font-family="Arial" font-size="8" font-weight="normal" text-anchor="middle" x="200.0" y="703.0">RACKS 1-4</text><text fill="#76b900" font-family="Arial" font-size="8" font-weight="normal" text-anchor="middle" x="200.0" y="716.0">520 kW</text><text fill="#6b7280" font-family="Arial" font-size="7" text-anchor="middle" x="200.0" y="716">5x NVL72 | Liquid Cooled</text></g><g><rect fill="#111a00" height="45" rx="4" ry="4" stroke="#76b900" stroke-width="1.5" width="100" x="300" y="675" /><text fill="#76b900" font-family="Arial" font-size="9" font-weight="bold" text-anchor="middle" x="350.0" y="690.0">FLOOR 1</text><text fill="#76b900" font-family="Arial" font-size="8" font-weight="normal" text-anchor="middle" x="350.0" y="703.0">(continued)</text><text fill="#76b900" font-family="Arial" font-size="8" font-weight="normal" text-anchor="middle" x="350.0" y="716.0">288 GPUs</text><text fill="#6b7280" font-family="Arial" font-size="7" text-anchor="middle" x="350.0" y="716">System 1 | CDU Pair</text></g><line stroke="#8b5cf6" stroke-width="1.5" x1="500" x2="500" y1="518" y2="540" /><polygon fill="#8b5cf6" points="496,534 504,534 500,540" /><g><rect fill="#1a1a2e" height="28" rx="4" ry="4" stroke="#8b5cf6" stroke-width="1.5" width="80" x="460" y="540" /><text fill="#c4b5fd" font-family="Arial" font-size="7" font-weight="bold" text-anchor="middle" x="500.0" y="553.0">BUSWAY</text><text fill="#c4b5fd" font-family="Arial" font-size="6" font-weight="normal" text-anchor="middle" x="500.0" y="566.0">F2 R5-6</text></g><line stroke="#8b5cf6" stroke-width="1.5" x1="500" x2="500" y1="568" y2="575" /><polygon fill="#8b5cf6" points="496,569 504,569 500,575" /><g><rect fill="#1a1a2e" height="28" rx="4" ry="4" stroke="#00bcd4" stroke-width="1.5" width="80" x="460" y="575" /><text fill="#00e5ff" font-family="Arial" font-size="7" font-weight="bold" text-anchor="middle" x="500.0" y="588.0">DELTA 660 kW</text><text fill="#00e5ff" font-family="Arial" font-size="6" font-weight="normal" text-anchor="middle" x="500.0" y="601.0">480 kW BBU</text></g><line stroke="#00bcd4" stroke-width="1.5" x1="500" x2="500" y1="603" y2="610" /><polygon fill="#00bcd4" points="496,604 504,604 500,610" /><g><rect fill="#1a1a2e" height="28" rx="4" ry="4" stroke="#00bcd4" stroke-width="1.5" width="80" x="460" y="610" /><text fill="#00e5ff" font-family="Arial" font-size="7" font-weight="bold" text-anchor="middle" x="500.0" y="623.0">e-FUSE &lt;3us</text><text fill="#00e5ff" font-family="Arial" font-size="6" font-weight="normal" text-anchor="middle" x="500.0" y="636.0">90kW 800V-&gt;50V</text></g><line stroke="#00bcd4" stroke-width="1.5" x1="500" x2="500" y1="638" y2="645" /><polygon fill="#00bcd4" points="496,639 504,639 500,645" /><g><rect fill="#1a1a2e" height="24" rx="4" ry="4" stroke="#76b900" stroke-width="1.5" width="70" x="465" y="645" /><text fill="#76b900" font-family="Arial" font-size="7" font-weight="bold" text-anchor="middle" x="500.0" y="656.0">TI GaN + Infineon</text><text fill="#76b900" font-family="Arial" font-size="6" font-weight="normal" text-anchor="middle" x="500.0" y="669.0">CoolGaN 800V-&gt;6V</text></g><line stroke="#76b900" stroke-width="1.5" x1="500" x2="500" y1="669" y2="675" /><polygon fill="#76b900" points="496,669 504,669 500,675" /><line stroke="#8b5cf6" stroke-width="1.5" x1="640" x2="640" y1="518" y2="540" /><polygon fill="#8b5cf6" points="636,534 644,534 640,540" /><g><rect fill="#1a1a2e" height="28" rx="4" ry="4" stroke="#8b5cf6" stroke-width="1.5" width="80" x="600" y="540" /><text fill="#c4b5fd" font-family="Arial" font-size="7" font-weight="bold" text-anchor="middle" x="640.0" y="553.0">BUSWAY</text><text fill="#c4b5fd" font-family="Arial" font-size="6" font-weight="normal" text-anchor="middle" x="640.0" y="566.0">F2 R7-8</text></g><line stroke="#8b5cf6" stroke-width="1.5" x1="640" x2="640" y1="568" y2="575" /><polygon fill="#8b5cf6" points="636,569 644,569 640,575" /><g><rect fill="#1a1a2e" height="28" rx="4" ry="4" stroke="#00bcd4" stroke-width="1.5" width="80" x="600" y="575" /><text fill="#00e5ff" font-family="Arial" font-size="7" font-weight="bold" text-anchor="middle" x="640.0" y="588.0">DELTA 660 kW</text><text fill="#00e5ff" font-family="Arial" font-size="6" font-weight="normal" text-anchor="middle" x="640.0" y="601.0">480 kW BBU</text></g><line stroke="#00bcd4" stroke-width="1.5" x1="640" x2="640" y1="603" y2="610" /><polygon fill="#00bcd4" points="636,604 644,604 640,610" /><g><rect fill="#1a1a2e" height="28" rx="4" ry="4" stroke="#00bcd4" stroke-width="1.5" width="80" x="600" y="610" /><text fill="#00e5ff" font-family="Arial" font-size="7" font-weight="bold" text-anchor="middle" x="640.0" y="623.0">e-FUSE &lt;3us</text><text fill="#00e5ff" font-family="Arial" font-size="6" font-weight="normal" text-anchor="middle" x="640.0" y="636.0">90kW 800V-&gt;50V</text></g><line stroke="#00bcd4" stroke-width="1.5" x1="640" x2="640" y1="638" y2="645" /><polygon fill="#00bcd4" points="636,639 644,639 640,645" /><g><rect fill="#1a1a2e" height="24" rx="4" ry="4" stroke="#76b900" stroke-width="1.5" width="70" x="605" y="645" /><text fill="#76b900" font-family="Arial" font-size="7" font-weight="bold" text-anchor="middle" x="640.0" y="656.0">TI GaN + Infineon</text><text fill="#76b900" font-family="Arial" font-size="6" font-weight="normal" text-anchor="middle" x="640.0" y="669.0">CoolGaN 800V-&gt;6V</text></g><line stroke="#76b900" stroke-width="1.5" x1="640" x2="640" y1="669" y2="675" /><polygon fill="#76b900" points="636,669 644,669 640,675" /><g><rect fill="#111a00" height="45" rx="4" ry="4" stroke="#76b900" stroke-width="1.5" width="100" x="450" y="675" /><text fill="#76b900" font-family="Arial" font-size="9" font-weight="bold" text-anchor="middle" x="500.0" y="690.0">FLOOR 2</text><text fill="#76b900" font-family="Arial" font-size="8" font-weight="normal" text-anchor="middle" x="500.0" y="703.0">RACKS 5-8</text><text fill="#76b900" font-family="Arial" font-size="8" font-weight="normal" text-anchor="middle" x="500.0" y="716.0">520 kW</text><text fill="#6b7280" font-family="Arial" font-size="7" text-anchor="middle" x="500.0" y="716">5x NVL72 | Liquid Cooled</text></g><g><rect fill="#111a00" height="45" rx="4" ry="4" stroke="#76b900" stroke-width="1.5" width="100" x="590" y="675" /><text fill="#76b900" font-family="Arial" font-size="9" font-weight="bold" text-anchor="middle" x="640.0" y="690.0">FLOOR 2</text><text fill="#76b900" font-family="Arial" font-size="8" font-weight="normal" text-anchor="middle" x="640.0" y="703.0">(continued)</text><text fill="#76b900" font-family="Arial" font-size="8" font-weight="normal" text-anchor="middle" x="640.0" y="716.0">288 GPUs</text><text fill="#6b7280" font-family="Arial" font-size="7" text-anchor="middle" x="640.0" y="716">System 2 | CDU Pair</text></g><rect fill="#111318" height="960" rx="8" stroke="#1e2230" stroke-width="1" width="590" x="780" y="75" /><text fill="#f0f2f5" font-family="Arial" font-size="12" font-weight="bold" text-anchor="middle" x="1075" y="95">4-LAYER POWER HIERARCHY — MARLIE 1</text><text fill="#ef4444" font-family="Arial" font-size="9" font-weight="bold" text-anchor="middle" x="1075" y="110">(DIFFERENT from Trappeys — Grid is BACKUP here, not sell-back)</text><rect fill="#111318" height="25" rx="4" stroke="#fbbf24" stroke-width="1" width="560" x="795" y="125" /><text fill="#fbbf24" font-family="Arial" font-size="11" font-weight="bold" x="805" y="141">LAYER 1: SOLAR</text><text fill="#fbbf24" font-family="Arial" font-size="8" font-weight="bold" text-anchor="end" x="1350" y="141">PRIMARY OFFSET</text><text fill="#9ca3af" font-family="Arial" font-size="8" x="810" y="163">  300 kW rooftop on 24x40 building</text><text fill="#9ca3af" font-family="Arial" font-size="8" x="810" y="176">  First Solar Series 7 TR1 (550W) panels</text><text fill="#9ca3af" font-family="Arial" font-size="8" x="810" y="189">  DC-Direct to 800V bus (97% eff)</text><text fill="#9ca3af" font-family="Arial" font-size="8" x="810" y="202">  Small scale but meaningful offset (~24%)</text><text fill="#9ca3af" font-family="Arial" font-size="8" x="810" y="215">  LFP BATTERY BESS (600 kWh) battery bridge</text><text fill="#9ca3af" font-family="Arial" font-size="8" x="810" y="228">  Made 30 miles away in New Iberia, LA</text><rect fill="#111318" height="25" rx="4" stroke="#22c55e" stroke-width="1" width="560" x="795" y="248" /><text fill="#22c55e" font-family="Arial" font-size="11" font-weight="bold" x="805" y="264">LAYER 2: NATURAL GAS</text><text fill="#22c55e" font-family="Arial" font-size="8" font-weight="bold" text-anchor="end" x="1350" y="264">BACKBONE — ALWAYS RUNNING</text><text fill="#9ca3af" font-family="Arial" font-size="8" x="810" y="286">  Bloom Energy SOFC fuel cells (1.03 MW each, 800V DC Direct)</text><text fill="#9ca3af" font-family="Arial" font-size="8" x="810" y="299">  2 units: 2.06 MW total (N+1 redundant)</text><text fill="#9ca3af" font-family="Arial" font-size="8" x="810" y="312">  ATMOS Energy gas on property</text><text fill="#9ca3af" font-family="Arial" font-size="8" x="810" y="325">  Henry Hub 40 miles — cheapest in USA</text><text fill="#9ca3af" font-family="Arial" font-size="8" x="810" y="338">  800V DC Direct output to 800V DC bus (no inverter, no AC stage)</text><text fill="#9ca3af" font-family="Arial" font-size="8" x="810" y="351">  Carries FULL load 24/7/365</text><text fill="#9ca3af" font-family="Arial" font-size="8" x="810" y="364">  ~60% load per unit (1.24 MW on 2.06 MW)</text><rect fill="#111318" height="25" rx="4" stroke="#ef4444" stroke-width="1" width="560" x="795" y="384" /><text fill="#ef4444" font-family="Arial" font-size="11" font-weight="bold" x="805" y="400">LAYER 3: DIESEL</text><text fill="#ef4444" font-family="Arial" font-size="8" font-weight="bold" text-anchor="end" x="1350" y="400">EMERGENCY ONLY</text><text fill="#9ca3af" font-family="Arial" font-size="8" x="810" y="422">  Diesel emergency generator (250 kW)</text><text fill="#9ca3af" font-family="Arial" font-size="8" x="810" y="435">  On-site fuel storage (2,000 gal)</text><text fill="#9ca3af" font-family="Arial" font-size="8" x="810" y="448">  Auto-start on dual gas failure</text><text fill="#9ca3af" font-family="Arial" font-size="8" x="810" y="461">  Pipeline-independent fuel source</text><text fill="#9ca3af" font-family="Arial" font-size="8" x="810" y="474">  Bridges until gas restored</text><text fill="#9ca3af" font-family="Arial" font-size="8" x="810" y="487">  Required for NVIDIA certification</text><rect fill="#111318" height="25" rx="4" stroke="#ef4444" stroke-width="1" width="560" x="795" y="507" /><text fill="#ef4444" font-family="Arial" font-size="11" font-weight="bold" x="805" y="523">LAYER 4: GRID (LUS + SLEMCO)</text><text fill="#ef4444" font-family="Arial" font-size="8" font-weight="bold" text-anchor="end" x="1350" y="523">BACKUP ONLY — NOT SELL-BACK</text><text fill="#9ca3af" font-family="Arial" font-size="8" x="810" y="545">  Lafayette Utilities System (LUS)</text><text fill="#9ca3af" font-family="Arial" font-size="8" x="810" y="558">  SLEMCO dual feed available</text><text fill="#9ca3af" font-family="Arial" font-size="8" x="810" y="571">  3-phase power confirmed on site</text><text fill="#9ca3af" font-family="Arial" font-size="8" x="810" y="584">  BACKUP power source (unlike Trappeys)</text><text fill="#9ca3af" font-family="Arial" font-size="8" x="810" y="597">  NOT sell-back — grid supports building</text><text fill="#9ca3af" font-family="Arial" font-size="8" x="810" y="610">  Cloudy day + gas down = grid bridges</text><text fill="#9ca3af" font-family="Arial" font-size="8" x="810" y="623">  Industrial corridor = reliable service</text><rect fill="#1a0a0a" height="60" rx="6" stroke="#ef4444" stroke-width="1.5" width="560" x="795" y="653" /><text fill="#ef4444" font-family="Arial" font-size="10" font-weight="bold" text-anchor="middle" x="1075" y="671">KEY DIFFERENCE: MARLIE 1 vs TRAPPEYS/WILLOW GLEN</text><text fill="#fca5a5" font-family="Arial" font-size="8" x="810" y="688">Trappeys/Willow Glen: Grid = SELL-BACK only (Layer 4 revenue)</text><text fill="#fca5a5" font-family="Arial" font-size="8" x="810" y="703">MARLIE 1: Grid = BACKUP power (Layer 4 safety net) — smaller facility, grid supports ops</text><rect fill="#111318" height="40" rx="6" stroke="#1e2230" width="1340" x="30" y="1060" /><text fill="#6b7280" font-family="Arial" font-size="7" font-weight="bold" x="55" y="1074">GAS GENERATION</text><text fill="#3b82f6" font-family="Arial" font-size="10" font-weight="bold" x="55" y="1088">2.06 MW (N+1)</text><text fill="#6b7280" font-family="Arial" font-size="7" font-weight="bold" x="245" y="1074">SOLAR</text><text fill="#3b82f6" font-family="Arial" font-size="10" font-weight="bold" x="245" y="1088">30 kW Pod Roofs</text><text fill="#6b7280" font-family="Arial" font-size="7" font-weight="bold" x="435" y="1074">IT LOAD</text><text fill="#3b82f6" font-family="Arial" font-size="10" font-weight="bold" x="435" y="1088">1,300 kW</text><text fill="#6b7280" font-family="Arial" font-size="7" font-weight="bold" x="625" y="1074">TOTAL FACILITY</text><text fill="#3b82f6" font-family="Arial" font-size="10" font-weight="bold" x="625" y="1088">~1,240 kW</text><text fill="#6b7280" font-family="Arial" font-size="7" font-weight="bold" x="815" y="1074">GENSET LOAD</text><text fill="#3b82f6" font-family="Arial" font-size="10" font-weight="bold" x="815" y="1088">~60% each</text><text fill="#6b7280" font-family="Arial" font-size="7" font-weight="bold" x="1005" y="1074">RACKS</text><text fill="#3b82f6" font-family="Arial" font-size="10" font-weight="bold" x="1005" y="1088">10 NVL72</text><text fill="#6b7280" font-family="Arial" font-size="7" font-weight="bold" x="1195" y="1074">GPUs</text><text fill="#3b82f6" font-family="Arial" font-size="10" font-weight="bold" x="1195" y="1088">720</text><text fill="#4b5563" font-family="Arial" font-size="7" x="35" y="1115">1. Gas is BACKBONE (Layer 2) — always running, carries full facility load. Solar offsets but does not replace gas.</text><text fill="#4b5563" font-family="Arial" font-size="7" x="35" y="1127">2. Grid (LUS + SLEMCO) is BACKUP (Layer 4) — different from Trappeys where grid is sell-back only.</text><text fill="#4b5563" font-family="Arial" font-size="7" x="35" y="1139">3. DUAL POWER STACK: Eaton (facility) + Delta (rack). Delta 660 kW Rack (6x 110 kW, 480 kW BBU). e-Fuse SiC &lt;3 us. 90 kW DC/DC 800V-&gt;50V MGX.</text><text fill="#4b5563" font-family="Arial" font-size="7" x="35" y="1151">4. N+1 redundancy: 2x Bloom Energy SOFC (1.03 MW each, 800V DC Direct) for 1.24 MW load. Either unit offline = zero impact.</text><text fill="#4b5563" font-family="Arial" font-size="7" x="35" y="1163">5. Solar DC-Direct: First Solar Series 7 TR1, buck to 800V bus at 97% eff. Eaton BESS 600 kWh ride-through.</text><text fill="#4b5563" font-family="Arial" font-size="7" x="35" y="1175">6. All equipment American-made. Complete power chain: generator -&gt; Eaton rectifier -&gt; Delta rack power -&gt; NVIDIA GPU.</text></svg>